G04 EAGLE Gerber RS-274X export*
G75*
%MOMM*%
%FSLAX34Y34*%
%LPD*%
%INSoldermask Bottom*%
%IPPOS*%
%AMOC8*
5,1,8,0,0,1.08239X$1,22.5*%
G01*
%ADD10C,0.228344*%
%ADD11C,2.006600*%
%ADD12C,0.762000*%
%ADD13C,3.175000*%
%ADD14C,0.228600*%
%ADD15C,0.777000*%
%ADD16C,1.397000*%
%ADD17C,1.127000*%
%ADD18C,1.270000*%
%ADD19C,1.627000*%

G36*
X534735Y873772D02*
X534735Y873772D01*
X534801Y873774D01*
X534844Y873792D01*
X534891Y873800D01*
X534948Y873834D01*
X535008Y873859D01*
X535043Y873890D01*
X535084Y873915D01*
X535126Y873966D01*
X535174Y874010D01*
X535196Y874052D01*
X535225Y874089D01*
X535246Y874151D01*
X535277Y874210D01*
X535285Y874264D01*
X535297Y874301D01*
X535296Y874341D01*
X535304Y874395D01*
X535304Y878205D01*
X535293Y878270D01*
X535291Y878336D01*
X535273Y878379D01*
X535265Y878426D01*
X535231Y878483D01*
X535206Y878543D01*
X535175Y878578D01*
X535150Y878619D01*
X535099Y878661D01*
X535055Y878709D01*
X535013Y878731D01*
X534976Y878760D01*
X534914Y878781D01*
X534855Y878812D01*
X534801Y878820D01*
X534764Y878832D01*
X534724Y878831D01*
X534670Y878839D01*
X532130Y878839D01*
X532065Y878828D01*
X531999Y878826D01*
X531956Y878808D01*
X531909Y878800D01*
X531852Y878766D01*
X531792Y878741D01*
X531757Y878710D01*
X531716Y878685D01*
X531675Y878634D01*
X531626Y878590D01*
X531604Y878548D01*
X531575Y878511D01*
X531554Y878449D01*
X531523Y878390D01*
X531515Y878336D01*
X531503Y878299D01*
X531503Y878295D01*
X531503Y878294D01*
X531504Y878259D01*
X531496Y878205D01*
X531496Y874395D01*
X531507Y874330D01*
X531509Y874264D01*
X531527Y874221D01*
X531535Y874174D01*
X531569Y874117D01*
X531594Y874057D01*
X531625Y874022D01*
X531650Y873981D01*
X531701Y873940D01*
X531745Y873891D01*
X531787Y873869D01*
X531824Y873840D01*
X531886Y873819D01*
X531945Y873788D01*
X531999Y873780D01*
X532036Y873768D01*
X532076Y873769D01*
X532130Y873761D01*
X534670Y873761D01*
X534735Y873772D01*
G37*
G36*
X97855Y873772D02*
X97855Y873772D01*
X97921Y873774D01*
X97964Y873792D01*
X98011Y873800D01*
X98068Y873834D01*
X98128Y873859D01*
X98163Y873890D01*
X98204Y873915D01*
X98246Y873966D01*
X98294Y874010D01*
X98316Y874052D01*
X98345Y874089D01*
X98366Y874151D01*
X98397Y874210D01*
X98405Y874264D01*
X98417Y874301D01*
X98416Y874341D01*
X98424Y874395D01*
X98424Y878205D01*
X98413Y878270D01*
X98411Y878336D01*
X98393Y878379D01*
X98385Y878426D01*
X98351Y878483D01*
X98326Y878543D01*
X98295Y878578D01*
X98270Y878619D01*
X98219Y878661D01*
X98175Y878709D01*
X98133Y878731D01*
X98096Y878760D01*
X98034Y878781D01*
X97975Y878812D01*
X97921Y878820D01*
X97884Y878832D01*
X97844Y878831D01*
X97790Y878839D01*
X95250Y878839D01*
X95185Y878828D01*
X95119Y878826D01*
X95076Y878808D01*
X95029Y878800D01*
X94972Y878766D01*
X94912Y878741D01*
X94877Y878710D01*
X94836Y878685D01*
X94795Y878634D01*
X94746Y878590D01*
X94724Y878548D01*
X94695Y878511D01*
X94674Y878449D01*
X94643Y878390D01*
X94635Y878336D01*
X94623Y878299D01*
X94623Y878295D01*
X94623Y878294D01*
X94624Y878259D01*
X94616Y878205D01*
X94616Y874395D01*
X94627Y874330D01*
X94629Y874264D01*
X94647Y874221D01*
X94655Y874174D01*
X94689Y874117D01*
X94714Y874057D01*
X94745Y874022D01*
X94770Y873981D01*
X94821Y873940D01*
X94865Y873891D01*
X94907Y873869D01*
X94944Y873840D01*
X95006Y873819D01*
X95065Y873788D01*
X95119Y873780D01*
X95156Y873768D01*
X95196Y873769D01*
X95250Y873761D01*
X97790Y873761D01*
X97855Y873772D01*
G37*
G36*
X534735Y863612D02*
X534735Y863612D01*
X534801Y863614D01*
X534844Y863632D01*
X534891Y863640D01*
X534948Y863674D01*
X535008Y863699D01*
X535043Y863730D01*
X535084Y863755D01*
X535126Y863806D01*
X535174Y863850D01*
X535196Y863892D01*
X535225Y863929D01*
X535246Y863991D01*
X535277Y864050D01*
X535285Y864104D01*
X535297Y864141D01*
X535296Y864181D01*
X535304Y864235D01*
X535304Y868045D01*
X535293Y868110D01*
X535291Y868176D01*
X535273Y868219D01*
X535265Y868266D01*
X535231Y868323D01*
X535206Y868383D01*
X535175Y868418D01*
X535150Y868459D01*
X535099Y868501D01*
X535055Y868549D01*
X535013Y868571D01*
X534976Y868600D01*
X534914Y868621D01*
X534855Y868652D01*
X534801Y868660D01*
X534764Y868672D01*
X534724Y868671D01*
X534670Y868679D01*
X532130Y868679D01*
X532065Y868668D01*
X531999Y868666D01*
X531956Y868648D01*
X531909Y868640D01*
X531852Y868606D01*
X531792Y868581D01*
X531757Y868550D01*
X531716Y868525D01*
X531675Y868474D01*
X531626Y868430D01*
X531604Y868388D01*
X531575Y868351D01*
X531554Y868289D01*
X531523Y868230D01*
X531515Y868176D01*
X531503Y868139D01*
X531503Y868135D01*
X531503Y868134D01*
X531504Y868099D01*
X531496Y868045D01*
X531496Y864235D01*
X531507Y864170D01*
X531509Y864104D01*
X531527Y864061D01*
X531535Y864014D01*
X531569Y863957D01*
X531594Y863897D01*
X531625Y863862D01*
X531650Y863821D01*
X531701Y863780D01*
X531745Y863731D01*
X531787Y863709D01*
X531824Y863680D01*
X531886Y863659D01*
X531945Y863628D01*
X531999Y863620D01*
X532036Y863608D01*
X532076Y863609D01*
X532130Y863601D01*
X534670Y863601D01*
X534735Y863612D01*
G37*
G36*
X97855Y863612D02*
X97855Y863612D01*
X97921Y863614D01*
X97964Y863632D01*
X98011Y863640D01*
X98068Y863674D01*
X98128Y863699D01*
X98163Y863730D01*
X98204Y863755D01*
X98246Y863806D01*
X98294Y863850D01*
X98316Y863892D01*
X98345Y863929D01*
X98366Y863991D01*
X98397Y864050D01*
X98405Y864104D01*
X98417Y864141D01*
X98416Y864181D01*
X98424Y864235D01*
X98424Y868045D01*
X98413Y868110D01*
X98411Y868176D01*
X98393Y868219D01*
X98385Y868266D01*
X98351Y868323D01*
X98326Y868383D01*
X98295Y868418D01*
X98270Y868459D01*
X98219Y868501D01*
X98175Y868549D01*
X98133Y868571D01*
X98096Y868600D01*
X98034Y868621D01*
X97975Y868652D01*
X97921Y868660D01*
X97884Y868672D01*
X97844Y868671D01*
X97790Y868679D01*
X95250Y868679D01*
X95185Y868668D01*
X95119Y868666D01*
X95076Y868648D01*
X95029Y868640D01*
X94972Y868606D01*
X94912Y868581D01*
X94877Y868550D01*
X94836Y868525D01*
X94795Y868474D01*
X94746Y868430D01*
X94724Y868388D01*
X94695Y868351D01*
X94674Y868289D01*
X94643Y868230D01*
X94635Y868176D01*
X94623Y868139D01*
X94623Y868135D01*
X94623Y868134D01*
X94624Y868099D01*
X94616Y868045D01*
X94616Y864235D01*
X94627Y864170D01*
X94629Y864104D01*
X94647Y864061D01*
X94655Y864014D01*
X94689Y863957D01*
X94714Y863897D01*
X94745Y863862D01*
X94770Y863821D01*
X94821Y863780D01*
X94865Y863731D01*
X94907Y863709D01*
X94944Y863680D01*
X95006Y863659D01*
X95065Y863628D01*
X95119Y863620D01*
X95156Y863608D01*
X95196Y863609D01*
X95250Y863601D01*
X97790Y863601D01*
X97855Y863612D01*
G37*
G36*
X534735Y335292D02*
X534735Y335292D01*
X534801Y335294D01*
X534844Y335312D01*
X534891Y335320D01*
X534948Y335354D01*
X535008Y335379D01*
X535043Y335410D01*
X535084Y335435D01*
X535126Y335486D01*
X535174Y335530D01*
X535196Y335572D01*
X535225Y335609D01*
X535246Y335671D01*
X535277Y335730D01*
X535285Y335784D01*
X535297Y335821D01*
X535296Y335861D01*
X535304Y335915D01*
X535304Y339725D01*
X535293Y339790D01*
X535291Y339856D01*
X535273Y339899D01*
X535265Y339946D01*
X535231Y340003D01*
X535206Y340063D01*
X535175Y340098D01*
X535150Y340139D01*
X535099Y340181D01*
X535055Y340229D01*
X535013Y340251D01*
X534976Y340280D01*
X534914Y340301D01*
X534855Y340332D01*
X534801Y340340D01*
X534764Y340352D01*
X534724Y340351D01*
X534670Y340359D01*
X532130Y340359D01*
X532065Y340348D01*
X531999Y340346D01*
X531956Y340328D01*
X531909Y340320D01*
X531852Y340286D01*
X531792Y340261D01*
X531757Y340230D01*
X531716Y340205D01*
X531675Y340154D01*
X531626Y340110D01*
X531604Y340068D01*
X531575Y340031D01*
X531554Y339969D01*
X531523Y339910D01*
X531515Y339856D01*
X531503Y339819D01*
X531503Y339815D01*
X531503Y339814D01*
X531504Y339779D01*
X531496Y339725D01*
X531496Y335915D01*
X531507Y335850D01*
X531509Y335784D01*
X531527Y335741D01*
X531535Y335694D01*
X531569Y335637D01*
X531594Y335577D01*
X531625Y335542D01*
X531650Y335501D01*
X531701Y335460D01*
X531745Y335411D01*
X531787Y335389D01*
X531824Y335360D01*
X531886Y335339D01*
X531945Y335308D01*
X531999Y335300D01*
X532036Y335288D01*
X532076Y335289D01*
X532130Y335281D01*
X534670Y335281D01*
X534735Y335292D01*
G37*
G36*
X97855Y335292D02*
X97855Y335292D01*
X97921Y335294D01*
X97964Y335312D01*
X98011Y335320D01*
X98068Y335354D01*
X98128Y335379D01*
X98163Y335410D01*
X98204Y335435D01*
X98246Y335486D01*
X98294Y335530D01*
X98316Y335572D01*
X98345Y335609D01*
X98366Y335671D01*
X98397Y335730D01*
X98405Y335784D01*
X98417Y335821D01*
X98416Y335861D01*
X98424Y335915D01*
X98424Y339725D01*
X98413Y339790D01*
X98411Y339856D01*
X98393Y339899D01*
X98385Y339946D01*
X98351Y340003D01*
X98326Y340063D01*
X98295Y340098D01*
X98270Y340139D01*
X98219Y340181D01*
X98175Y340229D01*
X98133Y340251D01*
X98096Y340280D01*
X98034Y340301D01*
X97975Y340332D01*
X97921Y340340D01*
X97884Y340352D01*
X97844Y340351D01*
X97790Y340359D01*
X95250Y340359D01*
X95185Y340348D01*
X95119Y340346D01*
X95076Y340328D01*
X95029Y340320D01*
X94972Y340286D01*
X94912Y340261D01*
X94877Y340230D01*
X94836Y340205D01*
X94795Y340154D01*
X94746Y340110D01*
X94724Y340068D01*
X94695Y340031D01*
X94674Y339969D01*
X94643Y339910D01*
X94635Y339856D01*
X94623Y339819D01*
X94623Y339815D01*
X94623Y339814D01*
X94624Y339779D01*
X94616Y339725D01*
X94616Y335915D01*
X94627Y335850D01*
X94629Y335784D01*
X94647Y335741D01*
X94655Y335694D01*
X94689Y335637D01*
X94714Y335577D01*
X94745Y335542D01*
X94770Y335501D01*
X94821Y335460D01*
X94865Y335411D01*
X94907Y335389D01*
X94944Y335360D01*
X95006Y335339D01*
X95065Y335308D01*
X95119Y335300D01*
X95156Y335288D01*
X95196Y335289D01*
X95250Y335281D01*
X97790Y335281D01*
X97855Y335292D01*
G37*
G36*
X534735Y325132D02*
X534735Y325132D01*
X534801Y325134D01*
X534844Y325152D01*
X534891Y325160D01*
X534948Y325194D01*
X535008Y325219D01*
X535043Y325250D01*
X535084Y325275D01*
X535126Y325326D01*
X535174Y325370D01*
X535196Y325412D01*
X535225Y325449D01*
X535246Y325511D01*
X535277Y325570D01*
X535285Y325624D01*
X535297Y325661D01*
X535296Y325701D01*
X535304Y325755D01*
X535304Y329565D01*
X535293Y329630D01*
X535291Y329696D01*
X535273Y329739D01*
X535265Y329786D01*
X535231Y329843D01*
X535206Y329903D01*
X535175Y329938D01*
X535150Y329979D01*
X535099Y330021D01*
X535055Y330069D01*
X535013Y330091D01*
X534976Y330120D01*
X534914Y330141D01*
X534855Y330172D01*
X534801Y330180D01*
X534764Y330192D01*
X534724Y330191D01*
X534670Y330199D01*
X532130Y330199D01*
X532065Y330188D01*
X531999Y330186D01*
X531956Y330168D01*
X531909Y330160D01*
X531852Y330126D01*
X531792Y330101D01*
X531757Y330070D01*
X531716Y330045D01*
X531675Y329994D01*
X531626Y329950D01*
X531604Y329908D01*
X531575Y329871D01*
X531554Y329809D01*
X531523Y329750D01*
X531515Y329696D01*
X531503Y329659D01*
X531503Y329655D01*
X531503Y329654D01*
X531504Y329619D01*
X531496Y329565D01*
X531496Y325755D01*
X531507Y325690D01*
X531509Y325624D01*
X531527Y325581D01*
X531535Y325534D01*
X531569Y325477D01*
X531594Y325417D01*
X531625Y325382D01*
X531650Y325341D01*
X531701Y325300D01*
X531745Y325251D01*
X531787Y325229D01*
X531824Y325200D01*
X531886Y325179D01*
X531945Y325148D01*
X531999Y325140D01*
X532036Y325128D01*
X532076Y325129D01*
X532130Y325121D01*
X534670Y325121D01*
X534735Y325132D01*
G37*
G36*
X97855Y325132D02*
X97855Y325132D01*
X97921Y325134D01*
X97964Y325152D01*
X98011Y325160D01*
X98068Y325194D01*
X98128Y325219D01*
X98163Y325250D01*
X98204Y325275D01*
X98246Y325326D01*
X98294Y325370D01*
X98316Y325412D01*
X98345Y325449D01*
X98366Y325511D01*
X98397Y325570D01*
X98405Y325624D01*
X98417Y325661D01*
X98416Y325701D01*
X98424Y325755D01*
X98424Y329565D01*
X98413Y329630D01*
X98411Y329696D01*
X98393Y329739D01*
X98385Y329786D01*
X98351Y329843D01*
X98326Y329903D01*
X98295Y329938D01*
X98270Y329979D01*
X98219Y330021D01*
X98175Y330069D01*
X98133Y330091D01*
X98096Y330120D01*
X98034Y330141D01*
X97975Y330172D01*
X97921Y330180D01*
X97884Y330192D01*
X97844Y330191D01*
X97790Y330199D01*
X95250Y330199D01*
X95185Y330188D01*
X95119Y330186D01*
X95076Y330168D01*
X95029Y330160D01*
X94972Y330126D01*
X94912Y330101D01*
X94877Y330070D01*
X94836Y330045D01*
X94795Y329994D01*
X94746Y329950D01*
X94724Y329908D01*
X94695Y329871D01*
X94674Y329809D01*
X94643Y329750D01*
X94635Y329696D01*
X94623Y329659D01*
X94623Y329655D01*
X94623Y329654D01*
X94624Y329619D01*
X94616Y329565D01*
X94616Y325755D01*
X94627Y325690D01*
X94629Y325624D01*
X94647Y325581D01*
X94655Y325534D01*
X94689Y325477D01*
X94714Y325417D01*
X94745Y325382D01*
X94770Y325341D01*
X94821Y325300D01*
X94865Y325251D01*
X94907Y325229D01*
X94944Y325200D01*
X95006Y325179D01*
X95065Y325148D01*
X95119Y325140D01*
X95156Y325128D01*
X95196Y325129D01*
X95250Y325121D01*
X97790Y325121D01*
X97855Y325132D01*
G37*
G36*
X609284Y1012583D02*
X609284Y1012583D01*
X609350Y1012585D01*
X609393Y1012603D01*
X609440Y1012611D01*
X609497Y1012645D01*
X609557Y1012670D01*
X609592Y1012701D01*
X609633Y1012726D01*
X609675Y1012777D01*
X609723Y1012821D01*
X609745Y1012863D01*
X609774Y1012900D01*
X609795Y1012962D01*
X609826Y1013021D01*
X609834Y1013075D01*
X609846Y1013112D01*
X609845Y1013152D01*
X609853Y1013206D01*
X609853Y1015746D01*
X609842Y1015811D01*
X609840Y1015877D01*
X609822Y1015920D01*
X609814Y1015967D01*
X609780Y1016024D01*
X609755Y1016084D01*
X609724Y1016119D01*
X609699Y1016160D01*
X609648Y1016202D01*
X609604Y1016250D01*
X609562Y1016272D01*
X609525Y1016301D01*
X609463Y1016322D01*
X609404Y1016353D01*
X609350Y1016361D01*
X609313Y1016373D01*
X609273Y1016372D01*
X609219Y1016380D01*
X605409Y1016380D01*
X605344Y1016369D01*
X605278Y1016367D01*
X605235Y1016349D01*
X605188Y1016341D01*
X605131Y1016307D01*
X605071Y1016282D01*
X605036Y1016251D01*
X604995Y1016226D01*
X604954Y1016175D01*
X604905Y1016131D01*
X604883Y1016089D01*
X604854Y1016052D01*
X604833Y1015990D01*
X604802Y1015931D01*
X604794Y1015877D01*
X604782Y1015840D01*
X604782Y1015837D01*
X604783Y1015800D01*
X604775Y1015746D01*
X604775Y1013206D01*
X604786Y1013141D01*
X604788Y1013075D01*
X604806Y1013032D01*
X604814Y1012985D01*
X604848Y1012928D01*
X604873Y1012868D01*
X604904Y1012833D01*
X604929Y1012792D01*
X604980Y1012751D01*
X605024Y1012702D01*
X605066Y1012680D01*
X605103Y1012651D01*
X605165Y1012630D01*
X605224Y1012599D01*
X605278Y1012591D01*
X605315Y1012579D01*
X605355Y1012580D01*
X605409Y1012572D01*
X609219Y1012572D01*
X609284Y1012583D01*
G37*
G36*
X172404Y1012583D02*
X172404Y1012583D01*
X172470Y1012585D01*
X172513Y1012603D01*
X172560Y1012611D01*
X172617Y1012645D01*
X172677Y1012670D01*
X172712Y1012701D01*
X172753Y1012726D01*
X172795Y1012777D01*
X172843Y1012821D01*
X172865Y1012863D01*
X172894Y1012900D01*
X172915Y1012962D01*
X172946Y1013021D01*
X172954Y1013075D01*
X172966Y1013112D01*
X172965Y1013152D01*
X172973Y1013206D01*
X172973Y1015746D01*
X172962Y1015811D01*
X172960Y1015877D01*
X172942Y1015920D01*
X172934Y1015967D01*
X172900Y1016024D01*
X172875Y1016084D01*
X172844Y1016119D01*
X172819Y1016160D01*
X172768Y1016202D01*
X172724Y1016250D01*
X172682Y1016272D01*
X172645Y1016301D01*
X172583Y1016322D01*
X172524Y1016353D01*
X172470Y1016361D01*
X172433Y1016373D01*
X172393Y1016372D01*
X172339Y1016380D01*
X168529Y1016380D01*
X168464Y1016369D01*
X168398Y1016367D01*
X168355Y1016349D01*
X168308Y1016341D01*
X168251Y1016307D01*
X168191Y1016282D01*
X168156Y1016251D01*
X168115Y1016226D01*
X168074Y1016175D01*
X168025Y1016131D01*
X168003Y1016089D01*
X167974Y1016052D01*
X167953Y1015990D01*
X167922Y1015931D01*
X167914Y1015877D01*
X167902Y1015840D01*
X167902Y1015837D01*
X167903Y1015800D01*
X167895Y1015746D01*
X167895Y1013206D01*
X167906Y1013141D01*
X167908Y1013075D01*
X167926Y1013032D01*
X167934Y1012985D01*
X167968Y1012928D01*
X167993Y1012868D01*
X168024Y1012833D01*
X168049Y1012792D01*
X168100Y1012751D01*
X168144Y1012702D01*
X168186Y1012680D01*
X168223Y1012651D01*
X168285Y1012630D01*
X168344Y1012599D01*
X168398Y1012591D01*
X168435Y1012579D01*
X168475Y1012580D01*
X168529Y1012572D01*
X172339Y1012572D01*
X172404Y1012583D01*
G37*
G36*
X723330Y552589D02*
X723330Y552589D01*
X723396Y552591D01*
X723439Y552609D01*
X723486Y552617D01*
X723543Y552651D01*
X723603Y552676D01*
X723638Y552707D01*
X723679Y552732D01*
X723721Y552783D01*
X723769Y552827D01*
X723791Y552869D01*
X723820Y552906D01*
X723841Y552968D01*
X723872Y553027D01*
X723880Y553081D01*
X723892Y553118D01*
X723891Y553158D01*
X723899Y553212D01*
X723899Y555752D01*
X723888Y555817D01*
X723886Y555883D01*
X723868Y555926D01*
X723860Y555973D01*
X723826Y556030D01*
X723801Y556090D01*
X723770Y556125D01*
X723745Y556166D01*
X723694Y556208D01*
X723650Y556256D01*
X723608Y556278D01*
X723571Y556307D01*
X723509Y556328D01*
X723450Y556359D01*
X723396Y556367D01*
X723359Y556379D01*
X723319Y556378D01*
X723265Y556386D01*
X719455Y556386D01*
X719390Y556375D01*
X719324Y556373D01*
X719281Y556355D01*
X719234Y556347D01*
X719177Y556313D01*
X719117Y556288D01*
X719082Y556257D01*
X719041Y556232D01*
X719000Y556181D01*
X718951Y556137D01*
X718929Y556095D01*
X718900Y556058D01*
X718879Y555996D01*
X718848Y555937D01*
X718840Y555883D01*
X718828Y555846D01*
X718828Y555843D01*
X718829Y555806D01*
X718821Y555752D01*
X718821Y553212D01*
X718832Y553147D01*
X718834Y553081D01*
X718852Y553038D01*
X718860Y552991D01*
X718894Y552934D01*
X718919Y552874D01*
X718950Y552839D01*
X718975Y552798D01*
X719026Y552757D01*
X719070Y552708D01*
X719112Y552686D01*
X719149Y552657D01*
X719211Y552636D01*
X719270Y552605D01*
X719324Y552597D01*
X719361Y552585D01*
X719401Y552586D01*
X719455Y552578D01*
X723265Y552578D01*
X723330Y552589D01*
G37*
G36*
X323280Y552589D02*
X323280Y552589D01*
X323346Y552591D01*
X323389Y552609D01*
X323436Y552617D01*
X323493Y552651D01*
X323553Y552676D01*
X323588Y552707D01*
X323629Y552732D01*
X323671Y552783D01*
X323719Y552827D01*
X323741Y552869D01*
X323770Y552906D01*
X323791Y552968D01*
X323822Y553027D01*
X323830Y553081D01*
X323842Y553118D01*
X323841Y553158D01*
X323849Y553212D01*
X323849Y555752D01*
X323838Y555817D01*
X323836Y555883D01*
X323818Y555926D01*
X323810Y555973D01*
X323776Y556030D01*
X323751Y556090D01*
X323720Y556125D01*
X323695Y556166D01*
X323644Y556208D01*
X323600Y556256D01*
X323558Y556278D01*
X323521Y556307D01*
X323459Y556328D01*
X323400Y556359D01*
X323346Y556367D01*
X323309Y556379D01*
X323269Y556378D01*
X323215Y556386D01*
X319405Y556386D01*
X319340Y556375D01*
X319274Y556373D01*
X319231Y556355D01*
X319184Y556347D01*
X319127Y556313D01*
X319067Y556288D01*
X319032Y556257D01*
X318991Y556232D01*
X318950Y556181D01*
X318901Y556137D01*
X318879Y556095D01*
X318850Y556058D01*
X318829Y555996D01*
X318798Y555937D01*
X318790Y555883D01*
X318778Y555846D01*
X318778Y555843D01*
X318779Y555806D01*
X318771Y555752D01*
X318771Y553212D01*
X318782Y553147D01*
X318784Y553081D01*
X318802Y553038D01*
X318810Y552991D01*
X318844Y552934D01*
X318869Y552874D01*
X318900Y552839D01*
X318925Y552798D01*
X318976Y552757D01*
X319020Y552708D01*
X319062Y552686D01*
X319099Y552657D01*
X319161Y552636D01*
X319220Y552605D01*
X319274Y552597D01*
X319311Y552585D01*
X319351Y552586D01*
X319405Y552578D01*
X323215Y552578D01*
X323280Y552589D01*
G37*
G36*
X799530Y552589D02*
X799530Y552589D01*
X799596Y552591D01*
X799639Y552609D01*
X799686Y552617D01*
X799743Y552651D01*
X799803Y552676D01*
X799838Y552707D01*
X799879Y552732D01*
X799921Y552783D01*
X799969Y552827D01*
X799991Y552869D01*
X800020Y552906D01*
X800041Y552968D01*
X800072Y553027D01*
X800080Y553081D01*
X800092Y553118D01*
X800091Y553158D01*
X800099Y553212D01*
X800099Y555752D01*
X800088Y555817D01*
X800086Y555883D01*
X800068Y555926D01*
X800060Y555973D01*
X800026Y556030D01*
X800001Y556090D01*
X799970Y556125D01*
X799945Y556166D01*
X799894Y556208D01*
X799850Y556256D01*
X799808Y556278D01*
X799771Y556307D01*
X799709Y556328D01*
X799650Y556359D01*
X799596Y556367D01*
X799559Y556379D01*
X799519Y556378D01*
X799465Y556386D01*
X795655Y556386D01*
X795590Y556375D01*
X795524Y556373D01*
X795481Y556355D01*
X795434Y556347D01*
X795377Y556313D01*
X795317Y556288D01*
X795282Y556257D01*
X795241Y556232D01*
X795200Y556181D01*
X795151Y556137D01*
X795129Y556095D01*
X795100Y556058D01*
X795079Y555996D01*
X795048Y555937D01*
X795040Y555883D01*
X795028Y555846D01*
X795028Y555843D01*
X795029Y555806D01*
X795021Y555752D01*
X795021Y553212D01*
X795032Y553147D01*
X795034Y553081D01*
X795052Y553038D01*
X795060Y552991D01*
X795094Y552934D01*
X795119Y552874D01*
X795150Y552839D01*
X795175Y552798D01*
X795226Y552757D01*
X795270Y552708D01*
X795312Y552686D01*
X795349Y552657D01*
X795411Y552636D01*
X795470Y552605D01*
X795524Y552597D01*
X795561Y552585D01*
X795601Y552586D01*
X795655Y552578D01*
X799465Y552578D01*
X799530Y552589D01*
G37*
G36*
X286450Y552589D02*
X286450Y552589D01*
X286516Y552591D01*
X286559Y552609D01*
X286606Y552617D01*
X286663Y552651D01*
X286723Y552676D01*
X286758Y552707D01*
X286799Y552732D01*
X286841Y552783D01*
X286889Y552827D01*
X286911Y552869D01*
X286940Y552906D01*
X286961Y552968D01*
X286992Y553027D01*
X287000Y553081D01*
X287012Y553118D01*
X287011Y553158D01*
X287019Y553212D01*
X287019Y555752D01*
X287008Y555817D01*
X287006Y555883D01*
X286988Y555926D01*
X286980Y555973D01*
X286946Y556030D01*
X286921Y556090D01*
X286890Y556125D01*
X286865Y556166D01*
X286814Y556208D01*
X286770Y556256D01*
X286728Y556278D01*
X286691Y556307D01*
X286629Y556328D01*
X286570Y556359D01*
X286516Y556367D01*
X286479Y556379D01*
X286439Y556378D01*
X286385Y556386D01*
X282575Y556386D01*
X282510Y556375D01*
X282444Y556373D01*
X282401Y556355D01*
X282354Y556347D01*
X282297Y556313D01*
X282237Y556288D01*
X282202Y556257D01*
X282161Y556232D01*
X282120Y556181D01*
X282071Y556137D01*
X282049Y556095D01*
X282020Y556058D01*
X281999Y555996D01*
X281968Y555937D01*
X281960Y555883D01*
X281948Y555846D01*
X281948Y555843D01*
X281949Y555806D01*
X281941Y555752D01*
X281941Y553212D01*
X281952Y553147D01*
X281954Y553081D01*
X281972Y553038D01*
X281980Y552991D01*
X282014Y552934D01*
X282039Y552874D01*
X282070Y552839D01*
X282095Y552798D01*
X282146Y552757D01*
X282190Y552708D01*
X282232Y552686D01*
X282269Y552657D01*
X282331Y552636D01*
X282390Y552605D01*
X282444Y552597D01*
X282481Y552585D01*
X282521Y552586D01*
X282575Y552578D01*
X286385Y552578D01*
X286450Y552589D01*
G37*
G36*
X248350Y552589D02*
X248350Y552589D01*
X248416Y552591D01*
X248459Y552609D01*
X248506Y552617D01*
X248563Y552651D01*
X248623Y552676D01*
X248658Y552707D01*
X248699Y552732D01*
X248741Y552783D01*
X248789Y552827D01*
X248811Y552869D01*
X248840Y552906D01*
X248861Y552968D01*
X248892Y553027D01*
X248900Y553081D01*
X248912Y553118D01*
X248911Y553158D01*
X248919Y553212D01*
X248919Y555752D01*
X248908Y555817D01*
X248906Y555883D01*
X248888Y555926D01*
X248880Y555973D01*
X248846Y556030D01*
X248821Y556090D01*
X248790Y556125D01*
X248765Y556166D01*
X248714Y556208D01*
X248670Y556256D01*
X248628Y556278D01*
X248591Y556307D01*
X248529Y556328D01*
X248470Y556359D01*
X248416Y556367D01*
X248379Y556379D01*
X248339Y556378D01*
X248285Y556386D01*
X244475Y556386D01*
X244410Y556375D01*
X244344Y556373D01*
X244301Y556355D01*
X244254Y556347D01*
X244197Y556313D01*
X244137Y556288D01*
X244102Y556257D01*
X244061Y556232D01*
X244020Y556181D01*
X243971Y556137D01*
X243949Y556095D01*
X243920Y556058D01*
X243899Y555996D01*
X243868Y555937D01*
X243860Y555883D01*
X243848Y555846D01*
X243848Y555843D01*
X243849Y555806D01*
X243841Y555752D01*
X243841Y553212D01*
X243852Y553147D01*
X243854Y553081D01*
X243872Y553038D01*
X243880Y552991D01*
X243914Y552934D01*
X243939Y552874D01*
X243970Y552839D01*
X243995Y552798D01*
X244046Y552757D01*
X244090Y552708D01*
X244132Y552686D01*
X244169Y552657D01*
X244231Y552636D01*
X244290Y552605D01*
X244344Y552597D01*
X244381Y552585D01*
X244421Y552586D01*
X244475Y552578D01*
X248285Y552578D01*
X248350Y552589D01*
G37*
G36*
X362650Y552589D02*
X362650Y552589D01*
X362716Y552591D01*
X362759Y552609D01*
X362806Y552617D01*
X362863Y552651D01*
X362923Y552676D01*
X362958Y552707D01*
X362999Y552732D01*
X363041Y552783D01*
X363089Y552827D01*
X363111Y552869D01*
X363140Y552906D01*
X363161Y552968D01*
X363192Y553027D01*
X363200Y553081D01*
X363212Y553118D01*
X363211Y553158D01*
X363219Y553212D01*
X363219Y555752D01*
X363208Y555817D01*
X363206Y555883D01*
X363188Y555926D01*
X363180Y555973D01*
X363146Y556030D01*
X363121Y556090D01*
X363090Y556125D01*
X363065Y556166D01*
X363014Y556208D01*
X362970Y556256D01*
X362928Y556278D01*
X362891Y556307D01*
X362829Y556328D01*
X362770Y556359D01*
X362716Y556367D01*
X362679Y556379D01*
X362639Y556378D01*
X362585Y556386D01*
X358775Y556386D01*
X358710Y556375D01*
X358644Y556373D01*
X358601Y556355D01*
X358554Y556347D01*
X358497Y556313D01*
X358437Y556288D01*
X358402Y556257D01*
X358361Y556232D01*
X358320Y556181D01*
X358271Y556137D01*
X358249Y556095D01*
X358220Y556058D01*
X358199Y555996D01*
X358168Y555937D01*
X358160Y555883D01*
X358148Y555846D01*
X358148Y555843D01*
X358149Y555806D01*
X358141Y555752D01*
X358141Y553212D01*
X358152Y553147D01*
X358154Y553081D01*
X358172Y553038D01*
X358180Y552991D01*
X358214Y552934D01*
X358239Y552874D01*
X358270Y552839D01*
X358295Y552798D01*
X358346Y552757D01*
X358390Y552708D01*
X358432Y552686D01*
X358469Y552657D01*
X358531Y552636D01*
X358590Y552605D01*
X358644Y552597D01*
X358681Y552585D01*
X358721Y552586D01*
X358775Y552578D01*
X362585Y552578D01*
X362650Y552589D01*
G37*
G36*
X685230Y552589D02*
X685230Y552589D01*
X685296Y552591D01*
X685339Y552609D01*
X685386Y552617D01*
X685443Y552651D01*
X685503Y552676D01*
X685538Y552707D01*
X685579Y552732D01*
X685621Y552783D01*
X685669Y552827D01*
X685691Y552869D01*
X685720Y552906D01*
X685741Y552968D01*
X685772Y553027D01*
X685780Y553081D01*
X685792Y553118D01*
X685791Y553158D01*
X685799Y553212D01*
X685799Y555752D01*
X685788Y555817D01*
X685786Y555883D01*
X685768Y555926D01*
X685760Y555973D01*
X685726Y556030D01*
X685701Y556090D01*
X685670Y556125D01*
X685645Y556166D01*
X685594Y556208D01*
X685550Y556256D01*
X685508Y556278D01*
X685471Y556307D01*
X685409Y556328D01*
X685350Y556359D01*
X685296Y556367D01*
X685259Y556379D01*
X685219Y556378D01*
X685165Y556386D01*
X681355Y556386D01*
X681290Y556375D01*
X681224Y556373D01*
X681181Y556355D01*
X681134Y556347D01*
X681077Y556313D01*
X681017Y556288D01*
X680982Y556257D01*
X680941Y556232D01*
X680900Y556181D01*
X680851Y556137D01*
X680829Y556095D01*
X680800Y556058D01*
X680779Y555996D01*
X680748Y555937D01*
X680740Y555883D01*
X680728Y555846D01*
X680728Y555843D01*
X680729Y555806D01*
X680721Y555752D01*
X680721Y553212D01*
X680732Y553147D01*
X680734Y553081D01*
X680752Y553038D01*
X680760Y552991D01*
X680794Y552934D01*
X680819Y552874D01*
X680850Y552839D01*
X680875Y552798D01*
X680926Y552757D01*
X680970Y552708D01*
X681012Y552686D01*
X681049Y552657D01*
X681111Y552636D01*
X681170Y552605D01*
X681224Y552597D01*
X681261Y552585D01*
X681301Y552586D01*
X681355Y552578D01*
X685165Y552578D01*
X685230Y552589D01*
G37*
G36*
X760160Y552589D02*
X760160Y552589D01*
X760226Y552591D01*
X760269Y552609D01*
X760316Y552617D01*
X760373Y552651D01*
X760433Y552676D01*
X760468Y552707D01*
X760509Y552732D01*
X760551Y552783D01*
X760599Y552827D01*
X760621Y552869D01*
X760650Y552906D01*
X760671Y552968D01*
X760702Y553027D01*
X760710Y553081D01*
X760722Y553118D01*
X760721Y553158D01*
X760729Y553212D01*
X760729Y555752D01*
X760718Y555817D01*
X760716Y555883D01*
X760698Y555926D01*
X760690Y555973D01*
X760656Y556030D01*
X760631Y556090D01*
X760600Y556125D01*
X760575Y556166D01*
X760524Y556208D01*
X760480Y556256D01*
X760438Y556278D01*
X760401Y556307D01*
X760339Y556328D01*
X760280Y556359D01*
X760226Y556367D01*
X760189Y556379D01*
X760149Y556378D01*
X760095Y556386D01*
X756285Y556386D01*
X756220Y556375D01*
X756154Y556373D01*
X756111Y556355D01*
X756064Y556347D01*
X756007Y556313D01*
X755947Y556288D01*
X755912Y556257D01*
X755871Y556232D01*
X755830Y556181D01*
X755781Y556137D01*
X755759Y556095D01*
X755730Y556058D01*
X755709Y555996D01*
X755678Y555937D01*
X755670Y555883D01*
X755658Y555846D01*
X755658Y555843D01*
X755659Y555806D01*
X755651Y555752D01*
X755651Y553212D01*
X755662Y553147D01*
X755664Y553081D01*
X755682Y553038D01*
X755690Y552991D01*
X755724Y552934D01*
X755749Y552874D01*
X755780Y552839D01*
X755805Y552798D01*
X755856Y552757D01*
X755900Y552708D01*
X755942Y552686D01*
X755979Y552657D01*
X756041Y552636D01*
X756100Y552605D01*
X756154Y552597D01*
X756191Y552585D01*
X756231Y552586D01*
X756285Y552578D01*
X760095Y552578D01*
X760160Y552589D01*
G37*
G36*
X609284Y474103D02*
X609284Y474103D01*
X609350Y474105D01*
X609393Y474123D01*
X609440Y474131D01*
X609497Y474165D01*
X609557Y474190D01*
X609592Y474221D01*
X609633Y474246D01*
X609675Y474297D01*
X609723Y474341D01*
X609745Y474383D01*
X609774Y474420D01*
X609795Y474482D01*
X609826Y474541D01*
X609834Y474595D01*
X609846Y474632D01*
X609845Y474672D01*
X609853Y474726D01*
X609853Y477266D01*
X609842Y477331D01*
X609840Y477397D01*
X609822Y477440D01*
X609814Y477487D01*
X609780Y477544D01*
X609755Y477604D01*
X609724Y477639D01*
X609699Y477680D01*
X609648Y477722D01*
X609604Y477770D01*
X609562Y477792D01*
X609525Y477821D01*
X609463Y477842D01*
X609404Y477873D01*
X609350Y477881D01*
X609313Y477893D01*
X609273Y477892D01*
X609219Y477900D01*
X605409Y477900D01*
X605344Y477889D01*
X605278Y477887D01*
X605235Y477869D01*
X605188Y477861D01*
X605131Y477827D01*
X605071Y477802D01*
X605036Y477771D01*
X604995Y477746D01*
X604954Y477695D01*
X604905Y477651D01*
X604883Y477609D01*
X604854Y477572D01*
X604833Y477510D01*
X604802Y477451D01*
X604794Y477397D01*
X604782Y477360D01*
X604782Y477357D01*
X604783Y477320D01*
X604775Y477266D01*
X604775Y474726D01*
X604786Y474661D01*
X604788Y474595D01*
X604806Y474552D01*
X604814Y474505D01*
X604848Y474448D01*
X604873Y474388D01*
X604904Y474353D01*
X604929Y474312D01*
X604980Y474271D01*
X605024Y474222D01*
X605066Y474200D01*
X605103Y474171D01*
X605165Y474150D01*
X605224Y474119D01*
X605278Y474111D01*
X605315Y474099D01*
X605355Y474100D01*
X605409Y474092D01*
X609219Y474092D01*
X609284Y474103D01*
G37*
G36*
X172404Y474103D02*
X172404Y474103D01*
X172470Y474105D01*
X172513Y474123D01*
X172560Y474131D01*
X172617Y474165D01*
X172677Y474190D01*
X172712Y474221D01*
X172753Y474246D01*
X172795Y474297D01*
X172843Y474341D01*
X172865Y474383D01*
X172894Y474420D01*
X172915Y474482D01*
X172946Y474541D01*
X172954Y474595D01*
X172966Y474632D01*
X172965Y474672D01*
X172973Y474726D01*
X172973Y477266D01*
X172962Y477331D01*
X172960Y477397D01*
X172942Y477440D01*
X172934Y477487D01*
X172900Y477544D01*
X172875Y477604D01*
X172844Y477639D01*
X172819Y477680D01*
X172768Y477722D01*
X172724Y477770D01*
X172682Y477792D01*
X172645Y477821D01*
X172583Y477842D01*
X172524Y477873D01*
X172470Y477881D01*
X172433Y477893D01*
X172393Y477892D01*
X172339Y477900D01*
X168529Y477900D01*
X168464Y477889D01*
X168398Y477887D01*
X168355Y477869D01*
X168308Y477861D01*
X168251Y477827D01*
X168191Y477802D01*
X168156Y477771D01*
X168115Y477746D01*
X168074Y477695D01*
X168025Y477651D01*
X168003Y477609D01*
X167974Y477572D01*
X167953Y477510D01*
X167922Y477451D01*
X167914Y477397D01*
X167902Y477360D01*
X167902Y477357D01*
X167903Y477320D01*
X167895Y477266D01*
X167895Y474726D01*
X167906Y474661D01*
X167908Y474595D01*
X167926Y474552D01*
X167934Y474505D01*
X167968Y474448D01*
X167993Y474388D01*
X168024Y474353D01*
X168049Y474312D01*
X168100Y474271D01*
X168144Y474222D01*
X168186Y474200D01*
X168223Y474171D01*
X168285Y474150D01*
X168344Y474119D01*
X168398Y474111D01*
X168435Y474099D01*
X168475Y474100D01*
X168529Y474092D01*
X172339Y474092D01*
X172404Y474103D01*
G37*
G36*
X760160Y14109D02*
X760160Y14109D01*
X760226Y14111D01*
X760269Y14129D01*
X760316Y14137D01*
X760373Y14171D01*
X760433Y14196D01*
X760468Y14227D01*
X760509Y14252D01*
X760551Y14303D01*
X760599Y14347D01*
X760621Y14389D01*
X760650Y14426D01*
X760671Y14488D01*
X760702Y14547D01*
X760710Y14601D01*
X760722Y14638D01*
X760721Y14678D01*
X760729Y14732D01*
X760729Y17272D01*
X760718Y17337D01*
X760716Y17403D01*
X760698Y17446D01*
X760690Y17493D01*
X760656Y17550D01*
X760631Y17610D01*
X760600Y17645D01*
X760575Y17686D01*
X760524Y17728D01*
X760480Y17776D01*
X760438Y17798D01*
X760401Y17827D01*
X760339Y17848D01*
X760280Y17879D01*
X760226Y17887D01*
X760189Y17899D01*
X760149Y17898D01*
X760095Y17906D01*
X756285Y17906D01*
X756220Y17895D01*
X756154Y17893D01*
X756111Y17875D01*
X756064Y17867D01*
X756007Y17833D01*
X755947Y17808D01*
X755912Y17777D01*
X755871Y17752D01*
X755830Y17701D01*
X755781Y17657D01*
X755759Y17615D01*
X755730Y17578D01*
X755709Y17516D01*
X755678Y17457D01*
X755670Y17403D01*
X755658Y17366D01*
X755658Y17363D01*
X755659Y17326D01*
X755651Y17272D01*
X755651Y14732D01*
X755662Y14667D01*
X755664Y14601D01*
X755682Y14558D01*
X755690Y14511D01*
X755724Y14454D01*
X755749Y14394D01*
X755780Y14359D01*
X755805Y14318D01*
X755856Y14277D01*
X755900Y14228D01*
X755942Y14206D01*
X755979Y14177D01*
X756041Y14156D01*
X756100Y14125D01*
X756154Y14117D01*
X756191Y14105D01*
X756231Y14106D01*
X756285Y14098D01*
X760095Y14098D01*
X760160Y14109D01*
G37*
G36*
X685230Y14109D02*
X685230Y14109D01*
X685296Y14111D01*
X685339Y14129D01*
X685386Y14137D01*
X685443Y14171D01*
X685503Y14196D01*
X685538Y14227D01*
X685579Y14252D01*
X685621Y14303D01*
X685669Y14347D01*
X685691Y14389D01*
X685720Y14426D01*
X685741Y14488D01*
X685772Y14547D01*
X685780Y14601D01*
X685792Y14638D01*
X685791Y14678D01*
X685799Y14732D01*
X685799Y17272D01*
X685788Y17337D01*
X685786Y17403D01*
X685768Y17446D01*
X685760Y17493D01*
X685726Y17550D01*
X685701Y17610D01*
X685670Y17645D01*
X685645Y17686D01*
X685594Y17728D01*
X685550Y17776D01*
X685508Y17798D01*
X685471Y17827D01*
X685409Y17848D01*
X685350Y17879D01*
X685296Y17887D01*
X685259Y17899D01*
X685219Y17898D01*
X685165Y17906D01*
X681355Y17906D01*
X681290Y17895D01*
X681224Y17893D01*
X681181Y17875D01*
X681134Y17867D01*
X681077Y17833D01*
X681017Y17808D01*
X680982Y17777D01*
X680941Y17752D01*
X680900Y17701D01*
X680851Y17657D01*
X680829Y17615D01*
X680800Y17578D01*
X680779Y17516D01*
X680748Y17457D01*
X680740Y17403D01*
X680728Y17366D01*
X680728Y17363D01*
X680729Y17326D01*
X680721Y17272D01*
X680721Y14732D01*
X680732Y14667D01*
X680734Y14601D01*
X680752Y14558D01*
X680760Y14511D01*
X680794Y14454D01*
X680819Y14394D01*
X680850Y14359D01*
X680875Y14318D01*
X680926Y14277D01*
X680970Y14228D01*
X681012Y14206D01*
X681049Y14177D01*
X681111Y14156D01*
X681170Y14125D01*
X681224Y14117D01*
X681261Y14105D01*
X681301Y14106D01*
X681355Y14098D01*
X685165Y14098D01*
X685230Y14109D01*
G37*
G36*
X799530Y14109D02*
X799530Y14109D01*
X799596Y14111D01*
X799639Y14129D01*
X799686Y14137D01*
X799743Y14171D01*
X799803Y14196D01*
X799838Y14227D01*
X799879Y14252D01*
X799921Y14303D01*
X799969Y14347D01*
X799991Y14389D01*
X800020Y14426D01*
X800041Y14488D01*
X800072Y14547D01*
X800080Y14601D01*
X800092Y14638D01*
X800091Y14678D01*
X800099Y14732D01*
X800099Y17272D01*
X800088Y17337D01*
X800086Y17403D01*
X800068Y17446D01*
X800060Y17493D01*
X800026Y17550D01*
X800001Y17610D01*
X799970Y17645D01*
X799945Y17686D01*
X799894Y17728D01*
X799850Y17776D01*
X799808Y17798D01*
X799771Y17827D01*
X799709Y17848D01*
X799650Y17879D01*
X799596Y17887D01*
X799559Y17899D01*
X799519Y17898D01*
X799465Y17906D01*
X795655Y17906D01*
X795590Y17895D01*
X795524Y17893D01*
X795481Y17875D01*
X795434Y17867D01*
X795377Y17833D01*
X795317Y17808D01*
X795282Y17777D01*
X795241Y17752D01*
X795200Y17701D01*
X795151Y17657D01*
X795129Y17615D01*
X795100Y17578D01*
X795079Y17516D01*
X795048Y17457D01*
X795040Y17403D01*
X795028Y17366D01*
X795028Y17363D01*
X795029Y17326D01*
X795021Y17272D01*
X795021Y14732D01*
X795032Y14667D01*
X795034Y14601D01*
X795052Y14558D01*
X795060Y14511D01*
X795094Y14454D01*
X795119Y14394D01*
X795150Y14359D01*
X795175Y14318D01*
X795226Y14277D01*
X795270Y14228D01*
X795312Y14206D01*
X795349Y14177D01*
X795411Y14156D01*
X795470Y14125D01*
X795524Y14117D01*
X795561Y14105D01*
X795601Y14106D01*
X795655Y14098D01*
X799465Y14098D01*
X799530Y14109D01*
G37*
G36*
X248350Y14109D02*
X248350Y14109D01*
X248416Y14111D01*
X248459Y14129D01*
X248506Y14137D01*
X248563Y14171D01*
X248623Y14196D01*
X248658Y14227D01*
X248699Y14252D01*
X248741Y14303D01*
X248789Y14347D01*
X248811Y14389D01*
X248840Y14426D01*
X248861Y14488D01*
X248892Y14547D01*
X248900Y14601D01*
X248912Y14638D01*
X248911Y14678D01*
X248919Y14732D01*
X248919Y17272D01*
X248908Y17337D01*
X248906Y17403D01*
X248888Y17446D01*
X248880Y17493D01*
X248846Y17550D01*
X248821Y17610D01*
X248790Y17645D01*
X248765Y17686D01*
X248714Y17728D01*
X248670Y17776D01*
X248628Y17798D01*
X248591Y17827D01*
X248529Y17848D01*
X248470Y17879D01*
X248416Y17887D01*
X248379Y17899D01*
X248339Y17898D01*
X248285Y17906D01*
X244475Y17906D01*
X244410Y17895D01*
X244344Y17893D01*
X244301Y17875D01*
X244254Y17867D01*
X244197Y17833D01*
X244137Y17808D01*
X244102Y17777D01*
X244061Y17752D01*
X244020Y17701D01*
X243971Y17657D01*
X243949Y17615D01*
X243920Y17578D01*
X243899Y17516D01*
X243868Y17457D01*
X243860Y17403D01*
X243848Y17366D01*
X243848Y17363D01*
X243849Y17326D01*
X243841Y17272D01*
X243841Y14732D01*
X243852Y14667D01*
X243854Y14601D01*
X243872Y14558D01*
X243880Y14511D01*
X243914Y14454D01*
X243939Y14394D01*
X243970Y14359D01*
X243995Y14318D01*
X244046Y14277D01*
X244090Y14228D01*
X244132Y14206D01*
X244169Y14177D01*
X244231Y14156D01*
X244290Y14125D01*
X244344Y14117D01*
X244381Y14105D01*
X244421Y14106D01*
X244475Y14098D01*
X248285Y14098D01*
X248350Y14109D01*
G37*
G36*
X723330Y14109D02*
X723330Y14109D01*
X723396Y14111D01*
X723439Y14129D01*
X723486Y14137D01*
X723543Y14171D01*
X723603Y14196D01*
X723638Y14227D01*
X723679Y14252D01*
X723721Y14303D01*
X723769Y14347D01*
X723791Y14389D01*
X723820Y14426D01*
X723841Y14488D01*
X723872Y14547D01*
X723880Y14601D01*
X723892Y14638D01*
X723891Y14678D01*
X723899Y14732D01*
X723899Y17272D01*
X723888Y17337D01*
X723886Y17403D01*
X723868Y17446D01*
X723860Y17493D01*
X723826Y17550D01*
X723801Y17610D01*
X723770Y17645D01*
X723745Y17686D01*
X723694Y17728D01*
X723650Y17776D01*
X723608Y17798D01*
X723571Y17827D01*
X723509Y17848D01*
X723450Y17879D01*
X723396Y17887D01*
X723359Y17899D01*
X723319Y17898D01*
X723265Y17906D01*
X719455Y17906D01*
X719390Y17895D01*
X719324Y17893D01*
X719281Y17875D01*
X719234Y17867D01*
X719177Y17833D01*
X719117Y17808D01*
X719082Y17777D01*
X719041Y17752D01*
X719000Y17701D01*
X718951Y17657D01*
X718929Y17615D01*
X718900Y17578D01*
X718879Y17516D01*
X718848Y17457D01*
X718840Y17403D01*
X718828Y17366D01*
X718828Y17363D01*
X718829Y17326D01*
X718821Y17272D01*
X718821Y14732D01*
X718832Y14667D01*
X718834Y14601D01*
X718852Y14558D01*
X718860Y14511D01*
X718894Y14454D01*
X718919Y14394D01*
X718950Y14359D01*
X718975Y14318D01*
X719026Y14277D01*
X719070Y14228D01*
X719112Y14206D01*
X719149Y14177D01*
X719211Y14156D01*
X719270Y14125D01*
X719324Y14117D01*
X719361Y14105D01*
X719401Y14106D01*
X719455Y14098D01*
X723265Y14098D01*
X723330Y14109D01*
G37*
G36*
X323280Y14109D02*
X323280Y14109D01*
X323346Y14111D01*
X323389Y14129D01*
X323436Y14137D01*
X323493Y14171D01*
X323553Y14196D01*
X323588Y14227D01*
X323629Y14252D01*
X323671Y14303D01*
X323719Y14347D01*
X323741Y14389D01*
X323770Y14426D01*
X323791Y14488D01*
X323822Y14547D01*
X323830Y14601D01*
X323842Y14638D01*
X323841Y14678D01*
X323849Y14732D01*
X323849Y17272D01*
X323838Y17337D01*
X323836Y17403D01*
X323818Y17446D01*
X323810Y17493D01*
X323776Y17550D01*
X323751Y17610D01*
X323720Y17645D01*
X323695Y17686D01*
X323644Y17728D01*
X323600Y17776D01*
X323558Y17798D01*
X323521Y17827D01*
X323459Y17848D01*
X323400Y17879D01*
X323346Y17887D01*
X323309Y17899D01*
X323269Y17898D01*
X323215Y17906D01*
X319405Y17906D01*
X319340Y17895D01*
X319274Y17893D01*
X319231Y17875D01*
X319184Y17867D01*
X319127Y17833D01*
X319067Y17808D01*
X319032Y17777D01*
X318991Y17752D01*
X318950Y17701D01*
X318901Y17657D01*
X318879Y17615D01*
X318850Y17578D01*
X318829Y17516D01*
X318798Y17457D01*
X318790Y17403D01*
X318778Y17366D01*
X318778Y17363D01*
X318779Y17326D01*
X318771Y17272D01*
X318771Y14732D01*
X318782Y14667D01*
X318784Y14601D01*
X318802Y14558D01*
X318810Y14511D01*
X318844Y14454D01*
X318869Y14394D01*
X318900Y14359D01*
X318925Y14318D01*
X318976Y14277D01*
X319020Y14228D01*
X319062Y14206D01*
X319099Y14177D01*
X319161Y14156D01*
X319220Y14125D01*
X319274Y14117D01*
X319311Y14105D01*
X319351Y14106D01*
X319405Y14098D01*
X323215Y14098D01*
X323280Y14109D01*
G37*
G36*
X286450Y14109D02*
X286450Y14109D01*
X286516Y14111D01*
X286559Y14129D01*
X286606Y14137D01*
X286663Y14171D01*
X286723Y14196D01*
X286758Y14227D01*
X286799Y14252D01*
X286841Y14303D01*
X286889Y14347D01*
X286911Y14389D01*
X286940Y14426D01*
X286961Y14488D01*
X286992Y14547D01*
X287000Y14601D01*
X287012Y14638D01*
X287011Y14678D01*
X287019Y14732D01*
X287019Y17272D01*
X287008Y17337D01*
X287006Y17403D01*
X286988Y17446D01*
X286980Y17493D01*
X286946Y17550D01*
X286921Y17610D01*
X286890Y17645D01*
X286865Y17686D01*
X286814Y17728D01*
X286770Y17776D01*
X286728Y17798D01*
X286691Y17827D01*
X286629Y17848D01*
X286570Y17879D01*
X286516Y17887D01*
X286479Y17899D01*
X286439Y17898D01*
X286385Y17906D01*
X282575Y17906D01*
X282510Y17895D01*
X282444Y17893D01*
X282401Y17875D01*
X282354Y17867D01*
X282297Y17833D01*
X282237Y17808D01*
X282202Y17777D01*
X282161Y17752D01*
X282120Y17701D01*
X282071Y17657D01*
X282049Y17615D01*
X282020Y17578D01*
X281999Y17516D01*
X281968Y17457D01*
X281960Y17403D01*
X281948Y17366D01*
X281948Y17363D01*
X281949Y17326D01*
X281941Y17272D01*
X281941Y14732D01*
X281952Y14667D01*
X281954Y14601D01*
X281972Y14558D01*
X281980Y14511D01*
X282014Y14454D01*
X282039Y14394D01*
X282070Y14359D01*
X282095Y14318D01*
X282146Y14277D01*
X282190Y14228D01*
X282232Y14206D01*
X282269Y14177D01*
X282331Y14156D01*
X282390Y14125D01*
X282444Y14117D01*
X282481Y14105D01*
X282521Y14106D01*
X282575Y14098D01*
X286385Y14098D01*
X286450Y14109D01*
G37*
G36*
X362650Y14109D02*
X362650Y14109D01*
X362716Y14111D01*
X362759Y14129D01*
X362806Y14137D01*
X362863Y14171D01*
X362923Y14196D01*
X362958Y14227D01*
X362999Y14252D01*
X363041Y14303D01*
X363089Y14347D01*
X363111Y14389D01*
X363140Y14426D01*
X363161Y14488D01*
X363192Y14547D01*
X363200Y14601D01*
X363212Y14638D01*
X363211Y14678D01*
X363219Y14732D01*
X363219Y17272D01*
X363208Y17337D01*
X363206Y17403D01*
X363188Y17446D01*
X363180Y17493D01*
X363146Y17550D01*
X363121Y17610D01*
X363090Y17645D01*
X363065Y17686D01*
X363014Y17728D01*
X362970Y17776D01*
X362928Y17798D01*
X362891Y17827D01*
X362829Y17848D01*
X362770Y17879D01*
X362716Y17887D01*
X362679Y17899D01*
X362639Y17898D01*
X362585Y17906D01*
X358775Y17906D01*
X358710Y17895D01*
X358644Y17893D01*
X358601Y17875D01*
X358554Y17867D01*
X358497Y17833D01*
X358437Y17808D01*
X358402Y17777D01*
X358361Y17752D01*
X358320Y17701D01*
X358271Y17657D01*
X358249Y17615D01*
X358220Y17578D01*
X358199Y17516D01*
X358168Y17457D01*
X358160Y17403D01*
X358148Y17366D01*
X358148Y17363D01*
X358149Y17326D01*
X358141Y17272D01*
X358141Y14732D01*
X358152Y14667D01*
X358154Y14601D01*
X358172Y14558D01*
X358180Y14511D01*
X358214Y14454D01*
X358239Y14394D01*
X358270Y14359D01*
X358295Y14318D01*
X358346Y14277D01*
X358390Y14228D01*
X358432Y14206D01*
X358469Y14177D01*
X358531Y14156D01*
X358590Y14125D01*
X358644Y14117D01*
X358681Y14105D01*
X358721Y14106D01*
X358775Y14098D01*
X362585Y14098D01*
X362650Y14109D01*
G37*
D10*
X102364Y325122D02*
X102364Y319530D01*
X90676Y319530D01*
X90676Y325122D01*
X102364Y325122D01*
X102364Y321699D02*
X90676Y321699D01*
X90676Y323868D02*
X102364Y323868D01*
X102364Y329944D02*
X102364Y335536D01*
X102364Y329944D02*
X90676Y329944D01*
X90676Y335536D01*
X102364Y335536D01*
X102364Y332113D02*
X90676Y332113D01*
X90676Y334282D02*
X102364Y334282D01*
X102364Y340358D02*
X102364Y345950D01*
X102364Y340358D02*
X90676Y340358D01*
X90676Y345950D01*
X102364Y345950D01*
X102364Y342527D02*
X90676Y342527D01*
X90676Y344696D02*
X102364Y344696D01*
D11*
X419100Y368300D03*
X419100Y342900D03*
X419100Y317500D03*
X419100Y292100D03*
X419100Y266700D03*
X419100Y241300D03*
X419100Y215900D03*
X419100Y190500D03*
X419100Y165100D03*
X419100Y139700D03*
X419100Y114300D03*
D12*
X50800Y50800D03*
X368300Y469900D03*
D13*
X406400Y482600D03*
X25400Y482600D03*
D14*
X100584Y269875D02*
X100584Y264541D01*
X88900Y264541D01*
X88900Y269875D01*
X100584Y269875D01*
X100584Y266713D02*
X88900Y266713D01*
X88900Y268885D02*
X100584Y268885D01*
X100584Y272669D02*
X100584Y278003D01*
X100584Y272669D02*
X88900Y272669D01*
X88900Y278003D01*
X100584Y278003D01*
X100584Y274841D02*
X88900Y274841D01*
X88900Y277013D02*
X100584Y277013D01*
D10*
X248791Y21846D02*
X254383Y21846D01*
X254383Y10158D01*
X248791Y10158D01*
X248791Y21846D01*
X248791Y12327D02*
X254383Y12327D01*
X254383Y14496D02*
X248791Y14496D01*
X248791Y16665D02*
X254383Y16665D01*
X254383Y18834D02*
X248791Y18834D01*
X248791Y21003D02*
X254383Y21003D01*
X243969Y21846D02*
X238377Y21846D01*
X243969Y21846D02*
X243969Y10158D01*
X238377Y10158D01*
X238377Y21846D01*
X238377Y12327D02*
X243969Y12327D01*
X243969Y14496D02*
X238377Y14496D01*
X238377Y16665D02*
X243969Y16665D01*
X243969Y18834D02*
X238377Y18834D01*
X238377Y21003D02*
X243969Y21003D01*
D15*
X155900Y459204D03*
X98100Y459204D03*
D10*
X363091Y21846D02*
X368683Y21846D01*
X368683Y10158D01*
X363091Y10158D01*
X363091Y21846D01*
X363091Y12327D02*
X368683Y12327D01*
X368683Y14496D02*
X363091Y14496D01*
X363091Y16665D02*
X368683Y16665D01*
X368683Y18834D02*
X363091Y18834D01*
X363091Y21003D02*
X368683Y21003D01*
X358269Y21846D02*
X352677Y21846D01*
X358269Y21846D02*
X358269Y10158D01*
X352677Y10158D01*
X352677Y21846D01*
X352677Y12327D02*
X358269Y12327D01*
X358269Y14496D02*
X352677Y14496D01*
X352677Y16665D02*
X358269Y16665D01*
X358269Y18834D02*
X352677Y18834D01*
X352677Y21003D02*
X358269Y21003D01*
X292483Y21846D02*
X286891Y21846D01*
X292483Y21846D02*
X292483Y10158D01*
X286891Y10158D01*
X286891Y21846D01*
X286891Y12327D02*
X292483Y12327D01*
X292483Y14496D02*
X286891Y14496D01*
X286891Y16665D02*
X292483Y16665D01*
X292483Y18834D02*
X286891Y18834D01*
X286891Y21003D02*
X292483Y21003D01*
X282069Y21846D02*
X276477Y21846D01*
X282069Y21846D02*
X282069Y10158D01*
X276477Y10158D01*
X276477Y21846D01*
X276477Y12327D02*
X282069Y12327D01*
X282069Y14496D02*
X276477Y14496D01*
X276477Y16665D02*
X282069Y16665D01*
X282069Y18834D02*
X276477Y18834D01*
X276477Y21003D02*
X282069Y21003D01*
D13*
X25400Y25146D03*
X406400Y25146D03*
D11*
X342900Y495300D03*
X317500Y495300D03*
X292100Y495300D03*
X266700Y495300D03*
X241300Y495300D03*
X215900Y495300D03*
X12700Y165100D03*
X12700Y190500D03*
X12700Y215900D03*
X12700Y241300D03*
X12700Y266700D03*
X12700Y292100D03*
X12700Y317500D03*
X12700Y342900D03*
X12700Y368300D03*
D10*
X323721Y21846D02*
X329313Y21846D01*
X329313Y10158D01*
X323721Y10158D01*
X323721Y21846D01*
X323721Y12327D02*
X329313Y12327D01*
X329313Y14496D02*
X323721Y14496D01*
X323721Y16665D02*
X329313Y16665D01*
X329313Y18834D02*
X323721Y18834D01*
X323721Y21003D02*
X329313Y21003D01*
X318899Y21846D02*
X313307Y21846D01*
X318899Y21846D02*
X318899Y10158D01*
X313307Y10158D01*
X313307Y21846D01*
X313307Y12327D02*
X318899Y12327D01*
X318899Y14496D02*
X313307Y14496D01*
X313307Y16665D02*
X318899Y16665D01*
X318899Y18834D02*
X313307Y18834D01*
X313307Y21003D02*
X318899Y21003D01*
D16*
X292100Y431800D03*
D10*
X178437Y481840D02*
X172845Y481840D01*
X178437Y481840D02*
X178437Y470152D01*
X172845Y470152D01*
X172845Y481840D01*
X172845Y472321D02*
X178437Y472321D01*
X178437Y474490D02*
X172845Y474490D01*
X172845Y476659D02*
X178437Y476659D01*
X178437Y478828D02*
X172845Y478828D01*
X172845Y480997D02*
X178437Y480997D01*
X168023Y481840D02*
X162431Y481840D01*
X168023Y481840D02*
X168023Y470152D01*
X162431Y470152D01*
X162431Y481840D01*
X162431Y472321D02*
X168023Y472321D01*
X168023Y474490D02*
X162431Y474490D01*
X162431Y476659D02*
X168023Y476659D01*
X168023Y478828D02*
X162431Y478828D01*
X162431Y480997D02*
X168023Y480997D01*
X539244Y325122D02*
X539244Y319530D01*
X527556Y319530D01*
X527556Y325122D01*
X539244Y325122D01*
X539244Y321699D02*
X527556Y321699D01*
X527556Y323868D02*
X539244Y323868D01*
X539244Y329944D02*
X539244Y335536D01*
X539244Y329944D02*
X527556Y329944D01*
X527556Y335536D01*
X539244Y335536D01*
X539244Y332113D02*
X527556Y332113D01*
X527556Y334282D02*
X539244Y334282D01*
X539244Y340358D02*
X539244Y345950D01*
X539244Y340358D02*
X527556Y340358D01*
X527556Y345950D01*
X539244Y345950D01*
X539244Y342527D02*
X527556Y342527D01*
X527556Y344696D02*
X539244Y344696D01*
D11*
X855980Y368300D03*
X855980Y342900D03*
X855980Y317500D03*
X855980Y292100D03*
X855980Y266700D03*
X855980Y241300D03*
X855980Y215900D03*
X855980Y190500D03*
X855980Y165100D03*
X855980Y139700D03*
X855980Y114300D03*
D12*
X487680Y50800D03*
X805180Y469900D03*
D13*
X843280Y482600D03*
X462280Y482600D03*
D14*
X537464Y269875D02*
X537464Y264541D01*
X525780Y264541D01*
X525780Y269875D01*
X537464Y269875D01*
X537464Y266713D02*
X525780Y266713D01*
X525780Y268885D02*
X537464Y268885D01*
X537464Y272669D02*
X537464Y278003D01*
X537464Y272669D02*
X525780Y272669D01*
X525780Y278003D01*
X537464Y278003D01*
X537464Y274841D02*
X525780Y274841D01*
X525780Y277013D02*
X537464Y277013D01*
D10*
X685671Y21846D02*
X691263Y21846D01*
X691263Y10158D01*
X685671Y10158D01*
X685671Y21846D01*
X685671Y12327D02*
X691263Y12327D01*
X691263Y14496D02*
X685671Y14496D01*
X685671Y16665D02*
X691263Y16665D01*
X691263Y18834D02*
X685671Y18834D01*
X685671Y21003D02*
X691263Y21003D01*
X680849Y21846D02*
X675257Y21846D01*
X680849Y21846D02*
X680849Y10158D01*
X675257Y10158D01*
X675257Y21846D01*
X675257Y12327D02*
X680849Y12327D01*
X680849Y14496D02*
X675257Y14496D01*
X675257Y16665D02*
X680849Y16665D01*
X680849Y18834D02*
X675257Y18834D01*
X675257Y21003D02*
X680849Y21003D01*
D15*
X592780Y459204D03*
X534980Y459204D03*
D10*
X799971Y21846D02*
X805563Y21846D01*
X805563Y10158D01*
X799971Y10158D01*
X799971Y21846D01*
X799971Y12327D02*
X805563Y12327D01*
X805563Y14496D02*
X799971Y14496D01*
X799971Y16665D02*
X805563Y16665D01*
X805563Y18834D02*
X799971Y18834D01*
X799971Y21003D02*
X805563Y21003D01*
X795149Y21846D02*
X789557Y21846D01*
X795149Y21846D02*
X795149Y10158D01*
X789557Y10158D01*
X789557Y21846D01*
X789557Y12327D02*
X795149Y12327D01*
X795149Y14496D02*
X789557Y14496D01*
X789557Y16665D02*
X795149Y16665D01*
X795149Y18834D02*
X789557Y18834D01*
X789557Y21003D02*
X795149Y21003D01*
X729363Y21846D02*
X723771Y21846D01*
X729363Y21846D02*
X729363Y10158D01*
X723771Y10158D01*
X723771Y21846D01*
X723771Y12327D02*
X729363Y12327D01*
X729363Y14496D02*
X723771Y14496D01*
X723771Y16665D02*
X729363Y16665D01*
X729363Y18834D02*
X723771Y18834D01*
X723771Y21003D02*
X729363Y21003D01*
X718949Y21846D02*
X713357Y21846D01*
X718949Y21846D02*
X718949Y10158D01*
X713357Y10158D01*
X713357Y21846D01*
X713357Y12327D02*
X718949Y12327D01*
X718949Y14496D02*
X713357Y14496D01*
X713357Y16665D02*
X718949Y16665D01*
X718949Y18834D02*
X713357Y18834D01*
X713357Y21003D02*
X718949Y21003D01*
D13*
X462280Y25146D03*
X843280Y25146D03*
D11*
X779780Y495300D03*
X754380Y495300D03*
X728980Y495300D03*
X703580Y495300D03*
X678180Y495300D03*
X652780Y495300D03*
X449580Y165100D03*
X449580Y190500D03*
X449580Y215900D03*
X449580Y241300D03*
X449580Y266700D03*
X449580Y292100D03*
X449580Y317500D03*
X449580Y342900D03*
X449580Y368300D03*
D10*
X760601Y21846D02*
X766193Y21846D01*
X766193Y10158D01*
X760601Y10158D01*
X760601Y21846D01*
X760601Y12327D02*
X766193Y12327D01*
X766193Y14496D02*
X760601Y14496D01*
X760601Y16665D02*
X766193Y16665D01*
X766193Y18834D02*
X760601Y18834D01*
X760601Y21003D02*
X766193Y21003D01*
X755779Y21846D02*
X750187Y21846D01*
X755779Y21846D02*
X755779Y10158D01*
X750187Y10158D01*
X750187Y21846D01*
X750187Y12327D02*
X755779Y12327D01*
X755779Y14496D02*
X750187Y14496D01*
X750187Y16665D02*
X755779Y16665D01*
X755779Y18834D02*
X750187Y18834D01*
X750187Y21003D02*
X755779Y21003D01*
D16*
X728980Y431800D03*
D10*
X615317Y481840D02*
X609725Y481840D01*
X615317Y481840D02*
X615317Y470152D01*
X609725Y470152D01*
X609725Y481840D01*
X609725Y472321D02*
X615317Y472321D01*
X615317Y474490D02*
X609725Y474490D01*
X609725Y476659D02*
X615317Y476659D01*
X615317Y478828D02*
X609725Y478828D01*
X609725Y480997D02*
X615317Y480997D01*
X604903Y481840D02*
X599311Y481840D01*
X604903Y481840D02*
X604903Y470152D01*
X599311Y470152D01*
X599311Y481840D01*
X599311Y472321D02*
X604903Y472321D01*
X604903Y474490D02*
X599311Y474490D01*
X599311Y476659D02*
X604903Y476659D01*
X604903Y478828D02*
X599311Y478828D01*
X599311Y480997D02*
X604903Y480997D01*
X102364Y858010D02*
X102364Y863602D01*
X102364Y858010D02*
X90676Y858010D01*
X90676Y863602D01*
X102364Y863602D01*
X102364Y860179D02*
X90676Y860179D01*
X90676Y862348D02*
X102364Y862348D01*
X102364Y868424D02*
X102364Y874016D01*
X102364Y868424D02*
X90676Y868424D01*
X90676Y874016D01*
X102364Y874016D01*
X102364Y870593D02*
X90676Y870593D01*
X90676Y872762D02*
X102364Y872762D01*
X102364Y878838D02*
X102364Y884430D01*
X102364Y878838D02*
X90676Y878838D01*
X90676Y884430D01*
X102364Y884430D01*
X102364Y881007D02*
X90676Y881007D01*
X90676Y883176D02*
X102364Y883176D01*
D11*
X419100Y906780D03*
X419100Y881380D03*
X419100Y855980D03*
X419100Y830580D03*
X419100Y805180D03*
X419100Y779780D03*
X419100Y754380D03*
X419100Y728980D03*
X419100Y703580D03*
X419100Y678180D03*
X419100Y652780D03*
D12*
X50800Y589280D03*
X368300Y1008380D03*
D13*
X406400Y1021080D03*
X25400Y1021080D03*
D14*
X100584Y808355D02*
X100584Y803021D01*
X88900Y803021D01*
X88900Y808355D01*
X100584Y808355D01*
X100584Y805193D02*
X88900Y805193D01*
X88900Y807365D02*
X100584Y807365D01*
X100584Y811149D02*
X100584Y816483D01*
X100584Y811149D02*
X88900Y811149D01*
X88900Y816483D01*
X100584Y816483D01*
X100584Y813321D02*
X88900Y813321D01*
X88900Y815493D02*
X100584Y815493D01*
D10*
X248791Y560326D02*
X254383Y560326D01*
X254383Y548638D01*
X248791Y548638D01*
X248791Y560326D01*
X248791Y550807D02*
X254383Y550807D01*
X254383Y552976D02*
X248791Y552976D01*
X248791Y555145D02*
X254383Y555145D01*
X254383Y557314D02*
X248791Y557314D01*
X248791Y559483D02*
X254383Y559483D01*
X243969Y560326D02*
X238377Y560326D01*
X243969Y560326D02*
X243969Y548638D01*
X238377Y548638D01*
X238377Y560326D01*
X238377Y550807D02*
X243969Y550807D01*
X243969Y552976D02*
X238377Y552976D01*
X238377Y555145D02*
X243969Y555145D01*
X243969Y557314D02*
X238377Y557314D01*
X238377Y559483D02*
X243969Y559483D01*
D15*
X155900Y997684D03*
X98100Y997684D03*
D10*
X363091Y560326D02*
X368683Y560326D01*
X368683Y548638D01*
X363091Y548638D01*
X363091Y560326D01*
X363091Y550807D02*
X368683Y550807D01*
X368683Y552976D02*
X363091Y552976D01*
X363091Y555145D02*
X368683Y555145D01*
X368683Y557314D02*
X363091Y557314D01*
X363091Y559483D02*
X368683Y559483D01*
X358269Y560326D02*
X352677Y560326D01*
X358269Y560326D02*
X358269Y548638D01*
X352677Y548638D01*
X352677Y560326D01*
X352677Y550807D02*
X358269Y550807D01*
X358269Y552976D02*
X352677Y552976D01*
X352677Y555145D02*
X358269Y555145D01*
X358269Y557314D02*
X352677Y557314D01*
X352677Y559483D02*
X358269Y559483D01*
X292483Y560326D02*
X286891Y560326D01*
X292483Y560326D02*
X292483Y548638D01*
X286891Y548638D01*
X286891Y560326D01*
X286891Y550807D02*
X292483Y550807D01*
X292483Y552976D02*
X286891Y552976D01*
X286891Y555145D02*
X292483Y555145D01*
X292483Y557314D02*
X286891Y557314D01*
X286891Y559483D02*
X292483Y559483D01*
X282069Y560326D02*
X276477Y560326D01*
X282069Y560326D02*
X282069Y548638D01*
X276477Y548638D01*
X276477Y560326D01*
X276477Y550807D02*
X282069Y550807D01*
X282069Y552976D02*
X276477Y552976D01*
X276477Y555145D02*
X282069Y555145D01*
X282069Y557314D02*
X276477Y557314D01*
X276477Y559483D02*
X282069Y559483D01*
D13*
X25400Y563626D03*
X406400Y563626D03*
D11*
X342900Y1033780D03*
X317500Y1033780D03*
X292100Y1033780D03*
X266700Y1033780D03*
X241300Y1033780D03*
X215900Y1033780D03*
X12700Y703580D03*
X12700Y728980D03*
X12700Y754380D03*
X12700Y779780D03*
X12700Y805180D03*
X12700Y830580D03*
X12700Y855980D03*
X12700Y881380D03*
X12700Y906780D03*
D10*
X323721Y560326D02*
X329313Y560326D01*
X329313Y548638D01*
X323721Y548638D01*
X323721Y560326D01*
X323721Y550807D02*
X329313Y550807D01*
X329313Y552976D02*
X323721Y552976D01*
X323721Y555145D02*
X329313Y555145D01*
X329313Y557314D02*
X323721Y557314D01*
X323721Y559483D02*
X329313Y559483D01*
X318899Y560326D02*
X313307Y560326D01*
X318899Y560326D02*
X318899Y548638D01*
X313307Y548638D01*
X313307Y560326D01*
X313307Y550807D02*
X318899Y550807D01*
X318899Y552976D02*
X313307Y552976D01*
X313307Y555145D02*
X318899Y555145D01*
X318899Y557314D02*
X313307Y557314D01*
X313307Y559483D02*
X318899Y559483D01*
D16*
X292100Y970280D03*
D10*
X178437Y1020320D02*
X172845Y1020320D01*
X178437Y1020320D02*
X178437Y1008632D01*
X172845Y1008632D01*
X172845Y1020320D01*
X172845Y1010801D02*
X178437Y1010801D01*
X178437Y1012970D02*
X172845Y1012970D01*
X172845Y1015139D02*
X178437Y1015139D01*
X178437Y1017308D02*
X172845Y1017308D01*
X172845Y1019477D02*
X178437Y1019477D01*
X168023Y1020320D02*
X162431Y1020320D01*
X168023Y1020320D02*
X168023Y1008632D01*
X162431Y1008632D01*
X162431Y1020320D01*
X162431Y1010801D02*
X168023Y1010801D01*
X168023Y1012970D02*
X162431Y1012970D01*
X162431Y1015139D02*
X168023Y1015139D01*
X168023Y1017308D02*
X162431Y1017308D01*
X162431Y1019477D02*
X168023Y1019477D01*
X539244Y863602D02*
X539244Y858010D01*
X527556Y858010D01*
X527556Y863602D01*
X539244Y863602D01*
X539244Y860179D02*
X527556Y860179D01*
X527556Y862348D02*
X539244Y862348D01*
X539244Y868424D02*
X539244Y874016D01*
X539244Y868424D02*
X527556Y868424D01*
X527556Y874016D01*
X539244Y874016D01*
X539244Y870593D02*
X527556Y870593D01*
X527556Y872762D02*
X539244Y872762D01*
X539244Y878838D02*
X539244Y884430D01*
X539244Y878838D02*
X527556Y878838D01*
X527556Y884430D01*
X539244Y884430D01*
X539244Y881007D02*
X527556Y881007D01*
X527556Y883176D02*
X539244Y883176D01*
D11*
X855980Y906780D03*
X855980Y881380D03*
X855980Y855980D03*
X855980Y830580D03*
X855980Y805180D03*
X855980Y779780D03*
X855980Y754380D03*
X855980Y728980D03*
X855980Y703580D03*
X855980Y678180D03*
X855980Y652780D03*
D12*
X487680Y589280D03*
X805180Y1008380D03*
D13*
X843280Y1021080D03*
X462280Y1021080D03*
D14*
X537464Y808355D02*
X537464Y803021D01*
X525780Y803021D01*
X525780Y808355D01*
X537464Y808355D01*
X537464Y805193D02*
X525780Y805193D01*
X525780Y807365D02*
X537464Y807365D01*
X537464Y811149D02*
X537464Y816483D01*
X537464Y811149D02*
X525780Y811149D01*
X525780Y816483D01*
X537464Y816483D01*
X537464Y813321D02*
X525780Y813321D01*
X525780Y815493D02*
X537464Y815493D01*
D10*
X685671Y560326D02*
X691263Y560326D01*
X691263Y548638D01*
X685671Y548638D01*
X685671Y560326D01*
X685671Y550807D02*
X691263Y550807D01*
X691263Y552976D02*
X685671Y552976D01*
X685671Y555145D02*
X691263Y555145D01*
X691263Y557314D02*
X685671Y557314D01*
X685671Y559483D02*
X691263Y559483D01*
X680849Y560326D02*
X675257Y560326D01*
X680849Y560326D02*
X680849Y548638D01*
X675257Y548638D01*
X675257Y560326D01*
X675257Y550807D02*
X680849Y550807D01*
X680849Y552976D02*
X675257Y552976D01*
X675257Y555145D02*
X680849Y555145D01*
X680849Y557314D02*
X675257Y557314D01*
X675257Y559483D02*
X680849Y559483D01*
D15*
X592780Y997684D03*
X534980Y997684D03*
D10*
X799971Y560326D02*
X805563Y560326D01*
X805563Y548638D01*
X799971Y548638D01*
X799971Y560326D01*
X799971Y550807D02*
X805563Y550807D01*
X805563Y552976D02*
X799971Y552976D01*
X799971Y555145D02*
X805563Y555145D01*
X805563Y557314D02*
X799971Y557314D01*
X799971Y559483D02*
X805563Y559483D01*
X795149Y560326D02*
X789557Y560326D01*
X795149Y560326D02*
X795149Y548638D01*
X789557Y548638D01*
X789557Y560326D01*
X789557Y550807D02*
X795149Y550807D01*
X795149Y552976D02*
X789557Y552976D01*
X789557Y555145D02*
X795149Y555145D01*
X795149Y557314D02*
X789557Y557314D01*
X789557Y559483D02*
X795149Y559483D01*
X729363Y560326D02*
X723771Y560326D01*
X729363Y560326D02*
X729363Y548638D01*
X723771Y548638D01*
X723771Y560326D01*
X723771Y550807D02*
X729363Y550807D01*
X729363Y552976D02*
X723771Y552976D01*
X723771Y555145D02*
X729363Y555145D01*
X729363Y557314D02*
X723771Y557314D01*
X723771Y559483D02*
X729363Y559483D01*
X718949Y560326D02*
X713357Y560326D01*
X718949Y560326D02*
X718949Y548638D01*
X713357Y548638D01*
X713357Y560326D01*
X713357Y550807D02*
X718949Y550807D01*
X718949Y552976D02*
X713357Y552976D01*
X713357Y555145D02*
X718949Y555145D01*
X718949Y557314D02*
X713357Y557314D01*
X713357Y559483D02*
X718949Y559483D01*
D13*
X462280Y563626D03*
X843280Y563626D03*
D11*
X779780Y1033780D03*
X754380Y1033780D03*
X728980Y1033780D03*
X703580Y1033780D03*
X678180Y1033780D03*
X652780Y1033780D03*
X449580Y703580D03*
X449580Y728980D03*
X449580Y754380D03*
X449580Y779780D03*
X449580Y805180D03*
X449580Y830580D03*
X449580Y855980D03*
X449580Y881380D03*
X449580Y906780D03*
D10*
X760601Y560326D02*
X766193Y560326D01*
X766193Y548638D01*
X760601Y548638D01*
X760601Y560326D01*
X760601Y550807D02*
X766193Y550807D01*
X766193Y552976D02*
X760601Y552976D01*
X760601Y555145D02*
X766193Y555145D01*
X766193Y557314D02*
X760601Y557314D01*
X760601Y559483D02*
X766193Y559483D01*
X755779Y560326D02*
X750187Y560326D01*
X755779Y560326D02*
X755779Y548638D01*
X750187Y548638D01*
X750187Y560326D01*
X750187Y550807D02*
X755779Y550807D01*
X755779Y552976D02*
X750187Y552976D01*
X750187Y555145D02*
X755779Y555145D01*
X755779Y557314D02*
X750187Y557314D01*
X750187Y559483D02*
X755779Y559483D01*
D16*
X728980Y970280D03*
D10*
X615317Y1020320D02*
X609725Y1020320D01*
X615317Y1020320D02*
X615317Y1008632D01*
X609725Y1008632D01*
X609725Y1020320D01*
X609725Y1010801D02*
X615317Y1010801D01*
X615317Y1012970D02*
X609725Y1012970D01*
X609725Y1015139D02*
X615317Y1015139D01*
X615317Y1017308D02*
X609725Y1017308D01*
X609725Y1019477D02*
X615317Y1019477D01*
X604903Y1020320D02*
X599311Y1020320D01*
X604903Y1020320D02*
X604903Y1008632D01*
X599311Y1008632D01*
X599311Y1020320D01*
X599311Y1010801D02*
X604903Y1010801D01*
X604903Y1012970D02*
X599311Y1012970D01*
X599311Y1015139D02*
X604903Y1015139D01*
X604903Y1017308D02*
X599311Y1017308D01*
X599311Y1019477D02*
X604903Y1019477D01*
D17*
X-26238Y1045210D03*
X894918Y1045210D03*
D18*
X-35293Y63500D02*
X-35290Y63722D01*
X-35282Y63944D01*
X-35268Y64166D01*
X-35249Y64388D01*
X-35225Y64608D01*
X-35195Y64829D01*
X-35160Y65048D01*
X-35119Y65267D01*
X-35073Y65484D01*
X-35022Y65700D01*
X-34965Y65915D01*
X-34903Y66129D01*
X-34836Y66340D01*
X-34764Y66551D01*
X-34686Y66759D01*
X-34604Y66965D01*
X-34516Y67169D01*
X-34424Y67372D01*
X-34326Y67571D01*
X-34224Y67768D01*
X-34117Y67963D01*
X-34005Y68155D01*
X-33888Y68344D01*
X-33767Y68531D01*
X-33641Y68714D01*
X-33511Y68894D01*
X-33376Y69071D01*
X-33238Y69244D01*
X-33095Y69414D01*
X-32947Y69581D01*
X-32796Y69744D01*
X-32641Y69903D01*
X-32482Y70058D01*
X-32319Y70209D01*
X-32152Y70357D01*
X-31982Y70500D01*
X-31809Y70638D01*
X-31632Y70773D01*
X-31452Y70903D01*
X-31269Y71029D01*
X-31082Y71150D01*
X-30893Y71267D01*
X-30701Y71379D01*
X-30506Y71486D01*
X-30309Y71588D01*
X-30110Y71686D01*
X-29907Y71778D01*
X-29703Y71866D01*
X-29497Y71948D01*
X-29289Y72026D01*
X-29078Y72098D01*
X-28867Y72165D01*
X-28653Y72227D01*
X-28438Y72284D01*
X-28222Y72335D01*
X-28005Y72381D01*
X-27786Y72422D01*
X-27567Y72457D01*
X-27346Y72487D01*
X-27126Y72511D01*
X-26904Y72530D01*
X-26682Y72544D01*
X-26460Y72552D01*
X-26238Y72555D01*
X-26016Y72552D01*
X-25794Y72544D01*
X-25572Y72530D01*
X-25350Y72511D01*
X-25130Y72487D01*
X-24909Y72457D01*
X-24690Y72422D01*
X-24471Y72381D01*
X-24254Y72335D01*
X-24038Y72284D01*
X-23823Y72227D01*
X-23609Y72165D01*
X-23398Y72098D01*
X-23187Y72026D01*
X-22979Y71948D01*
X-22773Y71866D01*
X-22569Y71778D01*
X-22366Y71686D01*
X-22167Y71588D01*
X-21970Y71486D01*
X-21775Y71379D01*
X-21583Y71267D01*
X-21394Y71150D01*
X-21207Y71029D01*
X-21024Y70903D01*
X-20844Y70773D01*
X-20667Y70638D01*
X-20494Y70500D01*
X-20324Y70357D01*
X-20157Y70209D01*
X-19994Y70058D01*
X-19835Y69903D01*
X-19680Y69744D01*
X-19529Y69581D01*
X-19381Y69414D01*
X-19238Y69244D01*
X-19100Y69071D01*
X-18965Y68894D01*
X-18835Y68714D01*
X-18709Y68531D01*
X-18588Y68344D01*
X-18471Y68155D01*
X-18359Y67963D01*
X-18252Y67768D01*
X-18150Y67571D01*
X-18052Y67372D01*
X-17960Y67169D01*
X-17872Y66965D01*
X-17790Y66759D01*
X-17712Y66551D01*
X-17640Y66340D01*
X-17573Y66129D01*
X-17511Y65915D01*
X-17454Y65700D01*
X-17403Y65484D01*
X-17357Y65267D01*
X-17316Y65048D01*
X-17281Y64829D01*
X-17251Y64608D01*
X-17227Y64388D01*
X-17208Y64166D01*
X-17194Y63944D01*
X-17186Y63722D01*
X-17183Y63500D01*
X-17186Y63278D01*
X-17194Y63056D01*
X-17208Y62834D01*
X-17227Y62612D01*
X-17251Y62392D01*
X-17281Y62171D01*
X-17316Y61952D01*
X-17357Y61733D01*
X-17403Y61516D01*
X-17454Y61300D01*
X-17511Y61085D01*
X-17573Y60871D01*
X-17640Y60660D01*
X-17712Y60449D01*
X-17790Y60241D01*
X-17872Y60035D01*
X-17960Y59831D01*
X-18052Y59628D01*
X-18150Y59429D01*
X-18252Y59232D01*
X-18359Y59037D01*
X-18471Y58845D01*
X-18588Y58656D01*
X-18709Y58469D01*
X-18835Y58286D01*
X-18965Y58106D01*
X-19100Y57929D01*
X-19238Y57756D01*
X-19381Y57586D01*
X-19529Y57419D01*
X-19680Y57256D01*
X-19835Y57097D01*
X-19994Y56942D01*
X-20157Y56791D01*
X-20324Y56643D01*
X-20494Y56500D01*
X-20667Y56362D01*
X-20844Y56227D01*
X-21024Y56097D01*
X-21207Y55971D01*
X-21394Y55850D01*
X-21583Y55733D01*
X-21775Y55621D01*
X-21970Y55514D01*
X-22167Y55412D01*
X-22366Y55314D01*
X-22569Y55222D01*
X-22773Y55134D01*
X-22979Y55052D01*
X-23187Y54974D01*
X-23398Y54902D01*
X-23609Y54835D01*
X-23823Y54773D01*
X-24038Y54716D01*
X-24254Y54665D01*
X-24471Y54619D01*
X-24690Y54578D01*
X-24909Y54543D01*
X-25130Y54513D01*
X-25350Y54489D01*
X-25572Y54470D01*
X-25794Y54456D01*
X-26016Y54448D01*
X-26238Y54445D01*
X-26460Y54448D01*
X-26682Y54456D01*
X-26904Y54470D01*
X-27126Y54489D01*
X-27346Y54513D01*
X-27567Y54543D01*
X-27786Y54578D01*
X-28005Y54619D01*
X-28222Y54665D01*
X-28438Y54716D01*
X-28653Y54773D01*
X-28867Y54835D01*
X-29078Y54902D01*
X-29289Y54974D01*
X-29497Y55052D01*
X-29703Y55134D01*
X-29907Y55222D01*
X-30110Y55314D01*
X-30309Y55412D01*
X-30506Y55514D01*
X-30701Y55621D01*
X-30893Y55733D01*
X-31082Y55850D01*
X-31269Y55971D01*
X-31452Y56097D01*
X-31632Y56227D01*
X-31809Y56362D01*
X-31982Y56500D01*
X-32152Y56643D01*
X-32319Y56791D01*
X-32482Y56942D01*
X-32641Y57097D01*
X-32796Y57256D01*
X-32947Y57419D01*
X-33095Y57586D01*
X-33238Y57756D01*
X-33376Y57929D01*
X-33511Y58106D01*
X-33641Y58286D01*
X-33767Y58469D01*
X-33888Y58656D01*
X-34005Y58845D01*
X-34117Y59037D01*
X-34224Y59232D01*
X-34326Y59429D01*
X-34424Y59628D01*
X-34516Y59831D01*
X-34604Y60035D01*
X-34686Y60241D01*
X-34764Y60449D01*
X-34836Y60660D01*
X-34903Y60871D01*
X-34965Y61085D01*
X-35022Y61300D01*
X-35073Y61516D01*
X-35119Y61733D01*
X-35160Y61952D01*
X-35195Y62171D01*
X-35225Y62392D01*
X-35249Y62612D01*
X-35268Y62834D01*
X-35282Y63056D01*
X-35290Y63278D01*
X-35293Y63500D01*
D19*
X-26238Y63500D03*
M02*
