G04 EAGLE Gerber RS-274X export*
G75*
%MOMM*%
%FSLAX34Y34*%
%LPD*%
%INSolderpaste Top*%
%IPPOS*%
%AMOC8*
5,1,8,0,0,1.08239X$1,22.5*%
G01*
%ADD10R,2.000000X1.200000*%
%ADD11R,1.350000X0.600000*%
%ADD12R,1.100000X1.000000*%
%ADD13R,0.850000X2.200000*%
%ADD14R,1.000000X1.050000*%
%ADD15R,0.830000X0.630000*%
%ADD16R,1.000000X1.100000*%
%ADD17C,0.300000*%
%ADD18R,0.850000X0.900000*%
%ADD19R,1.700000X4.200000*%
%ADD20R,0.300000X1.000000*%
%ADD21R,0.600000X1.000000*%
%ADD22R,0.550000X1.200000*%
%ADD23R,0.900000X0.850000*%
%ADD24R,0.250000X0.610000*%
%ADD25R,0.250000X0.560000*%
%ADD26R,0.800000X1.500000*%
%ADD27R,1.500000X0.800000*%
%ADD28R,1.100000X1.100000*%
%ADD29R,0.400000X0.700000*%
%ADD30R,0.800000X0.900000*%
%ADD31R,1.900000X0.640000*%
%ADD32R,0.240000X0.440000*%
%ADD33R,0.440000X0.240000*%
%ADD34R,0.550000X0.800000*%
%ADD35R,0.550000X0.500000*%

G36*
X317646Y944506D02*
X317646Y944506D01*
X317663Y944503D01*
X317713Y944525D01*
X317764Y944540D01*
X317775Y944553D01*
X317791Y944560D01*
X317821Y944605D01*
X317856Y944645D01*
X317859Y944662D01*
X317868Y944677D01*
X317879Y944750D01*
X317879Y968750D01*
X317867Y968792D01*
X317864Y968836D01*
X317848Y968858D01*
X317840Y968884D01*
X317807Y968913D01*
X317781Y968948D01*
X317755Y968958D01*
X317735Y968976D01*
X317691Y968983D01*
X317651Y968998D01*
X317624Y968993D01*
X317597Y968997D01*
X317556Y968979D01*
X317514Y968970D01*
X317478Y968944D01*
X317469Y968940D01*
X317465Y968935D01*
X317454Y968926D01*
X293454Y944926D01*
X293433Y944888D01*
X293404Y944855D01*
X293400Y944828D01*
X293387Y944804D01*
X293390Y944760D01*
X293383Y944717D01*
X293394Y944692D01*
X293396Y944664D01*
X293422Y944629D01*
X293440Y944589D01*
X293463Y944574D01*
X293479Y944552D01*
X293520Y944536D01*
X293557Y944512D01*
X293600Y944505D01*
X293609Y944502D01*
X293616Y944503D01*
X293630Y944501D01*
X317630Y944501D01*
X317646Y944506D01*
G37*
G36*
X754526Y944506D02*
X754526Y944506D01*
X754543Y944503D01*
X754593Y944525D01*
X754644Y944540D01*
X754655Y944553D01*
X754671Y944560D01*
X754701Y944605D01*
X754736Y944645D01*
X754739Y944662D01*
X754748Y944677D01*
X754759Y944750D01*
X754759Y968750D01*
X754747Y968792D01*
X754744Y968836D01*
X754728Y968858D01*
X754720Y968884D01*
X754687Y968913D01*
X754661Y968948D01*
X754635Y968958D01*
X754615Y968976D01*
X754571Y968983D01*
X754531Y968998D01*
X754504Y968993D01*
X754477Y968997D01*
X754436Y968979D01*
X754394Y968970D01*
X754358Y968944D01*
X754349Y968940D01*
X754345Y968935D01*
X754334Y968926D01*
X730334Y944926D01*
X730313Y944888D01*
X730284Y944855D01*
X730280Y944828D01*
X730267Y944804D01*
X730270Y944760D01*
X730263Y944717D01*
X730274Y944692D01*
X730276Y944664D01*
X730302Y944629D01*
X730320Y944589D01*
X730343Y944574D01*
X730359Y944552D01*
X730400Y944536D01*
X730437Y944512D01*
X730480Y944505D01*
X730489Y944502D01*
X730496Y944503D01*
X730510Y944501D01*
X754510Y944501D01*
X754526Y944506D01*
G37*
G36*
X754526Y406026D02*
X754526Y406026D01*
X754543Y406023D01*
X754593Y406045D01*
X754644Y406060D01*
X754655Y406073D01*
X754671Y406080D01*
X754701Y406125D01*
X754736Y406165D01*
X754739Y406182D01*
X754748Y406197D01*
X754759Y406270D01*
X754759Y430270D01*
X754747Y430312D01*
X754744Y430356D01*
X754728Y430378D01*
X754720Y430404D01*
X754687Y430433D01*
X754661Y430468D01*
X754635Y430478D01*
X754615Y430496D01*
X754571Y430503D01*
X754531Y430518D01*
X754504Y430513D01*
X754477Y430517D01*
X754436Y430499D01*
X754394Y430490D01*
X754358Y430464D01*
X754349Y430460D01*
X754345Y430455D01*
X754334Y430446D01*
X730334Y406446D01*
X730313Y406408D01*
X730284Y406375D01*
X730280Y406348D01*
X730267Y406324D01*
X730270Y406280D01*
X730263Y406237D01*
X730274Y406212D01*
X730276Y406184D01*
X730302Y406149D01*
X730320Y406109D01*
X730343Y406094D01*
X730359Y406072D01*
X730400Y406056D01*
X730437Y406032D01*
X730480Y406025D01*
X730489Y406022D01*
X730496Y406023D01*
X730510Y406021D01*
X754510Y406021D01*
X754526Y406026D01*
G37*
G36*
X317646Y406026D02*
X317646Y406026D01*
X317663Y406023D01*
X317713Y406045D01*
X317764Y406060D01*
X317775Y406073D01*
X317791Y406080D01*
X317821Y406125D01*
X317856Y406165D01*
X317859Y406182D01*
X317868Y406197D01*
X317879Y406270D01*
X317879Y430270D01*
X317867Y430312D01*
X317864Y430356D01*
X317848Y430378D01*
X317840Y430404D01*
X317807Y430433D01*
X317781Y430468D01*
X317755Y430478D01*
X317735Y430496D01*
X317691Y430503D01*
X317651Y430518D01*
X317624Y430513D01*
X317597Y430517D01*
X317556Y430499D01*
X317514Y430490D01*
X317478Y430464D01*
X317469Y430460D01*
X317465Y430455D01*
X317454Y430446D01*
X293454Y406446D01*
X293433Y406408D01*
X293404Y406375D01*
X293400Y406348D01*
X293387Y406324D01*
X293390Y406280D01*
X293383Y406237D01*
X293394Y406212D01*
X293396Y406184D01*
X293422Y406149D01*
X293440Y406109D01*
X293463Y406094D01*
X293479Y406072D01*
X293520Y406056D01*
X293557Y406032D01*
X293600Y406025D01*
X293609Y406022D01*
X293616Y406023D01*
X293630Y406021D01*
X317630Y406021D01*
X317646Y406026D01*
G37*
G36*
X520884Y981689D02*
X520884Y981689D01*
X520887Y981685D01*
X521995Y981855D01*
X522001Y981861D01*
X522006Y981858D01*
X523048Y982270D01*
X523052Y982277D01*
X523057Y982275D01*
X523982Y982909D01*
X523984Y982917D01*
X523990Y982916D01*
X524750Y983740D01*
X524751Y983748D01*
X524757Y983748D01*
X525314Y984720D01*
X525314Y984724D01*
X525315Y984725D01*
X525313Y984727D01*
X525313Y984728D01*
X525319Y984730D01*
X525646Y985802D01*
X525645Y985807D01*
X525647Y985808D01*
X525645Y985811D01*
X525648Y985813D01*
X525729Y986930D01*
X525728Y986933D01*
X525729Y986934D01*
X525729Y998934D01*
X525724Y998941D01*
X525728Y998945D01*
X525509Y999889D01*
X525503Y999895D01*
X525505Y999900D01*
X525082Y1000772D01*
X525074Y1000775D01*
X525076Y1000781D01*
X524469Y1001537D01*
X524461Y1001539D01*
X524461Y1001545D01*
X523701Y1002146D01*
X523692Y1002146D01*
X523691Y1002152D01*
X522816Y1002570D01*
X522808Y1002568D01*
X522806Y1002573D01*
X521860Y1002786D01*
X521853Y1002782D01*
X521849Y1002787D01*
X520880Y1002783D01*
X520879Y1002783D01*
X519811Y1002764D01*
X519810Y1002764D01*
X519809Y1002764D01*
X519804Y1002760D01*
X519800Y1002763D01*
X518763Y1002507D01*
X518758Y1002500D01*
X518752Y1002503D01*
X517798Y1002022D01*
X517795Y1002015D01*
X517789Y1002016D01*
X516966Y1001335D01*
X516964Y1001327D01*
X516958Y1001327D01*
X516307Y1000480D01*
X516307Y1000472D01*
X516301Y1000471D01*
X515854Y999500D01*
X515856Y999492D01*
X515851Y999490D01*
X515632Y998444D01*
X515635Y998437D01*
X515631Y998434D01*
X515631Y986434D01*
X515634Y986429D01*
X515631Y986426D01*
X515811Y985331D01*
X515817Y985325D01*
X515814Y985320D01*
X516233Y984292D01*
X516240Y984288D01*
X516238Y984283D01*
X516876Y983374D01*
X516883Y983372D01*
X516883Y983366D01*
X517706Y982622D01*
X517714Y982621D01*
X517715Y982615D01*
X518683Y982073D01*
X518692Y982074D01*
X518694Y982068D01*
X519758Y981755D01*
X519766Y981758D01*
X519769Y981753D01*
X520877Y981685D01*
X520884Y981689D01*
G37*
G36*
X84004Y981689D02*
X84004Y981689D01*
X84007Y981685D01*
X85115Y981855D01*
X85121Y981861D01*
X85126Y981858D01*
X86168Y982270D01*
X86172Y982277D01*
X86177Y982275D01*
X87102Y982909D01*
X87104Y982917D01*
X87110Y982916D01*
X87870Y983740D01*
X87871Y983748D01*
X87877Y983748D01*
X88434Y984720D01*
X88434Y984724D01*
X88435Y984725D01*
X88433Y984727D01*
X88433Y984728D01*
X88439Y984730D01*
X88766Y985802D01*
X88765Y985807D01*
X88767Y985808D01*
X88765Y985811D01*
X88768Y985813D01*
X88849Y986930D01*
X88848Y986933D01*
X88849Y986934D01*
X88849Y998934D01*
X88844Y998941D01*
X88848Y998945D01*
X88629Y999889D01*
X88623Y999895D01*
X88625Y999900D01*
X88202Y1000772D01*
X88194Y1000775D01*
X88196Y1000781D01*
X87589Y1001537D01*
X87581Y1001539D01*
X87581Y1001545D01*
X86821Y1002146D01*
X86812Y1002146D01*
X86811Y1002152D01*
X85936Y1002570D01*
X85928Y1002568D01*
X85926Y1002573D01*
X84980Y1002786D01*
X84973Y1002782D01*
X84969Y1002787D01*
X84000Y1002783D01*
X83999Y1002783D01*
X82931Y1002764D01*
X82930Y1002764D01*
X82929Y1002764D01*
X82924Y1002760D01*
X82920Y1002763D01*
X81883Y1002507D01*
X81878Y1002500D01*
X81872Y1002503D01*
X80918Y1002022D01*
X80915Y1002015D01*
X80909Y1002016D01*
X80086Y1001335D01*
X80084Y1001327D01*
X80078Y1001327D01*
X79427Y1000480D01*
X79427Y1000472D01*
X79421Y1000471D01*
X78974Y999500D01*
X78976Y999492D01*
X78971Y999490D01*
X78752Y998444D01*
X78755Y998437D01*
X78751Y998434D01*
X78751Y986434D01*
X78754Y986429D01*
X78751Y986426D01*
X78931Y985331D01*
X78937Y985325D01*
X78934Y985320D01*
X79353Y984292D01*
X79360Y984288D01*
X79358Y984283D01*
X79996Y983374D01*
X80003Y983372D01*
X80003Y983366D01*
X80826Y982622D01*
X80834Y982621D01*
X80835Y982615D01*
X81803Y982073D01*
X81812Y982074D01*
X81814Y982068D01*
X82878Y981755D01*
X82886Y981758D01*
X82889Y981753D01*
X83997Y981685D01*
X84004Y981689D01*
G37*
G36*
X520884Y443209D02*
X520884Y443209D01*
X520887Y443205D01*
X521995Y443375D01*
X522001Y443381D01*
X522006Y443378D01*
X523048Y443790D01*
X523052Y443797D01*
X523057Y443795D01*
X523982Y444429D01*
X523984Y444437D01*
X523990Y444436D01*
X524750Y445260D01*
X524751Y445268D01*
X524757Y445268D01*
X525314Y446240D01*
X525314Y446244D01*
X525315Y446245D01*
X525313Y446247D01*
X525313Y446248D01*
X525319Y446250D01*
X525646Y447322D01*
X525645Y447327D01*
X525647Y447328D01*
X525645Y447331D01*
X525648Y447333D01*
X525729Y448450D01*
X525728Y448453D01*
X525729Y448454D01*
X525729Y460454D01*
X525724Y460461D01*
X525728Y460465D01*
X525509Y461409D01*
X525503Y461415D01*
X525505Y461420D01*
X525082Y462292D01*
X525074Y462295D01*
X525076Y462301D01*
X524469Y463057D01*
X524461Y463059D01*
X524461Y463065D01*
X523701Y463666D01*
X523692Y463666D01*
X523691Y463672D01*
X522816Y464090D01*
X522808Y464088D01*
X522806Y464093D01*
X521860Y464306D01*
X521853Y464302D01*
X521849Y464307D01*
X520880Y464303D01*
X520879Y464303D01*
X519811Y464284D01*
X519810Y464284D01*
X519804Y464280D01*
X519800Y464283D01*
X518763Y464027D01*
X518758Y464020D01*
X518752Y464023D01*
X517798Y463542D01*
X517795Y463535D01*
X517789Y463536D01*
X516966Y462855D01*
X516964Y462847D01*
X516958Y462847D01*
X516307Y462000D01*
X516307Y461992D01*
X516301Y461991D01*
X515854Y461020D01*
X515856Y461012D01*
X515851Y461010D01*
X515632Y459964D01*
X515635Y459957D01*
X515631Y459954D01*
X515631Y447954D01*
X515634Y447949D01*
X515631Y447946D01*
X515811Y446851D01*
X515817Y446845D01*
X515814Y446840D01*
X516233Y445812D01*
X516240Y445808D01*
X516238Y445803D01*
X516876Y444894D01*
X516883Y444892D01*
X516883Y444886D01*
X517706Y444142D01*
X517714Y444141D01*
X517715Y444135D01*
X518683Y443593D01*
X518692Y443594D01*
X518694Y443588D01*
X519758Y443275D01*
X519766Y443278D01*
X519769Y443273D01*
X520877Y443205D01*
X520884Y443209D01*
G37*
G36*
X84004Y443209D02*
X84004Y443209D01*
X84007Y443205D01*
X85115Y443375D01*
X85121Y443381D01*
X85126Y443378D01*
X86168Y443790D01*
X86172Y443797D01*
X86177Y443795D01*
X87102Y444429D01*
X87104Y444437D01*
X87110Y444436D01*
X87870Y445260D01*
X87871Y445268D01*
X87877Y445268D01*
X88434Y446240D01*
X88434Y446244D01*
X88435Y446245D01*
X88433Y446247D01*
X88433Y446248D01*
X88439Y446250D01*
X88766Y447322D01*
X88765Y447327D01*
X88767Y447328D01*
X88765Y447331D01*
X88768Y447333D01*
X88849Y448450D01*
X88848Y448453D01*
X88849Y448454D01*
X88849Y460454D01*
X88844Y460461D01*
X88848Y460465D01*
X88629Y461409D01*
X88623Y461415D01*
X88625Y461420D01*
X88202Y462292D01*
X88194Y462295D01*
X88196Y462301D01*
X87589Y463057D01*
X87581Y463059D01*
X87581Y463065D01*
X86821Y463666D01*
X86812Y463666D01*
X86811Y463672D01*
X85936Y464090D01*
X85928Y464088D01*
X85926Y464093D01*
X84980Y464306D01*
X84973Y464302D01*
X84969Y464307D01*
X84000Y464303D01*
X83999Y464303D01*
X82931Y464284D01*
X82930Y464284D01*
X82924Y464280D01*
X82920Y464283D01*
X81883Y464027D01*
X81878Y464020D01*
X81872Y464023D01*
X80918Y463542D01*
X80915Y463535D01*
X80909Y463536D01*
X80086Y462855D01*
X80084Y462847D01*
X80078Y462847D01*
X79427Y462000D01*
X79427Y461992D01*
X79421Y461991D01*
X78974Y461020D01*
X78976Y461012D01*
X78971Y461010D01*
X78752Y459964D01*
X78755Y459957D01*
X78751Y459954D01*
X78751Y447954D01*
X78754Y447949D01*
X78751Y447946D01*
X78931Y446851D01*
X78937Y446845D01*
X78934Y446840D01*
X79353Y445812D01*
X79360Y445808D01*
X79358Y445803D01*
X79996Y444894D01*
X80003Y444892D01*
X80003Y444886D01*
X80826Y444142D01*
X80834Y444141D01*
X80835Y444135D01*
X81803Y443593D01*
X81812Y443594D01*
X81814Y443588D01*
X82878Y443275D01*
X82886Y443278D01*
X82889Y443273D01*
X83997Y443205D01*
X84004Y443209D01*
G37*
G36*
X170502Y981688D02*
X170502Y981688D01*
X170506Y981685D01*
X171551Y981803D01*
X171557Y981809D01*
X171562Y981805D01*
X172556Y982153D01*
X172560Y982160D01*
X172565Y982158D01*
X173457Y982718D01*
X173460Y982725D01*
X173465Y982725D01*
X174209Y983469D01*
X174211Y983477D01*
X174216Y983477D01*
X174776Y984369D01*
X174776Y984376D01*
X174777Y984377D01*
X174781Y984378D01*
X175129Y985372D01*
X175126Y985380D01*
X175131Y985383D01*
X175249Y986429D01*
X175247Y986432D01*
X175249Y986434D01*
X175249Y998434D01*
X175246Y998439D01*
X175249Y998442D01*
X175091Y999438D01*
X175085Y999444D01*
X175088Y999449D01*
X174713Y1000385D01*
X174706Y1000389D01*
X174708Y1000395D01*
X174134Y1001224D01*
X174126Y1001227D01*
X174127Y1001232D01*
X173383Y1001913D01*
X173374Y1001914D01*
X173374Y1001920D01*
X172497Y1002418D01*
X172489Y1002417D01*
X172486Y1002422D01*
X171521Y1002713D01*
X171513Y1002710D01*
X171510Y1002715D01*
X170503Y1002783D01*
X170501Y1002782D01*
X170500Y1002783D01*
X169419Y1002774D01*
X169412Y1002769D01*
X169408Y1002773D01*
X168356Y1002524D01*
X168351Y1002517D01*
X168346Y1002520D01*
X167376Y1002043D01*
X167373Y1002035D01*
X167367Y1002037D01*
X166528Y1001356D01*
X166526Y1001348D01*
X166520Y1001348D01*
X165854Y1000498D01*
X165853Y1000489D01*
X165848Y1000488D01*
X165387Y999511D01*
X165389Y999503D01*
X165384Y999500D01*
X165152Y998445D01*
X165153Y998443D01*
X165155Y998437D01*
X165151Y998434D01*
X165151Y986434D01*
X165155Y986429D01*
X165151Y986426D01*
X165344Y985320D01*
X165350Y985315D01*
X165347Y985310D01*
X165780Y984275D01*
X165787Y984271D01*
X165785Y984266D01*
X166438Y983353D01*
X166446Y983351D01*
X166445Y983345D01*
X167284Y982601D01*
X167293Y982600D01*
X167293Y982595D01*
X168277Y982056D01*
X168285Y982057D01*
X168287Y982052D01*
X169366Y981745D01*
X169374Y981748D01*
X169377Y981743D01*
X170497Y981685D01*
X170502Y981688D01*
G37*
G36*
X607382Y981688D02*
X607382Y981688D01*
X607386Y981685D01*
X608431Y981803D01*
X608437Y981809D01*
X608442Y981805D01*
X609436Y982153D01*
X609440Y982160D01*
X609445Y982158D01*
X610337Y982718D01*
X610340Y982725D01*
X610345Y982725D01*
X611089Y983469D01*
X611091Y983477D01*
X611096Y983477D01*
X611656Y984369D01*
X611656Y984376D01*
X611657Y984377D01*
X611661Y984378D01*
X612009Y985372D01*
X612006Y985380D01*
X612011Y985383D01*
X612129Y986429D01*
X612127Y986432D01*
X612129Y986434D01*
X612129Y998434D01*
X612126Y998439D01*
X612129Y998442D01*
X611971Y999438D01*
X611965Y999444D01*
X611968Y999449D01*
X611593Y1000385D01*
X611586Y1000389D01*
X611588Y1000395D01*
X611014Y1001224D01*
X611006Y1001227D01*
X611007Y1001232D01*
X610263Y1001913D01*
X610254Y1001914D01*
X610254Y1001920D01*
X609377Y1002418D01*
X609369Y1002417D01*
X609366Y1002422D01*
X608401Y1002713D01*
X608393Y1002710D01*
X608390Y1002715D01*
X607383Y1002783D01*
X607381Y1002782D01*
X607380Y1002783D01*
X606299Y1002774D01*
X606292Y1002769D01*
X606288Y1002773D01*
X605236Y1002524D01*
X605231Y1002517D01*
X605226Y1002520D01*
X604256Y1002043D01*
X604253Y1002035D01*
X604247Y1002037D01*
X603408Y1001356D01*
X603406Y1001348D01*
X603400Y1001348D01*
X602734Y1000498D01*
X602733Y1000489D01*
X602728Y1000488D01*
X602267Y999511D01*
X602269Y999503D01*
X602264Y999500D01*
X602032Y998445D01*
X602033Y998443D01*
X602035Y998437D01*
X602031Y998434D01*
X602031Y986434D01*
X602035Y986429D01*
X602031Y986426D01*
X602224Y985320D01*
X602230Y985315D01*
X602227Y985310D01*
X602660Y984275D01*
X602667Y984271D01*
X602665Y984266D01*
X603318Y983353D01*
X603326Y983351D01*
X603325Y983345D01*
X604164Y982601D01*
X604173Y982600D01*
X604173Y982595D01*
X605157Y982056D01*
X605165Y982057D01*
X605167Y982052D01*
X606246Y981745D01*
X606254Y981748D01*
X606257Y981743D01*
X607377Y981685D01*
X607382Y981688D01*
G37*
G36*
X170502Y443208D02*
X170502Y443208D01*
X170506Y443205D01*
X171551Y443323D01*
X171557Y443329D01*
X171562Y443325D01*
X172556Y443673D01*
X172560Y443680D01*
X172565Y443678D01*
X173457Y444238D01*
X173460Y444245D01*
X173465Y444245D01*
X174209Y444989D01*
X174211Y444997D01*
X174216Y444997D01*
X174776Y445889D01*
X174776Y445896D01*
X174777Y445897D01*
X174781Y445898D01*
X175129Y446892D01*
X175126Y446900D01*
X175131Y446903D01*
X175249Y447949D01*
X175247Y447952D01*
X175249Y447954D01*
X175249Y459954D01*
X175246Y459959D01*
X175249Y459962D01*
X175091Y460958D01*
X175085Y460964D01*
X175088Y460969D01*
X174713Y461905D01*
X174706Y461909D01*
X174708Y461915D01*
X174134Y462744D01*
X174126Y462747D01*
X174127Y462752D01*
X173383Y463433D01*
X173374Y463434D01*
X173374Y463440D01*
X172497Y463938D01*
X172489Y463937D01*
X172486Y463942D01*
X171521Y464233D01*
X171513Y464230D01*
X171510Y464235D01*
X170503Y464303D01*
X170501Y464302D01*
X170500Y464303D01*
X169419Y464294D01*
X169412Y464289D01*
X169408Y464293D01*
X168356Y464044D01*
X168351Y464037D01*
X168346Y464040D01*
X167376Y463563D01*
X167373Y463555D01*
X167367Y463557D01*
X166528Y462876D01*
X166526Y462868D01*
X166520Y462868D01*
X165854Y462018D01*
X165853Y462009D01*
X165848Y462008D01*
X165387Y461031D01*
X165389Y461023D01*
X165384Y461020D01*
X165152Y459965D01*
X165155Y459957D01*
X165151Y459954D01*
X165151Y447954D01*
X165155Y447949D01*
X165151Y447946D01*
X165344Y446840D01*
X165350Y446835D01*
X165347Y446830D01*
X165780Y445795D01*
X165787Y445791D01*
X165785Y445786D01*
X166438Y444873D01*
X166446Y444871D01*
X166445Y444865D01*
X167284Y444121D01*
X167293Y444120D01*
X167293Y444115D01*
X168277Y443576D01*
X168285Y443577D01*
X168287Y443572D01*
X169366Y443265D01*
X169374Y443268D01*
X169377Y443263D01*
X170497Y443205D01*
X170502Y443208D01*
G37*
G36*
X607382Y443208D02*
X607382Y443208D01*
X607386Y443205D01*
X608431Y443323D01*
X608437Y443329D01*
X608442Y443325D01*
X609436Y443673D01*
X609440Y443680D01*
X609445Y443678D01*
X610337Y444238D01*
X610340Y444245D01*
X610345Y444245D01*
X611089Y444989D01*
X611091Y444997D01*
X611096Y444997D01*
X611656Y445889D01*
X611656Y445896D01*
X611657Y445897D01*
X611661Y445898D01*
X612009Y446892D01*
X612006Y446900D01*
X612011Y446903D01*
X612129Y447949D01*
X612127Y447952D01*
X612129Y447954D01*
X612129Y459954D01*
X612126Y459959D01*
X612129Y459962D01*
X611971Y460958D01*
X611965Y460964D01*
X611968Y460969D01*
X611593Y461905D01*
X611586Y461909D01*
X611588Y461915D01*
X611014Y462744D01*
X611006Y462747D01*
X611007Y462752D01*
X610263Y463433D01*
X610254Y463434D01*
X610254Y463440D01*
X609377Y463938D01*
X609369Y463937D01*
X609366Y463942D01*
X608401Y464233D01*
X608393Y464230D01*
X608390Y464235D01*
X607383Y464303D01*
X607381Y464302D01*
X607380Y464303D01*
X606299Y464294D01*
X606292Y464289D01*
X606288Y464293D01*
X605236Y464044D01*
X605231Y464037D01*
X605226Y464040D01*
X604256Y463563D01*
X604253Y463555D01*
X604247Y463557D01*
X603408Y462876D01*
X603406Y462868D01*
X603400Y462868D01*
X602734Y462018D01*
X602733Y462009D01*
X602728Y462008D01*
X602267Y461031D01*
X602269Y461023D01*
X602264Y461020D01*
X602032Y459965D01*
X602035Y459957D01*
X602031Y459954D01*
X602031Y447954D01*
X602035Y447949D01*
X602031Y447946D01*
X602224Y446840D01*
X602230Y446835D01*
X602227Y446830D01*
X602660Y445795D01*
X602667Y445791D01*
X602665Y445786D01*
X603318Y444873D01*
X603326Y444871D01*
X603325Y444865D01*
X604164Y444121D01*
X604173Y444120D01*
X604173Y444115D01*
X605157Y443576D01*
X605165Y443577D01*
X605167Y443572D01*
X606246Y443265D01*
X606254Y443268D01*
X606257Y443263D01*
X607377Y443205D01*
X607382Y443208D01*
G37*
G36*
X84004Y1026190D02*
X84004Y1026190D01*
X84009Y1026186D01*
X85146Y1026393D01*
X85152Y1026399D01*
X85157Y1026396D01*
X86219Y1026851D01*
X86223Y1026858D01*
X86229Y1026856D01*
X87164Y1027536D01*
X87166Y1027544D01*
X87172Y1027543D01*
X87932Y1028414D01*
X87932Y1028422D01*
X87938Y1028423D01*
X88485Y1029442D01*
X88484Y1029450D01*
X88489Y1029452D01*
X88495Y1029471D01*
X88508Y1029520D01*
X88522Y1029570D01*
X88535Y1029619D01*
X88549Y1029668D01*
X88562Y1029717D01*
X88563Y1029717D01*
X88562Y1029717D01*
X88576Y1029767D01*
X88590Y1029816D01*
X88603Y1029865D01*
X88617Y1029914D01*
X88630Y1029964D01*
X88644Y1030013D01*
X88657Y1030062D01*
X88671Y1030111D01*
X88685Y1030161D01*
X88698Y1030210D01*
X88712Y1030259D01*
X88796Y1030566D01*
X88793Y1030574D01*
X88798Y1030577D01*
X88849Y1031732D01*
X88848Y1031733D01*
X88849Y1031734D01*
X88849Y1037734D01*
X88845Y1037740D01*
X88848Y1037743D01*
X88636Y1038824D01*
X88630Y1038829D01*
X88633Y1038834D01*
X88186Y1039840D01*
X88179Y1039844D01*
X88181Y1039850D01*
X87521Y1040731D01*
X87513Y1040734D01*
X87513Y1040739D01*
X86674Y1041452D01*
X86666Y1041452D01*
X86665Y1041458D01*
X85688Y1041966D01*
X85680Y1041965D01*
X85678Y1041970D01*
X84613Y1042248D01*
X84605Y1042245D01*
X84602Y1042249D01*
X83502Y1042283D01*
X83496Y1042280D01*
X83493Y1042283D01*
X82418Y1042128D01*
X82412Y1042122D01*
X82407Y1042125D01*
X81393Y1041735D01*
X81389Y1041728D01*
X81383Y1041730D01*
X80481Y1041123D01*
X80479Y1041115D01*
X80473Y1041116D01*
X79729Y1040324D01*
X79728Y1040316D01*
X79722Y1040316D01*
X79173Y1039378D01*
X79174Y1039370D01*
X79168Y1039368D01*
X78841Y1038332D01*
X78844Y1038324D01*
X78839Y1038321D01*
X78751Y1037238D01*
X78753Y1037235D01*
X78751Y1037234D01*
X78751Y1031234D01*
X78754Y1031230D01*
X78751Y1031228D01*
X78901Y1030095D01*
X78907Y1030089D01*
X78904Y1030084D01*
X79302Y1029014D01*
X79309Y1029010D01*
X79307Y1029004D01*
X79934Y1028049D01*
X79942Y1028046D01*
X79941Y1028041D01*
X80764Y1027249D01*
X80772Y1027248D01*
X80773Y1027242D01*
X81752Y1026653D01*
X81760Y1026654D01*
X81762Y1026649D01*
X82847Y1026293D01*
X82855Y1026296D01*
X82858Y1026291D01*
X83995Y1026185D01*
X84004Y1026190D01*
G37*
G36*
X520884Y1026190D02*
X520884Y1026190D01*
X520889Y1026186D01*
X522026Y1026393D01*
X522032Y1026399D01*
X522037Y1026396D01*
X523099Y1026851D01*
X523103Y1026858D01*
X523109Y1026856D01*
X524044Y1027536D01*
X524046Y1027544D01*
X524052Y1027543D01*
X524812Y1028414D01*
X524812Y1028422D01*
X524818Y1028423D01*
X525365Y1029442D01*
X525364Y1029450D01*
X525369Y1029452D01*
X525375Y1029471D01*
X525388Y1029520D01*
X525402Y1029570D01*
X525415Y1029619D01*
X525429Y1029668D01*
X525442Y1029717D01*
X525443Y1029717D01*
X525442Y1029717D01*
X525456Y1029767D01*
X525470Y1029816D01*
X525483Y1029865D01*
X525497Y1029914D01*
X525510Y1029964D01*
X525524Y1030013D01*
X525537Y1030062D01*
X525551Y1030111D01*
X525565Y1030161D01*
X525578Y1030210D01*
X525592Y1030259D01*
X525676Y1030566D01*
X525673Y1030574D01*
X525678Y1030577D01*
X525729Y1031732D01*
X525728Y1031733D01*
X525729Y1031734D01*
X525729Y1037734D01*
X525725Y1037740D01*
X525728Y1037743D01*
X525516Y1038824D01*
X525510Y1038829D01*
X525513Y1038834D01*
X525066Y1039840D01*
X525059Y1039844D01*
X525061Y1039850D01*
X524401Y1040731D01*
X524393Y1040734D01*
X524393Y1040739D01*
X523554Y1041452D01*
X523546Y1041452D01*
X523545Y1041458D01*
X522568Y1041966D01*
X522560Y1041965D01*
X522558Y1041970D01*
X521493Y1042248D01*
X521485Y1042245D01*
X521482Y1042249D01*
X520382Y1042283D01*
X520376Y1042280D01*
X520373Y1042283D01*
X519298Y1042128D01*
X519292Y1042122D01*
X519287Y1042125D01*
X518273Y1041735D01*
X518269Y1041728D01*
X518263Y1041730D01*
X517361Y1041123D01*
X517359Y1041115D01*
X517353Y1041116D01*
X516609Y1040324D01*
X516608Y1040316D01*
X516602Y1040316D01*
X516053Y1039378D01*
X516054Y1039370D01*
X516048Y1039368D01*
X515721Y1038332D01*
X515724Y1038324D01*
X515719Y1038321D01*
X515631Y1037238D01*
X515633Y1037235D01*
X515631Y1037234D01*
X515631Y1031234D01*
X515634Y1031230D01*
X515631Y1031228D01*
X515781Y1030095D01*
X515787Y1030089D01*
X515784Y1030084D01*
X516182Y1029014D01*
X516189Y1029010D01*
X516187Y1029004D01*
X516814Y1028049D01*
X516822Y1028046D01*
X516821Y1028041D01*
X517644Y1027249D01*
X517652Y1027248D01*
X517653Y1027242D01*
X518632Y1026653D01*
X518640Y1026654D01*
X518642Y1026649D01*
X519727Y1026293D01*
X519735Y1026296D01*
X519738Y1026291D01*
X520875Y1026185D01*
X520884Y1026190D01*
G37*
G36*
X520884Y487710D02*
X520884Y487710D01*
X520889Y487706D01*
X522026Y487913D01*
X522032Y487919D01*
X522037Y487916D01*
X523099Y488371D01*
X523103Y488378D01*
X523109Y488376D01*
X524044Y489056D01*
X524046Y489064D01*
X524052Y489063D01*
X524812Y489934D01*
X524812Y489942D01*
X524818Y489943D01*
X525365Y490962D01*
X525364Y490970D01*
X525369Y490972D01*
X525375Y490991D01*
X525388Y491040D01*
X525402Y491090D01*
X525415Y491139D01*
X525429Y491188D01*
X525442Y491237D01*
X525443Y491237D01*
X525442Y491237D01*
X525456Y491287D01*
X525470Y491336D01*
X525483Y491385D01*
X525497Y491434D01*
X525510Y491484D01*
X525524Y491533D01*
X525537Y491582D01*
X525551Y491631D01*
X525565Y491681D01*
X525578Y491730D01*
X525592Y491779D01*
X525676Y492086D01*
X525673Y492094D01*
X525678Y492097D01*
X525729Y493252D01*
X525728Y493253D01*
X525729Y493254D01*
X525729Y499254D01*
X525725Y499260D01*
X525728Y499263D01*
X525516Y500344D01*
X525510Y500349D01*
X525513Y500354D01*
X525066Y501360D01*
X525059Y501364D01*
X525061Y501370D01*
X524401Y502251D01*
X524393Y502254D01*
X524393Y502259D01*
X523554Y502972D01*
X523546Y502972D01*
X523545Y502978D01*
X522568Y503486D01*
X522560Y503485D01*
X522558Y503490D01*
X521493Y503768D01*
X521485Y503765D01*
X521482Y503769D01*
X520382Y503803D01*
X520376Y503800D01*
X520373Y503803D01*
X519298Y503648D01*
X519292Y503642D01*
X519287Y503645D01*
X518273Y503255D01*
X518269Y503248D01*
X518263Y503250D01*
X517361Y502643D01*
X517359Y502635D01*
X517353Y502636D01*
X516609Y501844D01*
X516608Y501836D01*
X516602Y501836D01*
X516053Y500898D01*
X516054Y500890D01*
X516048Y500888D01*
X515721Y499852D01*
X515724Y499844D01*
X515719Y499841D01*
X515631Y498758D01*
X515633Y498755D01*
X515631Y498754D01*
X515631Y492754D01*
X515634Y492750D01*
X515631Y492748D01*
X515781Y491615D01*
X515787Y491609D01*
X515784Y491604D01*
X516182Y490534D01*
X516189Y490530D01*
X516187Y490524D01*
X516814Y489569D01*
X516822Y489566D01*
X516821Y489561D01*
X517644Y488769D01*
X517652Y488768D01*
X517653Y488762D01*
X518632Y488173D01*
X518640Y488174D01*
X518642Y488169D01*
X519727Y487813D01*
X519735Y487816D01*
X519738Y487811D01*
X520875Y487705D01*
X520884Y487710D01*
G37*
G36*
X84004Y487710D02*
X84004Y487710D01*
X84009Y487706D01*
X85146Y487913D01*
X85152Y487919D01*
X85157Y487916D01*
X86219Y488371D01*
X86223Y488378D01*
X86229Y488376D01*
X87164Y489056D01*
X87166Y489064D01*
X87172Y489063D01*
X87932Y489934D01*
X87932Y489942D01*
X87938Y489943D01*
X88485Y490962D01*
X88484Y490970D01*
X88489Y490972D01*
X88495Y490991D01*
X88508Y491040D01*
X88522Y491090D01*
X88535Y491139D01*
X88549Y491188D01*
X88562Y491237D01*
X88563Y491237D01*
X88562Y491237D01*
X88576Y491287D01*
X88590Y491336D01*
X88603Y491385D01*
X88617Y491434D01*
X88630Y491484D01*
X88644Y491533D01*
X88657Y491582D01*
X88671Y491631D01*
X88685Y491681D01*
X88698Y491730D01*
X88712Y491779D01*
X88796Y492086D01*
X88793Y492094D01*
X88798Y492097D01*
X88849Y493252D01*
X88848Y493253D01*
X88849Y493254D01*
X88849Y499254D01*
X88845Y499260D01*
X88848Y499263D01*
X88636Y500344D01*
X88630Y500349D01*
X88633Y500354D01*
X88186Y501360D01*
X88179Y501364D01*
X88181Y501370D01*
X87521Y502251D01*
X87513Y502254D01*
X87513Y502259D01*
X86674Y502972D01*
X86666Y502972D01*
X86665Y502978D01*
X85688Y503486D01*
X85680Y503485D01*
X85678Y503490D01*
X84613Y503768D01*
X84605Y503765D01*
X84602Y503769D01*
X83502Y503803D01*
X83496Y503800D01*
X83493Y503803D01*
X82418Y503648D01*
X82412Y503642D01*
X82407Y503645D01*
X81393Y503255D01*
X81389Y503248D01*
X81383Y503250D01*
X80481Y502643D01*
X80479Y502635D01*
X80473Y502636D01*
X79729Y501844D01*
X79728Y501836D01*
X79722Y501836D01*
X79173Y500898D01*
X79174Y500890D01*
X79168Y500888D01*
X78841Y499852D01*
X78844Y499844D01*
X78839Y499841D01*
X78751Y498758D01*
X78753Y498755D01*
X78751Y498754D01*
X78751Y492754D01*
X78754Y492750D01*
X78751Y492748D01*
X78901Y491615D01*
X78907Y491609D01*
X78904Y491604D01*
X79302Y490534D01*
X79309Y490530D01*
X79307Y490524D01*
X79934Y489569D01*
X79942Y489566D01*
X79941Y489561D01*
X80764Y488769D01*
X80772Y488768D01*
X80773Y488762D01*
X81752Y488173D01*
X81760Y488174D01*
X81762Y488169D01*
X82847Y487813D01*
X82855Y487816D01*
X82858Y487811D01*
X83995Y487705D01*
X84004Y487710D01*
G37*
G36*
X171142Y1026291D02*
X171142Y1026291D01*
X171148Y1026296D01*
X171153Y1026293D01*
X172238Y1026649D01*
X172243Y1026656D01*
X172248Y1026653D01*
X173227Y1027242D01*
X173230Y1027250D01*
X173236Y1027249D01*
X174059Y1028041D01*
X174060Y1028049D01*
X174066Y1028049D01*
X174693Y1029004D01*
X174692Y1029012D01*
X174698Y1029014D01*
X175096Y1030084D01*
X175094Y1030092D01*
X175099Y1030095D01*
X175249Y1031228D01*
X175246Y1031232D01*
X175249Y1031234D01*
X175249Y1037234D01*
X175246Y1037238D01*
X175249Y1037240D01*
X175099Y1038373D01*
X175093Y1038379D01*
X175096Y1038384D01*
X174698Y1039454D01*
X174691Y1039458D01*
X174693Y1039464D01*
X174066Y1040419D01*
X174058Y1040422D01*
X174059Y1040427D01*
X173236Y1041219D01*
X173228Y1041220D01*
X173227Y1041226D01*
X172248Y1041815D01*
X172240Y1041814D01*
X172238Y1041819D01*
X171153Y1042175D01*
X171145Y1042173D01*
X171142Y1042177D01*
X170005Y1042283D01*
X169998Y1042279D01*
X169994Y1042283D01*
X168906Y1042138D01*
X168900Y1042132D01*
X168895Y1042135D01*
X167867Y1041752D01*
X167862Y1041745D01*
X167857Y1041747D01*
X166940Y1041144D01*
X166937Y1041136D01*
X166931Y1041137D01*
X166171Y1040345D01*
X166170Y1040337D01*
X166164Y1040336D01*
X165600Y1039395D01*
X165601Y1039387D01*
X165595Y1039385D01*
X165254Y1038342D01*
X165256Y1038334D01*
X165252Y1038331D01*
X165151Y1037239D01*
X165153Y1037236D01*
X165151Y1037234D01*
X165151Y1031234D01*
X165153Y1031231D01*
X165151Y1031230D01*
X165252Y1030137D01*
X165257Y1030131D01*
X165254Y1030126D01*
X165595Y1029083D01*
X165602Y1029078D01*
X165600Y1029073D01*
X166164Y1028132D01*
X166172Y1028129D01*
X166171Y1028123D01*
X166931Y1027331D01*
X166939Y1027330D01*
X166940Y1027324D01*
X167857Y1026722D01*
X167865Y1026722D01*
X167867Y1026717D01*
X168895Y1026333D01*
X168903Y1026335D01*
X168906Y1026330D01*
X169994Y1026185D01*
X170001Y1026189D01*
X170005Y1026185D01*
X171142Y1026291D01*
G37*
G36*
X608022Y1026291D02*
X608022Y1026291D01*
X608028Y1026296D01*
X608033Y1026293D01*
X609118Y1026649D01*
X609123Y1026656D01*
X609128Y1026653D01*
X610107Y1027242D01*
X610110Y1027250D01*
X610116Y1027249D01*
X610939Y1028041D01*
X610940Y1028049D01*
X610946Y1028049D01*
X611573Y1029004D01*
X611572Y1029012D01*
X611578Y1029014D01*
X611976Y1030084D01*
X611974Y1030092D01*
X611979Y1030095D01*
X612129Y1031228D01*
X612126Y1031232D01*
X612129Y1031234D01*
X612129Y1037234D01*
X612126Y1037238D01*
X612129Y1037240D01*
X611979Y1038373D01*
X611973Y1038379D01*
X611976Y1038384D01*
X611578Y1039454D01*
X611571Y1039458D01*
X611573Y1039464D01*
X610946Y1040419D01*
X610938Y1040422D01*
X610939Y1040427D01*
X610116Y1041219D01*
X610108Y1041220D01*
X610107Y1041226D01*
X609128Y1041815D01*
X609120Y1041814D01*
X609118Y1041819D01*
X608033Y1042175D01*
X608025Y1042173D01*
X608022Y1042177D01*
X606885Y1042283D01*
X606878Y1042279D01*
X606874Y1042283D01*
X605786Y1042138D01*
X605780Y1042132D01*
X605775Y1042135D01*
X604747Y1041752D01*
X604742Y1041745D01*
X604737Y1041747D01*
X603820Y1041144D01*
X603817Y1041136D01*
X603811Y1041137D01*
X603051Y1040345D01*
X603050Y1040337D01*
X603044Y1040336D01*
X602480Y1039395D01*
X602481Y1039387D01*
X602475Y1039385D01*
X602134Y1038342D01*
X602136Y1038334D01*
X602132Y1038331D01*
X602031Y1037239D01*
X602033Y1037236D01*
X602031Y1037234D01*
X602031Y1031234D01*
X602033Y1031231D01*
X602031Y1031230D01*
X602132Y1030137D01*
X602137Y1030131D01*
X602134Y1030126D01*
X602475Y1029083D01*
X602482Y1029078D01*
X602480Y1029073D01*
X603044Y1028132D01*
X603052Y1028129D01*
X603051Y1028123D01*
X603811Y1027331D01*
X603819Y1027330D01*
X603820Y1027324D01*
X604737Y1026722D01*
X604745Y1026722D01*
X604747Y1026717D01*
X605775Y1026333D01*
X605783Y1026335D01*
X605786Y1026330D01*
X606874Y1026185D01*
X606881Y1026189D01*
X606885Y1026185D01*
X608022Y1026291D01*
G37*
G36*
X171142Y487811D02*
X171142Y487811D01*
X171148Y487816D01*
X171153Y487813D01*
X172238Y488169D01*
X172243Y488176D01*
X172248Y488173D01*
X173227Y488762D01*
X173230Y488770D01*
X173236Y488769D01*
X174059Y489561D01*
X174060Y489569D01*
X174066Y489569D01*
X174693Y490524D01*
X174692Y490532D01*
X174698Y490534D01*
X175096Y491604D01*
X175094Y491612D01*
X175099Y491615D01*
X175249Y492748D01*
X175246Y492752D01*
X175249Y492754D01*
X175249Y498754D01*
X175246Y498758D01*
X175249Y498760D01*
X175099Y499893D01*
X175093Y499899D01*
X175096Y499904D01*
X174698Y500974D01*
X174691Y500978D01*
X174693Y500984D01*
X174066Y501939D01*
X174058Y501942D01*
X174059Y501947D01*
X173236Y502739D01*
X173228Y502740D01*
X173227Y502746D01*
X172248Y503335D01*
X172240Y503334D01*
X172238Y503339D01*
X171153Y503695D01*
X171145Y503693D01*
X171142Y503697D01*
X170005Y503803D01*
X169998Y503799D01*
X169994Y503803D01*
X168906Y503658D01*
X168900Y503652D01*
X168895Y503655D01*
X167867Y503272D01*
X167862Y503265D01*
X167857Y503267D01*
X166940Y502664D01*
X166937Y502656D01*
X166931Y502657D01*
X166171Y501865D01*
X166170Y501857D01*
X166164Y501856D01*
X165600Y500915D01*
X165601Y500907D01*
X165595Y500905D01*
X165254Y499862D01*
X165256Y499854D01*
X165252Y499851D01*
X165151Y498759D01*
X165153Y498756D01*
X165151Y498754D01*
X165151Y492754D01*
X165153Y492751D01*
X165151Y492750D01*
X165252Y491657D01*
X165257Y491651D01*
X165254Y491646D01*
X165595Y490603D01*
X165602Y490598D01*
X165600Y490593D01*
X166164Y489652D01*
X166172Y489649D01*
X166171Y489643D01*
X166931Y488851D01*
X166939Y488850D01*
X166940Y488844D01*
X167857Y488242D01*
X167865Y488242D01*
X167867Y488237D01*
X168895Y487853D01*
X168903Y487855D01*
X168906Y487850D01*
X169994Y487705D01*
X170001Y487709D01*
X170005Y487705D01*
X171142Y487811D01*
G37*
G36*
X608022Y487811D02*
X608022Y487811D01*
X608028Y487816D01*
X608033Y487813D01*
X609118Y488169D01*
X609123Y488176D01*
X609128Y488173D01*
X610107Y488762D01*
X610110Y488770D01*
X610116Y488769D01*
X610939Y489561D01*
X610940Y489569D01*
X610946Y489569D01*
X611573Y490524D01*
X611572Y490532D01*
X611578Y490534D01*
X611976Y491604D01*
X611974Y491612D01*
X611979Y491615D01*
X612129Y492748D01*
X612126Y492752D01*
X612129Y492754D01*
X612129Y498754D01*
X612126Y498758D01*
X612129Y498760D01*
X611979Y499893D01*
X611973Y499899D01*
X611976Y499904D01*
X611578Y500974D01*
X611571Y500978D01*
X611573Y500984D01*
X610946Y501939D01*
X610938Y501942D01*
X610939Y501947D01*
X610116Y502739D01*
X610108Y502740D01*
X610107Y502746D01*
X609128Y503335D01*
X609120Y503334D01*
X609118Y503339D01*
X608033Y503695D01*
X608025Y503693D01*
X608022Y503697D01*
X606885Y503803D01*
X606878Y503799D01*
X606874Y503803D01*
X605786Y503658D01*
X605780Y503652D01*
X605775Y503655D01*
X604747Y503272D01*
X604742Y503265D01*
X604737Y503267D01*
X603820Y502664D01*
X603817Y502656D01*
X603811Y502657D01*
X603051Y501865D01*
X603050Y501857D01*
X603044Y501856D01*
X602480Y500915D01*
X602481Y500907D01*
X602475Y500905D01*
X602134Y499862D01*
X602136Y499854D01*
X602132Y499851D01*
X602031Y498759D01*
X602033Y498756D01*
X602031Y498754D01*
X602031Y492754D01*
X602033Y492751D01*
X602031Y492750D01*
X602132Y491657D01*
X602137Y491651D01*
X602134Y491646D01*
X602475Y490603D01*
X602482Y490598D01*
X602480Y490593D01*
X603044Y489652D01*
X603052Y489649D01*
X603051Y489643D01*
X603811Y488851D01*
X603819Y488850D01*
X603820Y488844D01*
X604737Y488242D01*
X604745Y488242D01*
X604747Y488237D01*
X605775Y487853D01*
X605783Y487855D01*
X605786Y487850D01*
X606874Y487705D01*
X606881Y487709D01*
X606885Y487705D01*
X608022Y487811D01*
G37*
D10*
X14050Y447100D03*
X14050Y391100D03*
D11*
X50800Y434100D03*
X50800Y424100D03*
X50800Y414100D03*
X50800Y404100D03*
D12*
X88977Y320294D03*
X105977Y320294D03*
X87707Y340010D03*
X104707Y340010D03*
D13*
X154398Y119634D03*
X181898Y119634D03*
D14*
X168148Y134884D03*
X168148Y104384D03*
D15*
X279908Y392500D03*
X279908Y369500D03*
D16*
X301244Y386960D03*
X301244Y369960D03*
D17*
X246570Y28900D02*
X246570Y21900D01*
X246570Y28900D02*
X253570Y28900D01*
X253570Y21900D01*
X246570Y21900D01*
X246570Y24750D02*
X253570Y24750D01*
X253570Y27600D02*
X246570Y27600D01*
X229030Y28900D02*
X229030Y21900D01*
X229030Y28900D02*
X236030Y28900D01*
X236030Y21900D01*
X229030Y21900D01*
X229030Y24750D02*
X236030Y24750D01*
X236030Y27600D02*
X229030Y27600D01*
D18*
X235500Y11430D03*
X247100Y11430D03*
D19*
X272330Y427070D03*
D20*
X119500Y448154D03*
X124500Y448154D03*
D21*
X94750Y448154D03*
X102500Y448154D03*
D20*
X109500Y448154D03*
X114500Y448154D03*
X134500Y448154D03*
X129500Y448154D03*
D21*
X159250Y448154D03*
X151500Y448154D03*
D20*
X144500Y448154D03*
X139500Y448154D03*
D18*
X205020Y138430D03*
X216620Y138430D03*
D22*
X245720Y395271D03*
X236220Y395271D03*
X226720Y395271D03*
X226720Y369269D03*
X245720Y369269D03*
D23*
X63500Y483320D03*
X63500Y471720D03*
X190500Y483320D03*
X190500Y471720D03*
D12*
X227720Y410210D03*
X244720Y410210D03*
D16*
X261620Y372500D03*
X261620Y389500D03*
D24*
X129460Y423658D03*
D25*
X124460Y423908D03*
X119460Y423908D03*
X119460Y415308D03*
X124460Y415308D03*
X129460Y415308D03*
D16*
X139700Y389500D03*
X139700Y372500D03*
X124460Y389500D03*
X124460Y372500D03*
D18*
X278680Y11430D03*
X290280Y11430D03*
X353610Y11430D03*
X365210Y11430D03*
D17*
X289750Y21900D02*
X289750Y28900D01*
X296750Y28900D01*
X296750Y21900D01*
X289750Y21900D01*
X289750Y24750D02*
X296750Y24750D01*
X296750Y27600D02*
X289750Y27600D01*
X272210Y28900D02*
X272210Y21900D01*
X272210Y28900D02*
X279210Y28900D01*
X279210Y21900D01*
X272210Y21900D01*
X272210Y24750D02*
X279210Y24750D01*
X279210Y27600D02*
X272210Y27600D01*
X364680Y28900D02*
X364680Y21900D01*
X364680Y28900D02*
X371680Y28900D01*
X371680Y21900D01*
X364680Y21900D01*
X364680Y24750D02*
X371680Y24750D01*
X371680Y27600D02*
X364680Y27600D01*
X347140Y28900D02*
X347140Y21900D01*
X347140Y28900D02*
X354140Y28900D01*
X354140Y21900D01*
X347140Y21900D01*
X347140Y24750D02*
X354140Y24750D01*
X354140Y27600D02*
X347140Y27600D01*
D10*
X417750Y391100D03*
X417750Y447100D03*
D11*
X381000Y404100D03*
X381000Y414100D03*
X381000Y424100D03*
X381000Y434100D03*
D12*
X204860Y156210D03*
X221860Y156210D03*
D26*
X157480Y177800D03*
X168480Y177800D03*
X179480Y177800D03*
X190480Y177800D03*
X201480Y177800D03*
X212480Y177800D03*
X223480Y177800D03*
X234480Y177800D03*
X245480Y177800D03*
X256480Y177800D03*
X267480Y177800D03*
X278480Y177800D03*
X289480Y177800D03*
X300480Y177800D03*
X157480Y327300D03*
X168480Y327300D03*
X179480Y327300D03*
X190480Y327300D03*
X201480Y327300D03*
X212480Y327300D03*
X223480Y327300D03*
X234480Y327300D03*
X245480Y327300D03*
X256480Y327300D03*
X267480Y327300D03*
X278480Y327300D03*
X289480Y327300D03*
X300480Y327300D03*
D27*
X328480Y186300D03*
X328480Y197300D03*
X328480Y208300D03*
X328480Y219300D03*
X328480Y230300D03*
X328480Y241300D03*
X328480Y252300D03*
X328480Y263300D03*
X328480Y274300D03*
X328480Y285300D03*
X328480Y296300D03*
X328480Y307300D03*
X328480Y318300D03*
X129480Y318300D03*
X129480Y307300D03*
X129480Y296300D03*
X129480Y285300D03*
X129480Y274300D03*
X129480Y263300D03*
X129480Y252300D03*
X129480Y241300D03*
X129480Y230300D03*
X129480Y219300D03*
X129480Y208300D03*
X129480Y197300D03*
X129480Y186300D03*
D28*
X155480Y200300D03*
X176480Y200300D03*
X197480Y200300D03*
X218480Y200300D03*
X239480Y200300D03*
X260480Y200300D03*
X281480Y200300D03*
X302480Y200300D03*
X302480Y221300D03*
X281480Y221300D03*
X260480Y221300D03*
X239480Y221300D03*
X218480Y221300D03*
X197480Y221300D03*
X176480Y221300D03*
X155480Y221300D03*
X155480Y242300D03*
X176480Y242300D03*
X197480Y242300D03*
X218480Y242300D03*
X239480Y242300D03*
X260480Y242300D03*
X281480Y242300D03*
X302480Y242300D03*
X302480Y263300D03*
X281480Y263300D03*
X260480Y263300D03*
X239480Y263300D03*
X218480Y263300D03*
X197480Y263300D03*
X176480Y263300D03*
X155480Y263300D03*
X155480Y284300D03*
X176480Y284300D03*
X197480Y284300D03*
X218480Y284300D03*
X239480Y284300D03*
X260480Y284300D03*
X281480Y284300D03*
X302480Y284300D03*
X302480Y305300D03*
X281480Y305300D03*
X260480Y305300D03*
X239480Y305300D03*
X218480Y305300D03*
X197480Y305300D03*
X176480Y305300D03*
X155480Y305300D03*
D12*
X245500Y349250D03*
X262500Y349250D03*
D18*
X202904Y367284D03*
X191304Y367284D03*
D12*
X102167Y184150D03*
X85167Y184150D03*
D18*
X315510Y11430D03*
X327110Y11430D03*
D17*
X326580Y21900D02*
X326580Y28900D01*
X333580Y28900D01*
X333580Y21900D01*
X326580Y21900D01*
X326580Y24750D02*
X333580Y24750D01*
X333580Y27600D02*
X326580Y27600D01*
X309040Y28900D02*
X309040Y21900D01*
X309040Y28900D02*
X316040Y28900D01*
X316040Y21900D01*
X309040Y21900D01*
X309040Y24750D02*
X316040Y24750D01*
X316040Y27600D02*
X309040Y27600D01*
D29*
X171260Y156210D03*
X179260Y156210D03*
D12*
X368316Y54196D03*
X351316Y54196D03*
X368316Y117280D03*
X351316Y117280D03*
X368316Y132310D03*
X351316Y132310D03*
X368316Y195350D03*
X351316Y195350D03*
D18*
X365616Y180120D03*
X354016Y180120D03*
X361552Y68932D03*
X349952Y68932D03*
D30*
X351586Y83144D03*
X370586Y83144D03*
X361086Y104144D03*
D16*
X247854Y86322D03*
X247854Y69322D03*
X304750Y128308D03*
X304750Y145308D03*
D31*
X327300Y73620D03*
X327300Y86320D03*
X327300Y99020D03*
X327300Y111720D03*
X271300Y111720D03*
X271300Y99020D03*
X271300Y86320D03*
X271300Y73620D03*
D18*
X270400Y57020D03*
X282000Y57020D03*
D32*
X238230Y114280D03*
X243230Y114280D03*
X248230Y114280D03*
X238230Y106680D03*
X243230Y106680D03*
X248230Y106680D03*
D33*
X275610Y125720D03*
X275610Y130720D03*
X275610Y135720D03*
X283210Y125720D03*
X283210Y130720D03*
X283210Y135720D03*
D30*
X350316Y145410D03*
X369316Y145410D03*
X359816Y166410D03*
D23*
X262130Y127960D03*
X262130Y139560D03*
X223772Y113848D03*
X223772Y102248D03*
D12*
X189366Y347726D03*
X206366Y347726D03*
D34*
X81430Y299020D03*
D35*
X81430Y291020D03*
X81430Y283020D03*
D34*
X81430Y275020D03*
X94430Y275020D03*
D35*
X94430Y283020D03*
X94430Y291020D03*
D34*
X94430Y299020D03*
X81430Y254570D03*
D35*
X81430Y246570D03*
X81430Y238570D03*
D34*
X81430Y230570D03*
X94430Y230570D03*
D35*
X94430Y238570D03*
X94430Y246570D03*
D34*
X94430Y254570D03*
X348130Y306640D03*
D35*
X348130Y298640D03*
X348130Y290640D03*
D34*
X348130Y282640D03*
X361130Y282640D03*
D35*
X361130Y290640D03*
X361130Y298640D03*
D34*
X361130Y306640D03*
X348130Y234250D03*
D35*
X348130Y226250D03*
X348130Y218250D03*
D34*
X348130Y210250D03*
X361130Y210250D03*
D35*
X361130Y218250D03*
X361130Y226250D03*
D34*
X361130Y234250D03*
D10*
X450930Y447100D03*
X450930Y391100D03*
D11*
X487680Y434100D03*
X487680Y424100D03*
X487680Y414100D03*
X487680Y404100D03*
D12*
X525857Y320294D03*
X542857Y320294D03*
X524587Y340010D03*
X541587Y340010D03*
D13*
X591278Y119634D03*
X618778Y119634D03*
D14*
X605028Y134884D03*
X605028Y104384D03*
D15*
X716788Y392500D03*
X716788Y369500D03*
D16*
X738124Y386960D03*
X738124Y369960D03*
D17*
X683450Y28900D02*
X683450Y21900D01*
X683450Y28900D02*
X690450Y28900D01*
X690450Y21900D01*
X683450Y21900D01*
X683450Y24750D02*
X690450Y24750D01*
X690450Y27600D02*
X683450Y27600D01*
X665910Y28900D02*
X665910Y21900D01*
X665910Y28900D02*
X672910Y28900D01*
X672910Y21900D01*
X665910Y21900D01*
X665910Y24750D02*
X672910Y24750D01*
X672910Y27600D02*
X665910Y27600D01*
D18*
X672380Y11430D03*
X683980Y11430D03*
D19*
X709210Y427070D03*
D20*
X556380Y448154D03*
X561380Y448154D03*
D21*
X531630Y448154D03*
X539380Y448154D03*
D20*
X546380Y448154D03*
X551380Y448154D03*
X571380Y448154D03*
X566380Y448154D03*
D21*
X596130Y448154D03*
X588380Y448154D03*
D20*
X581380Y448154D03*
X576380Y448154D03*
D18*
X641900Y138430D03*
X653500Y138430D03*
D22*
X682600Y395271D03*
X673100Y395271D03*
X663600Y395271D03*
X663600Y369269D03*
X682600Y369269D03*
D23*
X500380Y483320D03*
X500380Y471720D03*
X627380Y483320D03*
X627380Y471720D03*
D12*
X664600Y410210D03*
X681600Y410210D03*
D16*
X698500Y372500D03*
X698500Y389500D03*
D24*
X566340Y423658D03*
D25*
X561340Y423908D03*
X556340Y423908D03*
X556340Y415308D03*
X561340Y415308D03*
X566340Y415308D03*
D16*
X576580Y389500D03*
X576580Y372500D03*
X561340Y389500D03*
X561340Y372500D03*
D18*
X715560Y11430D03*
X727160Y11430D03*
X790490Y11430D03*
X802090Y11430D03*
D17*
X726630Y21900D02*
X726630Y28900D01*
X733630Y28900D01*
X733630Y21900D01*
X726630Y21900D01*
X726630Y24750D02*
X733630Y24750D01*
X733630Y27600D02*
X726630Y27600D01*
X709090Y28900D02*
X709090Y21900D01*
X709090Y28900D02*
X716090Y28900D01*
X716090Y21900D01*
X709090Y21900D01*
X709090Y24750D02*
X716090Y24750D01*
X716090Y27600D02*
X709090Y27600D01*
X801560Y28900D02*
X801560Y21900D01*
X801560Y28900D02*
X808560Y28900D01*
X808560Y21900D01*
X801560Y21900D01*
X801560Y24750D02*
X808560Y24750D01*
X808560Y27600D02*
X801560Y27600D01*
X784020Y28900D02*
X784020Y21900D01*
X784020Y28900D02*
X791020Y28900D01*
X791020Y21900D01*
X784020Y21900D01*
X784020Y24750D02*
X791020Y24750D01*
X791020Y27600D02*
X784020Y27600D01*
D10*
X854630Y391100D03*
X854630Y447100D03*
D11*
X817880Y404100D03*
X817880Y414100D03*
X817880Y424100D03*
X817880Y434100D03*
D12*
X641740Y156210D03*
X658740Y156210D03*
D26*
X594360Y177800D03*
X605360Y177800D03*
X616360Y177800D03*
X627360Y177800D03*
X638360Y177800D03*
X649360Y177800D03*
X660360Y177800D03*
X671360Y177800D03*
X682360Y177800D03*
X693360Y177800D03*
X704360Y177800D03*
X715360Y177800D03*
X726360Y177800D03*
X737360Y177800D03*
X594360Y327300D03*
X605360Y327300D03*
X616360Y327300D03*
X627360Y327300D03*
X638360Y327300D03*
X649360Y327300D03*
X660360Y327300D03*
X671360Y327300D03*
X682360Y327300D03*
X693360Y327300D03*
X704360Y327300D03*
X715360Y327300D03*
X726360Y327300D03*
X737360Y327300D03*
D27*
X765360Y186300D03*
X765360Y197300D03*
X765360Y208300D03*
X765360Y219300D03*
X765360Y230300D03*
X765360Y241300D03*
X765360Y252300D03*
X765360Y263300D03*
X765360Y274300D03*
X765360Y285300D03*
X765360Y296300D03*
X765360Y307300D03*
X765360Y318300D03*
X566360Y318300D03*
X566360Y307300D03*
X566360Y296300D03*
X566360Y285300D03*
X566360Y274300D03*
X566360Y263300D03*
X566360Y252300D03*
X566360Y241300D03*
X566360Y230300D03*
X566360Y219300D03*
X566360Y208300D03*
X566360Y197300D03*
X566360Y186300D03*
D28*
X592360Y200300D03*
X613360Y200300D03*
X634360Y200300D03*
X655360Y200300D03*
X676360Y200300D03*
X697360Y200300D03*
X718360Y200300D03*
X739360Y200300D03*
X739360Y221300D03*
X718360Y221300D03*
X697360Y221300D03*
X676360Y221300D03*
X655360Y221300D03*
X634360Y221300D03*
X613360Y221300D03*
X592360Y221300D03*
X592360Y242300D03*
X613360Y242300D03*
X634360Y242300D03*
X655360Y242300D03*
X676360Y242300D03*
X697360Y242300D03*
X718360Y242300D03*
X739360Y242300D03*
X739360Y263300D03*
X718360Y263300D03*
X697360Y263300D03*
X676360Y263300D03*
X655360Y263300D03*
X634360Y263300D03*
X613360Y263300D03*
X592360Y263300D03*
X592360Y284300D03*
X613360Y284300D03*
X634360Y284300D03*
X655360Y284300D03*
X676360Y284300D03*
X697360Y284300D03*
X718360Y284300D03*
X739360Y284300D03*
X739360Y305300D03*
X718360Y305300D03*
X697360Y305300D03*
X676360Y305300D03*
X655360Y305300D03*
X634360Y305300D03*
X613360Y305300D03*
X592360Y305300D03*
D12*
X682380Y349250D03*
X699380Y349250D03*
D18*
X639784Y367284D03*
X628184Y367284D03*
D12*
X539047Y184150D03*
X522047Y184150D03*
D18*
X752390Y11430D03*
X763990Y11430D03*
D17*
X763460Y21900D02*
X763460Y28900D01*
X770460Y28900D01*
X770460Y21900D01*
X763460Y21900D01*
X763460Y24750D02*
X770460Y24750D01*
X770460Y27600D02*
X763460Y27600D01*
X745920Y28900D02*
X745920Y21900D01*
X745920Y28900D02*
X752920Y28900D01*
X752920Y21900D01*
X745920Y21900D01*
X745920Y24750D02*
X752920Y24750D01*
X752920Y27600D02*
X745920Y27600D01*
D29*
X608140Y156210D03*
X616140Y156210D03*
D12*
X805196Y54196D03*
X788196Y54196D03*
X805196Y117280D03*
X788196Y117280D03*
X805196Y132310D03*
X788196Y132310D03*
X805196Y195350D03*
X788196Y195350D03*
D18*
X802496Y180120D03*
X790896Y180120D03*
X798432Y68932D03*
X786832Y68932D03*
D30*
X788466Y83144D03*
X807466Y83144D03*
X797966Y104144D03*
D16*
X684734Y86322D03*
X684734Y69322D03*
X741630Y128308D03*
X741630Y145308D03*
D31*
X764180Y73620D03*
X764180Y86320D03*
X764180Y99020D03*
X764180Y111720D03*
X708180Y111720D03*
X708180Y99020D03*
X708180Y86320D03*
X708180Y73620D03*
D18*
X707280Y57020D03*
X718880Y57020D03*
D32*
X675110Y114280D03*
X680110Y114280D03*
X685110Y114280D03*
X675110Y106680D03*
X680110Y106680D03*
X685110Y106680D03*
D33*
X712490Y125720D03*
X712490Y130720D03*
X712490Y135720D03*
X720090Y125720D03*
X720090Y130720D03*
X720090Y135720D03*
D30*
X787196Y145410D03*
X806196Y145410D03*
X796696Y166410D03*
D23*
X699010Y127960D03*
X699010Y139560D03*
X660652Y113848D03*
X660652Y102248D03*
D12*
X626246Y347726D03*
X643246Y347726D03*
D34*
X518310Y299020D03*
D35*
X518310Y291020D03*
X518310Y283020D03*
D34*
X518310Y275020D03*
X531310Y275020D03*
D35*
X531310Y283020D03*
X531310Y291020D03*
D34*
X531310Y299020D03*
X518310Y254570D03*
D35*
X518310Y246570D03*
X518310Y238570D03*
D34*
X518310Y230570D03*
X531310Y230570D03*
D35*
X531310Y238570D03*
X531310Y246570D03*
D34*
X531310Y254570D03*
X785010Y306640D03*
D35*
X785010Y298640D03*
X785010Y290640D03*
D34*
X785010Y282640D03*
X798010Y282640D03*
D35*
X798010Y290640D03*
X798010Y298640D03*
D34*
X798010Y306640D03*
X785010Y234250D03*
D35*
X785010Y226250D03*
X785010Y218250D03*
D34*
X785010Y210250D03*
X798010Y210250D03*
D35*
X798010Y218250D03*
X798010Y226250D03*
D34*
X798010Y234250D03*
D10*
X14050Y985580D03*
X14050Y929580D03*
D11*
X50800Y972580D03*
X50800Y962580D03*
X50800Y952580D03*
X50800Y942580D03*
D12*
X88977Y858774D03*
X105977Y858774D03*
X87707Y878490D03*
X104707Y878490D03*
D13*
X154398Y658114D03*
X181898Y658114D03*
D14*
X168148Y673364D03*
X168148Y642864D03*
D15*
X279908Y930980D03*
X279908Y907980D03*
D16*
X301244Y925440D03*
X301244Y908440D03*
D17*
X246570Y567380D02*
X246570Y560380D01*
X246570Y567380D02*
X253570Y567380D01*
X253570Y560380D01*
X246570Y560380D01*
X246570Y563230D02*
X253570Y563230D01*
X253570Y566080D02*
X246570Y566080D01*
X229030Y567380D02*
X229030Y560380D01*
X229030Y567380D02*
X236030Y567380D01*
X236030Y560380D01*
X229030Y560380D01*
X229030Y563230D02*
X236030Y563230D01*
X236030Y566080D02*
X229030Y566080D01*
D18*
X235500Y549910D03*
X247100Y549910D03*
D19*
X272330Y965550D03*
D20*
X119500Y986634D03*
X124500Y986634D03*
D21*
X94750Y986634D03*
X102500Y986634D03*
D20*
X109500Y986634D03*
X114500Y986634D03*
X134500Y986634D03*
X129500Y986634D03*
D21*
X159250Y986634D03*
X151500Y986634D03*
D20*
X144500Y986634D03*
X139500Y986634D03*
D18*
X205020Y676910D03*
X216620Y676910D03*
D22*
X245720Y933751D03*
X236220Y933751D03*
X226720Y933751D03*
X226720Y907749D03*
X245720Y907749D03*
D23*
X63500Y1021800D03*
X63500Y1010200D03*
X190500Y1021800D03*
X190500Y1010200D03*
D12*
X227720Y948690D03*
X244720Y948690D03*
D16*
X261620Y910980D03*
X261620Y927980D03*
D24*
X129460Y962138D03*
D25*
X124460Y962388D03*
X119460Y962388D03*
X119460Y953788D03*
X124460Y953788D03*
X129460Y953788D03*
D16*
X139700Y927980D03*
X139700Y910980D03*
X124460Y927980D03*
X124460Y910980D03*
D18*
X278680Y549910D03*
X290280Y549910D03*
X353610Y549910D03*
X365210Y549910D03*
D17*
X289750Y560380D02*
X289750Y567380D01*
X296750Y567380D01*
X296750Y560380D01*
X289750Y560380D01*
X289750Y563230D02*
X296750Y563230D01*
X296750Y566080D02*
X289750Y566080D01*
X272210Y567380D02*
X272210Y560380D01*
X272210Y567380D02*
X279210Y567380D01*
X279210Y560380D01*
X272210Y560380D01*
X272210Y563230D02*
X279210Y563230D01*
X279210Y566080D02*
X272210Y566080D01*
X364680Y567380D02*
X364680Y560380D01*
X364680Y567380D02*
X371680Y567380D01*
X371680Y560380D01*
X364680Y560380D01*
X364680Y563230D02*
X371680Y563230D01*
X371680Y566080D02*
X364680Y566080D01*
X347140Y567380D02*
X347140Y560380D01*
X347140Y567380D02*
X354140Y567380D01*
X354140Y560380D01*
X347140Y560380D01*
X347140Y563230D02*
X354140Y563230D01*
X354140Y566080D02*
X347140Y566080D01*
D10*
X417750Y929580D03*
X417750Y985580D03*
D11*
X381000Y942580D03*
X381000Y952580D03*
X381000Y962580D03*
X381000Y972580D03*
D12*
X204860Y694690D03*
X221860Y694690D03*
D26*
X157480Y716280D03*
X168480Y716280D03*
X179480Y716280D03*
X190480Y716280D03*
X201480Y716280D03*
X212480Y716280D03*
X223480Y716280D03*
X234480Y716280D03*
X245480Y716280D03*
X256480Y716280D03*
X267480Y716280D03*
X278480Y716280D03*
X289480Y716280D03*
X300480Y716280D03*
X157480Y865780D03*
X168480Y865780D03*
X179480Y865780D03*
X190480Y865780D03*
X201480Y865780D03*
X212480Y865780D03*
X223480Y865780D03*
X234480Y865780D03*
X245480Y865780D03*
X256480Y865780D03*
X267480Y865780D03*
X278480Y865780D03*
X289480Y865780D03*
X300480Y865780D03*
D27*
X328480Y724780D03*
X328480Y735780D03*
X328480Y746780D03*
X328480Y757780D03*
X328480Y768780D03*
X328480Y779780D03*
X328480Y790780D03*
X328480Y801780D03*
X328480Y812780D03*
X328480Y823780D03*
X328480Y834780D03*
X328480Y845780D03*
X328480Y856780D03*
X129480Y856780D03*
X129480Y845780D03*
X129480Y834780D03*
X129480Y823780D03*
X129480Y812780D03*
X129480Y801780D03*
X129480Y790780D03*
X129480Y779780D03*
X129480Y768780D03*
X129480Y757780D03*
X129480Y746780D03*
X129480Y735780D03*
X129480Y724780D03*
D28*
X155480Y738780D03*
X176480Y738780D03*
X197480Y738780D03*
X218480Y738780D03*
X239480Y738780D03*
X260480Y738780D03*
X281480Y738780D03*
X302480Y738780D03*
X302480Y759780D03*
X281480Y759780D03*
X260480Y759780D03*
X239480Y759780D03*
X218480Y759780D03*
X197480Y759780D03*
X176480Y759780D03*
X155480Y759780D03*
X155480Y780780D03*
X176480Y780780D03*
X197480Y780780D03*
X218480Y780780D03*
X239480Y780780D03*
X260480Y780780D03*
X281480Y780780D03*
X302480Y780780D03*
X302480Y801780D03*
X281480Y801780D03*
X260480Y801780D03*
X239480Y801780D03*
X218480Y801780D03*
X197480Y801780D03*
X176480Y801780D03*
X155480Y801780D03*
X155480Y822780D03*
X176480Y822780D03*
X197480Y822780D03*
X218480Y822780D03*
X239480Y822780D03*
X260480Y822780D03*
X281480Y822780D03*
X302480Y822780D03*
X302480Y843780D03*
X281480Y843780D03*
X260480Y843780D03*
X239480Y843780D03*
X218480Y843780D03*
X197480Y843780D03*
X176480Y843780D03*
X155480Y843780D03*
D12*
X245500Y887730D03*
X262500Y887730D03*
D18*
X202904Y905764D03*
X191304Y905764D03*
D12*
X102167Y722630D03*
X85167Y722630D03*
D18*
X315510Y549910D03*
X327110Y549910D03*
D17*
X326580Y560380D02*
X326580Y567380D01*
X333580Y567380D01*
X333580Y560380D01*
X326580Y560380D01*
X326580Y563230D02*
X333580Y563230D01*
X333580Y566080D02*
X326580Y566080D01*
X309040Y567380D02*
X309040Y560380D01*
X309040Y567380D02*
X316040Y567380D01*
X316040Y560380D01*
X309040Y560380D01*
X309040Y563230D02*
X316040Y563230D01*
X316040Y566080D02*
X309040Y566080D01*
D29*
X171260Y694690D03*
X179260Y694690D03*
D12*
X368316Y592676D03*
X351316Y592676D03*
X368316Y655760D03*
X351316Y655760D03*
X368316Y670790D03*
X351316Y670790D03*
X368316Y733830D03*
X351316Y733830D03*
D18*
X365616Y718600D03*
X354016Y718600D03*
X361552Y607412D03*
X349952Y607412D03*
D30*
X351586Y621624D03*
X370586Y621624D03*
X361086Y642624D03*
D16*
X247854Y624802D03*
X247854Y607802D03*
X304750Y666788D03*
X304750Y683788D03*
D31*
X327300Y612100D03*
X327300Y624800D03*
X327300Y637500D03*
X327300Y650200D03*
X271300Y650200D03*
X271300Y637500D03*
X271300Y624800D03*
X271300Y612100D03*
D18*
X270400Y595500D03*
X282000Y595500D03*
D32*
X238230Y652760D03*
X243230Y652760D03*
X248230Y652760D03*
X238230Y645160D03*
X243230Y645160D03*
X248230Y645160D03*
D33*
X275610Y664200D03*
X275610Y669200D03*
X275610Y674200D03*
X283210Y664200D03*
X283210Y669200D03*
X283210Y674200D03*
D30*
X350316Y683890D03*
X369316Y683890D03*
X359816Y704890D03*
D23*
X262130Y666440D03*
X262130Y678040D03*
X223772Y652328D03*
X223772Y640728D03*
D12*
X189366Y886206D03*
X206366Y886206D03*
D34*
X81430Y837500D03*
D35*
X81430Y829500D03*
X81430Y821500D03*
D34*
X81430Y813500D03*
X94430Y813500D03*
D35*
X94430Y821500D03*
X94430Y829500D03*
D34*
X94430Y837500D03*
X81430Y793050D03*
D35*
X81430Y785050D03*
X81430Y777050D03*
D34*
X81430Y769050D03*
X94430Y769050D03*
D35*
X94430Y777050D03*
X94430Y785050D03*
D34*
X94430Y793050D03*
X348130Y845120D03*
D35*
X348130Y837120D03*
X348130Y829120D03*
D34*
X348130Y821120D03*
X361130Y821120D03*
D35*
X361130Y829120D03*
X361130Y837120D03*
D34*
X361130Y845120D03*
X348130Y772730D03*
D35*
X348130Y764730D03*
X348130Y756730D03*
D34*
X348130Y748730D03*
X361130Y748730D03*
D35*
X361130Y756730D03*
X361130Y764730D03*
D34*
X361130Y772730D03*
D10*
X450930Y985580D03*
X450930Y929580D03*
D11*
X487680Y972580D03*
X487680Y962580D03*
X487680Y952580D03*
X487680Y942580D03*
D12*
X525857Y858774D03*
X542857Y858774D03*
X524587Y878490D03*
X541587Y878490D03*
D13*
X591278Y658114D03*
X618778Y658114D03*
D14*
X605028Y673364D03*
X605028Y642864D03*
D15*
X716788Y930980D03*
X716788Y907980D03*
D16*
X738124Y925440D03*
X738124Y908440D03*
D17*
X683450Y567380D02*
X683450Y560380D01*
X683450Y567380D02*
X690450Y567380D01*
X690450Y560380D01*
X683450Y560380D01*
X683450Y563230D02*
X690450Y563230D01*
X690450Y566080D02*
X683450Y566080D01*
X665910Y567380D02*
X665910Y560380D01*
X665910Y567380D02*
X672910Y567380D01*
X672910Y560380D01*
X665910Y560380D01*
X665910Y563230D02*
X672910Y563230D01*
X672910Y566080D02*
X665910Y566080D01*
D18*
X672380Y549910D03*
X683980Y549910D03*
D19*
X709210Y965550D03*
D20*
X556380Y986634D03*
X561380Y986634D03*
D21*
X531630Y986634D03*
X539380Y986634D03*
D20*
X546380Y986634D03*
X551380Y986634D03*
X571380Y986634D03*
X566380Y986634D03*
D21*
X596130Y986634D03*
X588380Y986634D03*
D20*
X581380Y986634D03*
X576380Y986634D03*
D18*
X641900Y676910D03*
X653500Y676910D03*
D22*
X682600Y933751D03*
X673100Y933751D03*
X663600Y933751D03*
X663600Y907749D03*
X682600Y907749D03*
D23*
X500380Y1021800D03*
X500380Y1010200D03*
X627380Y1021800D03*
X627380Y1010200D03*
D12*
X664600Y948690D03*
X681600Y948690D03*
D16*
X698500Y910980D03*
X698500Y927980D03*
D24*
X566340Y962138D03*
D25*
X561340Y962388D03*
X556340Y962388D03*
X556340Y953788D03*
X561340Y953788D03*
X566340Y953788D03*
D16*
X576580Y927980D03*
X576580Y910980D03*
X561340Y927980D03*
X561340Y910980D03*
D18*
X715560Y549910D03*
X727160Y549910D03*
X790490Y549910D03*
X802090Y549910D03*
D17*
X726630Y560380D02*
X726630Y567380D01*
X733630Y567380D01*
X733630Y560380D01*
X726630Y560380D01*
X726630Y563230D02*
X733630Y563230D01*
X733630Y566080D02*
X726630Y566080D01*
X709090Y567380D02*
X709090Y560380D01*
X709090Y567380D02*
X716090Y567380D01*
X716090Y560380D01*
X709090Y560380D01*
X709090Y563230D02*
X716090Y563230D01*
X716090Y566080D02*
X709090Y566080D01*
X801560Y567380D02*
X801560Y560380D01*
X801560Y567380D02*
X808560Y567380D01*
X808560Y560380D01*
X801560Y560380D01*
X801560Y563230D02*
X808560Y563230D01*
X808560Y566080D02*
X801560Y566080D01*
X784020Y567380D02*
X784020Y560380D01*
X784020Y567380D02*
X791020Y567380D01*
X791020Y560380D01*
X784020Y560380D01*
X784020Y563230D02*
X791020Y563230D01*
X791020Y566080D02*
X784020Y566080D01*
D10*
X854630Y929580D03*
X854630Y985580D03*
D11*
X817880Y942580D03*
X817880Y952580D03*
X817880Y962580D03*
X817880Y972580D03*
D12*
X641740Y694690D03*
X658740Y694690D03*
D26*
X594360Y716280D03*
X605360Y716280D03*
X616360Y716280D03*
X627360Y716280D03*
X638360Y716280D03*
X649360Y716280D03*
X660360Y716280D03*
X671360Y716280D03*
X682360Y716280D03*
X693360Y716280D03*
X704360Y716280D03*
X715360Y716280D03*
X726360Y716280D03*
X737360Y716280D03*
X594360Y865780D03*
X605360Y865780D03*
X616360Y865780D03*
X627360Y865780D03*
X638360Y865780D03*
X649360Y865780D03*
X660360Y865780D03*
X671360Y865780D03*
X682360Y865780D03*
X693360Y865780D03*
X704360Y865780D03*
X715360Y865780D03*
X726360Y865780D03*
X737360Y865780D03*
D27*
X765360Y724780D03*
X765360Y735780D03*
X765360Y746780D03*
X765360Y757780D03*
X765360Y768780D03*
X765360Y779780D03*
X765360Y790780D03*
X765360Y801780D03*
X765360Y812780D03*
X765360Y823780D03*
X765360Y834780D03*
X765360Y845780D03*
X765360Y856780D03*
X566360Y856780D03*
X566360Y845780D03*
X566360Y834780D03*
X566360Y823780D03*
X566360Y812780D03*
X566360Y801780D03*
X566360Y790780D03*
X566360Y779780D03*
X566360Y768780D03*
X566360Y757780D03*
X566360Y746780D03*
X566360Y735780D03*
X566360Y724780D03*
D28*
X592360Y738780D03*
X613360Y738780D03*
X634360Y738780D03*
X655360Y738780D03*
X676360Y738780D03*
X697360Y738780D03*
X718360Y738780D03*
X739360Y738780D03*
X739360Y759780D03*
X718360Y759780D03*
X697360Y759780D03*
X676360Y759780D03*
X655360Y759780D03*
X634360Y759780D03*
X613360Y759780D03*
X592360Y759780D03*
X592360Y780780D03*
X613360Y780780D03*
X634360Y780780D03*
X655360Y780780D03*
X676360Y780780D03*
X697360Y780780D03*
X718360Y780780D03*
X739360Y780780D03*
X739360Y801780D03*
X718360Y801780D03*
X697360Y801780D03*
X676360Y801780D03*
X655360Y801780D03*
X634360Y801780D03*
X613360Y801780D03*
X592360Y801780D03*
X592360Y822780D03*
X613360Y822780D03*
X634360Y822780D03*
X655360Y822780D03*
X676360Y822780D03*
X697360Y822780D03*
X718360Y822780D03*
X739360Y822780D03*
X739360Y843780D03*
X718360Y843780D03*
X697360Y843780D03*
X676360Y843780D03*
X655360Y843780D03*
X634360Y843780D03*
X613360Y843780D03*
X592360Y843780D03*
D12*
X682380Y887730D03*
X699380Y887730D03*
D18*
X639784Y905764D03*
X628184Y905764D03*
D12*
X539047Y722630D03*
X522047Y722630D03*
D18*
X752390Y549910D03*
X763990Y549910D03*
D17*
X763460Y560380D02*
X763460Y567380D01*
X770460Y567380D01*
X770460Y560380D01*
X763460Y560380D01*
X763460Y563230D02*
X770460Y563230D01*
X770460Y566080D02*
X763460Y566080D01*
X745920Y567380D02*
X745920Y560380D01*
X745920Y567380D02*
X752920Y567380D01*
X752920Y560380D01*
X745920Y560380D01*
X745920Y563230D02*
X752920Y563230D01*
X752920Y566080D02*
X745920Y566080D01*
D29*
X608140Y694690D03*
X616140Y694690D03*
D12*
X805196Y592676D03*
X788196Y592676D03*
X805196Y655760D03*
X788196Y655760D03*
X805196Y670790D03*
X788196Y670790D03*
X805196Y733830D03*
X788196Y733830D03*
D18*
X802496Y718600D03*
X790896Y718600D03*
X798432Y607412D03*
X786832Y607412D03*
D30*
X788466Y621624D03*
X807466Y621624D03*
X797966Y642624D03*
D16*
X684734Y624802D03*
X684734Y607802D03*
X741630Y666788D03*
X741630Y683788D03*
D31*
X764180Y612100D03*
X764180Y624800D03*
X764180Y637500D03*
X764180Y650200D03*
X708180Y650200D03*
X708180Y637500D03*
X708180Y624800D03*
X708180Y612100D03*
D18*
X707280Y595500D03*
X718880Y595500D03*
D32*
X675110Y652760D03*
X680110Y652760D03*
X685110Y652760D03*
X675110Y645160D03*
X680110Y645160D03*
X685110Y645160D03*
D33*
X712490Y664200D03*
X712490Y669200D03*
X712490Y674200D03*
X720090Y664200D03*
X720090Y669200D03*
X720090Y674200D03*
D30*
X787196Y683890D03*
X806196Y683890D03*
X796696Y704890D03*
D23*
X699010Y666440D03*
X699010Y678040D03*
X660652Y652328D03*
X660652Y640728D03*
D12*
X626246Y886206D03*
X643246Y886206D03*
D34*
X518310Y837500D03*
D35*
X518310Y829500D03*
X518310Y821500D03*
D34*
X518310Y813500D03*
X531310Y813500D03*
D35*
X531310Y821500D03*
X531310Y829500D03*
D34*
X531310Y837500D03*
X518310Y793050D03*
D35*
X518310Y785050D03*
X518310Y777050D03*
D34*
X518310Y769050D03*
X531310Y769050D03*
D35*
X531310Y777050D03*
X531310Y785050D03*
D34*
X531310Y793050D03*
X785010Y845120D03*
D35*
X785010Y837120D03*
X785010Y829120D03*
D34*
X785010Y821120D03*
X798010Y821120D03*
D35*
X798010Y829120D03*
X798010Y837120D03*
D34*
X798010Y845120D03*
X785010Y772730D03*
D35*
X785010Y764730D03*
X785010Y756730D03*
D34*
X785010Y748730D03*
X798010Y748730D03*
D35*
X798010Y756730D03*
X798010Y764730D03*
D34*
X798010Y772730D03*
M02*
