G04 EAGLE Gerber RS-274X export*
G75*
%MOMM*%
%FSLAX34Y34*%
%LPD*%
%INSoldermask Top*%
%IPPOS*%
%AMOC8*
5,1,8,0,0,1.08239X$1,22.5*%
G01*
%ADD10R,2.203200X1.403200*%
%ADD11R,1.553200X0.803200*%
%ADD12R,1.303200X1.203200*%
%ADD13R,1.053200X2.403200*%
%ADD14R,1.203200X1.253200*%
%ADD15C,2.082800*%
%ADD16R,1.033200X0.833200*%
%ADD17R,1.203200X1.303200*%
%ADD18C,0.838200*%
%ADD19C,3.251200*%
%ADD20C,0.505344*%
%ADD21R,1.053200X1.103200*%
%ADD22R,1.700000X4.200000*%
%ADD23R,0.503200X1.203200*%
%ADD24R,0.803200X1.203200*%
%ADD25C,0.853200*%
%ADD26R,0.753200X1.403200*%
%ADD27R,1.103200X1.053200*%
%ADD28R,0.453200X0.813200*%
%ADD29R,0.453200X0.763200*%
%ADD30R,1.003200X1.703200*%
%ADD31R,1.703200X1.003200*%
%ADD32R,1.303200X1.303200*%
%ADD33R,0.419100X0.711200*%
%ADD34R,1.003200X1.103200*%
%ADD35R,2.103200X0.843200*%
%ADD36R,0.400000X0.620000*%
%ADD37R,0.620000X0.400000*%
%ADD38R,0.620000X0.840000*%
%ADD39R,0.620000X0.560000*%
%ADD40R,0.640000X0.840000*%
%ADD41C,1.203200*%
%ADD42C,1.270000*%
%ADD43C,1.703200*%

G36*
X317646Y944506D02*
X317646Y944506D01*
X317663Y944503D01*
X317713Y944525D01*
X317764Y944540D01*
X317775Y944553D01*
X317791Y944560D01*
X317821Y944605D01*
X317856Y944645D01*
X317859Y944662D01*
X317868Y944677D01*
X317879Y944750D01*
X317879Y968750D01*
X317867Y968792D01*
X317864Y968836D01*
X317848Y968858D01*
X317840Y968884D01*
X317807Y968913D01*
X317781Y968948D01*
X317755Y968958D01*
X317735Y968976D01*
X317691Y968983D01*
X317651Y968998D01*
X317624Y968993D01*
X317597Y968997D01*
X317556Y968979D01*
X317514Y968970D01*
X317478Y968944D01*
X317469Y968940D01*
X317465Y968935D01*
X317454Y968926D01*
X293454Y944926D01*
X293433Y944888D01*
X293404Y944855D01*
X293400Y944828D01*
X293387Y944804D01*
X293390Y944760D01*
X293383Y944717D01*
X293394Y944692D01*
X293396Y944664D01*
X293422Y944629D01*
X293440Y944589D01*
X293463Y944574D01*
X293479Y944552D01*
X293520Y944536D01*
X293557Y944512D01*
X293600Y944505D01*
X293609Y944502D01*
X293616Y944503D01*
X293630Y944501D01*
X317630Y944501D01*
X317646Y944506D01*
G37*
G36*
X754526Y944506D02*
X754526Y944506D01*
X754543Y944503D01*
X754593Y944525D01*
X754644Y944540D01*
X754655Y944553D01*
X754671Y944560D01*
X754701Y944605D01*
X754736Y944645D01*
X754739Y944662D01*
X754748Y944677D01*
X754759Y944750D01*
X754759Y968750D01*
X754747Y968792D01*
X754744Y968836D01*
X754728Y968858D01*
X754720Y968884D01*
X754687Y968913D01*
X754661Y968948D01*
X754635Y968958D01*
X754615Y968976D01*
X754571Y968983D01*
X754531Y968998D01*
X754504Y968993D01*
X754477Y968997D01*
X754436Y968979D01*
X754394Y968970D01*
X754358Y968944D01*
X754349Y968940D01*
X754345Y968935D01*
X754334Y968926D01*
X730334Y944926D01*
X730313Y944888D01*
X730284Y944855D01*
X730280Y944828D01*
X730267Y944804D01*
X730270Y944760D01*
X730263Y944717D01*
X730274Y944692D01*
X730276Y944664D01*
X730302Y944629D01*
X730320Y944589D01*
X730343Y944574D01*
X730359Y944552D01*
X730400Y944536D01*
X730437Y944512D01*
X730480Y944505D01*
X730489Y944502D01*
X730496Y944503D01*
X730510Y944501D01*
X754510Y944501D01*
X754526Y944506D01*
G37*
G36*
X754526Y406026D02*
X754526Y406026D01*
X754543Y406023D01*
X754593Y406045D01*
X754644Y406060D01*
X754655Y406073D01*
X754671Y406080D01*
X754701Y406125D01*
X754736Y406165D01*
X754739Y406182D01*
X754748Y406197D01*
X754759Y406270D01*
X754759Y430270D01*
X754747Y430312D01*
X754744Y430356D01*
X754728Y430378D01*
X754720Y430404D01*
X754687Y430433D01*
X754661Y430468D01*
X754635Y430478D01*
X754615Y430496D01*
X754571Y430503D01*
X754531Y430518D01*
X754504Y430513D01*
X754477Y430517D01*
X754436Y430499D01*
X754394Y430490D01*
X754358Y430464D01*
X754349Y430460D01*
X754345Y430455D01*
X754334Y430446D01*
X730334Y406446D01*
X730313Y406408D01*
X730284Y406375D01*
X730280Y406348D01*
X730267Y406324D01*
X730270Y406280D01*
X730263Y406237D01*
X730274Y406212D01*
X730276Y406184D01*
X730302Y406149D01*
X730320Y406109D01*
X730343Y406094D01*
X730359Y406072D01*
X730400Y406056D01*
X730437Y406032D01*
X730480Y406025D01*
X730489Y406022D01*
X730496Y406023D01*
X730510Y406021D01*
X754510Y406021D01*
X754526Y406026D01*
G37*
G36*
X317646Y406026D02*
X317646Y406026D01*
X317663Y406023D01*
X317713Y406045D01*
X317764Y406060D01*
X317775Y406073D01*
X317791Y406080D01*
X317821Y406125D01*
X317856Y406165D01*
X317859Y406182D01*
X317868Y406197D01*
X317879Y406270D01*
X317879Y430270D01*
X317867Y430312D01*
X317864Y430356D01*
X317848Y430378D01*
X317840Y430404D01*
X317807Y430433D01*
X317781Y430468D01*
X317755Y430478D01*
X317735Y430496D01*
X317691Y430503D01*
X317651Y430518D01*
X317624Y430513D01*
X317597Y430517D01*
X317556Y430499D01*
X317514Y430490D01*
X317478Y430464D01*
X317469Y430460D01*
X317465Y430455D01*
X317454Y430446D01*
X293454Y406446D01*
X293433Y406408D01*
X293404Y406375D01*
X293400Y406348D01*
X293387Y406324D01*
X293390Y406280D01*
X293383Y406237D01*
X293394Y406212D01*
X293396Y406184D01*
X293422Y406149D01*
X293440Y406109D01*
X293463Y406094D01*
X293479Y406072D01*
X293520Y406056D01*
X293557Y406032D01*
X293600Y406025D01*
X293609Y406022D01*
X293616Y406023D01*
X293630Y406021D01*
X317630Y406021D01*
X317646Y406026D01*
G37*
G36*
X521814Y442422D02*
X521814Y442422D01*
X521819Y442427D01*
X521823Y442423D01*
X522920Y442710D01*
X522924Y442716D01*
X522929Y442713D01*
X523948Y443208D01*
X523951Y443214D01*
X523956Y443213D01*
X524859Y443897D01*
X524861Y443904D01*
X524866Y443904D01*
X525619Y444751D01*
X525619Y444758D01*
X525624Y444759D01*
X526197Y445736D01*
X526196Y445739D01*
X526197Y445740D01*
X526196Y445741D01*
X526196Y445743D01*
X526201Y445745D01*
X526572Y446816D01*
X526570Y446821D01*
X526573Y446823D01*
X526572Y446824D01*
X526574Y446825D01*
X526729Y447947D01*
X526726Y447952D01*
X526729Y447954D01*
X526729Y459954D01*
X526726Y459959D01*
X526729Y459962D01*
X526524Y461229D01*
X526518Y461235D01*
X526521Y461240D01*
X526039Y462429D01*
X526032Y462433D01*
X526034Y462439D01*
X525300Y463492D01*
X525292Y463494D01*
X525293Y463500D01*
X524343Y464363D01*
X524334Y464364D01*
X524334Y464369D01*
X523215Y464999D01*
X523207Y464998D01*
X523205Y465004D01*
X521975Y465369D01*
X521967Y465366D01*
X521964Y465371D01*
X520683Y465453D01*
X520677Y465453D01*
X519396Y465371D01*
X519390Y465365D01*
X519385Y465369D01*
X518155Y465004D01*
X518150Y464997D01*
X518145Y464999D01*
X517026Y464369D01*
X517023Y464362D01*
X517017Y464363D01*
X516067Y463500D01*
X516066Y463492D01*
X516060Y463492D01*
X515326Y462439D01*
X515326Y462431D01*
X515321Y462429D01*
X514839Y461240D01*
X514841Y461234D01*
X514837Y461231D01*
X514838Y461230D01*
X514836Y461229D01*
X514631Y459962D01*
X514634Y459957D01*
X514631Y459954D01*
X514631Y447954D01*
X514634Y447950D01*
X514631Y447947D01*
X514786Y446825D01*
X514791Y446820D01*
X514788Y446816D01*
X515159Y445745D01*
X515165Y445741D01*
X515163Y445736D01*
X515736Y444759D01*
X515742Y444756D01*
X515741Y444751D01*
X516494Y443904D01*
X516501Y443902D01*
X516501Y443897D01*
X517404Y443213D01*
X517411Y443213D01*
X517412Y443208D01*
X518431Y442713D01*
X518438Y442715D01*
X518440Y442710D01*
X519537Y442423D01*
X519543Y442426D01*
X519546Y442422D01*
X520677Y442355D01*
X520681Y442357D01*
X520683Y442355D01*
X521814Y442422D01*
G37*
G36*
X84934Y442422D02*
X84934Y442422D01*
X84939Y442427D01*
X84943Y442423D01*
X86040Y442710D01*
X86044Y442716D01*
X86049Y442713D01*
X87068Y443208D01*
X87071Y443214D01*
X87076Y443213D01*
X87979Y443897D01*
X87981Y443904D01*
X87986Y443904D01*
X88739Y444751D01*
X88739Y444758D01*
X88744Y444759D01*
X89317Y445736D01*
X89316Y445739D01*
X89317Y445740D01*
X89316Y445741D01*
X89316Y445743D01*
X89321Y445745D01*
X89692Y446816D01*
X89690Y446821D01*
X89693Y446823D01*
X89692Y446824D01*
X89694Y446825D01*
X89849Y447947D01*
X89846Y447952D01*
X89849Y447954D01*
X89849Y459954D01*
X89846Y459959D01*
X89849Y459962D01*
X89644Y461229D01*
X89638Y461235D01*
X89641Y461240D01*
X89159Y462429D01*
X89152Y462433D01*
X89154Y462439D01*
X88420Y463492D01*
X88412Y463494D01*
X88413Y463500D01*
X87463Y464363D01*
X87454Y464364D01*
X87454Y464369D01*
X86335Y464999D01*
X86327Y464998D01*
X86325Y465004D01*
X85095Y465369D01*
X85087Y465366D01*
X85084Y465371D01*
X83803Y465453D01*
X83797Y465453D01*
X82516Y465371D01*
X82510Y465365D01*
X82505Y465369D01*
X81275Y465004D01*
X81270Y464997D01*
X81265Y464999D01*
X80146Y464369D01*
X80143Y464362D01*
X80137Y464363D01*
X79187Y463500D01*
X79186Y463492D01*
X79180Y463492D01*
X78446Y462439D01*
X78446Y462431D01*
X78441Y462429D01*
X77959Y461240D01*
X77961Y461234D01*
X77957Y461231D01*
X77958Y461230D01*
X77956Y461229D01*
X77751Y459962D01*
X77754Y459957D01*
X77751Y459954D01*
X77751Y447954D01*
X77754Y447950D01*
X77751Y447947D01*
X77906Y446825D01*
X77911Y446820D01*
X77908Y446816D01*
X78279Y445745D01*
X78285Y445741D01*
X78283Y445736D01*
X78856Y444759D01*
X78862Y444756D01*
X78861Y444751D01*
X79614Y443904D01*
X79621Y443902D01*
X79621Y443897D01*
X80524Y443213D01*
X80531Y443213D01*
X80532Y443208D01*
X81551Y442713D01*
X81558Y442715D01*
X81560Y442710D01*
X82657Y442423D01*
X82663Y442426D01*
X82666Y442422D01*
X83797Y442355D01*
X83801Y442357D01*
X83803Y442355D01*
X84934Y442422D01*
G37*
G36*
X171334Y442422D02*
X171334Y442422D01*
X171339Y442427D01*
X171343Y442423D01*
X172440Y442710D01*
X172444Y442716D01*
X172449Y442713D01*
X173468Y443208D01*
X173471Y443214D01*
X173476Y443213D01*
X174379Y443897D01*
X174381Y443904D01*
X174386Y443904D01*
X175139Y444751D01*
X175139Y444758D01*
X175144Y444759D01*
X175717Y445736D01*
X175716Y445739D01*
X175717Y445740D01*
X175716Y445741D01*
X175716Y445743D01*
X175721Y445745D01*
X176092Y446816D01*
X176090Y446821D01*
X176093Y446823D01*
X176092Y446824D01*
X176094Y446825D01*
X176249Y447947D01*
X176246Y447952D01*
X176249Y447954D01*
X176249Y459954D01*
X176246Y459959D01*
X176249Y459962D01*
X176044Y461229D01*
X176038Y461235D01*
X176041Y461240D01*
X175559Y462429D01*
X175552Y462433D01*
X175554Y462439D01*
X174820Y463492D01*
X174812Y463494D01*
X174813Y463500D01*
X173863Y464363D01*
X173854Y464364D01*
X173854Y464369D01*
X172735Y464999D01*
X172727Y464998D01*
X172725Y465004D01*
X171495Y465369D01*
X171487Y465366D01*
X171484Y465371D01*
X170203Y465453D01*
X170197Y465453D01*
X168916Y465371D01*
X168910Y465365D01*
X168905Y465369D01*
X167675Y465004D01*
X167670Y464997D01*
X167665Y464999D01*
X166546Y464369D01*
X166543Y464362D01*
X166537Y464363D01*
X165587Y463500D01*
X165586Y463492D01*
X165580Y463492D01*
X164846Y462439D01*
X164846Y462431D01*
X164841Y462429D01*
X164359Y461240D01*
X164361Y461234D01*
X164357Y461231D01*
X164358Y461230D01*
X164356Y461229D01*
X164151Y459962D01*
X164154Y459957D01*
X164151Y459954D01*
X164151Y447954D01*
X164154Y447950D01*
X164151Y447947D01*
X164306Y446825D01*
X164311Y446820D01*
X164308Y446816D01*
X164679Y445745D01*
X164685Y445741D01*
X164683Y445736D01*
X165256Y444759D01*
X165262Y444756D01*
X165261Y444751D01*
X166014Y443904D01*
X166021Y443902D01*
X166021Y443897D01*
X166924Y443213D01*
X166931Y443213D01*
X166932Y443208D01*
X167951Y442713D01*
X167958Y442715D01*
X167960Y442710D01*
X169057Y442423D01*
X169063Y442426D01*
X169066Y442422D01*
X170197Y442355D01*
X170201Y442357D01*
X170203Y442355D01*
X171334Y442422D01*
G37*
G36*
X608214Y442422D02*
X608214Y442422D01*
X608219Y442427D01*
X608223Y442423D01*
X609320Y442710D01*
X609324Y442716D01*
X609329Y442713D01*
X610348Y443208D01*
X610351Y443214D01*
X610356Y443213D01*
X611259Y443897D01*
X611261Y443904D01*
X611266Y443904D01*
X612019Y444751D01*
X612019Y444758D01*
X612024Y444759D01*
X612597Y445736D01*
X612596Y445739D01*
X612597Y445740D01*
X612596Y445741D01*
X612596Y445743D01*
X612601Y445745D01*
X612972Y446816D01*
X612970Y446821D01*
X612973Y446823D01*
X612972Y446824D01*
X612974Y446825D01*
X613129Y447947D01*
X613126Y447952D01*
X613129Y447954D01*
X613129Y459954D01*
X613126Y459959D01*
X613129Y459962D01*
X612924Y461229D01*
X612918Y461235D01*
X612921Y461240D01*
X612439Y462429D01*
X612432Y462433D01*
X612434Y462439D01*
X611700Y463492D01*
X611692Y463494D01*
X611693Y463500D01*
X610743Y464363D01*
X610734Y464364D01*
X610734Y464369D01*
X609615Y464999D01*
X609607Y464998D01*
X609605Y465004D01*
X608375Y465369D01*
X608367Y465366D01*
X608364Y465371D01*
X607083Y465453D01*
X607077Y465453D01*
X605796Y465371D01*
X605790Y465365D01*
X605785Y465369D01*
X604555Y465004D01*
X604550Y464997D01*
X604545Y464999D01*
X603426Y464369D01*
X603423Y464362D01*
X603417Y464363D01*
X602467Y463500D01*
X602466Y463492D01*
X602460Y463492D01*
X601726Y462439D01*
X601726Y462431D01*
X601721Y462429D01*
X601239Y461240D01*
X601241Y461234D01*
X601237Y461231D01*
X601238Y461230D01*
X601236Y461229D01*
X601031Y459962D01*
X601034Y459957D01*
X601031Y459954D01*
X601031Y447954D01*
X601034Y447950D01*
X601031Y447947D01*
X601186Y446825D01*
X601191Y446820D01*
X601188Y446816D01*
X601559Y445745D01*
X601565Y445741D01*
X601563Y445736D01*
X602136Y444759D01*
X602142Y444756D01*
X602141Y444751D01*
X602894Y443904D01*
X602901Y443902D01*
X602901Y443897D01*
X603804Y443213D01*
X603811Y443213D01*
X603812Y443208D01*
X604831Y442713D01*
X604838Y442715D01*
X604840Y442710D01*
X605937Y442423D01*
X605943Y442426D01*
X605946Y442422D01*
X607077Y442355D01*
X607081Y442357D01*
X607083Y442355D01*
X608214Y442422D01*
G37*
G36*
X171334Y980902D02*
X171334Y980902D01*
X171339Y980907D01*
X171343Y980903D01*
X172440Y981190D01*
X172444Y981196D01*
X172449Y981193D01*
X173468Y981688D01*
X173471Y981694D01*
X173476Y981693D01*
X174379Y982377D01*
X174381Y982384D01*
X174386Y982384D01*
X175139Y983231D01*
X175139Y983238D01*
X175144Y983239D01*
X175717Y984216D01*
X175716Y984219D01*
X175717Y984220D01*
X175716Y984221D01*
X175716Y984223D01*
X175721Y984225D01*
X176092Y985296D01*
X176090Y985301D01*
X176093Y985303D01*
X176092Y985304D01*
X176094Y985305D01*
X176249Y986427D01*
X176246Y986432D01*
X176249Y986434D01*
X176249Y998434D01*
X176246Y998439D01*
X176249Y998442D01*
X176044Y999709D01*
X176038Y999715D01*
X176041Y999720D01*
X175559Y1000909D01*
X175552Y1000913D01*
X175554Y1000919D01*
X174820Y1001972D01*
X174812Y1001974D01*
X174813Y1001980D01*
X173863Y1002843D01*
X173854Y1002844D01*
X173854Y1002849D01*
X172735Y1003479D01*
X172727Y1003478D01*
X172725Y1003484D01*
X171495Y1003849D01*
X171487Y1003846D01*
X171484Y1003851D01*
X170203Y1003933D01*
X170197Y1003933D01*
X168916Y1003851D01*
X168910Y1003845D01*
X168905Y1003849D01*
X167675Y1003484D01*
X167670Y1003477D01*
X167665Y1003479D01*
X166546Y1002849D01*
X166543Y1002842D01*
X166537Y1002843D01*
X165587Y1001980D01*
X165586Y1001972D01*
X165580Y1001972D01*
X164846Y1000919D01*
X164846Y1000911D01*
X164841Y1000909D01*
X164359Y999720D01*
X164361Y999714D01*
X164357Y999711D01*
X164358Y999710D01*
X164356Y999709D01*
X164151Y998442D01*
X164154Y998437D01*
X164151Y998434D01*
X164151Y986434D01*
X164154Y986430D01*
X164151Y986427D01*
X164306Y985305D01*
X164311Y985300D01*
X164308Y985296D01*
X164679Y984225D01*
X164685Y984221D01*
X164683Y984216D01*
X165256Y983239D01*
X165262Y983236D01*
X165261Y983231D01*
X166014Y982384D01*
X166021Y982382D01*
X166021Y982377D01*
X166924Y981693D01*
X166931Y981693D01*
X166932Y981688D01*
X167951Y981193D01*
X167958Y981195D01*
X167960Y981190D01*
X169057Y980903D01*
X169063Y980906D01*
X169066Y980902D01*
X170197Y980835D01*
X170201Y980837D01*
X170203Y980835D01*
X171334Y980902D01*
G37*
G36*
X84934Y980902D02*
X84934Y980902D01*
X84939Y980907D01*
X84943Y980903D01*
X86040Y981190D01*
X86044Y981196D01*
X86049Y981193D01*
X87068Y981688D01*
X87071Y981694D01*
X87076Y981693D01*
X87979Y982377D01*
X87981Y982384D01*
X87986Y982384D01*
X88739Y983231D01*
X88739Y983238D01*
X88744Y983239D01*
X89317Y984216D01*
X89316Y984219D01*
X89317Y984220D01*
X89316Y984221D01*
X89316Y984223D01*
X89321Y984225D01*
X89692Y985296D01*
X89690Y985301D01*
X89693Y985303D01*
X89692Y985304D01*
X89694Y985305D01*
X89849Y986427D01*
X89846Y986432D01*
X89849Y986434D01*
X89849Y998434D01*
X89846Y998439D01*
X89849Y998442D01*
X89644Y999709D01*
X89638Y999715D01*
X89641Y999720D01*
X89159Y1000909D01*
X89152Y1000913D01*
X89154Y1000919D01*
X88420Y1001972D01*
X88412Y1001974D01*
X88413Y1001980D01*
X87463Y1002843D01*
X87454Y1002844D01*
X87454Y1002849D01*
X86335Y1003479D01*
X86327Y1003478D01*
X86325Y1003484D01*
X85095Y1003849D01*
X85087Y1003846D01*
X85084Y1003851D01*
X83803Y1003933D01*
X83797Y1003933D01*
X82516Y1003851D01*
X82510Y1003845D01*
X82505Y1003849D01*
X81275Y1003484D01*
X81270Y1003477D01*
X81265Y1003479D01*
X80146Y1002849D01*
X80143Y1002842D01*
X80137Y1002843D01*
X79187Y1001980D01*
X79186Y1001972D01*
X79180Y1001972D01*
X78446Y1000919D01*
X78446Y1000911D01*
X78441Y1000909D01*
X77959Y999720D01*
X77961Y999714D01*
X77957Y999711D01*
X77958Y999710D01*
X77956Y999709D01*
X77751Y998442D01*
X77754Y998437D01*
X77751Y998434D01*
X77751Y986434D01*
X77754Y986430D01*
X77751Y986427D01*
X77906Y985305D01*
X77911Y985300D01*
X77908Y985296D01*
X78279Y984225D01*
X78285Y984221D01*
X78283Y984216D01*
X78856Y983239D01*
X78862Y983236D01*
X78861Y983231D01*
X79614Y982384D01*
X79621Y982382D01*
X79621Y982377D01*
X80524Y981693D01*
X80531Y981693D01*
X80532Y981688D01*
X81551Y981193D01*
X81558Y981195D01*
X81560Y981190D01*
X82657Y980903D01*
X82663Y980906D01*
X82666Y980902D01*
X83797Y980835D01*
X83801Y980837D01*
X83803Y980835D01*
X84934Y980902D01*
G37*
G36*
X521814Y980902D02*
X521814Y980902D01*
X521819Y980907D01*
X521823Y980903D01*
X522920Y981190D01*
X522924Y981196D01*
X522929Y981193D01*
X523948Y981688D01*
X523951Y981694D01*
X523956Y981693D01*
X524859Y982377D01*
X524861Y982384D01*
X524866Y982384D01*
X525619Y983231D01*
X525619Y983238D01*
X525624Y983239D01*
X526197Y984216D01*
X526196Y984219D01*
X526197Y984220D01*
X526196Y984221D01*
X526196Y984223D01*
X526201Y984225D01*
X526572Y985296D01*
X526570Y985301D01*
X526573Y985303D01*
X526572Y985304D01*
X526574Y985305D01*
X526729Y986427D01*
X526726Y986432D01*
X526729Y986434D01*
X526729Y998434D01*
X526726Y998439D01*
X526729Y998442D01*
X526524Y999709D01*
X526518Y999715D01*
X526521Y999720D01*
X526039Y1000909D01*
X526032Y1000913D01*
X526034Y1000919D01*
X525300Y1001972D01*
X525292Y1001974D01*
X525293Y1001980D01*
X524343Y1002843D01*
X524334Y1002844D01*
X524334Y1002849D01*
X523215Y1003479D01*
X523207Y1003478D01*
X523205Y1003484D01*
X521975Y1003849D01*
X521967Y1003846D01*
X521964Y1003851D01*
X520683Y1003933D01*
X520677Y1003933D01*
X519396Y1003851D01*
X519390Y1003845D01*
X519385Y1003849D01*
X518155Y1003484D01*
X518150Y1003477D01*
X518145Y1003479D01*
X517026Y1002849D01*
X517023Y1002842D01*
X517017Y1002843D01*
X516067Y1001980D01*
X516066Y1001972D01*
X516060Y1001972D01*
X515326Y1000919D01*
X515326Y1000911D01*
X515321Y1000909D01*
X514839Y999720D01*
X514841Y999714D01*
X514837Y999711D01*
X514838Y999710D01*
X514836Y999709D01*
X514631Y998442D01*
X514634Y998437D01*
X514631Y998434D01*
X514631Y986434D01*
X514634Y986430D01*
X514631Y986427D01*
X514786Y985305D01*
X514791Y985300D01*
X514788Y985296D01*
X515159Y984225D01*
X515165Y984221D01*
X515163Y984216D01*
X515736Y983239D01*
X515742Y983236D01*
X515741Y983231D01*
X516494Y982384D01*
X516501Y982382D01*
X516501Y982377D01*
X517404Y981693D01*
X517411Y981693D01*
X517412Y981688D01*
X518431Y981193D01*
X518438Y981195D01*
X518440Y981190D01*
X519537Y980903D01*
X519543Y980906D01*
X519546Y980902D01*
X520677Y980835D01*
X520681Y980837D01*
X520683Y980835D01*
X521814Y980902D01*
G37*
G36*
X608214Y980902D02*
X608214Y980902D01*
X608219Y980907D01*
X608223Y980903D01*
X609320Y981190D01*
X609324Y981196D01*
X609329Y981193D01*
X610348Y981688D01*
X610351Y981694D01*
X610356Y981693D01*
X611259Y982377D01*
X611261Y982384D01*
X611266Y982384D01*
X612019Y983231D01*
X612019Y983238D01*
X612024Y983239D01*
X612597Y984216D01*
X612596Y984219D01*
X612597Y984220D01*
X612596Y984221D01*
X612596Y984223D01*
X612601Y984225D01*
X612972Y985296D01*
X612970Y985301D01*
X612973Y985303D01*
X612972Y985304D01*
X612974Y985305D01*
X613129Y986427D01*
X613126Y986432D01*
X613129Y986434D01*
X613129Y998434D01*
X613126Y998439D01*
X613129Y998442D01*
X612924Y999709D01*
X612918Y999715D01*
X612921Y999720D01*
X612439Y1000909D01*
X612432Y1000913D01*
X612434Y1000919D01*
X611700Y1001972D01*
X611692Y1001974D01*
X611693Y1001980D01*
X610743Y1002843D01*
X610734Y1002844D01*
X610734Y1002849D01*
X609615Y1003479D01*
X609607Y1003478D01*
X609605Y1003484D01*
X608375Y1003849D01*
X608367Y1003846D01*
X608364Y1003851D01*
X607083Y1003933D01*
X607077Y1003933D01*
X605796Y1003851D01*
X605790Y1003845D01*
X605785Y1003849D01*
X604555Y1003484D01*
X604550Y1003477D01*
X604545Y1003479D01*
X603426Y1002849D01*
X603423Y1002842D01*
X603417Y1002843D01*
X602467Y1001980D01*
X602466Y1001972D01*
X602460Y1001972D01*
X601726Y1000919D01*
X601726Y1000911D01*
X601721Y1000909D01*
X601239Y999720D01*
X601241Y999714D01*
X601237Y999711D01*
X601238Y999710D01*
X601236Y999709D01*
X601031Y998442D01*
X601034Y998437D01*
X601031Y998434D01*
X601031Y986434D01*
X601034Y986430D01*
X601031Y986427D01*
X601186Y985305D01*
X601191Y985300D01*
X601188Y985296D01*
X601559Y984225D01*
X601565Y984221D01*
X601563Y984216D01*
X602136Y983239D01*
X602142Y983236D01*
X602141Y983231D01*
X602894Y982384D01*
X602901Y982382D01*
X602901Y982377D01*
X603804Y981693D01*
X603811Y981693D01*
X603812Y981688D01*
X604831Y981193D01*
X604838Y981195D01*
X604840Y981190D01*
X605937Y980903D01*
X605943Y980906D01*
X605946Y980902D01*
X607077Y980835D01*
X607081Y980837D01*
X607083Y980835D01*
X608214Y980902D01*
G37*
G36*
X170202Y1025139D02*
X170202Y1025139D01*
X170206Y1025135D01*
X171546Y1025292D01*
X171552Y1025297D01*
X171557Y1025294D01*
X172828Y1025745D01*
X172833Y1025752D01*
X172838Y1025750D01*
X173977Y1026472D01*
X173980Y1026480D01*
X173986Y1026479D01*
X174936Y1027437D01*
X174937Y1027445D01*
X174943Y1027446D01*
X175656Y1028591D01*
X175655Y1028600D01*
X175661Y1028601D01*
X176101Y1029877D01*
X176099Y1029884D01*
X176103Y1029887D01*
X176249Y1031229D01*
X176247Y1031232D01*
X176249Y1031234D01*
X176249Y1037234D01*
X176247Y1037238D01*
X176249Y1037240D01*
X176094Y1038569D01*
X176088Y1038575D01*
X176091Y1038579D01*
X175644Y1039840D01*
X175637Y1039845D01*
X175639Y1039850D01*
X174922Y1040980D01*
X174915Y1040983D01*
X174916Y1040989D01*
X173966Y1041931D01*
X173957Y1041932D01*
X173957Y1041938D01*
X172821Y1042645D01*
X172813Y1042644D01*
X172811Y1042650D01*
X171546Y1043086D01*
X171538Y1043084D01*
X171536Y1043089D01*
X170205Y1043233D01*
X170199Y1043229D01*
X170195Y1043233D01*
X169029Y1043123D01*
X169024Y1043118D01*
X169020Y1043121D01*
X167897Y1042786D01*
X167893Y1042780D01*
X167889Y1042782D01*
X166853Y1042234D01*
X166850Y1042228D01*
X166845Y1042229D01*
X165937Y1041490D01*
X165935Y1041483D01*
X165930Y1041483D01*
X165183Y1040581D01*
X165183Y1040574D01*
X165178Y1040573D01*
X164621Y1039542D01*
X164622Y1039535D01*
X164617Y1039533D01*
X164273Y1038414D01*
X164275Y1038407D01*
X164271Y1038404D01*
X164151Y1037239D01*
X164153Y1037236D01*
X164151Y1037234D01*
X164151Y1031234D01*
X164153Y1031231D01*
X164151Y1031229D01*
X164262Y1030053D01*
X164267Y1030048D01*
X164264Y1030044D01*
X164602Y1028912D01*
X164608Y1028908D01*
X164606Y1028903D01*
X165158Y1027859D01*
X165165Y1027856D01*
X165163Y1027851D01*
X165909Y1026935D01*
X165916Y1026934D01*
X165916Y1026928D01*
X166826Y1026175D01*
X166833Y1026175D01*
X166834Y1026170D01*
X167873Y1025609D01*
X167880Y1025610D01*
X167882Y1025605D01*
X169011Y1025258D01*
X169017Y1025260D01*
X169020Y1025256D01*
X170195Y1025135D01*
X170202Y1025139D01*
G37*
G36*
X607082Y1025139D02*
X607082Y1025139D01*
X607086Y1025135D01*
X608426Y1025292D01*
X608432Y1025297D01*
X608437Y1025294D01*
X609708Y1025745D01*
X609713Y1025752D01*
X609718Y1025750D01*
X610857Y1026472D01*
X610860Y1026480D01*
X610866Y1026479D01*
X611816Y1027437D01*
X611817Y1027445D01*
X611823Y1027446D01*
X612536Y1028591D01*
X612535Y1028600D01*
X612541Y1028601D01*
X612981Y1029877D01*
X612979Y1029884D01*
X612983Y1029887D01*
X613129Y1031229D01*
X613127Y1031232D01*
X613129Y1031234D01*
X613129Y1037234D01*
X613127Y1037238D01*
X613129Y1037240D01*
X612974Y1038569D01*
X612968Y1038575D01*
X612971Y1038579D01*
X612524Y1039840D01*
X612517Y1039845D01*
X612519Y1039850D01*
X611802Y1040980D01*
X611795Y1040983D01*
X611796Y1040989D01*
X610846Y1041931D01*
X610837Y1041932D01*
X610837Y1041938D01*
X609701Y1042645D01*
X609693Y1042644D01*
X609691Y1042650D01*
X608426Y1043086D01*
X608418Y1043084D01*
X608416Y1043089D01*
X607085Y1043233D01*
X607079Y1043229D01*
X607075Y1043233D01*
X605909Y1043123D01*
X605904Y1043118D01*
X605900Y1043121D01*
X604777Y1042786D01*
X604773Y1042780D01*
X604769Y1042782D01*
X603733Y1042234D01*
X603730Y1042228D01*
X603725Y1042229D01*
X602817Y1041490D01*
X602815Y1041483D01*
X602810Y1041483D01*
X602063Y1040581D01*
X602063Y1040574D01*
X602058Y1040573D01*
X601501Y1039542D01*
X601502Y1039535D01*
X601497Y1039533D01*
X601153Y1038414D01*
X601155Y1038407D01*
X601151Y1038404D01*
X601031Y1037239D01*
X601033Y1037236D01*
X601031Y1037234D01*
X601031Y1031234D01*
X601033Y1031231D01*
X601031Y1031229D01*
X601142Y1030053D01*
X601147Y1030048D01*
X601144Y1030044D01*
X601482Y1028912D01*
X601488Y1028908D01*
X601486Y1028903D01*
X602038Y1027859D01*
X602045Y1027856D01*
X602043Y1027851D01*
X602789Y1026935D01*
X602796Y1026934D01*
X602796Y1026928D01*
X603706Y1026175D01*
X603713Y1026175D01*
X603714Y1026170D01*
X604753Y1025609D01*
X604760Y1025610D01*
X604762Y1025605D01*
X605891Y1025258D01*
X605897Y1025260D01*
X605900Y1025256D01*
X607075Y1025135D01*
X607082Y1025139D01*
G37*
G36*
X520682Y1025139D02*
X520682Y1025139D01*
X520686Y1025135D01*
X522026Y1025292D01*
X522032Y1025297D01*
X522037Y1025294D01*
X523308Y1025745D01*
X523313Y1025752D01*
X523318Y1025750D01*
X524457Y1026472D01*
X524460Y1026480D01*
X524466Y1026479D01*
X525416Y1027437D01*
X525417Y1027445D01*
X525423Y1027446D01*
X526136Y1028591D01*
X526135Y1028600D01*
X526141Y1028601D01*
X526581Y1029877D01*
X526579Y1029884D01*
X526583Y1029887D01*
X526729Y1031229D01*
X526727Y1031232D01*
X526729Y1031234D01*
X526729Y1037234D01*
X526727Y1037238D01*
X526729Y1037240D01*
X526574Y1038569D01*
X526568Y1038575D01*
X526571Y1038579D01*
X526124Y1039840D01*
X526117Y1039845D01*
X526119Y1039850D01*
X525402Y1040980D01*
X525395Y1040983D01*
X525396Y1040989D01*
X524446Y1041931D01*
X524437Y1041932D01*
X524437Y1041938D01*
X523301Y1042645D01*
X523293Y1042644D01*
X523291Y1042650D01*
X522026Y1043086D01*
X522018Y1043084D01*
X522016Y1043089D01*
X520685Y1043233D01*
X520679Y1043229D01*
X520675Y1043233D01*
X519509Y1043123D01*
X519504Y1043118D01*
X519500Y1043121D01*
X518377Y1042786D01*
X518373Y1042780D01*
X518369Y1042782D01*
X517333Y1042234D01*
X517330Y1042228D01*
X517325Y1042229D01*
X516417Y1041490D01*
X516415Y1041483D01*
X516410Y1041483D01*
X515663Y1040581D01*
X515663Y1040574D01*
X515658Y1040573D01*
X515101Y1039542D01*
X515102Y1039535D01*
X515097Y1039533D01*
X514753Y1038414D01*
X514755Y1038407D01*
X514751Y1038404D01*
X514631Y1037239D01*
X514633Y1037236D01*
X514631Y1037234D01*
X514631Y1031234D01*
X514633Y1031231D01*
X514631Y1031229D01*
X514742Y1030053D01*
X514747Y1030048D01*
X514744Y1030044D01*
X515082Y1028912D01*
X515088Y1028908D01*
X515086Y1028903D01*
X515638Y1027859D01*
X515645Y1027856D01*
X515643Y1027851D01*
X516389Y1026935D01*
X516396Y1026934D01*
X516396Y1026928D01*
X517306Y1026175D01*
X517313Y1026175D01*
X517314Y1026170D01*
X518353Y1025609D01*
X518360Y1025610D01*
X518362Y1025605D01*
X519491Y1025258D01*
X519497Y1025260D01*
X519500Y1025256D01*
X520675Y1025135D01*
X520682Y1025139D01*
G37*
G36*
X83802Y1025139D02*
X83802Y1025139D01*
X83806Y1025135D01*
X85146Y1025292D01*
X85152Y1025297D01*
X85157Y1025294D01*
X86428Y1025745D01*
X86433Y1025752D01*
X86438Y1025750D01*
X87577Y1026472D01*
X87580Y1026480D01*
X87586Y1026479D01*
X88536Y1027437D01*
X88537Y1027445D01*
X88543Y1027446D01*
X89256Y1028591D01*
X89255Y1028600D01*
X89261Y1028601D01*
X89701Y1029877D01*
X89699Y1029884D01*
X89703Y1029887D01*
X89849Y1031229D01*
X89847Y1031232D01*
X89849Y1031234D01*
X89849Y1037234D01*
X89847Y1037238D01*
X89849Y1037240D01*
X89694Y1038569D01*
X89688Y1038575D01*
X89691Y1038579D01*
X89244Y1039840D01*
X89237Y1039845D01*
X89239Y1039850D01*
X88522Y1040980D01*
X88515Y1040983D01*
X88516Y1040989D01*
X87566Y1041931D01*
X87557Y1041932D01*
X87557Y1041938D01*
X86421Y1042645D01*
X86413Y1042644D01*
X86411Y1042650D01*
X85146Y1043086D01*
X85138Y1043084D01*
X85136Y1043089D01*
X83805Y1043233D01*
X83799Y1043229D01*
X83795Y1043233D01*
X82629Y1043123D01*
X82624Y1043118D01*
X82620Y1043121D01*
X81497Y1042786D01*
X81493Y1042780D01*
X81489Y1042782D01*
X80453Y1042234D01*
X80450Y1042228D01*
X80445Y1042229D01*
X79537Y1041490D01*
X79535Y1041483D01*
X79530Y1041483D01*
X78783Y1040581D01*
X78783Y1040574D01*
X78778Y1040573D01*
X78221Y1039542D01*
X78222Y1039535D01*
X78217Y1039533D01*
X77873Y1038414D01*
X77875Y1038407D01*
X77871Y1038404D01*
X77751Y1037239D01*
X77753Y1037236D01*
X77751Y1037234D01*
X77751Y1031234D01*
X77753Y1031231D01*
X77751Y1031229D01*
X77862Y1030053D01*
X77867Y1030048D01*
X77864Y1030044D01*
X78202Y1028912D01*
X78208Y1028908D01*
X78206Y1028903D01*
X78758Y1027859D01*
X78765Y1027856D01*
X78763Y1027851D01*
X79509Y1026935D01*
X79516Y1026934D01*
X79516Y1026928D01*
X80426Y1026175D01*
X80433Y1026175D01*
X80434Y1026170D01*
X81473Y1025609D01*
X81480Y1025610D01*
X81482Y1025605D01*
X82611Y1025258D01*
X82617Y1025260D01*
X82620Y1025256D01*
X83795Y1025135D01*
X83802Y1025139D01*
G37*
G36*
X607082Y486659D02*
X607082Y486659D01*
X607086Y486655D01*
X608426Y486812D01*
X608432Y486817D01*
X608437Y486814D01*
X609708Y487265D01*
X609713Y487272D01*
X609718Y487270D01*
X610857Y487992D01*
X610860Y488000D01*
X610866Y487999D01*
X611816Y488957D01*
X611817Y488965D01*
X611823Y488966D01*
X612536Y490111D01*
X612535Y490120D01*
X612541Y490121D01*
X612981Y491397D01*
X612979Y491404D01*
X612983Y491407D01*
X613129Y492749D01*
X613127Y492752D01*
X613129Y492754D01*
X613129Y498754D01*
X613127Y498758D01*
X613129Y498760D01*
X612974Y500089D01*
X612968Y500095D01*
X612971Y500099D01*
X612524Y501360D01*
X612517Y501365D01*
X612519Y501370D01*
X611802Y502500D01*
X611795Y502503D01*
X611796Y502509D01*
X610846Y503451D01*
X610837Y503452D01*
X610837Y503458D01*
X609701Y504165D01*
X609693Y504164D01*
X609691Y504170D01*
X608426Y504606D01*
X608418Y504604D01*
X608416Y504609D01*
X607085Y504753D01*
X607079Y504749D01*
X607075Y504753D01*
X605909Y504643D01*
X605904Y504638D01*
X605900Y504641D01*
X604777Y504306D01*
X604773Y504300D01*
X604769Y504302D01*
X603733Y503754D01*
X603730Y503748D01*
X603725Y503749D01*
X602817Y503010D01*
X602815Y503003D01*
X602810Y503003D01*
X602063Y502101D01*
X602063Y502094D01*
X602058Y502093D01*
X601501Y501062D01*
X601502Y501055D01*
X601497Y501053D01*
X601153Y499934D01*
X601155Y499927D01*
X601151Y499924D01*
X601031Y498759D01*
X601033Y498756D01*
X601031Y498754D01*
X601031Y492754D01*
X601033Y492751D01*
X601031Y492749D01*
X601142Y491573D01*
X601147Y491568D01*
X601144Y491564D01*
X601482Y490432D01*
X601488Y490428D01*
X601486Y490423D01*
X602038Y489379D01*
X602045Y489376D01*
X602043Y489371D01*
X602789Y488455D01*
X602796Y488454D01*
X602796Y488448D01*
X603706Y487695D01*
X603713Y487695D01*
X603714Y487690D01*
X604753Y487129D01*
X604760Y487130D01*
X604762Y487125D01*
X605891Y486778D01*
X605897Y486780D01*
X605900Y486776D01*
X607075Y486655D01*
X607082Y486659D01*
G37*
G36*
X520682Y486659D02*
X520682Y486659D01*
X520686Y486655D01*
X522026Y486812D01*
X522032Y486817D01*
X522037Y486814D01*
X523308Y487265D01*
X523313Y487272D01*
X523318Y487270D01*
X524457Y487992D01*
X524460Y488000D01*
X524466Y487999D01*
X525416Y488957D01*
X525417Y488965D01*
X525423Y488966D01*
X526136Y490111D01*
X526135Y490120D01*
X526141Y490121D01*
X526581Y491397D01*
X526579Y491404D01*
X526583Y491407D01*
X526729Y492749D01*
X526727Y492752D01*
X526729Y492754D01*
X526729Y498754D01*
X526727Y498758D01*
X526729Y498760D01*
X526574Y500089D01*
X526568Y500095D01*
X526571Y500099D01*
X526124Y501360D01*
X526117Y501365D01*
X526119Y501370D01*
X525402Y502500D01*
X525395Y502503D01*
X525396Y502509D01*
X524446Y503451D01*
X524437Y503452D01*
X524437Y503458D01*
X523301Y504165D01*
X523293Y504164D01*
X523291Y504170D01*
X522026Y504606D01*
X522018Y504604D01*
X522016Y504609D01*
X520685Y504753D01*
X520679Y504749D01*
X520675Y504753D01*
X519509Y504643D01*
X519504Y504638D01*
X519500Y504641D01*
X518377Y504306D01*
X518373Y504300D01*
X518369Y504302D01*
X517333Y503754D01*
X517330Y503748D01*
X517325Y503749D01*
X516417Y503010D01*
X516415Y503003D01*
X516410Y503003D01*
X515663Y502101D01*
X515663Y502094D01*
X515658Y502093D01*
X515101Y501062D01*
X515102Y501055D01*
X515097Y501053D01*
X514753Y499934D01*
X514755Y499927D01*
X514751Y499924D01*
X514631Y498759D01*
X514633Y498756D01*
X514631Y498754D01*
X514631Y492754D01*
X514633Y492751D01*
X514631Y492749D01*
X514742Y491573D01*
X514747Y491568D01*
X514744Y491564D01*
X515082Y490432D01*
X515088Y490428D01*
X515086Y490423D01*
X515638Y489379D01*
X515645Y489376D01*
X515643Y489371D01*
X516389Y488455D01*
X516396Y488454D01*
X516396Y488448D01*
X517306Y487695D01*
X517313Y487695D01*
X517314Y487690D01*
X518353Y487129D01*
X518360Y487130D01*
X518362Y487125D01*
X519491Y486778D01*
X519497Y486780D01*
X519500Y486776D01*
X520675Y486655D01*
X520682Y486659D01*
G37*
G36*
X83802Y486659D02*
X83802Y486659D01*
X83806Y486655D01*
X85146Y486812D01*
X85152Y486817D01*
X85157Y486814D01*
X86428Y487265D01*
X86433Y487272D01*
X86438Y487270D01*
X87577Y487992D01*
X87580Y488000D01*
X87586Y487999D01*
X88536Y488957D01*
X88537Y488965D01*
X88543Y488966D01*
X89256Y490111D01*
X89255Y490120D01*
X89261Y490121D01*
X89701Y491397D01*
X89699Y491404D01*
X89703Y491407D01*
X89849Y492749D01*
X89847Y492752D01*
X89849Y492754D01*
X89849Y498754D01*
X89847Y498758D01*
X89849Y498760D01*
X89694Y500089D01*
X89688Y500095D01*
X89691Y500099D01*
X89244Y501360D01*
X89237Y501365D01*
X89239Y501370D01*
X88522Y502500D01*
X88515Y502503D01*
X88516Y502509D01*
X87566Y503451D01*
X87557Y503452D01*
X87557Y503458D01*
X86421Y504165D01*
X86413Y504164D01*
X86411Y504170D01*
X85146Y504606D01*
X85138Y504604D01*
X85136Y504609D01*
X83805Y504753D01*
X83799Y504749D01*
X83795Y504753D01*
X82629Y504643D01*
X82624Y504638D01*
X82620Y504641D01*
X81497Y504306D01*
X81493Y504300D01*
X81489Y504302D01*
X80453Y503754D01*
X80450Y503748D01*
X80445Y503749D01*
X79537Y503010D01*
X79535Y503003D01*
X79530Y503003D01*
X78783Y502101D01*
X78783Y502094D01*
X78778Y502093D01*
X78221Y501062D01*
X78222Y501055D01*
X78217Y501053D01*
X77873Y499934D01*
X77875Y499927D01*
X77871Y499924D01*
X77751Y498759D01*
X77753Y498756D01*
X77751Y498754D01*
X77751Y492754D01*
X77753Y492751D01*
X77751Y492749D01*
X77862Y491573D01*
X77867Y491568D01*
X77864Y491564D01*
X78202Y490432D01*
X78208Y490428D01*
X78206Y490423D01*
X78758Y489379D01*
X78765Y489376D01*
X78763Y489371D01*
X79509Y488455D01*
X79516Y488454D01*
X79516Y488448D01*
X80426Y487695D01*
X80433Y487695D01*
X80434Y487690D01*
X81473Y487129D01*
X81480Y487130D01*
X81482Y487125D01*
X82611Y486778D01*
X82617Y486780D01*
X82620Y486776D01*
X83795Y486655D01*
X83802Y486659D01*
G37*
G36*
X170202Y486659D02*
X170202Y486659D01*
X170206Y486655D01*
X171546Y486812D01*
X171552Y486817D01*
X171557Y486814D01*
X172828Y487265D01*
X172833Y487272D01*
X172838Y487270D01*
X173977Y487992D01*
X173980Y488000D01*
X173986Y487999D01*
X174936Y488957D01*
X174937Y488965D01*
X174943Y488966D01*
X175656Y490111D01*
X175655Y490120D01*
X175661Y490121D01*
X176101Y491397D01*
X176099Y491404D01*
X176103Y491407D01*
X176249Y492749D01*
X176247Y492752D01*
X176249Y492754D01*
X176249Y498754D01*
X176247Y498758D01*
X176249Y498760D01*
X176094Y500089D01*
X176088Y500095D01*
X176091Y500099D01*
X175644Y501360D01*
X175637Y501365D01*
X175639Y501370D01*
X174922Y502500D01*
X174915Y502503D01*
X174916Y502509D01*
X173966Y503451D01*
X173957Y503452D01*
X173957Y503458D01*
X172821Y504165D01*
X172813Y504164D01*
X172811Y504170D01*
X171546Y504606D01*
X171538Y504604D01*
X171536Y504609D01*
X170205Y504753D01*
X170199Y504749D01*
X170195Y504753D01*
X169029Y504643D01*
X169024Y504638D01*
X169020Y504641D01*
X167897Y504306D01*
X167893Y504300D01*
X167889Y504302D01*
X166853Y503754D01*
X166850Y503748D01*
X166845Y503749D01*
X165937Y503010D01*
X165935Y503003D01*
X165930Y503003D01*
X165183Y502101D01*
X165183Y502094D01*
X165178Y502093D01*
X164621Y501062D01*
X164622Y501055D01*
X164617Y501053D01*
X164273Y499934D01*
X164275Y499927D01*
X164271Y499924D01*
X164151Y498759D01*
X164153Y498756D01*
X164151Y498754D01*
X164151Y492754D01*
X164153Y492751D01*
X164151Y492749D01*
X164262Y491573D01*
X164267Y491568D01*
X164264Y491564D01*
X164602Y490432D01*
X164608Y490428D01*
X164606Y490423D01*
X165158Y489379D01*
X165165Y489376D01*
X165163Y489371D01*
X165909Y488455D01*
X165916Y488454D01*
X165916Y488448D01*
X166826Y487695D01*
X166833Y487695D01*
X166834Y487690D01*
X167873Y487129D01*
X167880Y487130D01*
X167882Y487125D01*
X169011Y486778D01*
X169017Y486780D01*
X169020Y486776D01*
X170195Y486655D01*
X170202Y486659D01*
G37*
D10*
X14050Y447100D03*
X14050Y391100D03*
D11*
X50800Y434100D03*
X50800Y424100D03*
X50800Y414100D03*
X50800Y404100D03*
D12*
X88977Y320294D03*
X105977Y320294D03*
X87707Y340010D03*
X104707Y340010D03*
D13*
X154398Y119634D03*
X181898Y119634D03*
D14*
X168148Y134884D03*
X168148Y104384D03*
D15*
X419100Y368300D03*
X419100Y342900D03*
X419100Y317500D03*
X419100Y292100D03*
X419100Y266700D03*
X419100Y241300D03*
X419100Y215900D03*
X419100Y190500D03*
X419100Y165100D03*
X419100Y139700D03*
X419100Y114300D03*
D16*
X279908Y392500D03*
X279908Y369500D03*
D17*
X301244Y386960D03*
X301244Y369960D03*
D18*
X368300Y469900D03*
X50800Y50800D03*
D19*
X406400Y482600D03*
X25400Y482600D03*
D20*
X246580Y28890D02*
X246580Y21910D01*
X246580Y28890D02*
X253560Y28890D01*
X253560Y21910D01*
X246580Y21910D01*
X246580Y26710D02*
X253560Y26710D01*
X229040Y28890D02*
X229040Y21910D01*
X229040Y28890D02*
X236020Y28890D01*
X236020Y21910D01*
X229040Y21910D01*
X229040Y26710D02*
X236020Y26710D01*
D21*
X235500Y11430D03*
X247100Y11430D03*
D22*
X272330Y427070D03*
D23*
X119500Y448154D03*
X124500Y448154D03*
D24*
X94750Y448154D03*
X102500Y448154D03*
D23*
X109500Y448154D03*
X114500Y448154D03*
X134500Y448154D03*
X129500Y448154D03*
D24*
X159250Y448154D03*
X151500Y448154D03*
D23*
X144500Y448154D03*
X139500Y448154D03*
D25*
X155900Y459204D03*
X98100Y459204D03*
D21*
X205020Y138430D03*
X216620Y138430D03*
D26*
X245720Y395271D03*
X236220Y395271D03*
X226720Y395271D03*
X226720Y369269D03*
X245720Y369269D03*
D27*
X63500Y483320D03*
X63500Y471720D03*
X190500Y483320D03*
X190500Y471720D03*
D12*
X227720Y410210D03*
X244720Y410210D03*
D17*
X261620Y372500D03*
X261620Y389500D03*
D28*
X129460Y423658D03*
D29*
X124460Y423908D03*
X119460Y423908D03*
X119460Y415308D03*
X124460Y415308D03*
X129460Y415308D03*
D17*
X139700Y389500D03*
X139700Y372500D03*
X124460Y389500D03*
X124460Y372500D03*
D21*
X278680Y11430D03*
X290280Y11430D03*
X353610Y11430D03*
X365210Y11430D03*
D20*
X289760Y21910D02*
X289760Y28890D01*
X296740Y28890D01*
X296740Y21910D01*
X289760Y21910D01*
X289760Y26710D02*
X296740Y26710D01*
X272220Y28890D02*
X272220Y21910D01*
X272220Y28890D02*
X279200Y28890D01*
X279200Y21910D01*
X272220Y21910D01*
X272220Y26710D02*
X279200Y26710D01*
X364690Y28890D02*
X364690Y21910D01*
X364690Y28890D02*
X371670Y28890D01*
X371670Y21910D01*
X364690Y21910D01*
X364690Y26710D02*
X371670Y26710D01*
X347150Y28890D02*
X347150Y21910D01*
X347150Y28890D02*
X354130Y28890D01*
X354130Y21910D01*
X347150Y21910D01*
X347150Y26710D02*
X354130Y26710D01*
D10*
X417750Y391100D03*
X417750Y447100D03*
D11*
X381000Y404100D03*
X381000Y414100D03*
X381000Y424100D03*
X381000Y434100D03*
D12*
X204860Y156210D03*
X221860Y156210D03*
D19*
X25400Y25146D03*
X406400Y25146D03*
D15*
X342900Y495300D03*
X317500Y495300D03*
X292100Y495300D03*
X266700Y495300D03*
X241300Y495300D03*
X215900Y495300D03*
X12700Y165100D03*
X12700Y190500D03*
X12700Y215900D03*
X12700Y241300D03*
X12700Y266700D03*
X12700Y292100D03*
X12700Y317500D03*
X12700Y342900D03*
X12700Y368300D03*
D30*
X157480Y177800D03*
X168480Y177800D03*
X179480Y177800D03*
X190480Y177800D03*
X201480Y177800D03*
X212480Y177800D03*
X223480Y177800D03*
X234480Y177800D03*
X245480Y177800D03*
X256480Y177800D03*
X267480Y177800D03*
X278480Y177800D03*
X289480Y177800D03*
X300480Y177800D03*
X157480Y327300D03*
X168480Y327300D03*
X179480Y327300D03*
X190480Y327300D03*
X201480Y327300D03*
X212480Y327300D03*
X223480Y327300D03*
X234480Y327300D03*
X245480Y327300D03*
X256480Y327300D03*
X267480Y327300D03*
X278480Y327300D03*
X289480Y327300D03*
X300480Y327300D03*
D31*
X328480Y186300D03*
X328480Y197300D03*
X328480Y208300D03*
X328480Y219300D03*
X328480Y230300D03*
X328480Y241300D03*
X328480Y252300D03*
X328480Y263300D03*
X328480Y274300D03*
X328480Y285300D03*
X328480Y296300D03*
X328480Y307300D03*
X328480Y318300D03*
X129480Y318300D03*
X129480Y307300D03*
X129480Y296300D03*
X129480Y285300D03*
X129480Y274300D03*
X129480Y263300D03*
X129480Y252300D03*
X129480Y241300D03*
X129480Y230300D03*
X129480Y219300D03*
X129480Y208300D03*
X129480Y197300D03*
X129480Y186300D03*
D32*
X155480Y200300D03*
X176480Y200300D03*
X197480Y200300D03*
X218480Y200300D03*
X239480Y200300D03*
X260480Y200300D03*
X281480Y200300D03*
X302480Y200300D03*
X302480Y221300D03*
X281480Y221300D03*
X260480Y221300D03*
X239480Y221300D03*
X218480Y221300D03*
X197480Y221300D03*
X176480Y221300D03*
X155480Y221300D03*
X155480Y242300D03*
X176480Y242300D03*
X197480Y242300D03*
X218480Y242300D03*
X239480Y242300D03*
X260480Y242300D03*
X281480Y242300D03*
X302480Y242300D03*
X302480Y263300D03*
X281480Y263300D03*
X260480Y263300D03*
X239480Y263300D03*
X218480Y263300D03*
X197480Y263300D03*
X176480Y263300D03*
X155480Y263300D03*
X155480Y284300D03*
X176480Y284300D03*
X197480Y284300D03*
X218480Y284300D03*
X239480Y284300D03*
X260480Y284300D03*
X281480Y284300D03*
X302480Y284300D03*
X302480Y305300D03*
X281480Y305300D03*
X260480Y305300D03*
X239480Y305300D03*
X218480Y305300D03*
X197480Y305300D03*
X176480Y305300D03*
X155480Y305300D03*
D12*
X245500Y349250D03*
X262500Y349250D03*
D21*
X202904Y367284D03*
X191304Y367284D03*
D12*
X102167Y184150D03*
X85167Y184150D03*
D21*
X315510Y11430D03*
X327110Y11430D03*
D20*
X326590Y21910D02*
X326590Y28890D01*
X333570Y28890D01*
X333570Y21910D01*
X326590Y21910D01*
X326590Y26710D02*
X333570Y26710D01*
X309050Y28890D02*
X309050Y21910D01*
X309050Y28890D02*
X316030Y28890D01*
X316030Y21910D01*
X309050Y21910D01*
X309050Y26710D02*
X316030Y26710D01*
D33*
X171260Y156210D03*
X179261Y156210D03*
D12*
X368316Y54196D03*
X351316Y54196D03*
X368316Y117280D03*
X351316Y117280D03*
X368316Y132310D03*
X351316Y132310D03*
X368316Y195350D03*
X351316Y195350D03*
D21*
X365616Y180120D03*
X354016Y180120D03*
X361552Y68932D03*
X349952Y68932D03*
D34*
X351586Y83144D03*
X370586Y83144D03*
X361086Y104144D03*
D17*
X247854Y86322D03*
X247854Y69322D03*
X304750Y128308D03*
X304750Y145308D03*
D35*
X327300Y73620D03*
X327300Y86320D03*
X327300Y99020D03*
X327300Y111720D03*
X271300Y111720D03*
X271300Y99020D03*
X271300Y86320D03*
X271300Y73620D03*
D21*
X270400Y57020D03*
X282000Y57020D03*
D36*
X238230Y106780D03*
X243230Y106780D03*
X248230Y106780D03*
X248230Y113980D03*
X243230Y113980D03*
X238230Y113980D03*
D37*
X283110Y125720D03*
X283110Y130720D03*
X283110Y135720D03*
X275910Y135720D03*
X275910Y130720D03*
X275910Y125720D03*
D34*
X350316Y145410D03*
X369316Y145410D03*
X359816Y166410D03*
D27*
X262130Y127960D03*
X262130Y139560D03*
X223772Y113848D03*
X223772Y102248D03*
D12*
X189366Y347726D03*
X206366Y347726D03*
D38*
X94530Y299020D03*
D39*
X94530Y291020D03*
X94530Y283020D03*
D38*
X81330Y299020D03*
D39*
X81330Y291020D03*
X81330Y283020D03*
D40*
X81430Y275020D03*
D38*
X94530Y275020D03*
X94530Y254570D03*
D39*
X94530Y246570D03*
X94530Y238570D03*
D38*
X81330Y254570D03*
D39*
X81330Y246570D03*
X81330Y238570D03*
D40*
X81430Y230570D03*
D38*
X94530Y230570D03*
X361230Y306640D03*
D39*
X361230Y298640D03*
X361230Y290640D03*
D38*
X348030Y306640D03*
D39*
X348030Y298640D03*
X348030Y290640D03*
D40*
X348130Y282640D03*
D38*
X361230Y282640D03*
X361230Y234250D03*
D39*
X361230Y226250D03*
X361230Y218250D03*
D38*
X348030Y234250D03*
D39*
X348030Y226250D03*
X348030Y218250D03*
D40*
X348130Y210250D03*
D38*
X361230Y210250D03*
D10*
X450930Y447100D03*
X450930Y391100D03*
D11*
X487680Y434100D03*
X487680Y424100D03*
X487680Y414100D03*
X487680Y404100D03*
D12*
X525857Y320294D03*
X542857Y320294D03*
X524587Y340010D03*
X541587Y340010D03*
D13*
X591278Y119634D03*
X618778Y119634D03*
D14*
X605028Y134884D03*
X605028Y104384D03*
D15*
X855980Y368300D03*
X855980Y342900D03*
X855980Y317500D03*
X855980Y292100D03*
X855980Y266700D03*
X855980Y241300D03*
X855980Y215900D03*
X855980Y190500D03*
X855980Y165100D03*
X855980Y139700D03*
X855980Y114300D03*
D16*
X716788Y392500D03*
X716788Y369500D03*
D17*
X738124Y386960D03*
X738124Y369960D03*
D18*
X805180Y469900D03*
X487680Y50800D03*
D19*
X843280Y482600D03*
X462280Y482600D03*
D20*
X683460Y28890D02*
X683460Y21910D01*
X683460Y28890D02*
X690440Y28890D01*
X690440Y21910D01*
X683460Y21910D01*
X683460Y26710D02*
X690440Y26710D01*
X665920Y28890D02*
X665920Y21910D01*
X665920Y28890D02*
X672900Y28890D01*
X672900Y21910D01*
X665920Y21910D01*
X665920Y26710D02*
X672900Y26710D01*
D21*
X672380Y11430D03*
X683980Y11430D03*
D22*
X709210Y427070D03*
D23*
X556380Y448154D03*
X561380Y448154D03*
D24*
X531630Y448154D03*
X539380Y448154D03*
D23*
X546380Y448154D03*
X551380Y448154D03*
X571380Y448154D03*
X566380Y448154D03*
D24*
X596130Y448154D03*
X588380Y448154D03*
D23*
X581380Y448154D03*
X576380Y448154D03*
D25*
X592780Y459204D03*
X534980Y459204D03*
D21*
X641900Y138430D03*
X653500Y138430D03*
D26*
X682600Y395271D03*
X673100Y395271D03*
X663600Y395271D03*
X663600Y369269D03*
X682600Y369269D03*
D27*
X500380Y483320D03*
X500380Y471720D03*
X627380Y483320D03*
X627380Y471720D03*
D12*
X664600Y410210D03*
X681600Y410210D03*
D17*
X698500Y372500D03*
X698500Y389500D03*
D28*
X566340Y423658D03*
D29*
X561340Y423908D03*
X556340Y423908D03*
X556340Y415308D03*
X561340Y415308D03*
X566340Y415308D03*
D17*
X576580Y389500D03*
X576580Y372500D03*
X561340Y389500D03*
X561340Y372500D03*
D21*
X715560Y11430D03*
X727160Y11430D03*
X790490Y11430D03*
X802090Y11430D03*
D20*
X726640Y21910D02*
X726640Y28890D01*
X733620Y28890D01*
X733620Y21910D01*
X726640Y21910D01*
X726640Y26710D02*
X733620Y26710D01*
X709100Y28890D02*
X709100Y21910D01*
X709100Y28890D02*
X716080Y28890D01*
X716080Y21910D01*
X709100Y21910D01*
X709100Y26710D02*
X716080Y26710D01*
X801570Y28890D02*
X801570Y21910D01*
X801570Y28890D02*
X808550Y28890D01*
X808550Y21910D01*
X801570Y21910D01*
X801570Y26710D02*
X808550Y26710D01*
X784030Y28890D02*
X784030Y21910D01*
X784030Y28890D02*
X791010Y28890D01*
X791010Y21910D01*
X784030Y21910D01*
X784030Y26710D02*
X791010Y26710D01*
D10*
X854630Y391100D03*
X854630Y447100D03*
D11*
X817880Y404100D03*
X817880Y414100D03*
X817880Y424100D03*
X817880Y434100D03*
D12*
X641740Y156210D03*
X658740Y156210D03*
D19*
X462280Y25146D03*
X843280Y25146D03*
D15*
X779780Y495300D03*
X754380Y495300D03*
X728980Y495300D03*
X703580Y495300D03*
X678180Y495300D03*
X652780Y495300D03*
X449580Y165100D03*
X449580Y190500D03*
X449580Y215900D03*
X449580Y241300D03*
X449580Y266700D03*
X449580Y292100D03*
X449580Y317500D03*
X449580Y342900D03*
X449580Y368300D03*
D30*
X594360Y177800D03*
X605360Y177800D03*
X616360Y177800D03*
X627360Y177800D03*
X638360Y177800D03*
X649360Y177800D03*
X660360Y177800D03*
X671360Y177800D03*
X682360Y177800D03*
X693360Y177800D03*
X704360Y177800D03*
X715360Y177800D03*
X726360Y177800D03*
X737360Y177800D03*
X594360Y327300D03*
X605360Y327300D03*
X616360Y327300D03*
X627360Y327300D03*
X638360Y327300D03*
X649360Y327300D03*
X660360Y327300D03*
X671360Y327300D03*
X682360Y327300D03*
X693360Y327300D03*
X704360Y327300D03*
X715360Y327300D03*
X726360Y327300D03*
X737360Y327300D03*
D31*
X765360Y186300D03*
X765360Y197300D03*
X765360Y208300D03*
X765360Y219300D03*
X765360Y230300D03*
X765360Y241300D03*
X765360Y252300D03*
X765360Y263300D03*
X765360Y274300D03*
X765360Y285300D03*
X765360Y296300D03*
X765360Y307300D03*
X765360Y318300D03*
X566360Y318300D03*
X566360Y307300D03*
X566360Y296300D03*
X566360Y285300D03*
X566360Y274300D03*
X566360Y263300D03*
X566360Y252300D03*
X566360Y241300D03*
X566360Y230300D03*
X566360Y219300D03*
X566360Y208300D03*
X566360Y197300D03*
X566360Y186300D03*
D32*
X592360Y200300D03*
X613360Y200300D03*
X634360Y200300D03*
X655360Y200300D03*
X676360Y200300D03*
X697360Y200300D03*
X718360Y200300D03*
X739360Y200300D03*
X739360Y221300D03*
X718360Y221300D03*
X697360Y221300D03*
X676360Y221300D03*
X655360Y221300D03*
X634360Y221300D03*
X613360Y221300D03*
X592360Y221300D03*
X592360Y242300D03*
X613360Y242300D03*
X634360Y242300D03*
X655360Y242300D03*
X676360Y242300D03*
X697360Y242300D03*
X718360Y242300D03*
X739360Y242300D03*
X739360Y263300D03*
X718360Y263300D03*
X697360Y263300D03*
X676360Y263300D03*
X655360Y263300D03*
X634360Y263300D03*
X613360Y263300D03*
X592360Y263300D03*
X592360Y284300D03*
X613360Y284300D03*
X634360Y284300D03*
X655360Y284300D03*
X676360Y284300D03*
X697360Y284300D03*
X718360Y284300D03*
X739360Y284300D03*
X739360Y305300D03*
X718360Y305300D03*
X697360Y305300D03*
X676360Y305300D03*
X655360Y305300D03*
X634360Y305300D03*
X613360Y305300D03*
X592360Y305300D03*
D12*
X682380Y349250D03*
X699380Y349250D03*
D21*
X639784Y367284D03*
X628184Y367284D03*
D12*
X539047Y184150D03*
X522047Y184150D03*
D21*
X752390Y11430D03*
X763990Y11430D03*
D20*
X763470Y21910D02*
X763470Y28890D01*
X770450Y28890D01*
X770450Y21910D01*
X763470Y21910D01*
X763470Y26710D02*
X770450Y26710D01*
X745930Y28890D02*
X745930Y21910D01*
X745930Y28890D02*
X752910Y28890D01*
X752910Y21910D01*
X745930Y21910D01*
X745930Y26710D02*
X752910Y26710D01*
D33*
X608140Y156210D03*
X616141Y156210D03*
D12*
X805196Y54196D03*
X788196Y54196D03*
X805196Y117280D03*
X788196Y117280D03*
X805196Y132310D03*
X788196Y132310D03*
X805196Y195350D03*
X788196Y195350D03*
D21*
X802496Y180120D03*
X790896Y180120D03*
X798432Y68932D03*
X786832Y68932D03*
D34*
X788466Y83144D03*
X807466Y83144D03*
X797966Y104144D03*
D17*
X684734Y86322D03*
X684734Y69322D03*
X741630Y128308D03*
X741630Y145308D03*
D35*
X764180Y73620D03*
X764180Y86320D03*
X764180Y99020D03*
X764180Y111720D03*
X708180Y111720D03*
X708180Y99020D03*
X708180Y86320D03*
X708180Y73620D03*
D21*
X707280Y57020D03*
X718880Y57020D03*
D36*
X675110Y106780D03*
X680110Y106780D03*
X685110Y106780D03*
X685110Y113980D03*
X680110Y113980D03*
X675110Y113980D03*
D37*
X719990Y125720D03*
X719990Y130720D03*
X719990Y135720D03*
X712790Y135720D03*
X712790Y130720D03*
X712790Y125720D03*
D34*
X787196Y145410D03*
X806196Y145410D03*
X796696Y166410D03*
D27*
X699010Y127960D03*
X699010Y139560D03*
X660652Y113848D03*
X660652Y102248D03*
D12*
X626246Y347726D03*
X643246Y347726D03*
D38*
X531410Y299020D03*
D39*
X531410Y291020D03*
X531410Y283020D03*
D38*
X518210Y299020D03*
D39*
X518210Y291020D03*
X518210Y283020D03*
D40*
X518310Y275020D03*
D38*
X531410Y275020D03*
X531410Y254570D03*
D39*
X531410Y246570D03*
X531410Y238570D03*
D38*
X518210Y254570D03*
D39*
X518210Y246570D03*
X518210Y238570D03*
D40*
X518310Y230570D03*
D38*
X531410Y230570D03*
X798110Y306640D03*
D39*
X798110Y298640D03*
X798110Y290640D03*
D38*
X784910Y306640D03*
D39*
X784910Y298640D03*
X784910Y290640D03*
D40*
X785010Y282640D03*
D38*
X798110Y282640D03*
X798110Y234250D03*
D39*
X798110Y226250D03*
X798110Y218250D03*
D38*
X784910Y234250D03*
D39*
X784910Y226250D03*
X784910Y218250D03*
D40*
X785010Y210250D03*
D38*
X798110Y210250D03*
D10*
X14050Y985580D03*
X14050Y929580D03*
D11*
X50800Y972580D03*
X50800Y962580D03*
X50800Y952580D03*
X50800Y942580D03*
D12*
X88977Y858774D03*
X105977Y858774D03*
X87707Y878490D03*
X104707Y878490D03*
D13*
X154398Y658114D03*
X181898Y658114D03*
D14*
X168148Y673364D03*
X168148Y642864D03*
D15*
X419100Y906780D03*
X419100Y881380D03*
X419100Y855980D03*
X419100Y830580D03*
X419100Y805180D03*
X419100Y779780D03*
X419100Y754380D03*
X419100Y728980D03*
X419100Y703580D03*
X419100Y678180D03*
X419100Y652780D03*
D16*
X279908Y930980D03*
X279908Y907980D03*
D17*
X301244Y925440D03*
X301244Y908440D03*
D18*
X368300Y1008380D03*
X50800Y589280D03*
D19*
X406400Y1021080D03*
X25400Y1021080D03*
D20*
X246580Y567370D02*
X246580Y560390D01*
X246580Y567370D02*
X253560Y567370D01*
X253560Y560390D01*
X246580Y560390D01*
X246580Y565190D02*
X253560Y565190D01*
X229040Y567370D02*
X229040Y560390D01*
X229040Y567370D02*
X236020Y567370D01*
X236020Y560390D01*
X229040Y560390D01*
X229040Y565190D02*
X236020Y565190D01*
D21*
X235500Y549910D03*
X247100Y549910D03*
D22*
X272330Y965550D03*
D23*
X119500Y986634D03*
X124500Y986634D03*
D24*
X94750Y986634D03*
X102500Y986634D03*
D23*
X109500Y986634D03*
X114500Y986634D03*
X134500Y986634D03*
X129500Y986634D03*
D24*
X159250Y986634D03*
X151500Y986634D03*
D23*
X144500Y986634D03*
X139500Y986634D03*
D25*
X155900Y997684D03*
X98100Y997684D03*
D21*
X205020Y676910D03*
X216620Y676910D03*
D26*
X245720Y933751D03*
X236220Y933751D03*
X226720Y933751D03*
X226720Y907749D03*
X245720Y907749D03*
D27*
X63500Y1021800D03*
X63500Y1010200D03*
X190500Y1021800D03*
X190500Y1010200D03*
D12*
X227720Y948690D03*
X244720Y948690D03*
D17*
X261620Y910980D03*
X261620Y927980D03*
D28*
X129460Y962138D03*
D29*
X124460Y962388D03*
X119460Y962388D03*
X119460Y953788D03*
X124460Y953788D03*
X129460Y953788D03*
D17*
X139700Y927980D03*
X139700Y910980D03*
X124460Y927980D03*
X124460Y910980D03*
D21*
X278680Y549910D03*
X290280Y549910D03*
X353610Y549910D03*
X365210Y549910D03*
D20*
X289760Y560390D02*
X289760Y567370D01*
X296740Y567370D01*
X296740Y560390D01*
X289760Y560390D01*
X289760Y565190D02*
X296740Y565190D01*
X272220Y567370D02*
X272220Y560390D01*
X272220Y567370D02*
X279200Y567370D01*
X279200Y560390D01*
X272220Y560390D01*
X272220Y565190D02*
X279200Y565190D01*
X364690Y567370D02*
X364690Y560390D01*
X364690Y567370D02*
X371670Y567370D01*
X371670Y560390D01*
X364690Y560390D01*
X364690Y565190D02*
X371670Y565190D01*
X347150Y567370D02*
X347150Y560390D01*
X347150Y567370D02*
X354130Y567370D01*
X354130Y560390D01*
X347150Y560390D01*
X347150Y565190D02*
X354130Y565190D01*
D10*
X417750Y929580D03*
X417750Y985580D03*
D11*
X381000Y942580D03*
X381000Y952580D03*
X381000Y962580D03*
X381000Y972580D03*
D12*
X204860Y694690D03*
X221860Y694690D03*
D19*
X25400Y563626D03*
X406400Y563626D03*
D15*
X342900Y1033780D03*
X317500Y1033780D03*
X292100Y1033780D03*
X266700Y1033780D03*
X241300Y1033780D03*
X215900Y1033780D03*
X12700Y703580D03*
X12700Y728980D03*
X12700Y754380D03*
X12700Y779780D03*
X12700Y805180D03*
X12700Y830580D03*
X12700Y855980D03*
X12700Y881380D03*
X12700Y906780D03*
D30*
X157480Y716280D03*
X168480Y716280D03*
X179480Y716280D03*
X190480Y716280D03*
X201480Y716280D03*
X212480Y716280D03*
X223480Y716280D03*
X234480Y716280D03*
X245480Y716280D03*
X256480Y716280D03*
X267480Y716280D03*
X278480Y716280D03*
X289480Y716280D03*
X300480Y716280D03*
X157480Y865780D03*
X168480Y865780D03*
X179480Y865780D03*
X190480Y865780D03*
X201480Y865780D03*
X212480Y865780D03*
X223480Y865780D03*
X234480Y865780D03*
X245480Y865780D03*
X256480Y865780D03*
X267480Y865780D03*
X278480Y865780D03*
X289480Y865780D03*
X300480Y865780D03*
D31*
X328480Y724780D03*
X328480Y735780D03*
X328480Y746780D03*
X328480Y757780D03*
X328480Y768780D03*
X328480Y779780D03*
X328480Y790780D03*
X328480Y801780D03*
X328480Y812780D03*
X328480Y823780D03*
X328480Y834780D03*
X328480Y845780D03*
X328480Y856780D03*
X129480Y856780D03*
X129480Y845780D03*
X129480Y834780D03*
X129480Y823780D03*
X129480Y812780D03*
X129480Y801780D03*
X129480Y790780D03*
X129480Y779780D03*
X129480Y768780D03*
X129480Y757780D03*
X129480Y746780D03*
X129480Y735780D03*
X129480Y724780D03*
D32*
X155480Y738780D03*
X176480Y738780D03*
X197480Y738780D03*
X218480Y738780D03*
X239480Y738780D03*
X260480Y738780D03*
X281480Y738780D03*
X302480Y738780D03*
X302480Y759780D03*
X281480Y759780D03*
X260480Y759780D03*
X239480Y759780D03*
X218480Y759780D03*
X197480Y759780D03*
X176480Y759780D03*
X155480Y759780D03*
X155480Y780780D03*
X176480Y780780D03*
X197480Y780780D03*
X218480Y780780D03*
X239480Y780780D03*
X260480Y780780D03*
X281480Y780780D03*
X302480Y780780D03*
X302480Y801780D03*
X281480Y801780D03*
X260480Y801780D03*
X239480Y801780D03*
X218480Y801780D03*
X197480Y801780D03*
X176480Y801780D03*
X155480Y801780D03*
X155480Y822780D03*
X176480Y822780D03*
X197480Y822780D03*
X218480Y822780D03*
X239480Y822780D03*
X260480Y822780D03*
X281480Y822780D03*
X302480Y822780D03*
X302480Y843780D03*
X281480Y843780D03*
X260480Y843780D03*
X239480Y843780D03*
X218480Y843780D03*
X197480Y843780D03*
X176480Y843780D03*
X155480Y843780D03*
D12*
X245500Y887730D03*
X262500Y887730D03*
D21*
X202904Y905764D03*
X191304Y905764D03*
D12*
X102167Y722630D03*
X85167Y722630D03*
D21*
X315510Y549910D03*
X327110Y549910D03*
D20*
X326590Y560390D02*
X326590Y567370D01*
X333570Y567370D01*
X333570Y560390D01*
X326590Y560390D01*
X326590Y565190D02*
X333570Y565190D01*
X309050Y567370D02*
X309050Y560390D01*
X309050Y567370D02*
X316030Y567370D01*
X316030Y560390D01*
X309050Y560390D01*
X309050Y565190D02*
X316030Y565190D01*
D33*
X171260Y694690D03*
X179261Y694690D03*
D12*
X368316Y592676D03*
X351316Y592676D03*
X368316Y655760D03*
X351316Y655760D03*
X368316Y670790D03*
X351316Y670790D03*
X368316Y733830D03*
X351316Y733830D03*
D21*
X365616Y718600D03*
X354016Y718600D03*
X361552Y607412D03*
X349952Y607412D03*
D34*
X351586Y621624D03*
X370586Y621624D03*
X361086Y642624D03*
D17*
X247854Y624802D03*
X247854Y607802D03*
X304750Y666788D03*
X304750Y683788D03*
D35*
X327300Y612100D03*
X327300Y624800D03*
X327300Y637500D03*
X327300Y650200D03*
X271300Y650200D03*
X271300Y637500D03*
X271300Y624800D03*
X271300Y612100D03*
D21*
X270400Y595500D03*
X282000Y595500D03*
D36*
X238230Y645260D03*
X243230Y645260D03*
X248230Y645260D03*
X248230Y652460D03*
X243230Y652460D03*
X238230Y652460D03*
D37*
X283110Y664200D03*
X283110Y669200D03*
X283110Y674200D03*
X275910Y674200D03*
X275910Y669200D03*
X275910Y664200D03*
D34*
X350316Y683890D03*
X369316Y683890D03*
X359816Y704890D03*
D27*
X262130Y666440D03*
X262130Y678040D03*
X223772Y652328D03*
X223772Y640728D03*
D12*
X189366Y886206D03*
X206366Y886206D03*
D38*
X94530Y837500D03*
D39*
X94530Y829500D03*
X94530Y821500D03*
D38*
X81330Y837500D03*
D39*
X81330Y829500D03*
X81330Y821500D03*
D40*
X81430Y813500D03*
D38*
X94530Y813500D03*
X94530Y793050D03*
D39*
X94530Y785050D03*
X94530Y777050D03*
D38*
X81330Y793050D03*
D39*
X81330Y785050D03*
X81330Y777050D03*
D40*
X81430Y769050D03*
D38*
X94530Y769050D03*
X361230Y845120D03*
D39*
X361230Y837120D03*
X361230Y829120D03*
D38*
X348030Y845120D03*
D39*
X348030Y837120D03*
X348030Y829120D03*
D40*
X348130Y821120D03*
D38*
X361230Y821120D03*
X361230Y772730D03*
D39*
X361230Y764730D03*
X361230Y756730D03*
D38*
X348030Y772730D03*
D39*
X348030Y764730D03*
X348030Y756730D03*
D40*
X348130Y748730D03*
D38*
X361230Y748730D03*
D10*
X450930Y985580D03*
X450930Y929580D03*
D11*
X487680Y972580D03*
X487680Y962580D03*
X487680Y952580D03*
X487680Y942580D03*
D12*
X525857Y858774D03*
X542857Y858774D03*
X524587Y878490D03*
X541587Y878490D03*
D13*
X591278Y658114D03*
X618778Y658114D03*
D14*
X605028Y673364D03*
X605028Y642864D03*
D15*
X855980Y906780D03*
X855980Y881380D03*
X855980Y855980D03*
X855980Y830580D03*
X855980Y805180D03*
X855980Y779780D03*
X855980Y754380D03*
X855980Y728980D03*
X855980Y703580D03*
X855980Y678180D03*
X855980Y652780D03*
D16*
X716788Y930980D03*
X716788Y907980D03*
D17*
X738124Y925440D03*
X738124Y908440D03*
D18*
X805180Y1008380D03*
X487680Y589280D03*
D19*
X843280Y1021080D03*
X462280Y1021080D03*
D20*
X683460Y567370D02*
X683460Y560390D01*
X683460Y567370D02*
X690440Y567370D01*
X690440Y560390D01*
X683460Y560390D01*
X683460Y565190D02*
X690440Y565190D01*
X665920Y567370D02*
X665920Y560390D01*
X665920Y567370D02*
X672900Y567370D01*
X672900Y560390D01*
X665920Y560390D01*
X665920Y565190D02*
X672900Y565190D01*
D21*
X672380Y549910D03*
X683980Y549910D03*
D22*
X709210Y965550D03*
D23*
X556380Y986634D03*
X561380Y986634D03*
D24*
X531630Y986634D03*
X539380Y986634D03*
D23*
X546380Y986634D03*
X551380Y986634D03*
X571380Y986634D03*
X566380Y986634D03*
D24*
X596130Y986634D03*
X588380Y986634D03*
D23*
X581380Y986634D03*
X576380Y986634D03*
D25*
X592780Y997684D03*
X534980Y997684D03*
D21*
X641900Y676910D03*
X653500Y676910D03*
D26*
X682600Y933751D03*
X673100Y933751D03*
X663600Y933751D03*
X663600Y907749D03*
X682600Y907749D03*
D27*
X500380Y1021800D03*
X500380Y1010200D03*
X627380Y1021800D03*
X627380Y1010200D03*
D12*
X664600Y948690D03*
X681600Y948690D03*
D17*
X698500Y910980D03*
X698500Y927980D03*
D28*
X566340Y962138D03*
D29*
X561340Y962388D03*
X556340Y962388D03*
X556340Y953788D03*
X561340Y953788D03*
X566340Y953788D03*
D17*
X576580Y927980D03*
X576580Y910980D03*
X561340Y927980D03*
X561340Y910980D03*
D21*
X715560Y549910D03*
X727160Y549910D03*
X790490Y549910D03*
X802090Y549910D03*
D20*
X726640Y560390D02*
X726640Y567370D01*
X733620Y567370D01*
X733620Y560390D01*
X726640Y560390D01*
X726640Y565190D02*
X733620Y565190D01*
X709100Y567370D02*
X709100Y560390D01*
X709100Y567370D02*
X716080Y567370D01*
X716080Y560390D01*
X709100Y560390D01*
X709100Y565190D02*
X716080Y565190D01*
X801570Y567370D02*
X801570Y560390D01*
X801570Y567370D02*
X808550Y567370D01*
X808550Y560390D01*
X801570Y560390D01*
X801570Y565190D02*
X808550Y565190D01*
X784030Y567370D02*
X784030Y560390D01*
X784030Y567370D02*
X791010Y567370D01*
X791010Y560390D01*
X784030Y560390D01*
X784030Y565190D02*
X791010Y565190D01*
D10*
X854630Y929580D03*
X854630Y985580D03*
D11*
X817880Y942580D03*
X817880Y952580D03*
X817880Y962580D03*
X817880Y972580D03*
D12*
X641740Y694690D03*
X658740Y694690D03*
D19*
X462280Y563626D03*
X843280Y563626D03*
D15*
X779780Y1033780D03*
X754380Y1033780D03*
X728980Y1033780D03*
X703580Y1033780D03*
X678180Y1033780D03*
X652780Y1033780D03*
X449580Y703580D03*
X449580Y728980D03*
X449580Y754380D03*
X449580Y779780D03*
X449580Y805180D03*
X449580Y830580D03*
X449580Y855980D03*
X449580Y881380D03*
X449580Y906780D03*
D30*
X594360Y716280D03*
X605360Y716280D03*
X616360Y716280D03*
X627360Y716280D03*
X638360Y716280D03*
X649360Y716280D03*
X660360Y716280D03*
X671360Y716280D03*
X682360Y716280D03*
X693360Y716280D03*
X704360Y716280D03*
X715360Y716280D03*
X726360Y716280D03*
X737360Y716280D03*
X594360Y865780D03*
X605360Y865780D03*
X616360Y865780D03*
X627360Y865780D03*
X638360Y865780D03*
X649360Y865780D03*
X660360Y865780D03*
X671360Y865780D03*
X682360Y865780D03*
X693360Y865780D03*
X704360Y865780D03*
X715360Y865780D03*
X726360Y865780D03*
X737360Y865780D03*
D31*
X765360Y724780D03*
X765360Y735780D03*
X765360Y746780D03*
X765360Y757780D03*
X765360Y768780D03*
X765360Y779780D03*
X765360Y790780D03*
X765360Y801780D03*
X765360Y812780D03*
X765360Y823780D03*
X765360Y834780D03*
X765360Y845780D03*
X765360Y856780D03*
X566360Y856780D03*
X566360Y845780D03*
X566360Y834780D03*
X566360Y823780D03*
X566360Y812780D03*
X566360Y801780D03*
X566360Y790780D03*
X566360Y779780D03*
X566360Y768780D03*
X566360Y757780D03*
X566360Y746780D03*
X566360Y735780D03*
X566360Y724780D03*
D32*
X592360Y738780D03*
X613360Y738780D03*
X634360Y738780D03*
X655360Y738780D03*
X676360Y738780D03*
X697360Y738780D03*
X718360Y738780D03*
X739360Y738780D03*
X739360Y759780D03*
X718360Y759780D03*
X697360Y759780D03*
X676360Y759780D03*
X655360Y759780D03*
X634360Y759780D03*
X613360Y759780D03*
X592360Y759780D03*
X592360Y780780D03*
X613360Y780780D03*
X634360Y780780D03*
X655360Y780780D03*
X676360Y780780D03*
X697360Y780780D03*
X718360Y780780D03*
X739360Y780780D03*
X739360Y801780D03*
X718360Y801780D03*
X697360Y801780D03*
X676360Y801780D03*
X655360Y801780D03*
X634360Y801780D03*
X613360Y801780D03*
X592360Y801780D03*
X592360Y822780D03*
X613360Y822780D03*
X634360Y822780D03*
X655360Y822780D03*
X676360Y822780D03*
X697360Y822780D03*
X718360Y822780D03*
X739360Y822780D03*
X739360Y843780D03*
X718360Y843780D03*
X697360Y843780D03*
X676360Y843780D03*
X655360Y843780D03*
X634360Y843780D03*
X613360Y843780D03*
X592360Y843780D03*
D12*
X682380Y887730D03*
X699380Y887730D03*
D21*
X639784Y905764D03*
X628184Y905764D03*
D12*
X539047Y722630D03*
X522047Y722630D03*
D21*
X752390Y549910D03*
X763990Y549910D03*
D20*
X763470Y560390D02*
X763470Y567370D01*
X770450Y567370D01*
X770450Y560390D01*
X763470Y560390D01*
X763470Y565190D02*
X770450Y565190D01*
X745930Y567370D02*
X745930Y560390D01*
X745930Y567370D02*
X752910Y567370D01*
X752910Y560390D01*
X745930Y560390D01*
X745930Y565190D02*
X752910Y565190D01*
D33*
X608140Y694690D03*
X616141Y694690D03*
D12*
X805196Y592676D03*
X788196Y592676D03*
X805196Y655760D03*
X788196Y655760D03*
X805196Y670790D03*
X788196Y670790D03*
X805196Y733830D03*
X788196Y733830D03*
D21*
X802496Y718600D03*
X790896Y718600D03*
X798432Y607412D03*
X786832Y607412D03*
D34*
X788466Y621624D03*
X807466Y621624D03*
X797966Y642624D03*
D17*
X684734Y624802D03*
X684734Y607802D03*
X741630Y666788D03*
X741630Y683788D03*
D35*
X764180Y612100D03*
X764180Y624800D03*
X764180Y637500D03*
X764180Y650200D03*
X708180Y650200D03*
X708180Y637500D03*
X708180Y624800D03*
X708180Y612100D03*
D21*
X707280Y595500D03*
X718880Y595500D03*
D36*
X675110Y645260D03*
X680110Y645260D03*
X685110Y645260D03*
X685110Y652460D03*
X680110Y652460D03*
X675110Y652460D03*
D37*
X719990Y664200D03*
X719990Y669200D03*
X719990Y674200D03*
X712790Y674200D03*
X712790Y669200D03*
X712790Y664200D03*
D34*
X787196Y683890D03*
X806196Y683890D03*
X796696Y704890D03*
D27*
X699010Y666440D03*
X699010Y678040D03*
X660652Y652328D03*
X660652Y640728D03*
D12*
X626246Y886206D03*
X643246Y886206D03*
D38*
X531410Y837500D03*
D39*
X531410Y829500D03*
X531410Y821500D03*
D38*
X518210Y837500D03*
D39*
X518210Y829500D03*
X518210Y821500D03*
D40*
X518310Y813500D03*
D38*
X531410Y813500D03*
X531410Y793050D03*
D39*
X531410Y785050D03*
X531410Y777050D03*
D38*
X518210Y793050D03*
D39*
X518210Y785050D03*
X518210Y777050D03*
D40*
X518310Y769050D03*
D38*
X531410Y769050D03*
X798110Y845120D03*
D39*
X798110Y837120D03*
X798110Y829120D03*
D38*
X784910Y845120D03*
D39*
X784910Y837120D03*
X784910Y829120D03*
D40*
X785010Y821120D03*
D38*
X798110Y821120D03*
X798110Y772730D03*
D39*
X798110Y764730D03*
X798110Y756730D03*
D38*
X784910Y772730D03*
D39*
X784910Y764730D03*
X784910Y756730D03*
D40*
X785010Y748730D03*
D38*
X798110Y748730D03*
D41*
X68580Y1092835D03*
X799465Y1092835D03*
D42*
X59525Y-46355D02*
X59528Y-46133D01*
X59536Y-45911D01*
X59550Y-45689D01*
X59569Y-45467D01*
X59593Y-45247D01*
X59623Y-45026D01*
X59658Y-44807D01*
X59699Y-44588D01*
X59745Y-44371D01*
X59796Y-44155D01*
X59853Y-43940D01*
X59915Y-43726D01*
X59982Y-43515D01*
X60054Y-43304D01*
X60132Y-43096D01*
X60214Y-42890D01*
X60302Y-42686D01*
X60394Y-42483D01*
X60492Y-42284D01*
X60594Y-42087D01*
X60701Y-41892D01*
X60813Y-41700D01*
X60930Y-41511D01*
X61051Y-41324D01*
X61177Y-41141D01*
X61307Y-40961D01*
X61442Y-40784D01*
X61580Y-40611D01*
X61723Y-40441D01*
X61871Y-40274D01*
X62022Y-40111D01*
X62177Y-39952D01*
X62336Y-39797D01*
X62499Y-39646D01*
X62666Y-39498D01*
X62836Y-39355D01*
X63009Y-39217D01*
X63186Y-39082D01*
X63366Y-38952D01*
X63549Y-38826D01*
X63736Y-38705D01*
X63925Y-38588D01*
X64117Y-38476D01*
X64312Y-38369D01*
X64509Y-38267D01*
X64708Y-38169D01*
X64911Y-38077D01*
X65115Y-37989D01*
X65321Y-37907D01*
X65529Y-37829D01*
X65740Y-37757D01*
X65951Y-37690D01*
X66165Y-37628D01*
X66380Y-37571D01*
X66596Y-37520D01*
X66813Y-37474D01*
X67032Y-37433D01*
X67251Y-37398D01*
X67472Y-37368D01*
X67692Y-37344D01*
X67914Y-37325D01*
X68136Y-37311D01*
X68358Y-37303D01*
X68580Y-37300D01*
X68802Y-37303D01*
X69024Y-37311D01*
X69246Y-37325D01*
X69468Y-37344D01*
X69688Y-37368D01*
X69909Y-37398D01*
X70128Y-37433D01*
X70347Y-37474D01*
X70564Y-37520D01*
X70780Y-37571D01*
X70995Y-37628D01*
X71209Y-37690D01*
X71420Y-37757D01*
X71631Y-37829D01*
X71839Y-37907D01*
X72045Y-37989D01*
X72249Y-38077D01*
X72452Y-38169D01*
X72651Y-38267D01*
X72848Y-38369D01*
X73043Y-38476D01*
X73235Y-38588D01*
X73424Y-38705D01*
X73611Y-38826D01*
X73794Y-38952D01*
X73974Y-39082D01*
X74151Y-39217D01*
X74324Y-39355D01*
X74494Y-39498D01*
X74661Y-39646D01*
X74824Y-39797D01*
X74983Y-39952D01*
X75138Y-40111D01*
X75289Y-40274D01*
X75437Y-40441D01*
X75580Y-40611D01*
X75718Y-40784D01*
X75853Y-40961D01*
X75983Y-41141D01*
X76109Y-41324D01*
X76230Y-41511D01*
X76347Y-41700D01*
X76459Y-41892D01*
X76566Y-42087D01*
X76668Y-42284D01*
X76766Y-42483D01*
X76858Y-42686D01*
X76946Y-42890D01*
X77028Y-43096D01*
X77106Y-43304D01*
X77178Y-43515D01*
X77245Y-43726D01*
X77307Y-43940D01*
X77364Y-44155D01*
X77415Y-44371D01*
X77461Y-44588D01*
X77502Y-44807D01*
X77537Y-45026D01*
X77567Y-45247D01*
X77591Y-45467D01*
X77610Y-45689D01*
X77624Y-45911D01*
X77632Y-46133D01*
X77635Y-46355D01*
X77632Y-46577D01*
X77624Y-46799D01*
X77610Y-47021D01*
X77591Y-47243D01*
X77567Y-47463D01*
X77537Y-47684D01*
X77502Y-47903D01*
X77461Y-48122D01*
X77415Y-48339D01*
X77364Y-48555D01*
X77307Y-48770D01*
X77245Y-48984D01*
X77178Y-49195D01*
X77106Y-49406D01*
X77028Y-49614D01*
X76946Y-49820D01*
X76858Y-50024D01*
X76766Y-50227D01*
X76668Y-50426D01*
X76566Y-50623D01*
X76459Y-50818D01*
X76347Y-51010D01*
X76230Y-51199D01*
X76109Y-51386D01*
X75983Y-51569D01*
X75853Y-51749D01*
X75718Y-51926D01*
X75580Y-52099D01*
X75437Y-52269D01*
X75289Y-52436D01*
X75138Y-52599D01*
X74983Y-52758D01*
X74824Y-52913D01*
X74661Y-53064D01*
X74494Y-53212D01*
X74324Y-53355D01*
X74151Y-53493D01*
X73974Y-53628D01*
X73794Y-53758D01*
X73611Y-53884D01*
X73424Y-54005D01*
X73235Y-54122D01*
X73043Y-54234D01*
X72848Y-54341D01*
X72651Y-54443D01*
X72452Y-54541D01*
X72249Y-54633D01*
X72045Y-54721D01*
X71839Y-54803D01*
X71631Y-54881D01*
X71420Y-54953D01*
X71209Y-55020D01*
X70995Y-55082D01*
X70780Y-55139D01*
X70564Y-55190D01*
X70347Y-55236D01*
X70128Y-55277D01*
X69909Y-55312D01*
X69688Y-55342D01*
X69468Y-55366D01*
X69246Y-55385D01*
X69024Y-55399D01*
X68802Y-55407D01*
X68580Y-55410D01*
X68358Y-55407D01*
X68136Y-55399D01*
X67914Y-55385D01*
X67692Y-55366D01*
X67472Y-55342D01*
X67251Y-55312D01*
X67032Y-55277D01*
X66813Y-55236D01*
X66596Y-55190D01*
X66380Y-55139D01*
X66165Y-55082D01*
X65951Y-55020D01*
X65740Y-54953D01*
X65529Y-54881D01*
X65321Y-54803D01*
X65115Y-54721D01*
X64911Y-54633D01*
X64708Y-54541D01*
X64509Y-54443D01*
X64312Y-54341D01*
X64117Y-54234D01*
X63925Y-54122D01*
X63736Y-54005D01*
X63549Y-53884D01*
X63366Y-53758D01*
X63186Y-53628D01*
X63009Y-53493D01*
X62836Y-53355D01*
X62666Y-53212D01*
X62499Y-53064D01*
X62336Y-52913D01*
X62177Y-52758D01*
X62022Y-52599D01*
X61871Y-52436D01*
X61723Y-52269D01*
X61580Y-52099D01*
X61442Y-51926D01*
X61307Y-51749D01*
X61177Y-51569D01*
X61051Y-51386D01*
X60930Y-51199D01*
X60813Y-51010D01*
X60701Y-50818D01*
X60594Y-50623D01*
X60492Y-50426D01*
X60394Y-50227D01*
X60302Y-50024D01*
X60214Y-49820D01*
X60132Y-49614D01*
X60054Y-49406D01*
X59982Y-49195D01*
X59915Y-48984D01*
X59853Y-48770D01*
X59796Y-48555D01*
X59745Y-48339D01*
X59699Y-48122D01*
X59658Y-47903D01*
X59623Y-47684D01*
X59593Y-47463D01*
X59569Y-47243D01*
X59550Y-47021D01*
X59536Y-46799D01*
X59528Y-46577D01*
X59525Y-46355D01*
D43*
X68580Y-46355D03*
M02*
