M48
;GenerationSoftware,Autodesk,EAGLE,9.6.2*%
;CreationDate,2022-08-30T15:51:58Z*%
FMAT,2
ICI,OFF
METRIC,TZ,000.000
T6C0.305
T5C0.350
T4C0.400
T3C0.650
T2C1.016
T1C3.048
%
G90
M71
T1
X2540Y107188
X84328Y2515
X40640Y107188
X46228Y107188
X46228Y61443
X40640Y48260
X2540Y48260
X84328Y61443
X2540Y61443
X2540Y2515
X40640Y2515
X84328Y48260
X46228Y48260
X40640Y61443
X84328Y107188
X46228Y2515
T2
X85598Y83058
X85598Y80518
X44958Y95758
X85598Y77978
X85598Y75438
X85598Y72898
X85598Y70358
X77978Y108458
X41910Y19050
X75438Y108458
X72898Y108458
X70358Y108458
X67818Y108458
X41910Y36830
X41910Y34290
X41910Y31750
X41910Y29210
X41910Y26670
X41910Y24130
X41910Y21590
X65278Y108458
X41910Y16510
X41910Y13970
X41910Y11430
X44958Y75438
X44958Y77978
X44958Y80518
X44958Y83058
X34290Y49530
X31750Y49530
X29210Y49530
X26670Y49530
X24130Y49530
X21590Y49530
X1270Y16510
X1270Y19050
X1270Y21590
X1270Y24130
X1270Y26670
X1270Y29210
X1270Y31750
X1270Y34290
X1270Y36830
X85598Y36830
X85598Y34290
X85598Y31750
X85598Y29210
X85598Y26670
X85598Y24130
X85598Y21590
X85598Y19050
X85598Y16510
X85598Y13970
X85598Y11430
X44958Y85598
X44958Y88138
X44958Y90678
X44958Y93218
X77978Y49530
X75438Y49530
X72898Y49530
X70358Y49530
X67818Y49530
X65278Y49530
X44958Y16510
X44958Y19050
X44958Y21590
X44958Y24130
X44958Y26670
X44958Y29210
X44958Y31750
X44958Y34290
X44958Y36830
X41910Y95758
X41910Y93218
X41910Y90678
X41910Y88138
X41910Y85598
X41910Y83058
X41910Y80518
X41910Y77978
X41910Y75438
X41910Y72898
X41910Y70358
X34290Y108458
X31750Y108458
X29210Y108458
X26670Y108458
X24130Y108458
X21590Y108458
X1270Y75438
X1270Y77978
X1270Y80518
X1270Y83058
X1270Y85598
X1270Y88138
X1270Y90678
X1270Y93218
X1270Y95758
X85598Y95758
X85598Y93218
X85598Y90678
X85598Y88138
X85598Y85598
T3
X15590Y45920
X9810Y45920
X59278Y45920
X53498Y45920
X15590Y104848
X9810Y104848
X59278Y104848
X53498Y104848
T4
X17018Y49570
X8382Y49570
X8382Y45390
X17018Y45390
X60706Y49570
X52070Y49570
X52070Y45390
X60706Y45390
X52070Y104318
X60706Y104318
X8382Y104318
X17018Y104318
X17018Y108498
X8382Y108498
X60706Y108498
X52070Y108498
T5
X18161Y35560
X18161Y94488
X61849Y94488
X61849Y35560
T6
X29362Y14021
X31750Y14859
X31725Y12700
X18034Y3810
X20320Y6350
X20320Y3810
X20320Y8890
X6350Y13970
X6350Y11430
X6350Y8890
X3810Y11430
X3810Y13970
X3810Y8890
X25400Y4445
X27940Y4445
X30480Y4445
X31750Y5715
X33782Y5715
X30861Y9398
X23876Y13970
X22225Y8890
X19304Y13843
X23876Y15875
X35052Y15545
X35128Y9296
X36982Y9271
X36906Y15570
X22225Y6350
X22524Y4535
X17907Y1270
X20320Y1270
X35560Y26543
X35560Y24638
X31877Y33020
X38176Y17602
X38176Y19507
X6350Y20320
X6350Y21590
X8890Y21590
X8890Y20320
X11430Y20320
X5080Y27940
X2540Y27940
X7366Y26670
X15240Y12470
X15240Y10970
X15240Y9470
X14240Y8470
X13240Y7470
X12740Y5970
X17915Y8279
X16915Y6779
X15415Y5779
X10160Y13970
X8890Y11430
X8890Y8890
X10160Y6350
X12700Y11430
X16510Y5080
X11430Y5080
X18415Y12954
X12700Y13970
X3810Y19812
X23368Y34798
X26162Y36195
X16764Y36195
X37465Y29591
X14097Y43053
X36449Y38227
X40640Y17907
X40386Y9779
X39624Y44196
X1270Y7471
X34696Y36195
X20701Y34036
X7747Y38354
X10414Y36195
X6477Y42418
X39243Y41402
X37783Y37148
X29261Y14859
X32766Y33274
X24519Y35560
X31750Y35560
X23698Y12446
X25527Y12954
X23749Y5715
X34163Y3810
X34163Y5080
X8280Y38887
X36703Y43434
X39243Y43434
X37211Y34798
X8255Y34036
X5842Y33782
X21336Y39497
X31394Y39497
X29210Y41910
X10922Y36830
X35560Y36830
X11684Y26289
X24500Y5000
X7493Y18415
X10033Y37465
X36068Y37465
X11176Y32639
X11176Y34036
X34925Y40894
X21590Y40855
X10160Y43561
X14922Y43751
X12827Y40259
X14922Y40919
X34036Y1143
X26162Y1270
X39751Y10541
X39751Y17526
X38100Y1270
X22225Y1270
X9144Y38100
X36830Y42291
X40386Y36576
X8255Y32766
X6477Y32766
X31746Y47659
X9271Y46609
X10160Y48260
X15240Y48260
X14732Y46355
X39116Y9652
X39116Y17145
X30353Y1905
X33039Y16684
X36830Y24638
X32912Y15668
X37465Y25527
X58166Y31496
X60400Y31202
X62482Y31202
X64591Y31202
X66699Y31202
X68807Y31202
X70890Y31202
X72998Y31176
X75182Y31227
X58190Y29424
X60400Y29424
X62482Y29424
X64591Y29424
X66699Y29424
X68807Y29424
X70890Y29424
X72998Y29398
X75182Y29449
X58190Y27239
X60400Y27239
X62482Y27239
X64591Y27239
X66699Y27239
X68807Y27239
X70890Y27239
X72998Y27214
X75182Y27265
X58166Y25146
X60400Y25157
X62482Y25157
X64591Y25157
X68807Y25157
X70890Y25157
X72998Y25131
X75182Y25182
X58190Y23023
X60400Y23023
X62482Y23023
X64591Y23023
X66699Y23023
X68807Y23023
X70890Y23023
X72998Y22998
X75182Y23048
X58164Y20991
X60374Y20991
X62457Y20991
X64565Y20991
X66673Y20991
X68782Y20991
X70864Y20991
X72973Y20966
X75157Y21016
X58166Y19050
X60273Y19177
X62482Y19061
X64591Y19061
X66699Y19061
X68807Y19061
X70890Y19061
X72998Y19035
X73914Y19050
X56388Y16510
X50038Y16510
X50038Y6350
X50038Y3810
X50038Y1270
X53848Y1270
X47498Y16510
X47498Y6350
X48768Y30480
X48768Y39243
X53848Y39497
X53848Y41910
X50546Y43434
X52603Y41148
X84328Y27940
X76327Y34798
X74168Y34290
X71628Y34290
X58166Y33361
X58166Y32472
X59206Y31496
X74676Y17308
X74676Y18197
X74676Y19050
X64008Y43180
X66548Y43180
X68961Y42545
X69088Y45720
X66548Y45720
X64008Y45720
X61468Y43180
X66548Y48260
X62738Y49530
X64008Y48260
X71628Y45720
X74168Y45720
X74168Y43180
X76454Y43180
X76454Y45720
X79248Y45720
X79248Y48260
X80518Y49530
X81788Y45720
X85598Y43180
X85598Y40640
X58928Y13970
X58928Y15240
X63373Y11430
X62103Y9779
X63754Y39751
X61341Y39751
X59055Y39751
X58166Y18070
X58166Y17156
X59282Y19050
X53848Y3810
X57023Y34290
X44958Y43180
X44958Y40640
X50038Y49530
X76454Y40005
X71882Y40132
X69215Y40132
X47371Y43434
X50038Y45720
X49657Y38100
X81788Y39370
X79248Y43561
X56261Y43180
X53848Y16510
X73025Y5715
X55118Y34925
X79248Y34290
X58928Y16383
X61849Y14224
X61289Y19050
X66521Y25157
X81026Y32893
X48768Y33020
X48260Y35941
X69850Y15240
X69215Y11125
X72898Y7620
X72644Y11176
X73050Y14021
X75438Y14859
X75413Y12700
X61722Y3810
X64008Y6350
X64008Y3810
X64008Y8890
X50038Y13970
X50038Y11430
X50038Y8890
X47498Y11430
X47498Y13970
X47498Y8890
X69088Y4445
X71628Y4445
X74168Y4445
X75438Y5715
X77470Y5715
X74549Y9398
X67564Y13970
X65913Y8890
X62992Y13843
X67564Y15875
X78740Y15545
X78816Y9296
X80670Y9271
X80594Y15570
X65913Y6350
X66212Y4535
X61595Y1270
X64008Y1270
X79248Y26543
X79248Y24638
X75565Y33020
X81864Y17602
X81864Y19507
X50038Y20320
X50038Y21590
X52578Y21590
X52578Y20320
X55118Y20320
X48768Y27940
X46228Y27940
X51054Y26670
X58928Y12470
X58928Y10970
X58928Y9470
X57928Y8470
X56928Y7470
X56428Y5970
X61603Y8279
X60603Y6779
X59103Y5779
X53848Y13970
X52578Y11430
X52578Y8890
X53848Y6350
X56388Y11430
X60198Y5080
X55118Y5080
X62103Y12954
X56388Y13970
X47498Y19812
X67056Y34798
X69850Y36195
X60452Y36195
X81153Y29591
X57785Y43053
X80137Y38227
X84328Y17907
X84074Y9779
X83312Y44196
X44958Y7471
X78384Y36195
X64389Y34036
X51435Y38354
X54102Y36195
X50165Y42418
X82931Y41402
X81471Y37148
X72949Y14859
X76454Y33274
X68207Y35560
X75438Y35560
X67386Y12446
X69215Y12954
X67437Y5715
X77851Y3810
X77851Y5080
X51968Y38887
X80391Y43434
X82931Y43434
X80899Y34798
X51943Y34036
X49530Y33782
X65024Y39497
X75082Y39497
X72898Y41910
X54610Y36830
X79248Y36830
X55372Y26289
X68188Y5000
X51181Y18415
X53721Y37465
X79756Y37465
X54864Y32639
X54864Y34036
X78613Y40894
X65278Y40855
X53848Y43561
X58610Y43751
X56515Y40259
X58610Y40919
X77724Y1143
X69850Y1270
X83439Y10541
X83439Y17526
X81788Y1270
X65913Y1270
X52832Y38100
X80518Y42291
X84074Y36576
X51943Y32766
X50165Y32766
X75434Y47659
X52959Y46609
X53848Y48260
X58928Y48260
X58420Y46355
X82804Y9652
X82804Y17145
X74041Y1905
X76727Y16684
X80518Y24638
X76600Y15668
X81153Y25527
X14478Y90424
X16712Y90130
X18794Y90130
X20903Y90130
X23011Y90130
X25119Y90130
X27202Y90130
X29310Y90104
X31494Y90155
X14502Y88352
X16712Y88352
X18794Y88352
X20903Y88352
X23011Y88352
X25119Y88352
X27202Y88352
X29310Y88326
X31494Y88377
X14502Y86167
X16712Y86167
X18794Y86167
X20903Y86167
X23011Y86167
X25119Y86167
X27202Y86167
X29310Y86142
X31494Y86193
X14478Y84074
X16712Y84085
X18794Y84085
X20903Y84085
X25119Y84085
X27202Y84085
X29310Y84059
X31494Y84110
X14502Y81951
X16712Y81951
X18794Y81951
X20903Y81951
X23011Y81951
X25119Y81951
X27202Y81951
X29310Y81926
X31494Y81976
X14476Y79919
X16686Y79919
X18769Y79919
X20877Y79919
X22985Y79919
X25094Y79919
X27176Y79919
X29285Y79894
X31469Y79944
X14478Y77978
X16585Y78105
X18794Y77989
X20903Y77989
X23011Y77989
X25119Y77989
X27202Y77989
X29310Y77963
X30226Y77978
X12700Y75438
X6350Y75438
X6350Y65278
X6350Y62738
X6350Y60198
X10160Y60198
X3810Y75438
X3810Y65278
X5080Y89408
X5080Y98171
X10160Y98425
X10160Y100838
X6858Y102362
X8915Y100076
X40640Y86868
X32639Y93726
X30480Y93218
X27940Y93218
X14478Y92289
X14478Y91400
X15518Y90424
X30988Y76236
X30988Y77125
X30988Y77978
X20320Y102108
X22860Y102108
X25273Y101473
X25400Y104648
X22860Y104648
X20320Y104648
X17780Y102108
X22860Y107188
X19050Y108458
X20320Y107188
X27940Y104648
X30480Y104648
X30480Y102108
X32766Y102108
X32766Y104648
X35560Y104648
X35560Y107188
X36830Y108458
X38100Y104648
X41910Y102108
X41910Y99568
X15240Y72898
X15240Y74168
X19685Y70358
X18415Y68707
X20066Y98679
X17653Y98679
X15367Y98679
X14478Y76998
X14478Y76084
X15594Y77978
X10160Y62738
X13335Y93218
X1270Y102108
X1270Y99568
X6350Y108458
X32766Y98933
X28194Y99060
X25527Y99060
X3683Y102362
X6350Y104648
X5969Y97028
X38100Y98298
X35560Y102489
X12573Y102108
X10160Y75438
X29337Y64643
X11430Y93853
X35560Y93218
X15240Y75311
X18161Y73152
X17601Y77978
X22833Y84085
X37338Y91821
X5080Y91948
X4572Y94869
X26162Y74168
X25527Y70053
X29210Y66548
X28956Y70104
X29362Y72949
X31750Y73787
X31725Y71628
X18034Y62738
X20320Y65278
X20320Y62738
X20320Y67818
X6350Y72898
X6350Y70358
X6350Y67818
X3810Y70358
X3810Y72898
X3810Y67818
X25400Y63373
X27940Y63373
X30480Y63373
X31750Y64643
X33782Y64643
X30861Y68326
X23876Y72898
X22225Y67818
X19304Y72771
X23876Y74803
X35052Y74473
X35128Y68224
X36982Y68199
X36906Y74498
X22225Y65278
X22524Y63463
X17907Y60198
X20320Y60198
X35560Y85471
X35560Y83566
X31877Y91948
X38176Y76530
X38176Y78435
X6350Y79248
X6350Y80518
X8890Y80518
X8890Y79248
X11430Y79248
X5080Y86868
X2540Y86868
X7366Y85598
X15240Y71398
X15240Y69898
X15240Y68398
X14240Y67398
X13240Y66398
X12740Y64898
X17915Y67207
X16915Y65707
X15415Y64707
X10160Y72898
X8890Y70358
X8890Y67818
X10160Y65278
X12700Y70358
X16510Y64008
X11430Y64008
X18415Y71882
X12700Y72898
X3810Y78740
X23368Y93726
X26162Y95123
X16764Y95123
X37465Y88519
X14097Y101981
X36449Y97155
X40640Y76835
X40386Y68707
X39624Y103124
X1270Y66399
X34696Y95123
X20701Y92964
X7747Y97282
X10414Y95123
X6477Y101346
X39243Y100330
X37783Y96075
X29261Y73787
X32766Y92202
X24519Y94488
X31750Y94488
X23698Y71374
X25527Y71882
X23749Y64643
X34163Y62738
X34163Y64008
X14478Y31496
X8280Y97815
X36703Y102362
X39243Y102362
X37211Y93726
X8255Y92964
X5842Y92710
X21336Y98425
X31394Y98425
X29210Y100838
X10922Y95758
X35560Y95758
X11684Y85217
X24500Y63928
X7493Y77343
X10033Y96393
X36068Y96393
X11176Y91567
X11176Y92964
X34925Y99822
X21590Y99783
X10160Y102489
X14922Y102679
X12827Y99187
X14922Y99846
X34036Y60071
X26162Y60198
X39751Y69469
X39751Y76454
X38100Y60198
X22225Y60198
X9144Y97028
X36830Y101219
X40386Y95504
X8255Y91694
X6477Y91694
X31746Y106587
X9271Y105537
X10160Y107188
X15240Y107188
X14732Y105283
X39116Y68580
X39116Y76073
X30353Y60833
X33039Y75612
X36830Y83566
X32912Y74596
X37465Y84455
X58166Y90424
X60400Y90130
X62482Y90130
X64591Y90130
X66699Y90130
X68807Y90130
X70890Y90130
X72998Y90104
X75182Y90155
X58190Y88352
X60400Y88352
X62482Y88352
X64591Y88352
X66699Y88352
X68807Y88352
X70890Y88352
X72998Y88326
X75182Y88377
X58190Y86167
X60400Y86167
X62482Y86167
X64591Y86167
X66699Y86167
X68807Y86167
X70890Y86167
X72998Y86142
X75182Y86193
X58166Y84074
X60400Y84085
X62482Y84085
X64591Y84085
X68807Y84085
X70890Y84085
X72998Y84059
X75182Y84110
X58190Y81951
X60400Y81951
X62482Y81951
X64591Y81951
X66699Y81951
X68807Y81951
X70890Y81951
X72998Y81926
X75182Y81976
X58164Y79919
X60374Y79919
X62457Y79919
X64565Y79919
X66673Y79919
X68782Y79919
X70864Y79919
X72973Y79894
X75157Y79944
X58166Y77978
X60273Y78105
X62482Y77989
X64591Y77989
X66699Y77989
X68807Y77989
X70890Y77989
X72998Y77963
X73914Y77978
X56388Y75438
X50038Y75438
X50038Y65278
X50038Y62738
X50038Y60198
X53848Y60198
X47498Y75438
X47498Y65278
X48768Y89408
X48768Y98171
X53848Y98425
X53848Y100838
X50546Y102362
X52603Y100076
X84328Y86868
X76327Y93726
X74168Y93218
X71628Y93218
X58166Y92289
X58166Y91400
X59206Y90424
X74676Y76236
X74676Y77125
X74676Y77978
X64008Y102108
X66548Y102108
X68961Y101473
X69088Y104648
X66548Y104648
X64008Y104648
X61468Y102108
X66548Y107188
X62738Y108458
X64008Y107188
X71628Y104648
X74168Y104648
X74168Y102108
X76454Y102108
X76454Y104648
X79248Y104648
X79248Y107188
X80518Y108458
X81788Y104648
X85598Y102108
X85598Y99568
X58928Y72898
X16712Y31202
X63373Y70358
X62103Y68707
X63754Y98679
X61341Y98679
X59055Y98679
X58166Y76998
X58166Y76084
X59282Y77978
X53848Y62738
X57023Y93218
X44958Y102108
X44958Y99568
X50038Y108458
X76454Y98933
X71882Y99060
X69215Y99060
X47371Y102362
X50038Y104648
X49657Y97028
X81788Y98298
X79248Y102489
X56261Y102108
X53848Y75438
X73025Y64643
X55118Y93853
X79248Y93218
X58928Y75311
X61849Y73152
X61289Y77978
X66521Y84085
X81026Y91821
X48768Y91948
X48260Y94869
X69850Y74168
X69215Y70053
X72898Y66548
X72644Y70104
X73050Y72949
X75438Y73787
X75413Y71628
X61722Y62738
X64008Y65278
X64008Y62738
X64008Y67818
X50038Y72898
X50038Y70358
X50038Y67818
X47498Y70358
X47498Y72898
X47498Y67818
X69088Y63373
X71628Y63373
X74168Y63373
X75438Y64643
X77470Y64643
X74549Y68326
X67564Y72898
X65913Y67818
X62992Y72771
X67564Y74803
X78740Y74473
X78816Y68224
X80670Y68199
X80594Y74498
X65913Y65278
X66212Y63463
X61595Y60198
X64008Y60198
X79248Y85471
X79248Y83566
X75565Y91948
X81864Y76530
X81864Y78435
X50038Y79248
X50038Y80518
X52578Y80518
X52578Y79248
X55118Y79248
X48768Y86868
X46228Y86868
X51054Y85598
X58928Y71398
X58928Y69898
X58928Y68398
X57928Y67398
X56928Y66398
X56428Y64898
X61603Y67207
X60603Y65707
X59103Y64707
X53848Y72898
X52578Y70358
X52578Y67818
X53848Y65278
X56388Y70358
X60198Y64008
X55118Y64008
X62103Y71882
X56388Y72898
X47498Y78740
X67056Y93726
X69850Y95123
X60452Y95123
X81153Y88519
X57785Y101981
X80137Y97155
X84328Y76835
X84074Y68707
X83312Y103124
X44958Y66399
X78384Y95123
X64389Y92964
X51435Y97282
X54102Y95123
X50165Y101346
X82931Y100330
X81471Y96075
X72949Y73787
X76454Y92202
X68207Y94488
X75438Y94488
X67386Y71374
X69215Y71882
X67437Y64643
X77851Y62738
X77851Y64008
X18794Y31202
X51968Y97815
X80391Y102362
X82931Y102362
X80899Y93726
X51943Y92964
X49530Y92710
X65024Y98425
X75082Y98425
X72898Y100838
X54610Y95758
X79248Y95758
X55372Y85217
X68188Y63928
X51181Y77343
X53721Y96393
X79756Y96393
X54864Y91567
X54864Y92964
X78613Y99822
X65278Y99783
X53848Y102489
X58610Y102679
X56515Y99187
X58610Y99846
X77724Y60071
X69850Y60198
X83439Y69469
X83439Y76454
X81788Y60198
X65913Y60198
X52832Y97028
X58928Y74168
X84074Y95504
X51943Y91694
X50165Y91694
X75434Y106587
X52959Y105537
X53848Y107188
X58928Y107188
X58420Y105283
X82804Y68580
X82804Y76073
X74041Y60833
X76727Y75612
X80518Y83566
X76600Y74596
X81153Y84455
X20903Y31202
X23011Y31202
X25119Y31202
X27202Y31202
X29310Y31176
X31494Y31227
X14502Y29424
X16712Y29424
X18794Y29424
X20903Y29424
X23011Y29424
X25119Y29424
X27202Y29424
X29310Y29398
X31494Y29449
X14502Y27239
X16712Y27239
X18794Y27239
X20903Y27239
X23011Y27239
X25119Y27239
X27202Y27239
X29310Y27214
X31494Y27265
X14478Y25146
X16712Y25157
X18794Y25157
X20903Y25157
X25119Y25157
X27202Y25157
X29310Y25131
X31494Y25182
X14502Y23023
X16712Y23023
X18794Y23023
X20903Y23023
X23011Y23023
X25119Y23023
X27202Y23023
X29310Y22998
X31494Y23048
X14476Y20991
X16686Y20991
X18769Y20991
X20877Y20991
X22985Y20991
X25094Y20991
X27176Y20991
X29285Y20966
X31469Y21016
X14478Y19050
X16585Y19177
X18794Y19061
X20903Y19061
X23011Y19061
X25119Y19061
X27202Y19061
X29310Y19035
X30226Y19050
X12700Y16510
X6350Y16510
X6350Y6350
X6350Y3810
X6350Y1270
X10160Y1270
X3810Y16510
X3810Y6350
X5080Y30480
X5080Y39243
X10160Y39497
X10160Y41910
X6858Y43434
X8915Y41148
X40640Y27940
X32639Y34798
X30480Y34290
X27940Y34290
X14478Y33361
X14478Y32472
X15518Y31496
X30988Y17308
X30988Y18197
X30988Y19050
X20320Y43180
X22860Y43180
X25273Y42545
X25400Y45720
X22860Y45720
X20320Y45720
X17780Y43180
X22860Y48260
X19050Y49530
X20320Y48260
X27940Y45720
X30480Y45720
X30480Y43180
X32766Y43180
X32766Y45720
X35560Y45720
X35560Y48260
X36830Y49530
X38100Y45720
X41910Y43180
X41910Y40640
X15240Y13970
X15240Y15240
X19685Y11430
X18415Y9779
X20066Y39751
X17653Y39751
X15367Y39751
X14478Y18070
X14478Y17156
X15594Y19050
X10160Y3810
X13335Y34290
X1270Y43180
X1270Y40640
X6350Y49530
X32766Y40005
X28194Y40132
X25527Y40132
X3683Y43434
X6350Y45720
X5969Y38100
X38100Y39370
X35560Y43561
X12573Y43180
X10160Y16510
X29337Y5715
X11430Y34925
X35560Y34290
X15240Y16383
X18161Y14224
X17601Y19050
X22833Y25157
X37338Y32893
X5080Y33020
X4572Y35941
X26162Y15240
X25527Y11125
X29210Y7620
X28956Y11176
X80518Y101219
M30