M48
;GenerationSoftware,Autodesk,EAGLE,9.5.2*%
;CreationDate,2020-03-31T21:05:33Z*%
FMAT,2
ICI,OFF
METRIC,TZ,000.000
T7C0.305
T6C0.350
T5C0.381
T4C0.400
T3C0.650
T2C1.016
T1C3.048
%
G90
M71
T1
X2540Y102108
X46228Y56363
X84328Y56363
X40640Y2515
X2540Y2515
X2540Y48260
X40640Y48260
X46228Y48260
X84328Y48260
X2540Y56363
X84328Y102108
X40640Y56363
X46228Y102108
X46228Y2515
X84328Y2515
X40640Y102108
T2
X41910Y11430
X85598Y67818
X44958Y90678
X29210Y103378
X77978Y103378
X75438Y103378
X72898Y103378
X75438Y49530
X70358Y103378
X67818Y103378
X41910Y36830
X41910Y34290
X41910Y31750
X41910Y29210
X41910Y26670
X41910Y24130
X41910Y21590
X41910Y19050
X41910Y16510
X41910Y13970
X65278Y103378
X44958Y70358
X44958Y72898
X44958Y75438
X44958Y77978
X34290Y49530
X31750Y49530
X29210Y49530
X26670Y49530
X24130Y49530
X21590Y49530
X1270Y16510
X1270Y19050
X1270Y21590
X1270Y24130
X1270Y26670
X1270Y29210
X1270Y31750
X1270Y34290
X1270Y36830
X85598Y36830
X85598Y34290
X85598Y31750
X85598Y29210
X85598Y26670
X85598Y24130
X85598Y21590
X85598Y19050
X85598Y16510
X85598Y13970
X85598Y11430
X44958Y80518
X44958Y83058
X44958Y85598
X44958Y88138
X77978Y49530
X85598Y65278
X72898Y49530
X70358Y49530
X67818Y49530
X65278Y49530
X44958Y16510
X44958Y19050
X44958Y21590
X44958Y24130
X44958Y26670
X44958Y29210
X44958Y31750
X44958Y34290
X44958Y36830
X41910Y90678
X41910Y88138
X41910Y85598
X41910Y83058
X41910Y80518
X41910Y77978
X41910Y75438
X41910Y72898
X41910Y70358
X41910Y67818
X41910Y65278
X34290Y103378
X31750Y103378
X26670Y103378
X24130Y103378
X21590Y103378
X1270Y70358
X1270Y72898
X1270Y75438
X1270Y77978
X1270Y80518
X1270Y83058
X1270Y85598
X1270Y88138
X1270Y90678
X85598Y90678
X85598Y88138
X85598Y85598
X85598Y83058
X85598Y80518
X85598Y77978
X85598Y75438
X85598Y72898
X85598Y70358
T3
X15590Y45920
X59278Y45920
X53498Y45920
X15590Y99768
X59278Y99768
X53498Y99768
X9810Y99768
X9810Y45920
T4
X17018Y49570
X8382Y49570
X8382Y45390
X17018Y45390
X60706Y49570
X52070Y49570
X52070Y45390
X60706Y45390
X60706Y103418
X52070Y103418
X52070Y99238
X60706Y99238
X17018Y103418
X8382Y103418
X8382Y99238
X17018Y99238
T5
X50165Y96266
X83058Y95250
X68254Y89717
X62738Y89662
X81471Y90995
X51816Y59690
X67564Y66472
X68961Y66421
X72949Y68707
X67259Y59550
X51816Y91440
X80391Y97282
X82931Y97282
X80899Y88646
X65278Y93218
X75082Y93091
X54483Y90551
X79121Y90805
X52426Y58903
X53594Y90932
X79756Y91440
X78867Y94615
X31877Y16383
X53848Y97409
X58610Y97599
X56515Y94107
X58610Y94766
X77724Y54991
X69850Y55118
X83439Y64389
X82677Y75057
X65913Y55118
X52959Y91440
X80518Y96139
X83947Y90678
X52959Y100330
X53848Y102108
X58928Y102108
X58420Y100203
X82804Y63500
X82677Y74168
X75565Y70231
X80518Y78486
X76200Y69596
X81153Y79375
X75565Y16383
X78867Y40767
X65278Y40855
X53848Y43561
X58610Y43751
X56515Y40259
X58610Y40919
X77724Y1143
X69850Y1270
X83439Y10541
X65278Y94703
X82677Y21209
X65913Y1270
X52959Y37592
X80518Y42291
X83947Y36830
X80518Y24638
X76200Y15748
X52959Y46482
X53848Y48260
X50165Y42418
X83058Y41402
X68254Y35869
X62738Y35814
X81471Y37148
X51816Y5842
X67564Y12624
X68961Y12573
X72949Y14859
X67259Y5702
X6477Y42418
X39370Y41402
X24566Y35869
X19050Y35814
X37783Y37148
X8128Y5842
X23876Y12624
X25273Y12573
X29261Y14859
X23571Y5702
X8128Y37592
X36703Y43434
X39243Y43434
X37211Y34798
X51816Y37592
X21590Y39370
X31394Y39243
X10795Y36703
X35433Y36957
X80391Y43434
X82931Y43434
X8738Y5055
X9906Y37084
X36068Y37592
X80899Y34798
X58928Y48260
X35179Y40767
X21590Y40855
X10160Y43561
X14922Y43751
X12827Y40259
X14922Y40919
X34036Y1143
X26162Y1270
X39751Y10541
X38989Y21209
X22225Y1270
X9271Y37592
X36830Y42291
X40259Y36830
X58420Y46355
X65278Y39370
X9271Y46482
X10160Y48260
X15240Y48260
X14732Y46355
X39116Y9652
X38989Y20320
X75082Y39243
X36830Y24638
X32512Y15748
X37465Y25527
X29261Y68707
X54483Y36703
X79121Y36957
X82804Y9652
X82677Y20320
X52426Y5055
X53594Y37084
X79756Y37592
X81153Y25527
X6477Y96266
X39370Y95250
X39751Y64389
X24566Y89717
X19050Y89662
X37783Y90995
X8128Y59690
X23876Y66472
X25273Y66421
X23571Y59550
X8128Y91440
X36703Y97282
X39243Y97282
X37211Y88646
X21590Y93218
X31394Y93091
X10795Y90551
X35433Y90805
X8738Y58903
X9906Y90932
X36068Y91440
X35179Y94615
X21590Y94703
X10160Y97409
X14922Y97599
X12827Y94107
X14922Y94766
X34036Y54991
X26162Y55118
X38989Y75057
X22225Y55118
X9271Y91440
X36830Y96139
X40259Y90678
X9271Y100330
X10160Y102108
X15240Y102108
X14732Y100203
X39116Y63500
X38989Y74168
X31877Y70231
X36830Y78486
X32512Y69596
X37465Y79375
T6
X64389Y3200
X64389Y55829
X64389Y57048
X20701Y55829
X20701Y57048
X20701Y1981
X64389Y1981
X20701Y3200
T7
X75182Y31227
X58190Y29424
X60400Y29424
X62482Y29424
X64591Y29424
X66699Y29424
X68807Y29424
X70890Y29424
X72998Y29398
X75182Y29449
X58190Y27239
X60400Y27239
X62482Y27239
X64591Y27239
X66699Y27239
X68807Y27239
X70890Y27239
X72998Y27214
X75182Y27265
X58166Y25146
X60400Y25157
X62482Y25157
X64591Y25157
X68807Y25157
X70890Y25157
X72998Y25131
X75182Y25182
X58190Y23023
X60400Y23023
X62482Y23023
X64591Y23023
X66699Y23023
X68807Y23023
X70890Y23023
X72998Y22998
X75182Y23048
X58164Y20991
X60374Y20991
X62457Y20991
X64565Y20991
X66673Y20991
X68782Y20991
X70864Y20991
X72973Y20966
X75157Y21016
X58166Y19050
X60273Y19177
X62482Y19061
X64591Y19061
X66699Y19061
X68807Y19061
X70890Y19061
X72998Y19035
X73914Y19050
X57658Y11430
X56388Y3810
X56388Y6350
X56388Y16510
X50038Y16510
X50038Y6350
X50038Y3810
X50038Y1270
X53848Y1270
X47498Y16510
X47498Y6350
X44958Y6350
X48768Y30480
X48006Y33401
X48768Y38100
X53848Y39370
X53848Y41910
X51308Y43180
X52578Y40640
X84328Y27940
X76708Y34290
X74168Y34290
X71628Y34290
X58166Y33361
X58166Y32472
X59206Y31496
X74676Y17308
X74676Y18197
X74676Y19050
X64008Y43180
X66548Y43180
X69088Y43180
X69088Y45720
X66548Y45720
X64008Y45720
X61468Y43180
X66548Y48260
X62738Y49530
X64008Y48260
X71628Y45720
X74168Y45720
X74168Y43180
X76708Y43180
X76708Y45720
X79248Y45720
X79248Y48260
X80518Y49530
X81788Y45720
X85598Y43180
X85598Y40640
X58928Y13970
X58928Y15240
X63373Y11430
X63373Y12573
X63373Y10160
X62103Y9779
X58928Y9779
X57658Y10160
X57658Y12573
X64008Y39370
X61468Y39370
X58928Y39370
X58166Y18070
X58166Y17156
X59282Y19050
X53848Y3810
X57658Y34290
X44958Y43180
X44958Y40640
X50038Y49530
X76708Y40005
X72771Y40005
X69850Y40005
X47498Y43180
X50038Y45720
X48895Y35179
X81788Y39370
X79248Y41910
X56261Y43180
X53848Y6350
X53848Y16510
X73025Y5715
X55118Y34925
X79248Y34290
X57658Y13970
X58928Y16383
X61849Y14224
X61289Y19050
X60452Y11557
X66521Y25157
X81026Y32893
X48006Y32131
X47879Y35179
X69850Y15240
X69215Y11125
X72898Y7620
X72644Y11176
X72923Y13894
X75438Y14859
X75413Y12700
X58928Y6350
X58928Y3810
X61468Y6350
X61468Y3810
X64008Y6350
X64008Y3810
X64008Y8890
X61468Y8890
X58928Y8890
X56388Y8890
X53848Y8890
X53848Y11430
X56388Y11430
X56388Y13970
X53848Y13970
X50038Y13970
X50038Y11430
X50038Y8890
X47498Y11430
X47498Y13970
X44958Y13970
X44958Y11430
X44958Y8890
X47498Y8890
X69088Y4445
X71628Y4445
X74168Y4445
X75438Y5715
X77470Y5715
X74549Y9398
X65913Y8890
X62992Y13843
X67564Y15875
X65278Y34823
X78740Y15545
X78816Y9296
X80670Y9271
X80594Y15570
X65913Y6350
X67132Y4445
X56388Y1270
X58928Y1270
X61468Y1270
X64008Y1270
X79248Y26543
X79248Y24638
X76708Y33020
X81864Y17602
X81864Y19507
X50038Y19050
X50038Y21590
X52578Y21590
X52578Y20320
X55118Y20320
X48768Y27940
X46228Y27940
X51054Y26670
X52959Y35052
X49657Y33655
X55499Y26289
X52426Y16561
X55245Y32385
X55245Y33909
X51943Y33020
X50292Y32639
X74168Y1270
X14478Y85344
X16712Y85050
X18794Y85050
X20903Y85050
X23011Y85050
X25119Y85050
X27202Y85050
X29310Y85024
X31494Y85075
X14502Y83272
X16712Y83272
X18794Y83272
X20903Y83272
X23011Y83272
X25119Y83272
X27202Y83272
X29310Y83246
X31494Y83297
X14502Y81087
X16712Y81087
X18794Y81087
X20903Y81087
X23011Y81087
X25119Y81087
X27202Y81087
X29310Y81062
X31494Y81113
X14478Y78994
X16712Y79005
X18794Y79005
X20903Y79005
X25119Y79005
X27202Y79005
X29310Y78979
X31494Y79030
X14502Y76871
X16712Y76871
X18794Y76871
X20903Y76871
X23011Y76871
X25119Y76871
X27202Y76871
X29310Y76846
X31494Y76896
X14476Y74839
X16686Y74839
X18769Y74839
X20877Y74839
X22985Y74839
X25094Y74839
X27176Y74839
X29285Y74814
X31469Y74864
X14478Y72898
X16585Y73025
X18794Y72909
X20903Y72909
X23011Y72909
X25119Y72909
X27202Y72909
X29310Y72883
X30226Y72898
X13970Y65278
X12700Y57658
X12700Y60198
X12700Y70358
X6350Y70358
X6350Y60198
X6350Y57658
X6350Y55118
X10160Y55118
X3810Y70358
X67564Y13970
X1270Y60198
X5080Y84328
X4318Y87249
X5080Y91948
X10160Y93218
X10160Y95758
X7620Y97028
X8890Y94488
X40640Y81788
X33020Y88138
X30480Y88138
X27940Y88138
X14478Y87209
X14478Y86320
X15518Y85344
X30988Y71156
X30988Y72045
X30988Y72898
X20320Y97028
X22860Y97028
X25400Y97028
X25400Y99568
X22860Y99568
X20320Y99568
X17780Y97028
X22860Y102108
X19050Y103378
X20320Y102108
X27940Y99568
X30480Y99568
X30480Y97028
X33020Y97028
X33020Y99568
X35560Y99568
X35560Y102108
X36830Y103378
X38100Y99568
X41910Y97028
X41910Y94488
X15240Y67818
X15240Y69088
X19685Y65278
X19685Y66421
X19685Y64008
X18415Y63627
X15240Y63627
X13970Y64008
X13970Y66421
X20320Y93218
X17780Y93218
X15240Y93218
X14478Y71918
X14478Y71004
X15594Y72898
X10160Y57658
X13970Y88138
X1270Y97028
X1270Y94488
X6350Y103378
X33020Y93853
X29083Y93853
X26162Y93853
X3810Y97028
X6350Y99568
X5207Y89027
X38100Y93218
X35560Y95758
X12573Y97028
X10160Y60198
X10160Y70358
X29337Y59563
X11430Y88773
X35560Y88138
X13970Y67818
X15240Y70231
X18161Y68072
X17601Y72898
X16764Y65405
X22833Y79005
X37338Y86741
X4318Y85979
X4191Y89027
X26162Y69088
X25527Y64973
X29210Y61468
X28956Y65024
X29235Y67742
X31750Y68707
X31725Y66548
X15240Y60198
X15240Y57658
X17780Y60198
X17780Y57658
X20320Y60198
X20320Y57658
X20320Y62738
X17780Y62738
X15240Y62738
X12700Y62738
X10160Y62738
X10160Y65278
X12700Y65278
X12700Y67818
X10160Y67818
X6350Y67818
X6350Y65278
X6350Y62738
X3810Y65278
X3810Y67818
X1270Y67818
X1270Y65278
X1270Y62738
X3810Y62738
X25400Y58293
X27940Y58293
X30480Y58293
X31750Y59563
X33782Y59563
X30861Y63246
X23876Y67818
X22225Y62738
X19304Y67691
X23876Y69723
X21590Y88671
X35052Y69393
X35128Y63144
X36982Y63119
X36906Y69418
X22225Y60198
X23444Y58293
X12700Y55118
X15240Y55118
X17780Y55118
X20320Y55118
X35560Y80391
X35560Y78486
X33020Y86868
X38176Y71450
X38176Y73355
X6350Y72898
X6350Y75438
X8890Y75438
X8890Y74168
X11430Y74168
X5080Y81788
X2540Y81788
X7366Y80518
X14478Y31496
X16712Y31202
X18794Y31202
X20903Y31202
X23011Y31202
X25119Y31202
X27202Y31202
X29310Y31176
X3810Y60198
X31494Y31227
X14502Y29424
X16712Y29424
X18794Y29424
X20903Y29424
X23011Y29424
X25119Y29424
X9271Y88900
X5969Y87503
X27202Y29424
X29310Y29398
X31494Y29449
X14502Y27239
X11811Y80137
X8738Y70409
X16712Y27239
X18794Y27239
X20903Y27239
X11557Y86233
X11557Y87757
X23011Y27239
X25119Y27239
X27202Y27239
X29310Y27214
X31494Y27265
X14478Y25146
X16712Y25157
X18794Y25157
X20903Y25157
X25119Y25157
X27202Y25157
X29310Y25131
X31494Y25182
X14502Y23023
X8255Y86868
X6604Y86487
X16712Y23023
X18794Y23023
X20903Y23023
X23011Y23023
X25119Y23023
X27202Y23023
X30480Y55118
X29310Y22998
X31494Y23048
X14476Y20991
X16686Y20991
X58166Y85344
X60400Y85050
X62482Y85050
X64591Y85050
X66699Y85050
X68807Y85050
X70890Y85050
X72998Y85024
X75182Y85075
X58190Y83272
X60400Y83272
X62482Y83272
X64591Y83272
X66699Y83272
X68807Y83272
X70890Y83272
X72998Y83246
X75182Y83297
X58190Y81087
X60400Y81087
X62482Y81087
X64591Y81087
X66699Y81087
X68807Y81087
X70890Y81087
X72998Y81062
X75182Y81113
X58166Y78994
X60400Y79005
X62482Y79005
X64591Y79005
X68807Y79005
X70890Y79005
X72998Y78979
X75182Y79030
X58190Y76871
X60400Y76871
X62482Y76871
X64591Y76871
X66699Y76871
X68807Y76871
X70890Y76871
X72998Y76846
X75182Y76896
X58164Y74839
X60374Y74839
X62457Y74839
X64565Y74839
X66673Y74839
X68782Y74839
X70864Y74839
X72973Y74814
X75157Y74864
X58166Y72898
X60273Y73025
X62482Y72909
X64591Y72909
X66699Y72909
X68807Y72909
X70890Y72909
X72998Y72883
X73914Y72898
X57658Y65278
X56388Y57658
X56388Y60198
X56388Y70358
X50038Y70358
X50038Y60198
X50038Y57658
X50038Y55118
X53848Y55118
X47498Y70358
X47498Y60198
X44958Y60198
X48768Y84328
X48006Y87249
X48768Y91948
X53848Y93218
X53848Y95758
X51308Y97028
X52578Y94488
X84328Y81788
X76708Y88138
X74168Y88138
X71628Y88138
X58166Y87209
X58166Y86320
X59206Y85344
X74676Y71156
X74676Y72045
X74676Y72898
X64008Y97028
X66548Y97028
X69088Y97028
X69088Y99568
X66548Y99568
X64008Y99568
X61468Y97028
X66548Y102108
X62738Y103378
X64008Y102108
X71628Y99568
X74168Y99568
X74168Y97028
X76708Y97028
X76708Y99568
X79248Y99568
X18769Y20991
X80518Y103378
X81788Y99568
X85598Y97028
X85598Y94488
X58928Y67818
X58928Y69088
X63373Y65278
X63373Y66421
X63373Y64008
X62103Y63627
X58928Y63627
X57658Y64008
X57658Y66421
X64008Y93218
X61468Y93218
X58928Y93218
X58166Y71918
X58166Y71004
X59282Y72898
X53848Y57658
X57658Y88138
X44958Y97028
X44958Y94488
X50038Y103378
X76708Y93853
X72771Y93853
X69850Y93853
X47498Y97028
X50038Y99568
X48895Y89027
X81788Y93218
X79248Y95758
X56261Y97028
X53848Y60198
X53848Y70358
X73025Y59563
X55118Y88773
X79248Y88138
X57658Y67818
X58928Y70231
X61849Y68072
X61289Y72898
X60452Y65405
X66521Y79005
X81026Y86741
X48006Y85979
X47879Y89027
X69850Y69088
X69215Y64973
X72898Y61468
X72644Y65024
X72923Y67742
X75438Y68707
X75413Y66548
X58928Y60198
X58928Y57658
X61468Y60198
X61468Y57658
X64008Y60198
X64008Y57658
X64008Y62738
X61468Y62738
X58928Y62738
X56388Y62738
X53848Y62738
X53848Y65278
X56388Y65278
X56388Y67818
X53848Y67818
X50038Y67818
X50038Y65278
X50038Y62738
X47498Y65278
X47498Y67818
X44958Y67818
X44958Y65278
X44958Y62738
X47498Y62738
X69088Y58293
X71628Y58293
X74168Y58293
X75438Y59563
X77470Y59563
X74549Y63246
X67564Y67818
X65913Y62738
X62992Y67691
X67564Y69723
X65278Y88671
X78740Y69393
X78816Y63144
X80670Y63119
X80594Y69418
X65913Y60198
X67132Y58293
X56388Y55118
X58928Y55118
X61468Y55118
X64008Y55118
X79248Y80391
X79248Y78486
X76708Y86868
X81864Y71450
X81864Y73355
X50038Y72898
X50038Y75438
X52578Y75438
X52578Y74168
X55118Y74168
X48768Y81788
X46228Y81788
X51054Y80518
X20877Y20991
X22985Y20991
X25094Y20991
X27176Y20991
X29285Y20966
X31469Y21016
X14478Y19050
X16585Y19177
X18794Y19061
X20903Y19061
X23011Y19061
X25119Y19061
X27202Y19061
X29310Y19035
X30226Y19050
X13970Y11430
X52959Y88900
X49657Y87503
X12700Y3810
X12700Y6350
X12700Y16510
X6350Y16510
X55499Y80137
X52426Y70409
X6350Y6350
X6350Y3810
X6350Y1270
X55245Y86233
X55245Y87757
X10160Y1270
X3810Y16510
X3810Y6350
X1270Y6350
X5080Y30480
X4318Y33401
X5080Y38100
X10160Y39370
X10160Y41910
X7620Y43180
X8890Y40640
X40640Y27940
X33020Y34290
X30480Y34290
X79248Y102108
X50292Y86487
X27940Y34290
X14478Y33361
X14478Y32472
X15518Y31496
X30988Y17308
X30988Y18197
X74168Y55118
X30988Y19050
X20320Y43180
X22860Y43180
X25400Y43180
X25400Y45720
X22860Y45720
X20320Y45720
X17780Y43180
X22860Y48260
X19050Y49530
X20320Y48260
X27940Y45720
X30480Y45720
X30480Y43180
X33020Y43180
X33020Y45720
X35560Y45720
X35560Y48260
X36830Y49530
X38100Y45720
X41910Y43180
X41910Y40640
X15240Y13970
X15240Y15240
X19685Y11430
X19685Y12573
X19685Y10160
X18415Y9779
X15240Y9779
X13970Y10160
X13970Y12573
X20320Y39370
X17780Y39370
X15240Y39370
X14478Y18070
X14478Y17156
X15594Y19050
X10160Y3810
X13970Y34290
X1270Y43180
X1270Y40640
X6350Y49530
X33020Y40005
X29083Y40005
X26162Y40005
X3810Y43180
X6350Y45720
X5207Y35179
X38100Y39370
X35560Y41910
X12573Y43180
X10160Y6350
X10160Y16510
X29337Y5715
X11430Y34925
X35560Y34290
X13970Y13970
X15240Y16383
X18161Y14224
X17601Y19050
X16764Y11557
X22833Y25157
X37338Y32893
X4318Y32131
X4191Y35179
X26162Y15240
X25527Y11125
X29210Y7620
X28956Y11176
X29235Y13894
X31750Y14859
X31725Y12700
X15240Y6350
X15240Y3810
X17780Y6350
X17780Y3810
X20320Y6350
X20320Y3810
X20320Y8890
X17780Y8890
X15240Y8890
X12700Y8890
X10160Y8890
X10160Y11430
X12700Y11430
X12700Y13970
X10160Y13970
X6350Y13970
X6350Y11430
X6350Y8890
X3810Y11430
X3810Y13970
X1270Y13970
X1270Y11430
X1270Y8890
X3810Y8890
X25400Y4445
X27940Y4445
X30480Y4445
X31750Y5715
X33782Y5715
X30861Y9398
X23876Y13970
X22225Y8890
X19304Y13843
X23876Y15875
X21590Y34823
X35052Y15545
X35128Y9296
X36982Y9271
X36906Y15570
X22225Y6350
X23444Y4445
X12700Y1270
X15240Y1270
X17780Y1270
X20320Y1270
X35560Y26543
X35560Y24638
X33020Y33020
X38176Y17602
X38176Y19507
X6350Y19050
X6350Y21590
X8890Y21590
X8890Y20320
X11430Y20320
X5080Y27940
X2540Y27940
X7366Y26670
X9271Y35052
X5969Y33655
X11811Y26289
X8738Y16561
X11557Y32385
X11557Y33909
X8255Y33020
X6604Y32639
X30480Y1270
X58166Y31496
X60400Y31202
X62482Y31202
X64591Y31202
X66699Y31202
X68807Y31202
X70890Y31202
X72998Y31176
X51943Y86868
M30