G04 EAGLE Gerber RS-274X export*
G75*
%MOMM*%
%FSLAX34Y34*%
%LPD*%
%INSoldermask Bottom*%
%IPPOS*%
%AMOC8*
5,1,8,0,0,1.08239X$1,22.5*%
G01*
%ADD10C,0.228344*%
%ADD11C,2.006600*%
%ADD12C,0.762000*%
%ADD13C,3.175000*%
%ADD14C,0.228600*%
%ADD15C,0.777000*%
%ADD16C,0.227778*%
%ADD17C,1.397000*%
%ADD18C,1.127000*%
%ADD19C,1.270000*%
%ADD20C,1.627000*%

G36*
X534735Y924572D02*
X534735Y924572D01*
X534801Y924574D01*
X534844Y924592D01*
X534891Y924600D01*
X534948Y924634D01*
X535008Y924659D01*
X535043Y924690D01*
X535084Y924715D01*
X535126Y924766D01*
X535174Y924810D01*
X535196Y924852D01*
X535225Y924889D01*
X535246Y924951D01*
X535277Y925010D01*
X535285Y925064D01*
X535297Y925101D01*
X535296Y925141D01*
X535304Y925195D01*
X535304Y929005D01*
X535293Y929070D01*
X535291Y929136D01*
X535273Y929179D01*
X535265Y929226D01*
X535231Y929283D01*
X535206Y929343D01*
X535175Y929378D01*
X535150Y929419D01*
X535099Y929461D01*
X535055Y929509D01*
X535013Y929531D01*
X534976Y929560D01*
X534914Y929581D01*
X534855Y929612D01*
X534801Y929620D01*
X534764Y929632D01*
X534724Y929631D01*
X534670Y929639D01*
X532130Y929639D01*
X532065Y929628D01*
X531999Y929626D01*
X531956Y929608D01*
X531909Y929600D01*
X531852Y929566D01*
X531792Y929541D01*
X531757Y929510D01*
X531716Y929485D01*
X531675Y929434D01*
X531626Y929390D01*
X531604Y929348D01*
X531575Y929311D01*
X531554Y929249D01*
X531523Y929190D01*
X531515Y929136D01*
X531503Y929099D01*
X531503Y929095D01*
X531503Y929094D01*
X531504Y929059D01*
X531496Y929005D01*
X531496Y925195D01*
X531507Y925130D01*
X531509Y925064D01*
X531527Y925021D01*
X531535Y924974D01*
X531569Y924917D01*
X531594Y924857D01*
X531625Y924822D01*
X531650Y924781D01*
X531701Y924740D01*
X531745Y924691D01*
X531787Y924669D01*
X531824Y924640D01*
X531886Y924619D01*
X531945Y924588D01*
X531999Y924580D01*
X532036Y924568D01*
X532076Y924569D01*
X532130Y924561D01*
X534670Y924561D01*
X534735Y924572D01*
G37*
G36*
X97855Y924572D02*
X97855Y924572D01*
X97921Y924574D01*
X97964Y924592D01*
X98011Y924600D01*
X98068Y924634D01*
X98128Y924659D01*
X98163Y924690D01*
X98204Y924715D01*
X98246Y924766D01*
X98294Y924810D01*
X98316Y924852D01*
X98345Y924889D01*
X98366Y924951D01*
X98397Y925010D01*
X98405Y925064D01*
X98417Y925101D01*
X98416Y925141D01*
X98424Y925195D01*
X98424Y929005D01*
X98413Y929070D01*
X98411Y929136D01*
X98393Y929179D01*
X98385Y929226D01*
X98351Y929283D01*
X98326Y929343D01*
X98295Y929378D01*
X98270Y929419D01*
X98219Y929461D01*
X98175Y929509D01*
X98133Y929531D01*
X98096Y929560D01*
X98034Y929581D01*
X97975Y929612D01*
X97921Y929620D01*
X97884Y929632D01*
X97844Y929631D01*
X97790Y929639D01*
X95250Y929639D01*
X95185Y929628D01*
X95119Y929626D01*
X95076Y929608D01*
X95029Y929600D01*
X94972Y929566D01*
X94912Y929541D01*
X94877Y929510D01*
X94836Y929485D01*
X94795Y929434D01*
X94746Y929390D01*
X94724Y929348D01*
X94695Y929311D01*
X94674Y929249D01*
X94643Y929190D01*
X94635Y929136D01*
X94623Y929099D01*
X94623Y929095D01*
X94623Y929094D01*
X94624Y929059D01*
X94616Y929005D01*
X94616Y925195D01*
X94627Y925130D01*
X94629Y925064D01*
X94647Y925021D01*
X94655Y924974D01*
X94689Y924917D01*
X94714Y924857D01*
X94745Y924822D01*
X94770Y924781D01*
X94821Y924740D01*
X94865Y924691D01*
X94907Y924669D01*
X94944Y924640D01*
X95006Y924619D01*
X95065Y924588D01*
X95119Y924580D01*
X95156Y924568D01*
X95196Y924569D01*
X95250Y924561D01*
X97790Y924561D01*
X97855Y924572D01*
G37*
G36*
X534735Y914412D02*
X534735Y914412D01*
X534801Y914414D01*
X534844Y914432D01*
X534891Y914440D01*
X534948Y914474D01*
X535008Y914499D01*
X535043Y914530D01*
X535084Y914555D01*
X535126Y914606D01*
X535174Y914650D01*
X535196Y914692D01*
X535225Y914729D01*
X535246Y914791D01*
X535277Y914850D01*
X535285Y914904D01*
X535297Y914941D01*
X535296Y914981D01*
X535304Y915035D01*
X535304Y918845D01*
X535293Y918910D01*
X535291Y918976D01*
X535273Y919019D01*
X535265Y919066D01*
X535231Y919123D01*
X535206Y919183D01*
X535175Y919218D01*
X535150Y919259D01*
X535099Y919301D01*
X535055Y919349D01*
X535013Y919371D01*
X534976Y919400D01*
X534914Y919421D01*
X534855Y919452D01*
X534801Y919460D01*
X534764Y919472D01*
X534724Y919471D01*
X534670Y919479D01*
X532130Y919479D01*
X532065Y919468D01*
X531999Y919466D01*
X531956Y919448D01*
X531909Y919440D01*
X531852Y919406D01*
X531792Y919381D01*
X531757Y919350D01*
X531716Y919325D01*
X531675Y919274D01*
X531626Y919230D01*
X531604Y919188D01*
X531575Y919151D01*
X531554Y919089D01*
X531523Y919030D01*
X531515Y918976D01*
X531503Y918939D01*
X531503Y918935D01*
X531503Y918934D01*
X531504Y918899D01*
X531496Y918845D01*
X531496Y915035D01*
X531507Y914970D01*
X531509Y914904D01*
X531527Y914861D01*
X531535Y914814D01*
X531569Y914757D01*
X531594Y914697D01*
X531625Y914662D01*
X531650Y914621D01*
X531701Y914580D01*
X531745Y914531D01*
X531787Y914509D01*
X531824Y914480D01*
X531886Y914459D01*
X531945Y914428D01*
X531999Y914420D01*
X532036Y914408D01*
X532076Y914409D01*
X532130Y914401D01*
X534670Y914401D01*
X534735Y914412D01*
G37*
G36*
X97855Y914412D02*
X97855Y914412D01*
X97921Y914414D01*
X97964Y914432D01*
X98011Y914440D01*
X98068Y914474D01*
X98128Y914499D01*
X98163Y914530D01*
X98204Y914555D01*
X98246Y914606D01*
X98294Y914650D01*
X98316Y914692D01*
X98345Y914729D01*
X98366Y914791D01*
X98397Y914850D01*
X98405Y914904D01*
X98417Y914941D01*
X98416Y914981D01*
X98424Y915035D01*
X98424Y918845D01*
X98413Y918910D01*
X98411Y918976D01*
X98393Y919019D01*
X98385Y919066D01*
X98351Y919123D01*
X98326Y919183D01*
X98295Y919218D01*
X98270Y919259D01*
X98219Y919301D01*
X98175Y919349D01*
X98133Y919371D01*
X98096Y919400D01*
X98034Y919421D01*
X97975Y919452D01*
X97921Y919460D01*
X97884Y919472D01*
X97844Y919471D01*
X97790Y919479D01*
X95250Y919479D01*
X95185Y919468D01*
X95119Y919466D01*
X95076Y919448D01*
X95029Y919440D01*
X94972Y919406D01*
X94912Y919381D01*
X94877Y919350D01*
X94836Y919325D01*
X94795Y919274D01*
X94746Y919230D01*
X94724Y919188D01*
X94695Y919151D01*
X94674Y919089D01*
X94643Y919030D01*
X94635Y918976D01*
X94623Y918939D01*
X94623Y918935D01*
X94623Y918934D01*
X94624Y918899D01*
X94616Y918845D01*
X94616Y915035D01*
X94627Y914970D01*
X94629Y914904D01*
X94647Y914861D01*
X94655Y914814D01*
X94689Y914757D01*
X94714Y914697D01*
X94745Y914662D01*
X94770Y914621D01*
X94821Y914580D01*
X94865Y914531D01*
X94907Y914509D01*
X94944Y914480D01*
X95006Y914459D01*
X95065Y914428D01*
X95119Y914420D01*
X95156Y914408D01*
X95196Y914409D01*
X95250Y914401D01*
X97790Y914401D01*
X97855Y914412D01*
G37*
G36*
X534735Y335292D02*
X534735Y335292D01*
X534801Y335294D01*
X534844Y335312D01*
X534891Y335320D01*
X534948Y335354D01*
X535008Y335379D01*
X535043Y335410D01*
X535084Y335435D01*
X535126Y335486D01*
X535174Y335530D01*
X535196Y335572D01*
X535225Y335609D01*
X535246Y335671D01*
X535277Y335730D01*
X535285Y335784D01*
X535297Y335821D01*
X535296Y335861D01*
X535304Y335915D01*
X535304Y339725D01*
X535293Y339790D01*
X535291Y339856D01*
X535273Y339899D01*
X535265Y339946D01*
X535231Y340003D01*
X535206Y340063D01*
X535175Y340098D01*
X535150Y340139D01*
X535099Y340181D01*
X535055Y340229D01*
X535013Y340251D01*
X534976Y340280D01*
X534914Y340301D01*
X534855Y340332D01*
X534801Y340340D01*
X534764Y340352D01*
X534724Y340351D01*
X534670Y340359D01*
X532130Y340359D01*
X532065Y340348D01*
X531999Y340346D01*
X531956Y340328D01*
X531909Y340320D01*
X531852Y340286D01*
X531792Y340261D01*
X531757Y340230D01*
X531716Y340205D01*
X531675Y340154D01*
X531626Y340110D01*
X531604Y340068D01*
X531575Y340031D01*
X531554Y339969D01*
X531523Y339910D01*
X531515Y339856D01*
X531503Y339819D01*
X531503Y339815D01*
X531503Y339814D01*
X531504Y339779D01*
X531496Y339725D01*
X531496Y335915D01*
X531507Y335850D01*
X531509Y335784D01*
X531527Y335741D01*
X531535Y335694D01*
X531569Y335637D01*
X531594Y335577D01*
X531625Y335542D01*
X531650Y335501D01*
X531701Y335460D01*
X531745Y335411D01*
X531787Y335389D01*
X531824Y335360D01*
X531886Y335339D01*
X531945Y335308D01*
X531999Y335300D01*
X532036Y335288D01*
X532076Y335289D01*
X532130Y335281D01*
X534670Y335281D01*
X534735Y335292D01*
G37*
G36*
X97855Y335292D02*
X97855Y335292D01*
X97921Y335294D01*
X97964Y335312D01*
X98011Y335320D01*
X98068Y335354D01*
X98128Y335379D01*
X98163Y335410D01*
X98204Y335435D01*
X98246Y335486D01*
X98294Y335530D01*
X98316Y335572D01*
X98345Y335609D01*
X98366Y335671D01*
X98397Y335730D01*
X98405Y335784D01*
X98417Y335821D01*
X98416Y335861D01*
X98424Y335915D01*
X98424Y339725D01*
X98413Y339790D01*
X98411Y339856D01*
X98393Y339899D01*
X98385Y339946D01*
X98351Y340003D01*
X98326Y340063D01*
X98295Y340098D01*
X98270Y340139D01*
X98219Y340181D01*
X98175Y340229D01*
X98133Y340251D01*
X98096Y340280D01*
X98034Y340301D01*
X97975Y340332D01*
X97921Y340340D01*
X97884Y340352D01*
X97844Y340351D01*
X97790Y340359D01*
X95250Y340359D01*
X95185Y340348D01*
X95119Y340346D01*
X95076Y340328D01*
X95029Y340320D01*
X94972Y340286D01*
X94912Y340261D01*
X94877Y340230D01*
X94836Y340205D01*
X94795Y340154D01*
X94746Y340110D01*
X94724Y340068D01*
X94695Y340031D01*
X94674Y339969D01*
X94643Y339910D01*
X94635Y339856D01*
X94623Y339819D01*
X94623Y339815D01*
X94623Y339814D01*
X94624Y339779D01*
X94616Y339725D01*
X94616Y335915D01*
X94627Y335850D01*
X94629Y335784D01*
X94647Y335741D01*
X94655Y335694D01*
X94689Y335637D01*
X94714Y335577D01*
X94745Y335542D01*
X94770Y335501D01*
X94821Y335460D01*
X94865Y335411D01*
X94907Y335389D01*
X94944Y335360D01*
X95006Y335339D01*
X95065Y335308D01*
X95119Y335300D01*
X95156Y335288D01*
X95196Y335289D01*
X95250Y335281D01*
X97790Y335281D01*
X97855Y335292D01*
G37*
G36*
X534735Y325132D02*
X534735Y325132D01*
X534801Y325134D01*
X534844Y325152D01*
X534891Y325160D01*
X534948Y325194D01*
X535008Y325219D01*
X535043Y325250D01*
X535084Y325275D01*
X535126Y325326D01*
X535174Y325370D01*
X535196Y325412D01*
X535225Y325449D01*
X535246Y325511D01*
X535277Y325570D01*
X535285Y325624D01*
X535297Y325661D01*
X535296Y325701D01*
X535304Y325755D01*
X535304Y329565D01*
X535293Y329630D01*
X535291Y329696D01*
X535273Y329739D01*
X535265Y329786D01*
X535231Y329843D01*
X535206Y329903D01*
X535175Y329938D01*
X535150Y329979D01*
X535099Y330021D01*
X535055Y330069D01*
X535013Y330091D01*
X534976Y330120D01*
X534914Y330141D01*
X534855Y330172D01*
X534801Y330180D01*
X534764Y330192D01*
X534724Y330191D01*
X534670Y330199D01*
X532130Y330199D01*
X532065Y330188D01*
X531999Y330186D01*
X531956Y330168D01*
X531909Y330160D01*
X531852Y330126D01*
X531792Y330101D01*
X531757Y330070D01*
X531716Y330045D01*
X531675Y329994D01*
X531626Y329950D01*
X531604Y329908D01*
X531575Y329871D01*
X531554Y329809D01*
X531523Y329750D01*
X531515Y329696D01*
X531503Y329659D01*
X531503Y329655D01*
X531503Y329654D01*
X531504Y329619D01*
X531496Y329565D01*
X531496Y325755D01*
X531507Y325690D01*
X531509Y325624D01*
X531527Y325581D01*
X531535Y325534D01*
X531569Y325477D01*
X531594Y325417D01*
X531625Y325382D01*
X531650Y325341D01*
X531701Y325300D01*
X531745Y325251D01*
X531787Y325229D01*
X531824Y325200D01*
X531886Y325179D01*
X531945Y325148D01*
X531999Y325140D01*
X532036Y325128D01*
X532076Y325129D01*
X532130Y325121D01*
X534670Y325121D01*
X534735Y325132D01*
G37*
G36*
X97855Y325132D02*
X97855Y325132D01*
X97921Y325134D01*
X97964Y325152D01*
X98011Y325160D01*
X98068Y325194D01*
X98128Y325219D01*
X98163Y325250D01*
X98204Y325275D01*
X98246Y325326D01*
X98294Y325370D01*
X98316Y325412D01*
X98345Y325449D01*
X98366Y325511D01*
X98397Y325570D01*
X98405Y325624D01*
X98417Y325661D01*
X98416Y325701D01*
X98424Y325755D01*
X98424Y329565D01*
X98413Y329630D01*
X98411Y329696D01*
X98393Y329739D01*
X98385Y329786D01*
X98351Y329843D01*
X98326Y329903D01*
X98295Y329938D01*
X98270Y329979D01*
X98219Y330021D01*
X98175Y330069D01*
X98133Y330091D01*
X98096Y330120D01*
X98034Y330141D01*
X97975Y330172D01*
X97921Y330180D01*
X97884Y330192D01*
X97844Y330191D01*
X97790Y330199D01*
X95250Y330199D01*
X95185Y330188D01*
X95119Y330186D01*
X95076Y330168D01*
X95029Y330160D01*
X94972Y330126D01*
X94912Y330101D01*
X94877Y330070D01*
X94836Y330045D01*
X94795Y329994D01*
X94746Y329950D01*
X94724Y329908D01*
X94695Y329871D01*
X94674Y329809D01*
X94643Y329750D01*
X94635Y329696D01*
X94623Y329659D01*
X94623Y329655D01*
X94623Y329654D01*
X94624Y329619D01*
X94616Y329565D01*
X94616Y325755D01*
X94627Y325690D01*
X94629Y325624D01*
X94647Y325581D01*
X94655Y325534D01*
X94689Y325477D01*
X94714Y325417D01*
X94745Y325382D01*
X94770Y325341D01*
X94821Y325300D01*
X94865Y325251D01*
X94907Y325229D01*
X94944Y325200D01*
X95006Y325179D01*
X95065Y325148D01*
X95119Y325140D01*
X95156Y325128D01*
X95196Y325129D01*
X95250Y325121D01*
X97790Y325121D01*
X97855Y325132D01*
G37*
G36*
X610300Y478167D02*
X610300Y478167D01*
X610366Y478169D01*
X610409Y478187D01*
X610456Y478195D01*
X610513Y478229D01*
X610573Y478254D01*
X610608Y478285D01*
X610649Y478310D01*
X610691Y478361D01*
X610739Y478405D01*
X610761Y478447D01*
X610790Y478484D01*
X610811Y478546D01*
X610842Y478605D01*
X610850Y478659D01*
X610862Y478696D01*
X610861Y478736D01*
X610869Y478790D01*
X610869Y481330D01*
X610858Y481395D01*
X610856Y481461D01*
X610838Y481504D01*
X610830Y481551D01*
X610796Y481608D01*
X610771Y481668D01*
X610740Y481703D01*
X610715Y481744D01*
X610664Y481786D01*
X610620Y481834D01*
X610578Y481856D01*
X610541Y481885D01*
X610479Y481906D01*
X610420Y481937D01*
X610366Y481945D01*
X610329Y481957D01*
X610289Y481956D01*
X610235Y481964D01*
X606425Y481964D01*
X606360Y481953D01*
X606294Y481951D01*
X606251Y481933D01*
X606204Y481925D01*
X606147Y481891D01*
X606087Y481866D01*
X606052Y481835D01*
X606011Y481810D01*
X605970Y481759D01*
X605921Y481715D01*
X605899Y481673D01*
X605870Y481636D01*
X605849Y481574D01*
X605818Y481515D01*
X605810Y481461D01*
X605798Y481424D01*
X605798Y481421D01*
X605799Y481384D01*
X605791Y481330D01*
X605791Y478790D01*
X605802Y478725D01*
X605804Y478659D01*
X605822Y478616D01*
X605830Y478569D01*
X605864Y478512D01*
X605889Y478452D01*
X605920Y478417D01*
X605945Y478376D01*
X605996Y478335D01*
X606040Y478286D01*
X606082Y478264D01*
X606119Y478235D01*
X606181Y478214D01*
X606240Y478183D01*
X606294Y478175D01*
X606331Y478163D01*
X606371Y478164D01*
X606425Y478156D01*
X610235Y478156D01*
X610300Y478167D01*
G37*
G36*
X173420Y478167D02*
X173420Y478167D01*
X173486Y478169D01*
X173529Y478187D01*
X173576Y478195D01*
X173633Y478229D01*
X173693Y478254D01*
X173728Y478285D01*
X173769Y478310D01*
X173811Y478361D01*
X173859Y478405D01*
X173881Y478447D01*
X173910Y478484D01*
X173931Y478546D01*
X173962Y478605D01*
X173970Y478659D01*
X173982Y478696D01*
X173981Y478736D01*
X173989Y478790D01*
X173989Y481330D01*
X173978Y481395D01*
X173976Y481461D01*
X173958Y481504D01*
X173950Y481551D01*
X173916Y481608D01*
X173891Y481668D01*
X173860Y481703D01*
X173835Y481744D01*
X173784Y481786D01*
X173740Y481834D01*
X173698Y481856D01*
X173661Y481885D01*
X173599Y481906D01*
X173540Y481937D01*
X173486Y481945D01*
X173449Y481957D01*
X173409Y481956D01*
X173355Y481964D01*
X169545Y481964D01*
X169480Y481953D01*
X169414Y481951D01*
X169371Y481933D01*
X169324Y481925D01*
X169267Y481891D01*
X169207Y481866D01*
X169172Y481835D01*
X169131Y481810D01*
X169090Y481759D01*
X169041Y481715D01*
X169019Y481673D01*
X168990Y481636D01*
X168969Y481574D01*
X168938Y481515D01*
X168930Y481461D01*
X168918Y481424D01*
X168918Y481421D01*
X168919Y481384D01*
X168911Y481330D01*
X168911Y478790D01*
X168922Y478725D01*
X168924Y478659D01*
X168942Y478616D01*
X168950Y478569D01*
X168984Y478512D01*
X169009Y478452D01*
X169040Y478417D01*
X169065Y478376D01*
X169116Y478335D01*
X169160Y478286D01*
X169202Y478264D01*
X169239Y478235D01*
X169301Y478214D01*
X169360Y478183D01*
X169414Y478175D01*
X169451Y478163D01*
X169491Y478164D01*
X169545Y478156D01*
X173355Y478156D01*
X173420Y478167D01*
G37*
G36*
X610300Y1067447D02*
X610300Y1067447D01*
X610366Y1067449D01*
X610409Y1067467D01*
X610456Y1067475D01*
X610513Y1067509D01*
X610573Y1067534D01*
X610608Y1067565D01*
X610649Y1067590D01*
X610691Y1067641D01*
X610739Y1067685D01*
X610761Y1067727D01*
X610790Y1067764D01*
X610811Y1067826D01*
X610842Y1067885D01*
X610850Y1067939D01*
X610862Y1067976D01*
X610861Y1068016D01*
X610869Y1068070D01*
X610869Y1070610D01*
X610858Y1070675D01*
X610856Y1070741D01*
X610838Y1070784D01*
X610830Y1070831D01*
X610796Y1070888D01*
X610771Y1070948D01*
X610740Y1070983D01*
X610715Y1071024D01*
X610664Y1071066D01*
X610620Y1071114D01*
X610578Y1071136D01*
X610541Y1071165D01*
X610479Y1071186D01*
X610420Y1071217D01*
X610366Y1071225D01*
X610329Y1071237D01*
X610289Y1071236D01*
X610235Y1071244D01*
X606425Y1071244D01*
X606360Y1071233D01*
X606294Y1071231D01*
X606251Y1071213D01*
X606204Y1071205D01*
X606147Y1071171D01*
X606087Y1071146D01*
X606052Y1071115D01*
X606011Y1071090D01*
X605970Y1071039D01*
X605921Y1070995D01*
X605899Y1070953D01*
X605870Y1070916D01*
X605849Y1070854D01*
X605818Y1070795D01*
X605810Y1070741D01*
X605798Y1070704D01*
X605798Y1070701D01*
X605799Y1070664D01*
X605791Y1070610D01*
X605791Y1068070D01*
X605802Y1068005D01*
X605804Y1067939D01*
X605822Y1067896D01*
X605830Y1067849D01*
X605864Y1067792D01*
X605889Y1067732D01*
X605920Y1067697D01*
X605945Y1067656D01*
X605996Y1067615D01*
X606040Y1067566D01*
X606082Y1067544D01*
X606119Y1067515D01*
X606181Y1067494D01*
X606240Y1067463D01*
X606294Y1067455D01*
X606331Y1067443D01*
X606371Y1067444D01*
X606425Y1067436D01*
X610235Y1067436D01*
X610300Y1067447D01*
G37*
G36*
X173420Y1067447D02*
X173420Y1067447D01*
X173486Y1067449D01*
X173529Y1067467D01*
X173576Y1067475D01*
X173633Y1067509D01*
X173693Y1067534D01*
X173728Y1067565D01*
X173769Y1067590D01*
X173811Y1067641D01*
X173859Y1067685D01*
X173881Y1067727D01*
X173910Y1067764D01*
X173931Y1067826D01*
X173962Y1067885D01*
X173970Y1067939D01*
X173982Y1067976D01*
X173981Y1068016D01*
X173989Y1068070D01*
X173989Y1070610D01*
X173978Y1070675D01*
X173976Y1070741D01*
X173958Y1070784D01*
X173950Y1070831D01*
X173916Y1070888D01*
X173891Y1070948D01*
X173860Y1070983D01*
X173835Y1071024D01*
X173784Y1071066D01*
X173740Y1071114D01*
X173698Y1071136D01*
X173661Y1071165D01*
X173599Y1071186D01*
X173540Y1071217D01*
X173486Y1071225D01*
X173449Y1071237D01*
X173409Y1071236D01*
X173355Y1071244D01*
X169545Y1071244D01*
X169480Y1071233D01*
X169414Y1071231D01*
X169371Y1071213D01*
X169324Y1071205D01*
X169267Y1071171D01*
X169207Y1071146D01*
X169172Y1071115D01*
X169131Y1071090D01*
X169090Y1071039D01*
X169041Y1070995D01*
X169019Y1070953D01*
X168990Y1070916D01*
X168969Y1070854D01*
X168938Y1070795D01*
X168930Y1070741D01*
X168918Y1070704D01*
X168918Y1070701D01*
X168919Y1070664D01*
X168911Y1070610D01*
X168911Y1068070D01*
X168922Y1068005D01*
X168924Y1067939D01*
X168942Y1067896D01*
X168950Y1067849D01*
X168984Y1067792D01*
X169009Y1067732D01*
X169040Y1067697D01*
X169065Y1067656D01*
X169116Y1067615D01*
X169160Y1067566D01*
X169202Y1067544D01*
X169239Y1067515D01*
X169301Y1067494D01*
X169360Y1067463D01*
X169414Y1067455D01*
X169451Y1067443D01*
X169491Y1067444D01*
X169545Y1067436D01*
X173355Y1067436D01*
X173420Y1067447D01*
G37*
G36*
X723330Y603389D02*
X723330Y603389D01*
X723396Y603391D01*
X723439Y603409D01*
X723486Y603417D01*
X723543Y603451D01*
X723603Y603476D01*
X723638Y603507D01*
X723679Y603532D01*
X723721Y603583D01*
X723769Y603627D01*
X723791Y603669D01*
X723820Y603706D01*
X723841Y603768D01*
X723872Y603827D01*
X723880Y603881D01*
X723892Y603918D01*
X723891Y603958D01*
X723899Y604012D01*
X723899Y606552D01*
X723888Y606617D01*
X723886Y606683D01*
X723868Y606726D01*
X723860Y606773D01*
X723826Y606830D01*
X723801Y606890D01*
X723770Y606925D01*
X723745Y606966D01*
X723694Y607008D01*
X723650Y607056D01*
X723608Y607078D01*
X723571Y607107D01*
X723509Y607128D01*
X723450Y607159D01*
X723396Y607167D01*
X723359Y607179D01*
X723319Y607178D01*
X723265Y607186D01*
X719455Y607186D01*
X719390Y607175D01*
X719324Y607173D01*
X719281Y607155D01*
X719234Y607147D01*
X719177Y607113D01*
X719117Y607088D01*
X719082Y607057D01*
X719041Y607032D01*
X719000Y606981D01*
X718951Y606937D01*
X718929Y606895D01*
X718900Y606858D01*
X718879Y606796D01*
X718848Y606737D01*
X718840Y606683D01*
X718828Y606646D01*
X718828Y606643D01*
X718829Y606606D01*
X718821Y606552D01*
X718821Y604012D01*
X718832Y603947D01*
X718834Y603881D01*
X718852Y603838D01*
X718860Y603791D01*
X718894Y603734D01*
X718919Y603674D01*
X718950Y603639D01*
X718975Y603598D01*
X719026Y603557D01*
X719070Y603508D01*
X719112Y603486D01*
X719149Y603457D01*
X719211Y603436D01*
X719270Y603405D01*
X719324Y603397D01*
X719361Y603385D01*
X719401Y603386D01*
X719455Y603378D01*
X723265Y603378D01*
X723330Y603389D01*
G37*
G36*
X323280Y603389D02*
X323280Y603389D01*
X323346Y603391D01*
X323389Y603409D01*
X323436Y603417D01*
X323493Y603451D01*
X323553Y603476D01*
X323588Y603507D01*
X323629Y603532D01*
X323671Y603583D01*
X323719Y603627D01*
X323741Y603669D01*
X323770Y603706D01*
X323791Y603768D01*
X323822Y603827D01*
X323830Y603881D01*
X323842Y603918D01*
X323841Y603958D01*
X323849Y604012D01*
X323849Y606552D01*
X323838Y606617D01*
X323836Y606683D01*
X323818Y606726D01*
X323810Y606773D01*
X323776Y606830D01*
X323751Y606890D01*
X323720Y606925D01*
X323695Y606966D01*
X323644Y607008D01*
X323600Y607056D01*
X323558Y607078D01*
X323521Y607107D01*
X323459Y607128D01*
X323400Y607159D01*
X323346Y607167D01*
X323309Y607179D01*
X323269Y607178D01*
X323215Y607186D01*
X319405Y607186D01*
X319340Y607175D01*
X319274Y607173D01*
X319231Y607155D01*
X319184Y607147D01*
X319127Y607113D01*
X319067Y607088D01*
X319032Y607057D01*
X318991Y607032D01*
X318950Y606981D01*
X318901Y606937D01*
X318879Y606895D01*
X318850Y606858D01*
X318829Y606796D01*
X318798Y606737D01*
X318790Y606683D01*
X318778Y606646D01*
X318778Y606643D01*
X318779Y606606D01*
X318771Y606552D01*
X318771Y604012D01*
X318782Y603947D01*
X318784Y603881D01*
X318802Y603838D01*
X318810Y603791D01*
X318844Y603734D01*
X318869Y603674D01*
X318900Y603639D01*
X318925Y603598D01*
X318976Y603557D01*
X319020Y603508D01*
X319062Y603486D01*
X319099Y603457D01*
X319161Y603436D01*
X319220Y603405D01*
X319274Y603397D01*
X319311Y603385D01*
X319351Y603386D01*
X319405Y603378D01*
X323215Y603378D01*
X323280Y603389D01*
G37*
G36*
X799530Y603389D02*
X799530Y603389D01*
X799596Y603391D01*
X799639Y603409D01*
X799686Y603417D01*
X799743Y603451D01*
X799803Y603476D01*
X799838Y603507D01*
X799879Y603532D01*
X799921Y603583D01*
X799969Y603627D01*
X799991Y603669D01*
X800020Y603706D01*
X800041Y603768D01*
X800072Y603827D01*
X800080Y603881D01*
X800092Y603918D01*
X800091Y603958D01*
X800099Y604012D01*
X800099Y606552D01*
X800088Y606617D01*
X800086Y606683D01*
X800068Y606726D01*
X800060Y606773D01*
X800026Y606830D01*
X800001Y606890D01*
X799970Y606925D01*
X799945Y606966D01*
X799894Y607008D01*
X799850Y607056D01*
X799808Y607078D01*
X799771Y607107D01*
X799709Y607128D01*
X799650Y607159D01*
X799596Y607167D01*
X799559Y607179D01*
X799519Y607178D01*
X799465Y607186D01*
X795655Y607186D01*
X795590Y607175D01*
X795524Y607173D01*
X795481Y607155D01*
X795434Y607147D01*
X795377Y607113D01*
X795317Y607088D01*
X795282Y607057D01*
X795241Y607032D01*
X795200Y606981D01*
X795151Y606937D01*
X795129Y606895D01*
X795100Y606858D01*
X795079Y606796D01*
X795048Y606737D01*
X795040Y606683D01*
X795028Y606646D01*
X795028Y606643D01*
X795029Y606606D01*
X795021Y606552D01*
X795021Y604012D01*
X795032Y603947D01*
X795034Y603881D01*
X795052Y603838D01*
X795060Y603791D01*
X795094Y603734D01*
X795119Y603674D01*
X795150Y603639D01*
X795175Y603598D01*
X795226Y603557D01*
X795270Y603508D01*
X795312Y603486D01*
X795349Y603457D01*
X795411Y603436D01*
X795470Y603405D01*
X795524Y603397D01*
X795561Y603385D01*
X795601Y603386D01*
X795655Y603378D01*
X799465Y603378D01*
X799530Y603389D01*
G37*
G36*
X286450Y603389D02*
X286450Y603389D01*
X286516Y603391D01*
X286559Y603409D01*
X286606Y603417D01*
X286663Y603451D01*
X286723Y603476D01*
X286758Y603507D01*
X286799Y603532D01*
X286841Y603583D01*
X286889Y603627D01*
X286911Y603669D01*
X286940Y603706D01*
X286961Y603768D01*
X286992Y603827D01*
X287000Y603881D01*
X287012Y603918D01*
X287011Y603958D01*
X287019Y604012D01*
X287019Y606552D01*
X287008Y606617D01*
X287006Y606683D01*
X286988Y606726D01*
X286980Y606773D01*
X286946Y606830D01*
X286921Y606890D01*
X286890Y606925D01*
X286865Y606966D01*
X286814Y607008D01*
X286770Y607056D01*
X286728Y607078D01*
X286691Y607107D01*
X286629Y607128D01*
X286570Y607159D01*
X286516Y607167D01*
X286479Y607179D01*
X286439Y607178D01*
X286385Y607186D01*
X282575Y607186D01*
X282510Y607175D01*
X282444Y607173D01*
X282401Y607155D01*
X282354Y607147D01*
X282297Y607113D01*
X282237Y607088D01*
X282202Y607057D01*
X282161Y607032D01*
X282120Y606981D01*
X282071Y606937D01*
X282049Y606895D01*
X282020Y606858D01*
X281999Y606796D01*
X281968Y606737D01*
X281960Y606683D01*
X281948Y606646D01*
X281948Y606643D01*
X281949Y606606D01*
X281941Y606552D01*
X281941Y604012D01*
X281952Y603947D01*
X281954Y603881D01*
X281972Y603838D01*
X281980Y603791D01*
X282014Y603734D01*
X282039Y603674D01*
X282070Y603639D01*
X282095Y603598D01*
X282146Y603557D01*
X282190Y603508D01*
X282232Y603486D01*
X282269Y603457D01*
X282331Y603436D01*
X282390Y603405D01*
X282444Y603397D01*
X282481Y603385D01*
X282521Y603386D01*
X282575Y603378D01*
X286385Y603378D01*
X286450Y603389D01*
G37*
G36*
X248350Y603389D02*
X248350Y603389D01*
X248416Y603391D01*
X248459Y603409D01*
X248506Y603417D01*
X248563Y603451D01*
X248623Y603476D01*
X248658Y603507D01*
X248699Y603532D01*
X248741Y603583D01*
X248789Y603627D01*
X248811Y603669D01*
X248840Y603706D01*
X248861Y603768D01*
X248892Y603827D01*
X248900Y603881D01*
X248912Y603918D01*
X248911Y603958D01*
X248919Y604012D01*
X248919Y606552D01*
X248908Y606617D01*
X248906Y606683D01*
X248888Y606726D01*
X248880Y606773D01*
X248846Y606830D01*
X248821Y606890D01*
X248790Y606925D01*
X248765Y606966D01*
X248714Y607008D01*
X248670Y607056D01*
X248628Y607078D01*
X248591Y607107D01*
X248529Y607128D01*
X248470Y607159D01*
X248416Y607167D01*
X248379Y607179D01*
X248339Y607178D01*
X248285Y607186D01*
X244475Y607186D01*
X244410Y607175D01*
X244344Y607173D01*
X244301Y607155D01*
X244254Y607147D01*
X244197Y607113D01*
X244137Y607088D01*
X244102Y607057D01*
X244061Y607032D01*
X244020Y606981D01*
X243971Y606937D01*
X243949Y606895D01*
X243920Y606858D01*
X243899Y606796D01*
X243868Y606737D01*
X243860Y606683D01*
X243848Y606646D01*
X243848Y606643D01*
X243849Y606606D01*
X243841Y606552D01*
X243841Y604012D01*
X243852Y603947D01*
X243854Y603881D01*
X243872Y603838D01*
X243880Y603791D01*
X243914Y603734D01*
X243939Y603674D01*
X243970Y603639D01*
X243995Y603598D01*
X244046Y603557D01*
X244090Y603508D01*
X244132Y603486D01*
X244169Y603457D01*
X244231Y603436D01*
X244290Y603405D01*
X244344Y603397D01*
X244381Y603385D01*
X244421Y603386D01*
X244475Y603378D01*
X248285Y603378D01*
X248350Y603389D01*
G37*
G36*
X362650Y603389D02*
X362650Y603389D01*
X362716Y603391D01*
X362759Y603409D01*
X362806Y603417D01*
X362863Y603451D01*
X362923Y603476D01*
X362958Y603507D01*
X362999Y603532D01*
X363041Y603583D01*
X363089Y603627D01*
X363111Y603669D01*
X363140Y603706D01*
X363161Y603768D01*
X363192Y603827D01*
X363200Y603881D01*
X363212Y603918D01*
X363211Y603958D01*
X363219Y604012D01*
X363219Y606552D01*
X363208Y606617D01*
X363206Y606683D01*
X363188Y606726D01*
X363180Y606773D01*
X363146Y606830D01*
X363121Y606890D01*
X363090Y606925D01*
X363065Y606966D01*
X363014Y607008D01*
X362970Y607056D01*
X362928Y607078D01*
X362891Y607107D01*
X362829Y607128D01*
X362770Y607159D01*
X362716Y607167D01*
X362679Y607179D01*
X362639Y607178D01*
X362585Y607186D01*
X358775Y607186D01*
X358710Y607175D01*
X358644Y607173D01*
X358601Y607155D01*
X358554Y607147D01*
X358497Y607113D01*
X358437Y607088D01*
X358402Y607057D01*
X358361Y607032D01*
X358320Y606981D01*
X358271Y606937D01*
X358249Y606895D01*
X358220Y606858D01*
X358199Y606796D01*
X358168Y606737D01*
X358160Y606683D01*
X358148Y606646D01*
X358148Y606643D01*
X358149Y606606D01*
X358141Y606552D01*
X358141Y604012D01*
X358152Y603947D01*
X358154Y603881D01*
X358172Y603838D01*
X358180Y603791D01*
X358214Y603734D01*
X358239Y603674D01*
X358270Y603639D01*
X358295Y603598D01*
X358346Y603557D01*
X358390Y603508D01*
X358432Y603486D01*
X358469Y603457D01*
X358531Y603436D01*
X358590Y603405D01*
X358644Y603397D01*
X358681Y603385D01*
X358721Y603386D01*
X358775Y603378D01*
X362585Y603378D01*
X362650Y603389D01*
G37*
G36*
X685230Y603389D02*
X685230Y603389D01*
X685296Y603391D01*
X685339Y603409D01*
X685386Y603417D01*
X685443Y603451D01*
X685503Y603476D01*
X685538Y603507D01*
X685579Y603532D01*
X685621Y603583D01*
X685669Y603627D01*
X685691Y603669D01*
X685720Y603706D01*
X685741Y603768D01*
X685772Y603827D01*
X685780Y603881D01*
X685792Y603918D01*
X685791Y603958D01*
X685799Y604012D01*
X685799Y606552D01*
X685788Y606617D01*
X685786Y606683D01*
X685768Y606726D01*
X685760Y606773D01*
X685726Y606830D01*
X685701Y606890D01*
X685670Y606925D01*
X685645Y606966D01*
X685594Y607008D01*
X685550Y607056D01*
X685508Y607078D01*
X685471Y607107D01*
X685409Y607128D01*
X685350Y607159D01*
X685296Y607167D01*
X685259Y607179D01*
X685219Y607178D01*
X685165Y607186D01*
X681355Y607186D01*
X681290Y607175D01*
X681224Y607173D01*
X681181Y607155D01*
X681134Y607147D01*
X681077Y607113D01*
X681017Y607088D01*
X680982Y607057D01*
X680941Y607032D01*
X680900Y606981D01*
X680851Y606937D01*
X680829Y606895D01*
X680800Y606858D01*
X680779Y606796D01*
X680748Y606737D01*
X680740Y606683D01*
X680728Y606646D01*
X680728Y606643D01*
X680729Y606606D01*
X680721Y606552D01*
X680721Y604012D01*
X680732Y603947D01*
X680734Y603881D01*
X680752Y603838D01*
X680760Y603791D01*
X680794Y603734D01*
X680819Y603674D01*
X680850Y603639D01*
X680875Y603598D01*
X680926Y603557D01*
X680970Y603508D01*
X681012Y603486D01*
X681049Y603457D01*
X681111Y603436D01*
X681170Y603405D01*
X681224Y603397D01*
X681261Y603385D01*
X681301Y603386D01*
X681355Y603378D01*
X685165Y603378D01*
X685230Y603389D01*
G37*
G36*
X760160Y603389D02*
X760160Y603389D01*
X760226Y603391D01*
X760269Y603409D01*
X760316Y603417D01*
X760373Y603451D01*
X760433Y603476D01*
X760468Y603507D01*
X760509Y603532D01*
X760551Y603583D01*
X760599Y603627D01*
X760621Y603669D01*
X760650Y603706D01*
X760671Y603768D01*
X760702Y603827D01*
X760710Y603881D01*
X760722Y603918D01*
X760721Y603958D01*
X760729Y604012D01*
X760729Y606552D01*
X760718Y606617D01*
X760716Y606683D01*
X760698Y606726D01*
X760690Y606773D01*
X760656Y606830D01*
X760631Y606890D01*
X760600Y606925D01*
X760575Y606966D01*
X760524Y607008D01*
X760480Y607056D01*
X760438Y607078D01*
X760401Y607107D01*
X760339Y607128D01*
X760280Y607159D01*
X760226Y607167D01*
X760189Y607179D01*
X760149Y607178D01*
X760095Y607186D01*
X756285Y607186D01*
X756220Y607175D01*
X756154Y607173D01*
X756111Y607155D01*
X756064Y607147D01*
X756007Y607113D01*
X755947Y607088D01*
X755912Y607057D01*
X755871Y607032D01*
X755830Y606981D01*
X755781Y606937D01*
X755759Y606895D01*
X755730Y606858D01*
X755709Y606796D01*
X755678Y606737D01*
X755670Y606683D01*
X755658Y606646D01*
X755658Y606643D01*
X755659Y606606D01*
X755651Y606552D01*
X755651Y604012D01*
X755662Y603947D01*
X755664Y603881D01*
X755682Y603838D01*
X755690Y603791D01*
X755724Y603734D01*
X755749Y603674D01*
X755780Y603639D01*
X755805Y603598D01*
X755856Y603557D01*
X755900Y603508D01*
X755942Y603486D01*
X755979Y603457D01*
X756041Y603436D01*
X756100Y603405D01*
X756154Y603397D01*
X756191Y603385D01*
X756231Y603386D01*
X756285Y603378D01*
X760095Y603378D01*
X760160Y603389D01*
G37*
G36*
X760160Y14109D02*
X760160Y14109D01*
X760226Y14111D01*
X760269Y14129D01*
X760316Y14137D01*
X760373Y14171D01*
X760433Y14196D01*
X760468Y14227D01*
X760509Y14252D01*
X760551Y14303D01*
X760599Y14347D01*
X760621Y14389D01*
X760650Y14426D01*
X760671Y14488D01*
X760702Y14547D01*
X760710Y14601D01*
X760722Y14638D01*
X760721Y14678D01*
X760729Y14732D01*
X760729Y17272D01*
X760718Y17337D01*
X760716Y17403D01*
X760698Y17446D01*
X760690Y17493D01*
X760656Y17550D01*
X760631Y17610D01*
X760600Y17645D01*
X760575Y17686D01*
X760524Y17728D01*
X760480Y17776D01*
X760438Y17798D01*
X760401Y17827D01*
X760339Y17848D01*
X760280Y17879D01*
X760226Y17887D01*
X760189Y17899D01*
X760149Y17898D01*
X760095Y17906D01*
X756285Y17906D01*
X756220Y17895D01*
X756154Y17893D01*
X756111Y17875D01*
X756064Y17867D01*
X756007Y17833D01*
X755947Y17808D01*
X755912Y17777D01*
X755871Y17752D01*
X755830Y17701D01*
X755781Y17657D01*
X755759Y17615D01*
X755730Y17578D01*
X755709Y17516D01*
X755678Y17457D01*
X755670Y17403D01*
X755658Y17366D01*
X755658Y17363D01*
X755659Y17326D01*
X755651Y17272D01*
X755651Y14732D01*
X755662Y14667D01*
X755664Y14601D01*
X755682Y14558D01*
X755690Y14511D01*
X755724Y14454D01*
X755749Y14394D01*
X755780Y14359D01*
X755805Y14318D01*
X755856Y14277D01*
X755900Y14228D01*
X755942Y14206D01*
X755979Y14177D01*
X756041Y14156D01*
X756100Y14125D01*
X756154Y14117D01*
X756191Y14105D01*
X756231Y14106D01*
X756285Y14098D01*
X760095Y14098D01*
X760160Y14109D01*
G37*
G36*
X685230Y14109D02*
X685230Y14109D01*
X685296Y14111D01*
X685339Y14129D01*
X685386Y14137D01*
X685443Y14171D01*
X685503Y14196D01*
X685538Y14227D01*
X685579Y14252D01*
X685621Y14303D01*
X685669Y14347D01*
X685691Y14389D01*
X685720Y14426D01*
X685741Y14488D01*
X685772Y14547D01*
X685780Y14601D01*
X685792Y14638D01*
X685791Y14678D01*
X685799Y14732D01*
X685799Y17272D01*
X685788Y17337D01*
X685786Y17403D01*
X685768Y17446D01*
X685760Y17493D01*
X685726Y17550D01*
X685701Y17610D01*
X685670Y17645D01*
X685645Y17686D01*
X685594Y17728D01*
X685550Y17776D01*
X685508Y17798D01*
X685471Y17827D01*
X685409Y17848D01*
X685350Y17879D01*
X685296Y17887D01*
X685259Y17899D01*
X685219Y17898D01*
X685165Y17906D01*
X681355Y17906D01*
X681290Y17895D01*
X681224Y17893D01*
X681181Y17875D01*
X681134Y17867D01*
X681077Y17833D01*
X681017Y17808D01*
X680982Y17777D01*
X680941Y17752D01*
X680900Y17701D01*
X680851Y17657D01*
X680829Y17615D01*
X680800Y17578D01*
X680779Y17516D01*
X680748Y17457D01*
X680740Y17403D01*
X680728Y17366D01*
X680728Y17363D01*
X680729Y17326D01*
X680721Y17272D01*
X680721Y14732D01*
X680732Y14667D01*
X680734Y14601D01*
X680752Y14558D01*
X680760Y14511D01*
X680794Y14454D01*
X680819Y14394D01*
X680850Y14359D01*
X680875Y14318D01*
X680926Y14277D01*
X680970Y14228D01*
X681012Y14206D01*
X681049Y14177D01*
X681111Y14156D01*
X681170Y14125D01*
X681224Y14117D01*
X681261Y14105D01*
X681301Y14106D01*
X681355Y14098D01*
X685165Y14098D01*
X685230Y14109D01*
G37*
G36*
X799530Y14109D02*
X799530Y14109D01*
X799596Y14111D01*
X799639Y14129D01*
X799686Y14137D01*
X799743Y14171D01*
X799803Y14196D01*
X799838Y14227D01*
X799879Y14252D01*
X799921Y14303D01*
X799969Y14347D01*
X799991Y14389D01*
X800020Y14426D01*
X800041Y14488D01*
X800072Y14547D01*
X800080Y14601D01*
X800092Y14638D01*
X800091Y14678D01*
X800099Y14732D01*
X800099Y17272D01*
X800088Y17337D01*
X800086Y17403D01*
X800068Y17446D01*
X800060Y17493D01*
X800026Y17550D01*
X800001Y17610D01*
X799970Y17645D01*
X799945Y17686D01*
X799894Y17728D01*
X799850Y17776D01*
X799808Y17798D01*
X799771Y17827D01*
X799709Y17848D01*
X799650Y17879D01*
X799596Y17887D01*
X799559Y17899D01*
X799519Y17898D01*
X799465Y17906D01*
X795655Y17906D01*
X795590Y17895D01*
X795524Y17893D01*
X795481Y17875D01*
X795434Y17867D01*
X795377Y17833D01*
X795317Y17808D01*
X795282Y17777D01*
X795241Y17752D01*
X795200Y17701D01*
X795151Y17657D01*
X795129Y17615D01*
X795100Y17578D01*
X795079Y17516D01*
X795048Y17457D01*
X795040Y17403D01*
X795028Y17366D01*
X795028Y17363D01*
X795029Y17326D01*
X795021Y17272D01*
X795021Y14732D01*
X795032Y14667D01*
X795034Y14601D01*
X795052Y14558D01*
X795060Y14511D01*
X795094Y14454D01*
X795119Y14394D01*
X795150Y14359D01*
X795175Y14318D01*
X795226Y14277D01*
X795270Y14228D01*
X795312Y14206D01*
X795349Y14177D01*
X795411Y14156D01*
X795470Y14125D01*
X795524Y14117D01*
X795561Y14105D01*
X795601Y14106D01*
X795655Y14098D01*
X799465Y14098D01*
X799530Y14109D01*
G37*
G36*
X248350Y14109D02*
X248350Y14109D01*
X248416Y14111D01*
X248459Y14129D01*
X248506Y14137D01*
X248563Y14171D01*
X248623Y14196D01*
X248658Y14227D01*
X248699Y14252D01*
X248741Y14303D01*
X248789Y14347D01*
X248811Y14389D01*
X248840Y14426D01*
X248861Y14488D01*
X248892Y14547D01*
X248900Y14601D01*
X248912Y14638D01*
X248911Y14678D01*
X248919Y14732D01*
X248919Y17272D01*
X248908Y17337D01*
X248906Y17403D01*
X248888Y17446D01*
X248880Y17493D01*
X248846Y17550D01*
X248821Y17610D01*
X248790Y17645D01*
X248765Y17686D01*
X248714Y17728D01*
X248670Y17776D01*
X248628Y17798D01*
X248591Y17827D01*
X248529Y17848D01*
X248470Y17879D01*
X248416Y17887D01*
X248379Y17899D01*
X248339Y17898D01*
X248285Y17906D01*
X244475Y17906D01*
X244410Y17895D01*
X244344Y17893D01*
X244301Y17875D01*
X244254Y17867D01*
X244197Y17833D01*
X244137Y17808D01*
X244102Y17777D01*
X244061Y17752D01*
X244020Y17701D01*
X243971Y17657D01*
X243949Y17615D01*
X243920Y17578D01*
X243899Y17516D01*
X243868Y17457D01*
X243860Y17403D01*
X243848Y17366D01*
X243848Y17363D01*
X243849Y17326D01*
X243841Y17272D01*
X243841Y14732D01*
X243852Y14667D01*
X243854Y14601D01*
X243872Y14558D01*
X243880Y14511D01*
X243914Y14454D01*
X243939Y14394D01*
X243970Y14359D01*
X243995Y14318D01*
X244046Y14277D01*
X244090Y14228D01*
X244132Y14206D01*
X244169Y14177D01*
X244231Y14156D01*
X244290Y14125D01*
X244344Y14117D01*
X244381Y14105D01*
X244421Y14106D01*
X244475Y14098D01*
X248285Y14098D01*
X248350Y14109D01*
G37*
G36*
X723330Y14109D02*
X723330Y14109D01*
X723396Y14111D01*
X723439Y14129D01*
X723486Y14137D01*
X723543Y14171D01*
X723603Y14196D01*
X723638Y14227D01*
X723679Y14252D01*
X723721Y14303D01*
X723769Y14347D01*
X723791Y14389D01*
X723820Y14426D01*
X723841Y14488D01*
X723872Y14547D01*
X723880Y14601D01*
X723892Y14638D01*
X723891Y14678D01*
X723899Y14732D01*
X723899Y17272D01*
X723888Y17337D01*
X723886Y17403D01*
X723868Y17446D01*
X723860Y17493D01*
X723826Y17550D01*
X723801Y17610D01*
X723770Y17645D01*
X723745Y17686D01*
X723694Y17728D01*
X723650Y17776D01*
X723608Y17798D01*
X723571Y17827D01*
X723509Y17848D01*
X723450Y17879D01*
X723396Y17887D01*
X723359Y17899D01*
X723319Y17898D01*
X723265Y17906D01*
X719455Y17906D01*
X719390Y17895D01*
X719324Y17893D01*
X719281Y17875D01*
X719234Y17867D01*
X719177Y17833D01*
X719117Y17808D01*
X719082Y17777D01*
X719041Y17752D01*
X719000Y17701D01*
X718951Y17657D01*
X718929Y17615D01*
X718900Y17578D01*
X718879Y17516D01*
X718848Y17457D01*
X718840Y17403D01*
X718828Y17366D01*
X718828Y17363D01*
X718829Y17326D01*
X718821Y17272D01*
X718821Y14732D01*
X718832Y14667D01*
X718834Y14601D01*
X718852Y14558D01*
X718860Y14511D01*
X718894Y14454D01*
X718919Y14394D01*
X718950Y14359D01*
X718975Y14318D01*
X719026Y14277D01*
X719070Y14228D01*
X719112Y14206D01*
X719149Y14177D01*
X719211Y14156D01*
X719270Y14125D01*
X719324Y14117D01*
X719361Y14105D01*
X719401Y14106D01*
X719455Y14098D01*
X723265Y14098D01*
X723330Y14109D01*
G37*
G36*
X323280Y14109D02*
X323280Y14109D01*
X323346Y14111D01*
X323389Y14129D01*
X323436Y14137D01*
X323493Y14171D01*
X323553Y14196D01*
X323588Y14227D01*
X323629Y14252D01*
X323671Y14303D01*
X323719Y14347D01*
X323741Y14389D01*
X323770Y14426D01*
X323791Y14488D01*
X323822Y14547D01*
X323830Y14601D01*
X323842Y14638D01*
X323841Y14678D01*
X323849Y14732D01*
X323849Y17272D01*
X323838Y17337D01*
X323836Y17403D01*
X323818Y17446D01*
X323810Y17493D01*
X323776Y17550D01*
X323751Y17610D01*
X323720Y17645D01*
X323695Y17686D01*
X323644Y17728D01*
X323600Y17776D01*
X323558Y17798D01*
X323521Y17827D01*
X323459Y17848D01*
X323400Y17879D01*
X323346Y17887D01*
X323309Y17899D01*
X323269Y17898D01*
X323215Y17906D01*
X319405Y17906D01*
X319340Y17895D01*
X319274Y17893D01*
X319231Y17875D01*
X319184Y17867D01*
X319127Y17833D01*
X319067Y17808D01*
X319032Y17777D01*
X318991Y17752D01*
X318950Y17701D01*
X318901Y17657D01*
X318879Y17615D01*
X318850Y17578D01*
X318829Y17516D01*
X318798Y17457D01*
X318790Y17403D01*
X318778Y17366D01*
X318778Y17363D01*
X318779Y17326D01*
X318771Y17272D01*
X318771Y14732D01*
X318782Y14667D01*
X318784Y14601D01*
X318802Y14558D01*
X318810Y14511D01*
X318844Y14454D01*
X318869Y14394D01*
X318900Y14359D01*
X318925Y14318D01*
X318976Y14277D01*
X319020Y14228D01*
X319062Y14206D01*
X319099Y14177D01*
X319161Y14156D01*
X319220Y14125D01*
X319274Y14117D01*
X319311Y14105D01*
X319351Y14106D01*
X319405Y14098D01*
X323215Y14098D01*
X323280Y14109D01*
G37*
G36*
X286450Y14109D02*
X286450Y14109D01*
X286516Y14111D01*
X286559Y14129D01*
X286606Y14137D01*
X286663Y14171D01*
X286723Y14196D01*
X286758Y14227D01*
X286799Y14252D01*
X286841Y14303D01*
X286889Y14347D01*
X286911Y14389D01*
X286940Y14426D01*
X286961Y14488D01*
X286992Y14547D01*
X287000Y14601D01*
X287012Y14638D01*
X287011Y14678D01*
X287019Y14732D01*
X287019Y17272D01*
X287008Y17337D01*
X287006Y17403D01*
X286988Y17446D01*
X286980Y17493D01*
X286946Y17550D01*
X286921Y17610D01*
X286890Y17645D01*
X286865Y17686D01*
X286814Y17728D01*
X286770Y17776D01*
X286728Y17798D01*
X286691Y17827D01*
X286629Y17848D01*
X286570Y17879D01*
X286516Y17887D01*
X286479Y17899D01*
X286439Y17898D01*
X286385Y17906D01*
X282575Y17906D01*
X282510Y17895D01*
X282444Y17893D01*
X282401Y17875D01*
X282354Y17867D01*
X282297Y17833D01*
X282237Y17808D01*
X282202Y17777D01*
X282161Y17752D01*
X282120Y17701D01*
X282071Y17657D01*
X282049Y17615D01*
X282020Y17578D01*
X281999Y17516D01*
X281968Y17457D01*
X281960Y17403D01*
X281948Y17366D01*
X281948Y17363D01*
X281949Y17326D01*
X281941Y17272D01*
X281941Y14732D01*
X281952Y14667D01*
X281954Y14601D01*
X281972Y14558D01*
X281980Y14511D01*
X282014Y14454D01*
X282039Y14394D01*
X282070Y14359D01*
X282095Y14318D01*
X282146Y14277D01*
X282190Y14228D01*
X282232Y14206D01*
X282269Y14177D01*
X282331Y14156D01*
X282390Y14125D01*
X282444Y14117D01*
X282481Y14105D01*
X282521Y14106D01*
X282575Y14098D01*
X286385Y14098D01*
X286450Y14109D01*
G37*
G36*
X362650Y14109D02*
X362650Y14109D01*
X362716Y14111D01*
X362759Y14129D01*
X362806Y14137D01*
X362863Y14171D01*
X362923Y14196D01*
X362958Y14227D01*
X362999Y14252D01*
X363041Y14303D01*
X363089Y14347D01*
X363111Y14389D01*
X363140Y14426D01*
X363161Y14488D01*
X363192Y14547D01*
X363200Y14601D01*
X363212Y14638D01*
X363211Y14678D01*
X363219Y14732D01*
X363219Y17272D01*
X363208Y17337D01*
X363206Y17403D01*
X363188Y17446D01*
X363180Y17493D01*
X363146Y17550D01*
X363121Y17610D01*
X363090Y17645D01*
X363065Y17686D01*
X363014Y17728D01*
X362970Y17776D01*
X362928Y17798D01*
X362891Y17827D01*
X362829Y17848D01*
X362770Y17879D01*
X362716Y17887D01*
X362679Y17899D01*
X362639Y17898D01*
X362585Y17906D01*
X358775Y17906D01*
X358710Y17895D01*
X358644Y17893D01*
X358601Y17875D01*
X358554Y17867D01*
X358497Y17833D01*
X358437Y17808D01*
X358402Y17777D01*
X358361Y17752D01*
X358320Y17701D01*
X358271Y17657D01*
X358249Y17615D01*
X358220Y17578D01*
X358199Y17516D01*
X358168Y17457D01*
X358160Y17403D01*
X358148Y17366D01*
X358148Y17363D01*
X358149Y17326D01*
X358141Y17272D01*
X358141Y14732D01*
X358152Y14667D01*
X358154Y14601D01*
X358172Y14558D01*
X358180Y14511D01*
X358214Y14454D01*
X358239Y14394D01*
X358270Y14359D01*
X358295Y14318D01*
X358346Y14277D01*
X358390Y14228D01*
X358432Y14206D01*
X358469Y14177D01*
X358531Y14156D01*
X358590Y14125D01*
X358644Y14117D01*
X358681Y14105D01*
X358721Y14106D01*
X358775Y14098D01*
X362585Y14098D01*
X362650Y14109D01*
G37*
D10*
X102364Y325122D02*
X102364Y319530D01*
X90676Y319530D01*
X90676Y325122D01*
X102364Y325122D01*
X102364Y321699D02*
X90676Y321699D01*
X90676Y323868D02*
X102364Y323868D01*
X102364Y329944D02*
X102364Y335536D01*
X102364Y329944D02*
X90676Y329944D01*
X90676Y335536D01*
X102364Y335536D01*
X102364Y332113D02*
X90676Y332113D01*
X90676Y334282D02*
X102364Y334282D01*
X102364Y340358D02*
X102364Y345950D01*
X102364Y340358D02*
X90676Y340358D01*
X90676Y345950D01*
X102364Y345950D01*
X102364Y342527D02*
X90676Y342527D01*
X90676Y344696D02*
X102364Y344696D01*
D11*
X419100Y368300D03*
X419100Y342900D03*
X419100Y317500D03*
X419100Y292100D03*
X419100Y266700D03*
X419100Y241300D03*
X419100Y215900D03*
X419100Y190500D03*
X419100Y165100D03*
X419100Y139700D03*
X419100Y114300D03*
D12*
X50800Y50800D03*
X368300Y469900D03*
D13*
X406400Y482600D03*
X25400Y482600D03*
D14*
X100584Y269875D02*
X100584Y264541D01*
X88900Y264541D01*
X88900Y269875D01*
X100584Y269875D01*
X100584Y266713D02*
X88900Y266713D01*
X88900Y268885D02*
X100584Y268885D01*
X100584Y272669D02*
X100584Y278003D01*
X100584Y272669D02*
X88900Y272669D01*
X88900Y278003D01*
X100584Y278003D01*
X100584Y274841D02*
X88900Y274841D01*
X88900Y277013D02*
X100584Y277013D01*
D10*
X248791Y21846D02*
X254383Y21846D01*
X254383Y10158D01*
X248791Y10158D01*
X248791Y21846D01*
X248791Y12327D02*
X254383Y12327D01*
X254383Y14496D02*
X248791Y14496D01*
X248791Y16665D02*
X254383Y16665D01*
X254383Y18834D02*
X248791Y18834D01*
X248791Y21003D02*
X254383Y21003D01*
X243969Y21846D02*
X238377Y21846D01*
X243969Y21846D02*
X243969Y10158D01*
X238377Y10158D01*
X238377Y21846D01*
X238377Y12327D02*
X243969Y12327D01*
X243969Y14496D02*
X238377Y14496D01*
X238377Y16665D02*
X243969Y16665D01*
X243969Y18834D02*
X238377Y18834D01*
X238377Y21003D02*
X243969Y21003D01*
D15*
X155900Y459204D03*
X98100Y459204D03*
D10*
X363091Y21846D02*
X368683Y21846D01*
X368683Y10158D01*
X363091Y10158D01*
X363091Y21846D01*
X363091Y12327D02*
X368683Y12327D01*
X368683Y14496D02*
X363091Y14496D01*
X363091Y16665D02*
X368683Y16665D01*
X368683Y18834D02*
X363091Y18834D01*
X363091Y21003D02*
X368683Y21003D01*
X358269Y21846D02*
X352677Y21846D01*
X358269Y21846D02*
X358269Y10158D01*
X352677Y10158D01*
X352677Y21846D01*
X352677Y12327D02*
X358269Y12327D01*
X358269Y14496D02*
X352677Y14496D01*
X352677Y16665D02*
X358269Y16665D01*
X358269Y18834D02*
X352677Y18834D01*
X352677Y21003D02*
X358269Y21003D01*
X292483Y21846D02*
X286891Y21846D01*
X292483Y21846D02*
X292483Y10158D01*
X286891Y10158D01*
X286891Y21846D01*
X286891Y12327D02*
X292483Y12327D01*
X292483Y14496D02*
X286891Y14496D01*
X286891Y16665D02*
X292483Y16665D01*
X292483Y18834D02*
X286891Y18834D01*
X286891Y21003D02*
X292483Y21003D01*
X282069Y21846D02*
X276477Y21846D01*
X282069Y21846D02*
X282069Y10158D01*
X276477Y10158D01*
X276477Y21846D01*
X276477Y12327D02*
X282069Y12327D01*
X282069Y14496D02*
X276477Y14496D01*
X276477Y16665D02*
X282069Y16665D01*
X282069Y18834D02*
X276477Y18834D01*
X276477Y21003D02*
X282069Y21003D01*
D13*
X25400Y25146D03*
X406400Y25146D03*
D11*
X342900Y495300D03*
X317500Y495300D03*
X292100Y495300D03*
X266700Y495300D03*
X241300Y495300D03*
X215900Y495300D03*
X12700Y165100D03*
X12700Y190500D03*
X12700Y215900D03*
X12700Y241300D03*
X12700Y266700D03*
X12700Y292100D03*
X12700Y317500D03*
X12700Y342900D03*
X12700Y368300D03*
D10*
X323721Y21846D02*
X329313Y21846D01*
X329313Y10158D01*
X323721Y10158D01*
X323721Y21846D01*
X323721Y12327D02*
X329313Y12327D01*
X329313Y14496D02*
X323721Y14496D01*
X323721Y16665D02*
X329313Y16665D01*
X329313Y18834D02*
X323721Y18834D01*
X323721Y21003D02*
X329313Y21003D01*
X318899Y21846D02*
X313307Y21846D01*
X318899Y21846D02*
X318899Y10158D01*
X313307Y10158D01*
X313307Y21846D01*
X313307Y12327D02*
X318899Y12327D01*
X318899Y14496D02*
X313307Y14496D01*
X313307Y16665D02*
X318899Y16665D01*
X318899Y18834D02*
X313307Y18834D01*
X313307Y21003D02*
X318899Y21003D01*
D16*
X172596Y41896D02*
X158604Y41896D01*
X172596Y41896D02*
X172596Y2904D01*
X158604Y2904D01*
X158604Y41896D01*
X158604Y5068D02*
X172596Y5068D01*
X172596Y7232D02*
X158604Y7232D01*
X158604Y9396D02*
X172596Y9396D01*
X172596Y11560D02*
X158604Y11560D01*
X158604Y13724D02*
X172596Y13724D01*
X172596Y15888D02*
X158604Y15888D01*
X158604Y18052D02*
X172596Y18052D01*
X172596Y20216D02*
X158604Y20216D01*
X158604Y22380D02*
X172596Y22380D01*
X172596Y24544D02*
X158604Y24544D01*
X158604Y26708D02*
X172596Y26708D01*
X172596Y28872D02*
X158604Y28872D01*
X158604Y31036D02*
X172596Y31036D01*
X172596Y33200D02*
X158604Y33200D01*
X158604Y35364D02*
X172596Y35364D01*
X172596Y37528D02*
X158604Y37528D01*
X158604Y39692D02*
X172596Y39692D01*
X172596Y41856D02*
X158604Y41856D01*
X121796Y41896D02*
X107804Y41896D01*
X121796Y41896D02*
X121796Y2904D01*
X107804Y2904D01*
X107804Y41896D01*
X107804Y5068D02*
X121796Y5068D01*
X121796Y7232D02*
X107804Y7232D01*
X107804Y9396D02*
X121796Y9396D01*
X121796Y11560D02*
X107804Y11560D01*
X107804Y13724D02*
X121796Y13724D01*
X121796Y15888D02*
X107804Y15888D01*
X107804Y18052D02*
X121796Y18052D01*
X121796Y20216D02*
X107804Y20216D01*
X107804Y22380D02*
X121796Y22380D01*
X121796Y24544D02*
X107804Y24544D01*
X107804Y26708D02*
X121796Y26708D01*
X121796Y28872D02*
X107804Y28872D01*
X107804Y31036D02*
X121796Y31036D01*
X121796Y33200D02*
X107804Y33200D01*
X107804Y35364D02*
X121796Y35364D01*
X121796Y37528D02*
X107804Y37528D01*
X107804Y39692D02*
X121796Y39692D01*
X121796Y41856D02*
X107804Y41856D01*
D17*
X292100Y431800D03*
D10*
X179453Y485904D02*
X173861Y485904D01*
X179453Y485904D02*
X179453Y474216D01*
X173861Y474216D01*
X173861Y485904D01*
X173861Y476385D02*
X179453Y476385D01*
X179453Y478554D02*
X173861Y478554D01*
X173861Y480723D02*
X179453Y480723D01*
X179453Y482892D02*
X173861Y482892D01*
X173861Y485061D02*
X179453Y485061D01*
X169039Y485904D02*
X163447Y485904D01*
X169039Y485904D02*
X169039Y474216D01*
X163447Y474216D01*
X163447Y485904D01*
X163447Y476385D02*
X169039Y476385D01*
X169039Y478554D02*
X163447Y478554D01*
X163447Y480723D02*
X169039Y480723D01*
X169039Y482892D02*
X163447Y482892D01*
X163447Y485061D02*
X169039Y485061D01*
X539244Y325122D02*
X539244Y319530D01*
X527556Y319530D01*
X527556Y325122D01*
X539244Y325122D01*
X539244Y321699D02*
X527556Y321699D01*
X527556Y323868D02*
X539244Y323868D01*
X539244Y329944D02*
X539244Y335536D01*
X539244Y329944D02*
X527556Y329944D01*
X527556Y335536D01*
X539244Y335536D01*
X539244Y332113D02*
X527556Y332113D01*
X527556Y334282D02*
X539244Y334282D01*
X539244Y340358D02*
X539244Y345950D01*
X539244Y340358D02*
X527556Y340358D01*
X527556Y345950D01*
X539244Y345950D01*
X539244Y342527D02*
X527556Y342527D01*
X527556Y344696D02*
X539244Y344696D01*
D11*
X855980Y368300D03*
X855980Y342900D03*
X855980Y317500D03*
X855980Y292100D03*
X855980Y266700D03*
X855980Y241300D03*
X855980Y215900D03*
X855980Y190500D03*
X855980Y165100D03*
X855980Y139700D03*
X855980Y114300D03*
D12*
X487680Y50800D03*
X805180Y469900D03*
D13*
X843280Y482600D03*
X462280Y482600D03*
D14*
X537464Y269875D02*
X537464Y264541D01*
X525780Y264541D01*
X525780Y269875D01*
X537464Y269875D01*
X537464Y266713D02*
X525780Y266713D01*
X525780Y268885D02*
X537464Y268885D01*
X537464Y272669D02*
X537464Y278003D01*
X537464Y272669D02*
X525780Y272669D01*
X525780Y278003D01*
X537464Y278003D01*
X537464Y274841D02*
X525780Y274841D01*
X525780Y277013D02*
X537464Y277013D01*
D10*
X685671Y21846D02*
X691263Y21846D01*
X691263Y10158D01*
X685671Y10158D01*
X685671Y21846D01*
X685671Y12327D02*
X691263Y12327D01*
X691263Y14496D02*
X685671Y14496D01*
X685671Y16665D02*
X691263Y16665D01*
X691263Y18834D02*
X685671Y18834D01*
X685671Y21003D02*
X691263Y21003D01*
X680849Y21846D02*
X675257Y21846D01*
X680849Y21846D02*
X680849Y10158D01*
X675257Y10158D01*
X675257Y21846D01*
X675257Y12327D02*
X680849Y12327D01*
X680849Y14496D02*
X675257Y14496D01*
X675257Y16665D02*
X680849Y16665D01*
X680849Y18834D02*
X675257Y18834D01*
X675257Y21003D02*
X680849Y21003D01*
D15*
X592780Y459204D03*
X534980Y459204D03*
D10*
X799971Y21846D02*
X805563Y21846D01*
X805563Y10158D01*
X799971Y10158D01*
X799971Y21846D01*
X799971Y12327D02*
X805563Y12327D01*
X805563Y14496D02*
X799971Y14496D01*
X799971Y16665D02*
X805563Y16665D01*
X805563Y18834D02*
X799971Y18834D01*
X799971Y21003D02*
X805563Y21003D01*
X795149Y21846D02*
X789557Y21846D01*
X795149Y21846D02*
X795149Y10158D01*
X789557Y10158D01*
X789557Y21846D01*
X789557Y12327D02*
X795149Y12327D01*
X795149Y14496D02*
X789557Y14496D01*
X789557Y16665D02*
X795149Y16665D01*
X795149Y18834D02*
X789557Y18834D01*
X789557Y21003D02*
X795149Y21003D01*
X729363Y21846D02*
X723771Y21846D01*
X729363Y21846D02*
X729363Y10158D01*
X723771Y10158D01*
X723771Y21846D01*
X723771Y12327D02*
X729363Y12327D01*
X729363Y14496D02*
X723771Y14496D01*
X723771Y16665D02*
X729363Y16665D01*
X729363Y18834D02*
X723771Y18834D01*
X723771Y21003D02*
X729363Y21003D01*
X718949Y21846D02*
X713357Y21846D01*
X718949Y21846D02*
X718949Y10158D01*
X713357Y10158D01*
X713357Y21846D01*
X713357Y12327D02*
X718949Y12327D01*
X718949Y14496D02*
X713357Y14496D01*
X713357Y16665D02*
X718949Y16665D01*
X718949Y18834D02*
X713357Y18834D01*
X713357Y21003D02*
X718949Y21003D01*
D13*
X462280Y25146D03*
X843280Y25146D03*
D11*
X779780Y495300D03*
X754380Y495300D03*
X728980Y495300D03*
X703580Y495300D03*
X678180Y495300D03*
X652780Y495300D03*
X449580Y165100D03*
X449580Y190500D03*
X449580Y215900D03*
X449580Y241300D03*
X449580Y266700D03*
X449580Y292100D03*
X449580Y317500D03*
X449580Y342900D03*
X449580Y368300D03*
D10*
X760601Y21846D02*
X766193Y21846D01*
X766193Y10158D01*
X760601Y10158D01*
X760601Y21846D01*
X760601Y12327D02*
X766193Y12327D01*
X766193Y14496D02*
X760601Y14496D01*
X760601Y16665D02*
X766193Y16665D01*
X766193Y18834D02*
X760601Y18834D01*
X760601Y21003D02*
X766193Y21003D01*
X755779Y21846D02*
X750187Y21846D01*
X755779Y21846D02*
X755779Y10158D01*
X750187Y10158D01*
X750187Y21846D01*
X750187Y12327D02*
X755779Y12327D01*
X755779Y14496D02*
X750187Y14496D01*
X750187Y16665D02*
X755779Y16665D01*
X755779Y18834D02*
X750187Y18834D01*
X750187Y21003D02*
X755779Y21003D01*
D16*
X609476Y41896D02*
X595484Y41896D01*
X609476Y41896D02*
X609476Y2904D01*
X595484Y2904D01*
X595484Y41896D01*
X595484Y5068D02*
X609476Y5068D01*
X609476Y7232D02*
X595484Y7232D01*
X595484Y9396D02*
X609476Y9396D01*
X609476Y11560D02*
X595484Y11560D01*
X595484Y13724D02*
X609476Y13724D01*
X609476Y15888D02*
X595484Y15888D01*
X595484Y18052D02*
X609476Y18052D01*
X609476Y20216D02*
X595484Y20216D01*
X595484Y22380D02*
X609476Y22380D01*
X609476Y24544D02*
X595484Y24544D01*
X595484Y26708D02*
X609476Y26708D01*
X609476Y28872D02*
X595484Y28872D01*
X595484Y31036D02*
X609476Y31036D01*
X609476Y33200D02*
X595484Y33200D01*
X595484Y35364D02*
X609476Y35364D01*
X609476Y37528D02*
X595484Y37528D01*
X595484Y39692D02*
X609476Y39692D01*
X609476Y41856D02*
X595484Y41856D01*
X558676Y41896D02*
X544684Y41896D01*
X558676Y41896D02*
X558676Y2904D01*
X544684Y2904D01*
X544684Y41896D01*
X544684Y5068D02*
X558676Y5068D01*
X558676Y7232D02*
X544684Y7232D01*
X544684Y9396D02*
X558676Y9396D01*
X558676Y11560D02*
X544684Y11560D01*
X544684Y13724D02*
X558676Y13724D01*
X558676Y15888D02*
X544684Y15888D01*
X544684Y18052D02*
X558676Y18052D01*
X558676Y20216D02*
X544684Y20216D01*
X544684Y22380D02*
X558676Y22380D01*
X558676Y24544D02*
X544684Y24544D01*
X544684Y26708D02*
X558676Y26708D01*
X558676Y28872D02*
X544684Y28872D01*
X544684Y31036D02*
X558676Y31036D01*
X558676Y33200D02*
X544684Y33200D01*
X544684Y35364D02*
X558676Y35364D01*
X558676Y37528D02*
X544684Y37528D01*
X544684Y39692D02*
X558676Y39692D01*
X558676Y41856D02*
X544684Y41856D01*
D17*
X728980Y431800D03*
D10*
X616333Y485904D02*
X610741Y485904D01*
X616333Y485904D02*
X616333Y474216D01*
X610741Y474216D01*
X610741Y485904D01*
X610741Y476385D02*
X616333Y476385D01*
X616333Y478554D02*
X610741Y478554D01*
X610741Y480723D02*
X616333Y480723D01*
X616333Y482892D02*
X610741Y482892D01*
X610741Y485061D02*
X616333Y485061D01*
X605919Y485904D02*
X600327Y485904D01*
X605919Y485904D02*
X605919Y474216D01*
X600327Y474216D01*
X600327Y485904D01*
X600327Y476385D02*
X605919Y476385D01*
X605919Y478554D02*
X600327Y478554D01*
X600327Y480723D02*
X605919Y480723D01*
X605919Y482892D02*
X600327Y482892D01*
X600327Y485061D02*
X605919Y485061D01*
X102364Y908810D02*
X102364Y914402D01*
X102364Y908810D02*
X90676Y908810D01*
X90676Y914402D01*
X102364Y914402D01*
X102364Y910979D02*
X90676Y910979D01*
X90676Y913148D02*
X102364Y913148D01*
X102364Y919224D02*
X102364Y924816D01*
X102364Y919224D02*
X90676Y919224D01*
X90676Y924816D01*
X102364Y924816D01*
X102364Y921393D02*
X90676Y921393D01*
X90676Y923562D02*
X102364Y923562D01*
X102364Y929638D02*
X102364Y935230D01*
X102364Y929638D02*
X90676Y929638D01*
X90676Y935230D01*
X102364Y935230D01*
X102364Y931807D02*
X90676Y931807D01*
X90676Y933976D02*
X102364Y933976D01*
D11*
X419100Y957580D03*
X419100Y932180D03*
X419100Y906780D03*
X419100Y881380D03*
X419100Y855980D03*
X419100Y830580D03*
X419100Y805180D03*
X419100Y779780D03*
X419100Y754380D03*
X419100Y728980D03*
X419100Y703580D03*
D12*
X50800Y640080D03*
X368300Y1059180D03*
D13*
X406400Y1071880D03*
X25400Y1071880D03*
D14*
X100584Y859155D02*
X100584Y853821D01*
X88900Y853821D01*
X88900Y859155D01*
X100584Y859155D01*
X100584Y855993D02*
X88900Y855993D01*
X88900Y858165D02*
X100584Y858165D01*
X100584Y861949D02*
X100584Y867283D01*
X100584Y861949D02*
X88900Y861949D01*
X88900Y867283D01*
X100584Y867283D01*
X100584Y864121D02*
X88900Y864121D01*
X88900Y866293D02*
X100584Y866293D01*
D10*
X248791Y611126D02*
X254383Y611126D01*
X254383Y599438D01*
X248791Y599438D01*
X248791Y611126D01*
X248791Y601607D02*
X254383Y601607D01*
X254383Y603776D02*
X248791Y603776D01*
X248791Y605945D02*
X254383Y605945D01*
X254383Y608114D02*
X248791Y608114D01*
X248791Y610283D02*
X254383Y610283D01*
X243969Y611126D02*
X238377Y611126D01*
X243969Y611126D02*
X243969Y599438D01*
X238377Y599438D01*
X238377Y611126D01*
X238377Y601607D02*
X243969Y601607D01*
X243969Y603776D02*
X238377Y603776D01*
X238377Y605945D02*
X243969Y605945D01*
X243969Y608114D02*
X238377Y608114D01*
X238377Y610283D02*
X243969Y610283D01*
D15*
X155900Y1048484D03*
X98100Y1048484D03*
D10*
X363091Y611126D02*
X368683Y611126D01*
X368683Y599438D01*
X363091Y599438D01*
X363091Y611126D01*
X363091Y601607D02*
X368683Y601607D01*
X368683Y603776D02*
X363091Y603776D01*
X363091Y605945D02*
X368683Y605945D01*
X368683Y608114D02*
X363091Y608114D01*
X363091Y610283D02*
X368683Y610283D01*
X358269Y611126D02*
X352677Y611126D01*
X358269Y611126D02*
X358269Y599438D01*
X352677Y599438D01*
X352677Y611126D01*
X352677Y601607D02*
X358269Y601607D01*
X358269Y603776D02*
X352677Y603776D01*
X352677Y605945D02*
X358269Y605945D01*
X358269Y608114D02*
X352677Y608114D01*
X352677Y610283D02*
X358269Y610283D01*
X292483Y611126D02*
X286891Y611126D01*
X292483Y611126D02*
X292483Y599438D01*
X286891Y599438D01*
X286891Y611126D01*
X286891Y601607D02*
X292483Y601607D01*
X292483Y603776D02*
X286891Y603776D01*
X286891Y605945D02*
X292483Y605945D01*
X292483Y608114D02*
X286891Y608114D01*
X286891Y610283D02*
X292483Y610283D01*
X282069Y611126D02*
X276477Y611126D01*
X282069Y611126D02*
X282069Y599438D01*
X276477Y599438D01*
X276477Y611126D01*
X276477Y601607D02*
X282069Y601607D01*
X282069Y603776D02*
X276477Y603776D01*
X276477Y605945D02*
X282069Y605945D01*
X282069Y608114D02*
X276477Y608114D01*
X276477Y610283D02*
X282069Y610283D01*
D13*
X25400Y614426D03*
X406400Y614426D03*
D11*
X342900Y1084580D03*
X317500Y1084580D03*
X292100Y1084580D03*
X266700Y1084580D03*
X241300Y1084580D03*
X215900Y1084580D03*
X12700Y754380D03*
X12700Y779780D03*
X12700Y805180D03*
X12700Y830580D03*
X12700Y855980D03*
X12700Y881380D03*
X12700Y906780D03*
X12700Y932180D03*
X12700Y957580D03*
D10*
X323721Y611126D02*
X329313Y611126D01*
X329313Y599438D01*
X323721Y599438D01*
X323721Y611126D01*
X323721Y601607D02*
X329313Y601607D01*
X329313Y603776D02*
X323721Y603776D01*
X323721Y605945D02*
X329313Y605945D01*
X329313Y608114D02*
X323721Y608114D01*
X323721Y610283D02*
X329313Y610283D01*
X318899Y611126D02*
X313307Y611126D01*
X318899Y611126D02*
X318899Y599438D01*
X313307Y599438D01*
X313307Y611126D01*
X313307Y601607D02*
X318899Y601607D01*
X318899Y603776D02*
X313307Y603776D01*
X313307Y605945D02*
X318899Y605945D01*
X318899Y608114D02*
X313307Y608114D01*
X313307Y610283D02*
X318899Y610283D01*
D16*
X172596Y631176D02*
X158604Y631176D01*
X172596Y631176D02*
X172596Y592184D01*
X158604Y592184D01*
X158604Y631176D01*
X158604Y594348D02*
X172596Y594348D01*
X172596Y596512D02*
X158604Y596512D01*
X158604Y598676D02*
X172596Y598676D01*
X172596Y600840D02*
X158604Y600840D01*
X158604Y603004D02*
X172596Y603004D01*
X172596Y605168D02*
X158604Y605168D01*
X158604Y607332D02*
X172596Y607332D01*
X172596Y609496D02*
X158604Y609496D01*
X158604Y611660D02*
X172596Y611660D01*
X172596Y613824D02*
X158604Y613824D01*
X158604Y615988D02*
X172596Y615988D01*
X172596Y618152D02*
X158604Y618152D01*
X158604Y620316D02*
X172596Y620316D01*
X172596Y622480D02*
X158604Y622480D01*
X158604Y624644D02*
X172596Y624644D01*
X172596Y626808D02*
X158604Y626808D01*
X158604Y628972D02*
X172596Y628972D01*
X172596Y631136D02*
X158604Y631136D01*
X121796Y631176D02*
X107804Y631176D01*
X121796Y631176D02*
X121796Y592184D01*
X107804Y592184D01*
X107804Y631176D01*
X107804Y594348D02*
X121796Y594348D01*
X121796Y596512D02*
X107804Y596512D01*
X107804Y598676D02*
X121796Y598676D01*
X121796Y600840D02*
X107804Y600840D01*
X107804Y603004D02*
X121796Y603004D01*
X121796Y605168D02*
X107804Y605168D01*
X107804Y607332D02*
X121796Y607332D01*
X121796Y609496D02*
X107804Y609496D01*
X107804Y611660D02*
X121796Y611660D01*
X121796Y613824D02*
X107804Y613824D01*
X107804Y615988D02*
X121796Y615988D01*
X121796Y618152D02*
X107804Y618152D01*
X107804Y620316D02*
X121796Y620316D01*
X121796Y622480D02*
X107804Y622480D01*
X107804Y624644D02*
X121796Y624644D01*
X121796Y626808D02*
X107804Y626808D01*
X107804Y628972D02*
X121796Y628972D01*
X121796Y631136D02*
X107804Y631136D01*
D17*
X292100Y1021080D03*
D10*
X179453Y1075184D02*
X173861Y1075184D01*
X179453Y1075184D02*
X179453Y1063496D01*
X173861Y1063496D01*
X173861Y1075184D01*
X173861Y1065665D02*
X179453Y1065665D01*
X179453Y1067834D02*
X173861Y1067834D01*
X173861Y1070003D02*
X179453Y1070003D01*
X179453Y1072172D02*
X173861Y1072172D01*
X173861Y1074341D02*
X179453Y1074341D01*
X169039Y1075184D02*
X163447Y1075184D01*
X169039Y1075184D02*
X169039Y1063496D01*
X163447Y1063496D01*
X163447Y1075184D01*
X163447Y1065665D02*
X169039Y1065665D01*
X169039Y1067834D02*
X163447Y1067834D01*
X163447Y1070003D02*
X169039Y1070003D01*
X169039Y1072172D02*
X163447Y1072172D01*
X163447Y1074341D02*
X169039Y1074341D01*
X539244Y914402D02*
X539244Y908810D01*
X527556Y908810D01*
X527556Y914402D01*
X539244Y914402D01*
X539244Y910979D02*
X527556Y910979D01*
X527556Y913148D02*
X539244Y913148D01*
X539244Y919224D02*
X539244Y924816D01*
X539244Y919224D02*
X527556Y919224D01*
X527556Y924816D01*
X539244Y924816D01*
X539244Y921393D02*
X527556Y921393D01*
X527556Y923562D02*
X539244Y923562D01*
X539244Y929638D02*
X539244Y935230D01*
X539244Y929638D02*
X527556Y929638D01*
X527556Y935230D01*
X539244Y935230D01*
X539244Y931807D02*
X527556Y931807D01*
X527556Y933976D02*
X539244Y933976D01*
D11*
X855980Y957580D03*
X855980Y932180D03*
X855980Y906780D03*
X855980Y881380D03*
X855980Y855980D03*
X855980Y830580D03*
X855980Y805180D03*
X855980Y779780D03*
X855980Y754380D03*
X855980Y728980D03*
X855980Y703580D03*
D12*
X487680Y640080D03*
X805180Y1059180D03*
D13*
X843280Y1071880D03*
X462280Y1071880D03*
D14*
X537464Y859155D02*
X537464Y853821D01*
X525780Y853821D01*
X525780Y859155D01*
X537464Y859155D01*
X537464Y855993D02*
X525780Y855993D01*
X525780Y858165D02*
X537464Y858165D01*
X537464Y861949D02*
X537464Y867283D01*
X537464Y861949D02*
X525780Y861949D01*
X525780Y867283D01*
X537464Y867283D01*
X537464Y864121D02*
X525780Y864121D01*
X525780Y866293D02*
X537464Y866293D01*
D10*
X685671Y611126D02*
X691263Y611126D01*
X691263Y599438D01*
X685671Y599438D01*
X685671Y611126D01*
X685671Y601607D02*
X691263Y601607D01*
X691263Y603776D02*
X685671Y603776D01*
X685671Y605945D02*
X691263Y605945D01*
X691263Y608114D02*
X685671Y608114D01*
X685671Y610283D02*
X691263Y610283D01*
X680849Y611126D02*
X675257Y611126D01*
X680849Y611126D02*
X680849Y599438D01*
X675257Y599438D01*
X675257Y611126D01*
X675257Y601607D02*
X680849Y601607D01*
X680849Y603776D02*
X675257Y603776D01*
X675257Y605945D02*
X680849Y605945D01*
X680849Y608114D02*
X675257Y608114D01*
X675257Y610283D02*
X680849Y610283D01*
D15*
X592780Y1048484D03*
X534980Y1048484D03*
D10*
X799971Y611126D02*
X805563Y611126D01*
X805563Y599438D01*
X799971Y599438D01*
X799971Y611126D01*
X799971Y601607D02*
X805563Y601607D01*
X805563Y603776D02*
X799971Y603776D01*
X799971Y605945D02*
X805563Y605945D01*
X805563Y608114D02*
X799971Y608114D01*
X799971Y610283D02*
X805563Y610283D01*
X795149Y611126D02*
X789557Y611126D01*
X795149Y611126D02*
X795149Y599438D01*
X789557Y599438D01*
X789557Y611126D01*
X789557Y601607D02*
X795149Y601607D01*
X795149Y603776D02*
X789557Y603776D01*
X789557Y605945D02*
X795149Y605945D01*
X795149Y608114D02*
X789557Y608114D01*
X789557Y610283D02*
X795149Y610283D01*
X729363Y611126D02*
X723771Y611126D01*
X729363Y611126D02*
X729363Y599438D01*
X723771Y599438D01*
X723771Y611126D01*
X723771Y601607D02*
X729363Y601607D01*
X729363Y603776D02*
X723771Y603776D01*
X723771Y605945D02*
X729363Y605945D01*
X729363Y608114D02*
X723771Y608114D01*
X723771Y610283D02*
X729363Y610283D01*
X718949Y611126D02*
X713357Y611126D01*
X718949Y611126D02*
X718949Y599438D01*
X713357Y599438D01*
X713357Y611126D01*
X713357Y601607D02*
X718949Y601607D01*
X718949Y603776D02*
X713357Y603776D01*
X713357Y605945D02*
X718949Y605945D01*
X718949Y608114D02*
X713357Y608114D01*
X713357Y610283D02*
X718949Y610283D01*
D13*
X462280Y614426D03*
X843280Y614426D03*
D11*
X779780Y1084580D03*
X754380Y1084580D03*
X728980Y1084580D03*
X703580Y1084580D03*
X678180Y1084580D03*
X652780Y1084580D03*
X449580Y754380D03*
X449580Y779780D03*
X449580Y805180D03*
X449580Y830580D03*
X449580Y855980D03*
X449580Y881380D03*
X449580Y906780D03*
X449580Y932180D03*
X449580Y957580D03*
D10*
X760601Y611126D02*
X766193Y611126D01*
X766193Y599438D01*
X760601Y599438D01*
X760601Y611126D01*
X760601Y601607D02*
X766193Y601607D01*
X766193Y603776D02*
X760601Y603776D01*
X760601Y605945D02*
X766193Y605945D01*
X766193Y608114D02*
X760601Y608114D01*
X760601Y610283D02*
X766193Y610283D01*
X755779Y611126D02*
X750187Y611126D01*
X755779Y611126D02*
X755779Y599438D01*
X750187Y599438D01*
X750187Y611126D01*
X750187Y601607D02*
X755779Y601607D01*
X755779Y603776D02*
X750187Y603776D01*
X750187Y605945D02*
X755779Y605945D01*
X755779Y608114D02*
X750187Y608114D01*
X750187Y610283D02*
X755779Y610283D01*
D16*
X609476Y631176D02*
X595484Y631176D01*
X609476Y631176D02*
X609476Y592184D01*
X595484Y592184D01*
X595484Y631176D01*
X595484Y594348D02*
X609476Y594348D01*
X609476Y596512D02*
X595484Y596512D01*
X595484Y598676D02*
X609476Y598676D01*
X609476Y600840D02*
X595484Y600840D01*
X595484Y603004D02*
X609476Y603004D01*
X609476Y605168D02*
X595484Y605168D01*
X595484Y607332D02*
X609476Y607332D01*
X609476Y609496D02*
X595484Y609496D01*
X595484Y611660D02*
X609476Y611660D01*
X609476Y613824D02*
X595484Y613824D01*
X595484Y615988D02*
X609476Y615988D01*
X609476Y618152D02*
X595484Y618152D01*
X595484Y620316D02*
X609476Y620316D01*
X609476Y622480D02*
X595484Y622480D01*
X595484Y624644D02*
X609476Y624644D01*
X609476Y626808D02*
X595484Y626808D01*
X595484Y628972D02*
X609476Y628972D01*
X609476Y631136D02*
X595484Y631136D01*
X558676Y631176D02*
X544684Y631176D01*
X558676Y631176D02*
X558676Y592184D01*
X544684Y592184D01*
X544684Y631176D01*
X544684Y594348D02*
X558676Y594348D01*
X558676Y596512D02*
X544684Y596512D01*
X544684Y598676D02*
X558676Y598676D01*
X558676Y600840D02*
X544684Y600840D01*
X544684Y603004D02*
X558676Y603004D01*
X558676Y605168D02*
X544684Y605168D01*
X544684Y607332D02*
X558676Y607332D01*
X558676Y609496D02*
X544684Y609496D01*
X544684Y611660D02*
X558676Y611660D01*
X558676Y613824D02*
X544684Y613824D01*
X544684Y615988D02*
X558676Y615988D01*
X558676Y618152D02*
X544684Y618152D01*
X544684Y620316D02*
X558676Y620316D01*
X558676Y622480D02*
X544684Y622480D01*
X544684Y624644D02*
X558676Y624644D01*
X558676Y626808D02*
X544684Y626808D01*
X544684Y628972D02*
X558676Y628972D01*
X558676Y631136D02*
X544684Y631136D01*
D17*
X728980Y1021080D03*
D10*
X616333Y1075184D02*
X610741Y1075184D01*
X616333Y1075184D02*
X616333Y1063496D01*
X610741Y1063496D01*
X610741Y1075184D01*
X610741Y1065665D02*
X616333Y1065665D01*
X616333Y1067834D02*
X610741Y1067834D01*
X610741Y1070003D02*
X616333Y1070003D01*
X616333Y1072172D02*
X610741Y1072172D01*
X610741Y1074341D02*
X616333Y1074341D01*
X605919Y1075184D02*
X600327Y1075184D01*
X605919Y1075184D02*
X605919Y1063496D01*
X600327Y1063496D01*
X600327Y1075184D01*
X600327Y1065665D02*
X605919Y1065665D01*
X605919Y1067834D02*
X600327Y1067834D01*
X600327Y1070003D02*
X605919Y1070003D01*
X605919Y1072172D02*
X600327Y1072172D01*
X600327Y1074341D02*
X605919Y1074341D01*
D18*
X-26238Y1146810D03*
X894918Y1146810D03*
D19*
X-35293Y63500D02*
X-35290Y63722D01*
X-35282Y63944D01*
X-35268Y64166D01*
X-35249Y64388D01*
X-35225Y64608D01*
X-35195Y64829D01*
X-35160Y65048D01*
X-35119Y65267D01*
X-35073Y65484D01*
X-35022Y65700D01*
X-34965Y65915D01*
X-34903Y66129D01*
X-34836Y66340D01*
X-34764Y66551D01*
X-34686Y66759D01*
X-34604Y66965D01*
X-34516Y67169D01*
X-34424Y67372D01*
X-34326Y67571D01*
X-34224Y67768D01*
X-34117Y67963D01*
X-34005Y68155D01*
X-33888Y68344D01*
X-33767Y68531D01*
X-33641Y68714D01*
X-33511Y68894D01*
X-33376Y69071D01*
X-33238Y69244D01*
X-33095Y69414D01*
X-32947Y69581D01*
X-32796Y69744D01*
X-32641Y69903D01*
X-32482Y70058D01*
X-32319Y70209D01*
X-32152Y70357D01*
X-31982Y70500D01*
X-31809Y70638D01*
X-31632Y70773D01*
X-31452Y70903D01*
X-31269Y71029D01*
X-31082Y71150D01*
X-30893Y71267D01*
X-30701Y71379D01*
X-30506Y71486D01*
X-30309Y71588D01*
X-30110Y71686D01*
X-29907Y71778D01*
X-29703Y71866D01*
X-29497Y71948D01*
X-29289Y72026D01*
X-29078Y72098D01*
X-28867Y72165D01*
X-28653Y72227D01*
X-28438Y72284D01*
X-28222Y72335D01*
X-28005Y72381D01*
X-27786Y72422D01*
X-27567Y72457D01*
X-27346Y72487D01*
X-27126Y72511D01*
X-26904Y72530D01*
X-26682Y72544D01*
X-26460Y72552D01*
X-26238Y72555D01*
X-26016Y72552D01*
X-25794Y72544D01*
X-25572Y72530D01*
X-25350Y72511D01*
X-25130Y72487D01*
X-24909Y72457D01*
X-24690Y72422D01*
X-24471Y72381D01*
X-24254Y72335D01*
X-24038Y72284D01*
X-23823Y72227D01*
X-23609Y72165D01*
X-23398Y72098D01*
X-23187Y72026D01*
X-22979Y71948D01*
X-22773Y71866D01*
X-22569Y71778D01*
X-22366Y71686D01*
X-22167Y71588D01*
X-21970Y71486D01*
X-21775Y71379D01*
X-21583Y71267D01*
X-21394Y71150D01*
X-21207Y71029D01*
X-21024Y70903D01*
X-20844Y70773D01*
X-20667Y70638D01*
X-20494Y70500D01*
X-20324Y70357D01*
X-20157Y70209D01*
X-19994Y70058D01*
X-19835Y69903D01*
X-19680Y69744D01*
X-19529Y69581D01*
X-19381Y69414D01*
X-19238Y69244D01*
X-19100Y69071D01*
X-18965Y68894D01*
X-18835Y68714D01*
X-18709Y68531D01*
X-18588Y68344D01*
X-18471Y68155D01*
X-18359Y67963D01*
X-18252Y67768D01*
X-18150Y67571D01*
X-18052Y67372D01*
X-17960Y67169D01*
X-17872Y66965D01*
X-17790Y66759D01*
X-17712Y66551D01*
X-17640Y66340D01*
X-17573Y66129D01*
X-17511Y65915D01*
X-17454Y65700D01*
X-17403Y65484D01*
X-17357Y65267D01*
X-17316Y65048D01*
X-17281Y64829D01*
X-17251Y64608D01*
X-17227Y64388D01*
X-17208Y64166D01*
X-17194Y63944D01*
X-17186Y63722D01*
X-17183Y63500D01*
X-17186Y63278D01*
X-17194Y63056D01*
X-17208Y62834D01*
X-17227Y62612D01*
X-17251Y62392D01*
X-17281Y62171D01*
X-17316Y61952D01*
X-17357Y61733D01*
X-17403Y61516D01*
X-17454Y61300D01*
X-17511Y61085D01*
X-17573Y60871D01*
X-17640Y60660D01*
X-17712Y60449D01*
X-17790Y60241D01*
X-17872Y60035D01*
X-17960Y59831D01*
X-18052Y59628D01*
X-18150Y59429D01*
X-18252Y59232D01*
X-18359Y59037D01*
X-18471Y58845D01*
X-18588Y58656D01*
X-18709Y58469D01*
X-18835Y58286D01*
X-18965Y58106D01*
X-19100Y57929D01*
X-19238Y57756D01*
X-19381Y57586D01*
X-19529Y57419D01*
X-19680Y57256D01*
X-19835Y57097D01*
X-19994Y56942D01*
X-20157Y56791D01*
X-20324Y56643D01*
X-20494Y56500D01*
X-20667Y56362D01*
X-20844Y56227D01*
X-21024Y56097D01*
X-21207Y55971D01*
X-21394Y55850D01*
X-21583Y55733D01*
X-21775Y55621D01*
X-21970Y55514D01*
X-22167Y55412D01*
X-22366Y55314D01*
X-22569Y55222D01*
X-22773Y55134D01*
X-22979Y55052D01*
X-23187Y54974D01*
X-23398Y54902D01*
X-23609Y54835D01*
X-23823Y54773D01*
X-24038Y54716D01*
X-24254Y54665D01*
X-24471Y54619D01*
X-24690Y54578D01*
X-24909Y54543D01*
X-25130Y54513D01*
X-25350Y54489D01*
X-25572Y54470D01*
X-25794Y54456D01*
X-26016Y54448D01*
X-26238Y54445D01*
X-26460Y54448D01*
X-26682Y54456D01*
X-26904Y54470D01*
X-27126Y54489D01*
X-27346Y54513D01*
X-27567Y54543D01*
X-27786Y54578D01*
X-28005Y54619D01*
X-28222Y54665D01*
X-28438Y54716D01*
X-28653Y54773D01*
X-28867Y54835D01*
X-29078Y54902D01*
X-29289Y54974D01*
X-29497Y55052D01*
X-29703Y55134D01*
X-29907Y55222D01*
X-30110Y55314D01*
X-30309Y55412D01*
X-30506Y55514D01*
X-30701Y55621D01*
X-30893Y55733D01*
X-31082Y55850D01*
X-31269Y55971D01*
X-31452Y56097D01*
X-31632Y56227D01*
X-31809Y56362D01*
X-31982Y56500D01*
X-32152Y56643D01*
X-32319Y56791D01*
X-32482Y56942D01*
X-32641Y57097D01*
X-32796Y57256D01*
X-32947Y57419D01*
X-33095Y57586D01*
X-33238Y57756D01*
X-33376Y57929D01*
X-33511Y58106D01*
X-33641Y58286D01*
X-33767Y58469D01*
X-33888Y58656D01*
X-34005Y58845D01*
X-34117Y59037D01*
X-34224Y59232D01*
X-34326Y59429D01*
X-34424Y59628D01*
X-34516Y59831D01*
X-34604Y60035D01*
X-34686Y60241D01*
X-34764Y60449D01*
X-34836Y60660D01*
X-34903Y60871D01*
X-34965Y61085D01*
X-35022Y61300D01*
X-35073Y61516D01*
X-35119Y61733D01*
X-35160Y61952D01*
X-35195Y62171D01*
X-35225Y62392D01*
X-35249Y62612D01*
X-35268Y62834D01*
X-35282Y63056D01*
X-35290Y63278D01*
X-35293Y63500D01*
D20*
X-26238Y63500D03*
M02*
