M48
;GenerationSoftware,Autodesk,EAGLE,9.6.2*%
;CreationDate,2023-06-12T15:38:49Z*%
FMAT,2
ICI,OFF
METRIC,TZ,000.000
T6C0.305
T5C0.350
T4C0.400
T3C0.650
T2C1.016
T1C3.048
%
G90
M71
T1
X2540Y102108
X84328Y2515
X40640Y102108
X46228Y102108
X46228Y56363
X40640Y48260
X2540Y48260
X84328Y56363
X2540Y56363
X2540Y2515
X40640Y2515
X84328Y48260
X46228Y48260
X40640Y56363
X84328Y102108
X46228Y2515
T2
X85598Y77978
X85598Y75438
X44958Y90678
X85598Y72898
X85598Y70358
X85598Y67818
X85598Y65278
X77978Y103378
X41910Y19050
X75438Y103378
X72898Y103378
X70358Y103378
X67818Y103378
X41910Y36830
X41910Y34290
X41910Y31750
X41910Y29210
X41910Y26670
X41910Y24130
X41910Y21590
X65278Y103378
X41910Y16510
X41910Y13970
X41910Y11430
X44958Y70358
X44958Y72898
X44958Y75438
X44958Y77978
X34290Y49530
X31750Y49530
X29210Y49530
X26670Y49530
X24130Y49530
X21590Y49530
X1270Y16510
X1270Y19050
X1270Y21590
X1270Y24130
X1270Y26670
X1270Y29210
X1270Y31750
X1270Y34290
X1270Y36830
X85598Y36830
X85598Y34290
X85598Y31750
X85598Y29210
X85598Y26670
X85598Y24130
X85598Y21590
X85598Y19050
X85598Y16510
X85598Y13970
X85598Y11430
X44958Y80518
X44958Y83058
X44958Y85598
X44958Y88138
X77978Y49530
X75438Y49530
X72898Y49530
X70358Y49530
X67818Y49530
X65278Y49530
X44958Y16510
X44958Y19050
X44958Y21590
X44958Y24130
X44958Y26670
X44958Y29210
X44958Y31750
X44958Y34290
X44958Y36830
X41910Y90678
X41910Y88138
X41910Y85598
X41910Y83058
X41910Y80518
X41910Y77978
X41910Y75438
X41910Y72898
X41910Y70358
X41910Y67818
X41910Y65278
X34290Y103378
X31750Y103378
X29210Y103378
X26670Y103378
X24130Y103378
X21590Y103378
X1270Y70358
X1270Y72898
X1270Y75438
X1270Y77978
X1270Y80518
X1270Y83058
X1270Y85598
X1270Y88138
X1270Y90678
X85598Y90678
X85598Y88138
X85598Y85598
X85598Y83058
X85598Y80518
T3
X15590Y45920
X9810Y45920
X59278Y45920
X53498Y45920
X15590Y99768
X9810Y99768
X59278Y99768
X53498Y99768
T4
X17018Y49570
X8382Y49570
X8382Y45390
X17018Y45390
X60706Y49570
X52070Y49570
X52070Y45390
X60706Y45390
X52070Y99238
X60706Y99238
X8382Y99238
X17018Y99238
X17018Y103418
X8382Y103418
X60706Y103418
X52070Y103418
T5
X61849Y35560
X18161Y89408
X61849Y89408
X18161Y35560
T6
X31725Y12700
X18034Y3810
X20320Y6350
X20320Y3810
X20320Y8890
X6350Y13970
X6350Y11430
X6350Y8890
X3810Y11430
X3810Y13970
X3810Y8890
X25400Y4445
X27940Y4445
X30480Y4445
X31750Y5715
X33782Y5715
X30861Y9398
X23876Y13970
X22225Y8890
X23876Y15875
X35052Y15545
X35128Y9296
X36982Y9271
X36906Y15570
X22225Y6350
X22524Y4535
X17907Y1270
X20320Y1270
X35560Y26543
X35560Y24638
X31877Y33020
X38176Y17602
X38176Y19507
X6350Y20320
X6350Y21590
X8890Y21590
X8890Y20320
X11430Y20320
X5080Y27940
X2540Y27940
X7366Y26670
X15240Y12724
X15510Y9003
X10160Y13970
X8890Y11430
X8890Y8890
X12700Y13970
X3810Y19812
X23368Y34798
X26162Y36195
X16764Y36195
X37465Y29591
X14097Y43053
X36449Y38227
X40640Y17907
X40386Y9779
X39624Y44196
X1270Y7471
X34696Y36195
X20701Y34036
X7747Y38354
X10414Y36195
X10160Y3810
X13970Y3810
X13970Y1270
X14021Y11176
X19202Y11278
X19050Y13970
X13970Y6350
X10160Y6350
X18186Y12954
X6477Y42418
X39243Y41402
X37783Y37148
X29261Y14859
X32766Y33274
X24519Y35560
X31750Y35560
X23698Y12446
X25527Y12954
X23749Y5715
X34163Y3810
X34163Y5080
X8280Y38887
X36703Y43434
X39243Y43434
X37211Y34798
X8255Y34036
X5842Y33782
X21336Y39497
X31394Y39497
X29210Y41910
X10922Y36830
X35560Y36830
X11684Y26289
X24500Y5000
X7493Y18415
X10033Y37465
X36068Y37465
X11176Y32639
X11176Y34036
X34925Y40894
X21590Y40855
X10160Y43561
X14922Y43751
X12827Y40259
X14922Y40919
X34036Y1143
X26162Y1270
X39751Y10541
X39751Y17526
X38100Y1270
X22225Y1270
X9144Y38100
X36830Y42291
X40386Y36576
X8255Y32766
X6477Y32766
X31746Y47659
X9271Y46609
X10160Y48260
X15240Y48260
X14732Y46355
X39116Y9652
X39116Y17145
X30353Y1905
X33039Y16684
X36830Y24638
X32912Y15668
X37465Y25527
X58166Y31496
X60400Y31202
X62482Y31202
X64591Y31202
X66699Y31202
X68807Y31202
X70890Y31202
X72998Y31176
X75182Y31227
X58190Y29424
X60400Y29424
X62482Y29424
X64591Y29424
X66699Y29424
X68807Y29424
X70890Y29424
X72998Y29398
X75182Y29449
X58190Y27239
X60400Y27239
X62482Y27239
X64591Y27239
X66699Y27239
X68807Y27239
X70890Y27239
X72998Y27214
X75182Y27265
X58166Y25146
X60400Y25157
X62482Y25157
X64591Y25157
X68807Y25157
X70890Y25157
X72998Y25131
X75182Y25182
X58190Y23023
X60400Y23023
X62482Y23023
X64591Y23023
X66699Y23023
X68807Y23023
X70890Y23023
X72998Y22998
X75182Y23048
X58164Y20991
X60374Y20991
X62457Y20991
X64565Y20991
X66673Y20991
X68782Y20991
X70864Y20991
X72973Y20966
X75157Y21016
X58166Y19050
X60273Y19177
X62482Y19061
X64591Y19061
X66699Y19061
X68807Y19061
X70890Y19061
X72998Y19035
X73914Y19050
X56388Y16510
X50038Y16510
X50038Y6350
X50038Y3810
X50038Y1270
X53848Y1270
X47498Y16510
X47498Y6350
X48768Y30480
X48768Y39243
X53848Y39497
X53848Y41910
X50546Y43434
X52603Y41148
X84328Y27940
X76327Y34798
X74168Y34290
X71628Y34290
X58166Y33361
X58166Y32472
X59206Y31496
X74676Y17308
X74676Y18197
X74676Y19050
X64008Y43180
X66548Y43180
X68961Y42545
X69088Y45720
X66548Y45720
X64008Y45720
X61468Y43180
X66548Y48260
X62738Y49530
X64008Y48260
X71628Y45720
X74168Y45720
X74168Y43180
X76454Y43180
X76454Y45720
X79248Y45720
X79248Y48260
X80518Y49530
X81788Y45720
X85598Y43180
X85598Y40640
X58928Y13970
X58928Y15240
X61874Y8992
X63754Y39751
X61341Y39751
X59055Y39751
X58166Y18070
X58166Y17156
X59282Y19050
X57023Y34290
X44958Y43180
X44958Y40640
X50038Y49530
X76454Y40005
X71882Y40132
X69215Y40132
X47371Y43434
X50038Y45720
X49657Y38100
X81788Y39370
X79248Y43561
X56261Y43180
X53848Y16510
X73025Y5715
X55118Y34925
X79248Y34290
X58928Y16383
X61289Y19050
X66521Y25157
X81026Y32893
X48768Y33020
X48260Y35941
X69850Y15240
X69215Y11125
X72898Y7620
X72644Y11176
X73050Y14021
X75438Y14859
X75413Y12700
X61722Y3810
X64008Y6350
X64008Y3810
X64008Y8890
X50038Y13970
X50038Y11430
X50038Y8890
X47498Y11430
X47498Y13970
X47498Y8890
X69088Y4445
X71628Y4445
X74168Y4445
X75438Y5715
X77470Y5715
X74549Y9398
X67564Y13970
X65913Y8890
X67564Y15875
X78740Y15545
X78816Y9296
X80670Y9271
X80594Y15570
X65913Y6350
X66212Y4535
X61595Y1270
X64008Y1270
X79248Y26543
X79248Y24638
X75565Y33020
X81864Y17602
X81864Y19507
X50038Y20320
X50038Y21590
X52578Y21590
X52578Y20320
X55118Y20320
X48768Y27940
X46228Y27940
X51054Y26670
X58928Y12724
X59198Y9003
X53848Y13970
X52578Y11430
X52578Y8890
X56388Y13970
X67056Y34798
X69850Y36195
X60452Y36195
X81153Y29591
X57785Y43053
X80137Y38227
X84328Y17907
X84074Y9779
X83312Y44196
X44958Y7471
X78384Y36195
X64389Y34036
X51435Y38354
X54102Y36195
X53848Y3810
X57658Y3810
X57658Y1270
X57709Y11176
X62890Y11278
X62738Y13970
X57658Y6350
X53848Y6350
X61874Y12954
X50165Y42418
X82931Y41402
X81471Y37148
X72949Y14859
X76454Y33274
X68207Y35560
X75438Y35560
X67386Y12446
X69215Y12954
X67437Y5715
X77851Y3810
X77851Y5080
X51968Y38887
X80391Y43434
X82931Y43434
X80899Y34798
X51943Y34036
X49530Y33782
X65024Y39497
X75082Y39497
X72898Y41910
X54610Y36830
X79248Y36830
X55372Y26289
X68188Y5000
X51181Y18415
X53721Y37465
X79756Y37465
X54864Y32639
X54864Y34036
X78613Y40894
X65278Y40855
X53848Y43561
X58610Y43751
X56515Y40259
X58610Y40919
X77724Y1143
X69850Y1270
X83439Y10541
X83439Y17526
X81788Y1270
X65913Y1270
X52832Y38100
X80518Y42291
X84074Y36576
X51943Y32766
X50165Y32766
X75434Y47659
X52959Y46609
X53848Y48260
X58928Y48260
X58420Y46355
X82804Y9652
X82804Y17145
X74041Y1905
X76727Y16684
X80518Y24638
X76600Y15668
X81153Y25527
X14478Y85344
X16712Y85050
X18794Y85050
X20903Y85050
X23011Y85050
X25119Y85050
X27202Y85050
X29310Y85024
X31494Y85075
X14502Y83272
X16712Y83272
X18794Y83272
X20903Y83272
X23011Y83272
X25119Y83272
X27202Y83272
X29310Y83246
X31494Y83297
X14502Y81087
X16712Y81087
X18794Y81087
X20903Y81087
X23011Y81087
X25119Y81087
X27202Y81087
X29310Y81062
X31494Y81113
X14478Y78994
X16712Y79005
X18794Y79005
X20903Y79005
X25119Y79005
X27202Y79005
X29310Y78979
X31494Y79030
X14502Y76871
X16712Y76871
X18794Y76871
X20903Y76871
X23011Y76871
X25119Y76871
X27202Y76871
X29310Y76846
X31494Y76896
X14476Y74839
X16686Y74839
X18769Y74839
X20877Y74839
X22985Y74839
X25094Y74839
X27176Y74839
X29285Y74814
X31469Y74864
X14478Y72898
X16585Y73025
X18794Y72909
X20903Y72909
X23011Y72909
X25119Y72909
X27202Y72909
X29310Y72883
X30226Y72898
X12700Y70358
X6350Y70358
X6350Y60198
X6350Y57658
X6350Y55118
X10160Y55118
X3810Y70358
X3810Y60198
X5080Y84328
X5080Y93091
X47498Y19812
X10160Y95758
X6858Y97282
X8915Y94996
X40640Y81788
X32639Y88646
X30480Y88138
X27940Y88138
X14478Y87209
X14478Y86320
X15518Y85344
X30988Y71156
X30988Y72045
X30988Y72898
X20320Y97028
X22860Y97028
X25273Y96393
X25400Y99568
X22860Y99568
X20320Y99568
X17780Y97028
X22860Y102108
X19050Y103378
X20320Y102108
X27940Y99568
X30480Y99568
X30480Y97028
X32766Y97028
X32766Y99568
X35560Y99568
X35560Y102108
X36830Y103378
X38100Y99568
X41910Y97028
X41910Y94488
X15240Y67818
X15240Y69088
X18186Y62840
X20066Y93599
X17653Y93599
X15367Y93599
X14478Y71918
X14478Y71004
X15594Y72898
X13335Y88138
X1270Y97028
X1270Y94488
X6350Y103378
X32766Y93853
X28194Y93980
X25527Y93980
X3683Y97282
X6350Y99568
X5969Y91948
X38100Y93218
X35560Y97409
X12573Y97028
X10160Y70358
X29337Y59563
X11430Y88773
X35560Y88138
X15240Y70231
X17601Y72898
X22833Y79005
X37338Y86741
X5080Y86868
X4572Y89789
X26162Y69088
X25527Y64973
X29210Y61468
X28956Y65024
X29362Y67869
X31750Y68707
X31725Y66548
X18034Y57658
X20320Y60198
X20320Y57658
X20320Y62738
X6350Y67818
X6350Y65278
X6350Y62738
X3810Y65278
X3810Y67818
X3810Y62738
X25400Y58293
X27940Y58293
X30480Y58293
X31750Y59563
X33782Y59563
X30861Y63246
X23876Y67818
X22225Y62738
X23876Y69723
X35052Y69393
X35128Y63144
X36982Y63119
X36906Y69418
X22225Y60198
X22524Y58383
X17907Y55118
X20320Y55118
X35560Y80391
X35560Y78486
X31877Y86868
X38176Y71450
X38176Y73355
X6350Y74168
X6350Y75438
X8890Y75438
X8890Y74168
X11430Y74168
X5080Y81788
X2540Y81788
X7366Y80518
X15240Y66572
X15510Y62851
X10160Y67818
X8890Y65278
X8890Y62738
X12700Y67818
X3810Y73660
X23368Y88646
X26162Y90043
X16764Y90043
X37465Y83439
X14097Y96901
X36449Y92075
X40640Y71755
X40386Y63627
X39624Y98044
X1270Y61319
X34696Y90043
X20701Y87884
X7747Y92202
X10414Y90043
X10160Y57658
X13970Y57658
X13970Y55118
X14021Y65024
X19202Y65126
X19050Y67818
X13970Y60198
X10160Y60198
X18186Y66802
X6477Y96266
X39243Y95250
X37783Y90995
X29261Y68707
X32766Y87122
X24519Y89408
X31750Y89408
X23698Y66294
X25527Y66802
X23749Y59563
X34163Y57658
X34163Y58928
X10160Y93345
X8280Y92735
X36703Y97282
X39243Y97282
X37211Y88646
X8255Y87884
X5842Y87630
X21336Y93345
X31394Y93345
X29210Y95758
X10922Y90678
X35560Y90678
X11684Y80137
X24500Y58848
X7493Y72263
X10033Y91313
X36068Y91313
X11176Y86487
X11176Y87884
X34925Y94742
X21590Y94703
X10160Y97409
X14922Y97599
X12827Y94107
X14922Y94766
X34036Y54991
X26162Y55118
X39751Y64389
X39751Y71374
X38100Y55118
X22225Y55118
X9144Y91948
X36830Y96139
X40386Y90424
X8255Y86614
X6477Y86614
X31746Y101507
X9271Y100457
X10160Y102108
X15240Y102108
X14732Y100203
X39116Y63500
X39116Y70993
X30353Y55753
X33039Y70532
X36830Y78486
X32912Y69516
X37465Y79375
X58166Y85344
X60400Y85050
X62482Y85050
X64591Y85050
X66699Y85050
X68807Y85050
X70890Y85050
X72998Y85024
X75182Y85075
X58190Y83272
X60400Y83272
X62482Y83272
X64591Y83272
X66699Y83272
X68807Y83272
X70890Y83272
X72998Y83246
X75182Y83297
X58190Y81087
X60400Y81087
X62482Y81087
X64591Y81087
X66699Y81087
X68807Y81087
X70890Y81087
X72998Y81062
X75182Y81113
X58166Y78994
X60400Y79005
X62482Y79005
X64591Y79005
X68807Y79005
X70890Y79005
X72998Y78979
X75182Y79030
X58190Y76871
X60400Y76871
X62482Y76871
X64591Y76871
X66699Y76871
X68807Y76871
X70890Y76871
X72998Y76846
X75182Y76896
X58164Y74839
X60374Y74839
X62457Y74839
X64565Y74839
X66673Y74839
X68782Y74839
X70864Y74839
X72973Y74814
X75157Y74864
X58166Y72898
X60273Y73025
X62482Y72909
X64591Y72909
X66699Y72909
X68807Y72909
X70890Y72909
X72998Y72883
X73914Y72898
X56388Y70358
X50038Y70358
X50038Y60198
X50038Y57658
X50038Y55118
X53848Y55118
X47498Y70358
X47498Y60198
X48768Y84328
X48768Y93091
X53848Y93345
X53848Y95758
X50546Y97282
X52603Y94996
X84328Y81788
X76327Y88646
X74168Y88138
X71628Y88138
X58166Y87209
X58166Y86320
X59206Y85344
X74676Y71156
X74676Y72045
X74676Y72898
X64008Y97028
X66548Y97028
X68961Y96393
X69088Y99568
X66548Y99568
X64008Y99568
X61468Y97028
X66548Y102108
X62738Y103378
X64008Y102108
X71628Y99568
X74168Y99568
X74168Y97028
X76454Y97028
X76454Y99568
X79248Y99568
X79248Y102108
X80518Y103378
X81788Y99568
X85598Y97028
X85598Y94488
X14478Y31496
X58928Y69088
X61874Y62840
X63754Y93599
X61341Y93599
X59055Y93599
X58166Y71918
X58166Y71004
X59282Y72898
X57023Y88138
X44958Y97028
X44958Y94488
X50038Y103378
X76454Y93853
X71882Y93980
X69215Y93980
X47371Y97282
X50038Y99568
X49657Y91948
X81788Y93218
X79248Y97409
X56261Y97028
X53848Y70358
X73025Y59563
X55118Y88773
X79248Y88138
X58928Y70231
X61289Y72898
X66521Y79005
X81026Y86741
X48768Y86868
X48260Y89789
X69850Y69088
X69215Y64973
X72898Y61468
X72644Y65024
X73050Y67869
X75438Y68707
X75413Y66548
X61722Y57658
X64008Y60198
X64008Y57658
X64008Y62738
X50038Y67818
X50038Y65278
X50038Y62738
X47498Y65278
X47498Y67818
X47498Y62738
X69088Y58293
X71628Y58293
X74168Y58293
X75438Y59563
X77470Y59563
X74549Y63246
X67564Y67818
X65913Y62738
X67564Y69723
X78740Y69393
X78816Y63144
X80670Y63119
X80594Y69418
X65913Y60198
X66212Y58383
X61595Y55118
X64008Y55118
X79248Y80391
X79248Y78486
X75565Y86868
X81864Y71450
X81864Y73355
X50038Y74168
X50038Y75438
X52578Y75438
X52578Y74168
X55118Y74168
X48768Y81788
X46228Y81788
X51054Y80518
X58928Y66572
X59198Y62851
X53848Y67818
X52578Y65278
X52578Y62738
X56388Y67818
X47498Y73660
X67056Y88646
X69850Y90043
X60452Y90043
X81153Y83439
X57785Y96901
X80137Y92075
X84328Y71755
X84074Y63627
X83312Y98044
X44958Y61319
X78384Y90043
X64389Y87884
X51435Y92202
X54102Y90043
X53848Y57658
X57658Y57658
X57658Y55118
X57709Y65024
X62890Y65126
X62738Y67818
X57658Y60198
X53848Y60198
X61874Y66802
X50165Y96266
X82931Y95250
X81471Y90995
X72949Y68707
X76454Y87122
X68207Y89408
X75438Y89408
X67386Y66294
X69215Y66802
X67437Y59563
X77851Y57658
X77851Y58928
X16712Y31202
X51968Y92735
X80391Y97282
X82931Y97282
X80899Y88646
X51943Y87884
X49530Y87630
X65024Y93345
X75082Y93345
X72898Y95758
X54610Y90678
X79248Y90678
X55372Y80137
X68188Y58848
X51181Y72263
X53721Y91313
X79756Y91313
X54864Y86487
X54864Y87884
X78613Y94742
X65278Y94703
X53848Y97409
X58610Y97599
X56515Y94107
X58610Y94766
X77724Y54991
X69850Y55118
X83439Y64389
X83439Y71374
X81788Y55118
X65913Y55118
X52832Y91948
X80518Y96139
X84074Y90424
X51943Y86614
X58928Y67818
X75434Y101507
X52959Y100457
X53848Y102108
X58928Y102108
X58420Y100203
X82804Y63500
X82804Y70993
X74041Y55753
X76727Y70532
X80518Y78486
X76600Y69516
X81153Y79375
X18794Y31202
X20903Y31202
X23011Y31202
X25119Y31202
X27202Y31202
X29310Y31176
X31494Y31227
X14502Y29424
X16712Y29424
X18794Y29424
X20903Y29424
X23011Y29424
X25119Y29424
X27202Y29424
X29310Y29398
X31494Y29449
X14502Y27239
X16712Y27239
X18794Y27239
X20903Y27239
X23011Y27239
X25119Y27239
X27202Y27239
X29310Y27214
X31494Y27265
X14478Y25146
X16712Y25157
X18794Y25157
X20903Y25157
X25119Y25157
X27202Y25157
X29310Y25131
X31494Y25182
X14502Y23023
X16712Y23023
X18794Y23023
X20903Y23023
X23011Y23023
X25119Y23023
X27202Y23023
X29310Y22998
X31494Y23048
X14476Y20991
X16686Y20991
X18769Y20991
X20877Y20991
X22985Y20991
X25094Y20991
X27176Y20991
X29285Y20966
X31469Y21016
X14478Y19050
X16585Y19177
X18794Y19061
X20903Y19061
X23011Y19061
X25119Y19061
X27202Y19061
X29310Y19035
X30226Y19050
X12700Y16510
X6350Y16510
X6350Y6350
X6350Y3810
X6350Y1270
X10160Y1270
X3810Y16510
X3810Y6350
X5080Y30480
X5080Y39243
X10160Y39497
X10160Y41910
X6858Y43434
X8915Y41148
X40640Y27940
X32639Y34798
X30480Y34290
X27940Y34290
X14478Y33361
X14478Y32472
X15518Y31496
X30988Y17308
X30988Y18197
X30988Y19050
X20320Y43180
X22860Y43180
X25273Y42545
X25400Y45720
X22860Y45720
X20320Y45720
X17780Y43180
X22860Y48260
X19050Y49530
X20320Y48260
X27940Y45720
X30480Y45720
X30480Y43180
X32766Y43180
X32766Y45720
X35560Y45720
X35560Y48260
X36830Y49530
X38100Y45720
X41910Y43180
X41910Y40640
X15240Y13970
X15240Y15240
X18186Y8992
X20066Y39751
X17653Y39751
X15367Y39751
X14478Y18070
X14478Y17156
X15594Y19050
X13335Y34290
X1270Y43180
X1270Y40640
X6350Y49530
X32766Y40005
X28194Y40132
X25527Y40132
X3683Y43434
X6350Y45720
X5969Y38100
X38100Y39370
X35560Y43561
X12573Y43180
X10160Y16510
X29337Y5715
X11430Y34925
X35560Y34290
X15240Y16383
X17601Y19050
X22833Y25157
X37338Y32893
X5080Y33020
X4572Y35941
X26162Y15240
X25527Y11125
X29210Y7620
X28956Y11176
X29362Y14021
X31750Y14859
X50165Y86614
M30